<svg width="16" height="16" viewBox="0 0 16 16" fill="none" xmlns="http://www.w3.org/2000/svg">
<path d="M14.5546 3.41215C13.6845 2.17138 12.4711 1.18897 11.0522 0.602881C11.8305 1.9731 12.3991 3.47789 12.7147 5.07367C13.4062 4.61183 14.0263 4.05128 14.5546 3.41215Z" fill="#121212"/>
<path d="M11.3257 5.82478C10.9801 3.69142 10.1346 1.72563 8.91318 0.0515484C8.6135 0.0174952 8.30879 0 8 0C7.69121 0 7.3865 0.0174952 7.08682 0.0515483C5.86543 1.72563 5.0199 3.69141 4.67433 5.82478C5.69581 6.25948 6.81982 6.5 8 6.5C9.18018 6.5 10.3042 6.25948 11.3257 5.82478Z" fill="#121212"/>
<path d="M4.51418 7.37568C5.59957 7.77938 6.77402 8 8 8C9.22598 8 10.4004 7.77938 11.4858 7.37568C11.4952 7.58261 11.5 7.79075 11.5 8C11.5 9.07901 11.3734 10.1284 11.1343 11.1343C10.1284 11.3734 9.07901 11.5 8 11.5C6.92099 11.5 5.87155 11.3734 4.86572 11.1343C4.62659 10.1284 4.5 9.07901 4.5 8C4.5 7.79075 4.50476 7.58261 4.51418 7.37568Z" fill="#121212"/>
<path d="M3.28529 5.07367C3.60086 3.47789 4.16954 1.9731 4.94776 0.602878C3.52894 1.18896 2.3155 2.17138 1.44542 3.41215C1.97374 4.05128 2.59375 4.61183 3.28529 5.07367Z" fill="#121212"/>
<path d="M15.3336 4.79843C15.7622 5.77878 16 6.86162 16 8C16 8.30879 15.9825 8.6135 15.9484 8.91318C14.9787 9.62071 13.911 10.2021 12.7696 10.6333C12.921 9.77833 13 8.89839 13 8C13 7.5601 12.9811 7.12463 12.944 6.69435C13.8352 6.18645 14.6408 5.54546 15.3336 4.79843Z" fill="#121212"/>
<path d="M0.666359 4.79843C1.3592 5.54546 2.16477 6.18645 3.05604 6.69435C3.01894 7.12463 3 7.5601 3 8C3 8.89839 3.07898 9.77833 3.23037 10.6333C2.08897 10.2021 1.02132 9.62071 0.0515484 8.91318C0.0174952 8.6135 0 8.30879 0 8C0 6.86162 0.237771 5.77878 0.666359 4.79843Z" fill="#121212"/>
<path d="M8 13C8.89839 13 9.77833 12.921 10.6333 12.7696C10.2021 13.911 9.62071 14.9787 8.91318 15.9485C8.6135 15.9825 8.30879 16 8 16C7.69121 16 7.3865 15.9825 7.08682 15.9485C6.37929 14.9787 5.79789 13.911 5.36674 12.7696C6.22167 12.921 7.10161 13 8 13Z" fill="#121212"/>
<path d="M12.3573 12.3573C12.0334 13.4259 11.5935 14.4441 11.0522 15.3971C13.0158 14.586 14.586 13.0158 15.3971 11.0522C14.4441 11.5935 13.4259 12.0334 12.3573 12.3573Z" fill="#121212"/>
<path d="M4.94776 15.3971C2.98419 14.586 1.41399 13.0158 0.602881 11.0522C1.55593 11.5935 2.57408 12.0334 3.64268 12.3573C3.96656 13.4259 4.40648 14.4441 4.94776 15.3971Z" fill="#121212"/>
</svg>
