 <svg
                            width="16"
                            height="16"
                            viewBox="0 0 18 14"
                            fill="none"
                            xmlns="http://www.w3.org/2000/svg"
                          >
                            <path
                              d="M3.33885 12.7379L3.07177 13.303L3.07178 13.303L3.33885 12.7379ZM3.33885 6.5121L3.60593 7.07716L3.33885 6.5121ZM3.87109 6.40717L3.972 5.79037L3.87109 6.40717ZM4.36743 6.72156L4.88196 6.36675H4.88196L4.36743 6.72156ZM3.87109 12.8428L3.972 13.4596L3.87109 12.8428ZM4.36743 12.5284L3.85291 12.1736H3.8529L4.36743 12.5284ZM14.6611 12.7379L14.9282 13.303L14.9282 13.303L14.6611 12.7379ZM14.6611 6.5121L14.3941 7.07716H14.3941L14.6611 6.5121ZM14.1289 6.40717L14.028 5.79037L14.1289 6.40717ZM13.6326 6.72156L13.118 6.36675L13.6326 6.72156ZM14.1289 12.8428L14.028 13.4596L14.1289 12.8428ZM13.6326 12.5284L14.1471 12.1736H14.1471L13.6326 12.5284ZM3.60593 12.1728C2.76411 11.7749 2.125 10.8069 2.125 9.625H0.875C0.875 11.2447 1.7531 12.6797 3.07177 13.303L3.60593 12.1728ZM2.125 9.625C2.125 8.4431 2.76411 7.47505 3.60593 7.07716L3.07177 5.94704C1.7531 6.57032 0.875 8.00526 0.875 9.625H2.125ZM5.125 11.8V7.45H3.875V11.8H5.125ZM3.60593 7.07716C3.65967 7.05176 3.68979 7.03767 3.71514 7.0271C3.73759 7.01773 3.74336 7.01673 3.7404 7.01745C3.73874 7.01784 3.73606 7.01838 3.7329 7.01878C3.72976 7.01918 3.72789 7.01922 3.7279 7.01922C3.72816 7.01922 3.74007 7.01904 3.77018 7.02397L3.972 5.79037C3.79483 5.76138 3.62554 5.75935 3.44759 5.80222C3.29364 5.83932 3.15679 5.90686 3.07177 5.94704L3.60593 7.07716ZM5.125 7.45C5.125 7.13641 5.14431 6.7472 4.88196 6.36675L3.85291 7.07636C3.85654 7.08164 3.85819 7.08462 3.85873 7.08564C3.85922 7.08658 3.85931 7.08685 3.85936 7.08698C3.85943 7.08715 3.86002 7.08872 3.86095 7.09249C3.86193 7.09641 3.8634 7.10328 3.865 7.11419C3.86841 7.13751 3.87148 7.17282 3.8732 7.23089C3.87494 7.28981 3.875 7.35803 3.875 7.45H5.125ZM3.77018 7.02397C3.75325 7.02119 3.74385 7.01817 3.74306 7.01791C3.74176 7.0175 3.7446 7.01835 3.75147 7.02136C3.76585 7.02765 3.78659 7.03839 3.80972 7.05305C3.83285 7.0677 3.85142 7.08185 3.86326 7.09217C3.86892 7.0971 3.8709 7.0993 3.86996 7.0983C3.8694 7.09769 3.86265 7.09049 3.85291 7.07636L4.88196 6.36675C4.76845 6.20215 4.60361 6.07625 4.4786 5.99706C4.35359 5.91788 4.16932 5.82265 3.972 5.79037L3.77018 7.02397ZM3.07178 13.303C3.15679 13.3431 3.29364 13.4107 3.44759 13.4478C3.62554 13.4907 3.79483 13.4886 3.972 13.4596L3.77018 12.226C3.74007 12.231 3.72816 12.2308 3.7279 12.2308C3.72789 12.2308 3.72976 12.2308 3.7329 12.2312C3.73606 12.2316 3.73874 12.2322 3.7404 12.2326C3.74336 12.2333 3.73759 12.2323 3.71514 12.2229C3.68979 12.2123 3.65967 12.1982 3.60593 12.1728L3.07178 13.303ZM3.875 11.8C3.875 11.892 3.87494 11.9602 3.8732 12.0191C3.87148 12.0772 3.86841 12.1125 3.865 12.1358C3.8634 12.1467 3.86193 12.1536 3.86095 12.1575C3.86002 12.1613 3.85943 12.1628 3.85936 12.163C3.85931 12.1631 3.85922 12.1634 3.85873 12.1644C3.85819 12.1654 3.85654 12.1684 3.85291 12.1736L4.88196 12.8833C5.14431 12.5028 5.125 12.1136 5.125 11.8H3.875ZM3.972 13.4596C4.16932 13.4274 4.35359 13.3321 4.4786 13.2529C4.60361 13.1738 4.76845 13.0479 4.88196 12.8833L3.8529 12.1736C3.86265 12.1595 3.8694 12.1523 3.86996 12.1517C3.8709 12.1507 3.86892 12.1529 3.86326 12.1578C3.85142 12.1681 3.83285 12.1823 3.80972 12.197C3.78659 12.2116 3.76585 12.2224 3.75147 12.2286C3.7446 12.2317 3.74176 12.2325 3.74306 12.2321C3.74385 12.2318 3.75325 12.2288 3.77018 12.226L3.972 13.4596ZM14.9282 13.303C16.2469 12.6797 17.125 11.2447 17.125 9.625H15.875C15.875 10.8069 15.2359 11.7749 14.3941 12.1728L14.9282 13.303ZM17.125 9.625C17.125 8.00526 16.2469 6.57032 14.9282 5.94704L14.3941 7.07716C15.2359 7.47505 15.875 8.4431 15.875 9.625H17.125ZM14.125 11.8V7.45H12.875V11.8H14.125ZM14.9282 5.94704C14.8432 5.90686 14.7064 5.83932 14.5524 5.80222C14.3745 5.75935 14.2052 5.76138 14.028 5.79037L14.2298 7.02397C14.2599 7.01904 14.2718 7.01922 14.2721 7.01922C14.2721 7.01922 14.2702 7.01918 14.2671 7.01878C14.2639 7.01838 14.2613 7.01784 14.2596 7.01745C14.2566 7.01673 14.2624 7.01773 14.2849 7.0271C14.3102 7.03767 14.3403 7.05176 14.3941 7.07716L14.9282 5.94704ZM14.125 7.45C14.125 7.35803 14.1251 7.28981 14.1268 7.23089C14.1285 7.17282 14.1316 7.13751 14.135 7.11419C14.1366 7.10328 14.1381 7.09641 14.139 7.09248C14.14 7.08872 14.1406 7.08715 14.1406 7.08698C14.1407 7.08685 14.1408 7.08657 14.1413 7.08564C14.1418 7.08462 14.1435 7.08164 14.1471 7.07636L13.118 6.36675C12.8557 6.7472 12.875 7.13641 12.875 7.45H14.125ZM14.028 5.79037C13.8307 5.82265 13.6464 5.91788 13.5214 5.99706C13.3964 6.07625 13.2315 6.20215 13.118 6.36675L14.1471 7.07636C14.1374 7.09049 14.1306 7.09769 14.13 7.0983C14.1291 7.0993 14.1311 7.0971 14.1367 7.09217C14.1486 7.08185 14.1671 7.0677 14.1903 7.05305C14.2134 7.03839 14.2341 7.02765 14.2485 7.02136C14.2554 7.01835 14.2582 7.0175 14.2569 7.01791C14.2562 7.01817 14.2468 7.02119 14.2298 7.02397L14.028 5.79037ZM14.3941 12.1728C14.3403 12.1982 14.3102 12.2123 14.2849 12.2229C14.2624 12.2323 14.2566 12.2333 14.2596 12.2326C14.2613 12.2322 14.2639 12.2316 14.2671 12.2312C14.2702 12.2308 14.2721 12.2308 14.2721 12.2308C14.2718 12.2308 14.2599 12.231 14.2298 12.226L14.028 13.4596C14.2052 13.4886 14.3745 13.4907 14.5524 13.4478C14.7064 13.4107 14.8432 13.3431 14.9282 13.303L14.3941 12.1728ZM12.875 11.8C12.875 12.1136 12.8557 12.5028 13.118 12.8833L14.1471 12.1736C14.1435 12.1684 14.1418 12.1654 14.1413 12.1644C14.1408 12.1634 14.1407 12.1631 14.1406 12.163C14.1406 12.1628 14.14 12.1613 14.139 12.1575C14.1381 12.1536 14.1366 12.1467 14.135 12.1358C14.1316 12.1125 14.1285 12.0772 14.1268 12.0191C14.1251 11.9602 14.125 11.892 14.125 11.8H12.875ZM14.2298 12.226C14.2468 12.2288 14.2562 12.2318 14.2569 12.2321C14.2582 12.2325 14.2554 12.2317 14.2485 12.2286C14.2341 12.2224 14.2134 12.2116 14.1903 12.197C14.1671 12.1823 14.1486 12.1681 14.1367 12.1578C14.1311 12.1529 14.1291 12.1507 14.13 12.1517C14.1306 12.1523 14.1374 12.1595 14.1471 12.1736L13.118 12.8833C13.2315 13.0479 13.3964 13.1738 13.5214 13.2529C13.6464 13.3321 13.8307 13.4274 14.028 13.4596L14.2298 12.226ZM3.625 7C3.625 4.03147 6.03147 1.625 9 1.625V0.375C5.34111 0.375 2.375 3.34111 2.375 7H3.625ZM9 1.625C11.9685 1.625 14.375 4.03147 14.375 7H15.625C15.625 3.34111 12.6589 0.375 9 0.375V1.625Z"
                              fill="#121212"
                            />
                          </svg>