 <svg
                            width="16"
                            height="16"
                            viewBox="0 0 15 18"
                            fill="none"
                            xmlns="http://www.w3.org/2000/svg"
                          >
                            <path
                              d="M4.37684 5.25C4.37684 5.59518 4.65666 5.875 5.00184 5.875C5.34702 5.875 5.62684 5.59518 5.62684 5.25H4.37684ZM5.62684 12.75C5.62684 12.4048 5.34702 12.125 5.00184 12.125C4.65666 12.125 4.37684 12.4048 4.37684 12.75H5.62684ZM5.82085 16.3365L6.1046 15.7796L6.1046 15.7796L5.82085 16.3365ZM5.16533 15.681L4.60845 15.9647L4.60845 15.9647L5.16533 15.681ZM13.8383 15.681L14.3952 15.9647L13.8383 15.681ZM13.1828 16.3365L12.8991 15.7796L12.8991 15.7796L13.1828 16.3365ZM13.1828 1.66349L12.8991 2.22037L12.8991 2.22037L13.1828 1.66349ZM13.8383 2.31901L13.2815 2.60276V2.60276L13.8383 2.31901ZM5.16533 2.31901L4.60845 2.03527L5.16533 2.31901ZM5.82085 1.66349L5.53711 1.10661V1.10661L5.82085 1.66349ZM1.25184 8.375C0.906661 8.375 0.626839 8.65482 0.626839 9C0.626839 9.34518 0.906661 9.625 1.25184 9.625L1.25184 8.375ZM9.50184 9.625C9.84702 9.625 10.1268 9.34518 10.1268 9C10.1268 8.65482 9.84702 8.375 9.50184 8.375V9.625ZM3.19378 7.19194C3.43786 6.94786 3.43786 6.55214 3.19378 6.30806C2.9497 6.06398 2.55397 6.06398 2.3099 6.30806L3.19378 7.19194ZM1.35037 8.15147L0.908426 7.70953H0.908426L1.35037 8.15147ZM1.35037 9.84853L0.908423 10.2905L0.908425 10.2905L1.35037 9.84853ZM2.3099 11.6919C2.55398 11.936 2.9497 11.936 3.19378 11.6919C3.43786 11.4479 3.43786 11.0521 3.19378 10.8081L2.3099 11.6919ZM0.849208 8.76824L1.44362 8.96137H1.44362L0.849208 8.76824ZM0.849207 9.23176L1.44362 9.03863L0.849207 9.23176ZM5.62684 5.25V3.9H4.37684V5.25H5.62684ZM7.40184 2.125H11.6018V0.875H7.40184V2.125ZM13.3768 3.9V14.1H14.6268V3.9H13.3768ZM11.6018 15.875H7.40184V17.125H11.6018V15.875ZM5.62684 14.1V12.75H4.37684V14.1H5.62684ZM7.40184 15.875C6.97149 15.875 6.68631 15.8745 6.46754 15.8566C6.25606 15.8394 6.16224 15.809 6.1046 15.7796L5.53711 16.8934C5.80033 17.0275 6.07697 17.0789 6.36575 17.1025C6.64723 17.1255 6.99211 17.125 7.40184 17.125V15.875ZM4.37684 14.1C4.37684 14.5097 4.37635 14.8546 4.39935 15.1361C4.42294 15.4249 4.47433 15.7015 4.60845 15.9647L5.72221 15.3972C5.69284 15.3396 5.66248 15.2458 5.6452 15.0343C5.62732 14.8155 5.62684 14.5304 5.62684 14.1H4.37684ZM6.1046 15.7796C5.93996 15.6957 5.8061 15.5619 5.72221 15.3972L4.60845 15.9647C4.81218 16.3646 5.13726 16.6897 5.53711 16.8934L6.1046 15.7796ZM13.3768 14.1C13.3768 14.5304 13.3764 14.8155 13.3585 15.0343C13.3412 15.2458 13.3108 15.3396 13.2815 15.3972L14.3952 15.9647C14.5293 15.7015 14.5807 15.4249 14.6043 15.1361C14.6273 14.8546 14.6268 14.5097 14.6268 14.1H13.3768ZM11.6018 17.125C12.0116 17.125 12.3564 17.1255 12.6379 17.1025C12.9267 17.0789 13.2033 17.0275 13.4666 16.8934L12.8991 15.7796C12.8414 15.809 12.7476 15.8394 12.5361 15.8566C12.3174 15.8745 12.0322 15.875 11.6018 15.875V17.125ZM13.2815 15.3972C13.1976 15.5619 13.0637 15.6957 12.8991 15.7796L13.4666 16.8934C13.8664 16.6897 14.1915 16.3646 14.3952 15.9647L13.2815 15.3972ZM11.6018 2.125C12.0322 2.125 12.3174 2.12549 12.5361 2.14336C12.7476 2.16064 12.8414 2.191 12.8991 2.22037L13.4666 1.10661C13.2033 0.972491 12.9267 0.921106 12.6379 0.897512C12.3564 0.874514 12.0116 0.875 11.6018 0.875V2.125ZM14.6268 3.9C14.6268 3.49027 14.6273 3.14539 14.6043 2.86391C14.5807 2.57513 14.5293 2.2985 14.3952 2.03527L13.2815 2.60276C13.3108 2.6604 13.3412 2.75422 13.3585 2.9657C13.3764 3.18447 13.3768 3.46965 13.3768 3.9H14.6268ZM12.8991 2.22037C13.0637 2.30426 13.1976 2.43812 13.2815 2.60276L14.3952 2.03527C14.1915 1.63543 13.8664 1.31034 13.4666 1.10661L12.8991 2.22037ZM5.62684 3.9C5.62684 3.46965 5.62732 3.18447 5.6452 2.9657C5.66248 2.75422 5.69284 2.6604 5.72221 2.60276L4.60845 2.03527C4.47433 2.2985 4.42294 2.57513 4.39935 2.86391C4.37635 3.14539 4.37684 3.49027 4.37684 3.9H5.62684ZM7.40184 0.875C6.99211 0.875 6.64723 0.874514 6.36575 0.897512C6.07697 0.921106 5.80033 0.972491 5.53711 1.10661L6.1046 2.22037C6.16224 2.191 6.25606 2.16064 6.46754 2.14336C6.68631 2.12549 6.97149 2.125 7.40184 2.125V0.875ZM5.72221 2.60276C5.8061 2.43812 5.93996 2.30426 6.1046 2.22037L5.53711 1.10661C5.13726 1.31034 4.81218 1.63543 4.60845 2.03527L5.72221 2.60276ZM1.25184 9.625L9.50184 9.625V8.375L1.25184 8.375L1.25184 9.625ZM2.3099 6.30806L0.908426 7.70953L1.79231 8.59341L3.19378 7.19194L2.3099 6.30806ZM0.908425 10.2905L2.3099 11.6919L3.19378 10.8081L1.79231 9.40659L0.908425 10.2905ZM0.908426 7.70953C0.767212 7.85074 0.634379 7.98289 0.532811 8.10253C0.426506 8.22775 0.318268 8.37976 0.254797 8.5751L1.44362 8.96137C1.43579 8.98547 1.42962 8.9776 1.48574 8.9115C1.54658 8.83982 1.63651 8.74921 1.79231 8.59341L0.908426 7.70953ZM1.79231 9.40659C1.63651 9.25079 1.54659 9.16018 1.48574 9.0885C1.42962 9.0224 1.43579 9.01453 1.44362 9.03863L0.254797 9.4249C0.318268 9.62024 0.426508 9.77225 0.532812 9.89747C0.634379 10.0171 0.767212 10.1493 0.908423 10.2905L1.79231 9.40659ZM0.254797 8.5751C0.165068 8.85126 0.165068 9.14874 0.254797 9.4249L1.44362 9.03863C1.43546 9.01352 1.43546 8.98648 1.44362 8.96137L0.254797 8.5751Z"
                              fill="#121212"
                            />
                          </svg>