 <svg
                            width="16"
                            height="16"
                            viewBox="0 0 16 16"
                            fill="none"
                            xmlns="http://www.w3.org/2000/svg"
                          >
                            <path
                              d="M12.4862 13.0436C11.4591 11.6881 9.83179 10.8125 8 10.8125C6.16821 10.8125 4.54092 11.6881 3.51385 13.0436M12.4862 13.0436C13.8751 11.8073 14.75 10.0058 14.75 8C14.75 4.27208 11.7279 1.25 8 1.25C4.27208 1.25 1.25 4.27208 1.25 8C1.25 10.0058 2.12488 11.8073 3.51385 13.0436M12.4862 13.0436C11.2936 14.1051 9.72212 14.75 8 14.75C6.27788 14.75 4.70638 14.1051 3.51385 13.0436M10.25 6.3125C10.25 7.55514 9.24264 8.5625 8 8.5625C6.75736 8.5625 5.75 7.55514 5.75 6.3125C5.75 5.06986 6.75736 4.0625 8 4.0625C9.24264 4.0625 10.25 5.06986 10.25 6.3125Z"
                              stroke="#121212"
                              strokeWidth="1.25"
                              strokeLinecap="round"
                              strokeLinejoin="round"
                            />
                          </svg>