 <svg
                      width="20"
                      height="20"
                      viewBox="0 0 20 20"
                      fill="none"
                      xmlns="http://www.w3.org/2000/svg"
                    >
                      <path
                        d="M12.8574 15.0817C14.752 14.857 16.5789 14.4116 18.3117 13.7719C16.8749 12.177 16.0004 10.0656 16.0004 7.75V7.04919C16.0005 7.03281 16.0006 7.01641 16.0006 7C16.0006 3.68629 13.3143 1 10.0006 1C6.68685 1 4.00056 3.68629 4.00056 7L4.00036 7.75C4.00036 10.0656 3.12584 12.177 1.68904 13.7719C3.42197 14.4116 5.249 14.857 7.1437 15.0818M12.8574 15.0817C11.9205 15.1928 10.9671 15.25 10.0004 15.25C9.03373 15.25 8.08044 15.1929 7.1437 15.0818M12.8574 15.0817C12.9504 15.3711 13.0006 15.6797 13.0006 16C13.0006 17.6569 11.6574 19 10.0006 19C8.34371 19 7.00056 17.6569 7.00056 16C7.00056 15.6797 7.05075 15.3712 7.1437 15.0818M1.125 5.5C1.41228 3.78764 2.18309 2.23924 3.29224 1M16.7089 1C17.818 2.23924 18.5888 3.78764 18.8761 5.5"
                        stroke="#121212"
                        strokeWidth="1.5"
                        strokeLinecap="round"
                        strokeLinejoin="round"
                      />
                    </svg>