 <svg
                            width="16"
                            height="16"
                            viewBox="0 0 16 16"
                            fill="none"
                            xmlns="http://www.w3.org/2000/svg"
                          >
                            <path
                              d="M6.19496 1.95504C6.26277 1.54819 6.61477 1.25 7.02723 1.25H8.97271C9.38516 1.25 9.73717 1.54819 9.80498 1.95504L9.96511 2.91582C10.0119 3.19636 10.1993 3.43003 10.4482 3.56777C10.5038 3.59856 10.5588 3.63038 10.6131 3.66318C10.8569 3.81038 11.1534 3.85615 11.4201 3.75624L12.3327 3.41433C12.719 3.26963 13.1532 3.42538 13.3594 3.78258L14.3322 5.46741C14.5384 5.82461 14.4562 6.27855 14.1377 6.5407L13.3845 7.16081C13.1651 7.34141 13.0563 7.62029 13.0616 7.9044C13.0622 7.93619 13.0625 7.96806 13.0625 8C13.0625 8.03193 13.0622 8.0638 13.0616 8.09559C13.0563 8.3797 13.1651 8.65858 13.3845 8.83918L14.1377 9.45929C14.4562 9.72144 14.5384 10.1754 14.3322 10.5326L13.3594 12.2174C13.1532 12.5746 12.719 12.7304 12.3327 12.5857L11.4201 12.2437C11.1534 12.1438 10.8569 12.1896 10.6131 12.3368C10.5588 12.3696 10.5038 12.4014 10.4482 12.4322C10.1993 12.57 10.0119 12.8036 9.96511 13.0842L9.80498 14.045C9.73717 14.4518 9.38516 14.75 8.97271 14.75H7.02723C6.61477 14.75 6.26277 14.4518 6.19496 14.045L6.03483 13.0842C5.98808 12.8036 5.8006 12.57 5.55177 12.4322C5.49614 12.4014 5.44115 12.3696 5.38683 12.3368C5.14305 12.1896 4.84655 12.1439 4.57988 12.2438L3.66723 12.5857C3.28099 12.7304 2.84674 12.5746 2.64051 12.2174L1.66778 10.5326C1.46155 10.1754 1.54379 9.72145 1.86222 9.45931L2.61549 8.83919C2.83487 8.65859 2.94362 8.37971 2.93835 8.0956C2.93776 8.06381 2.93747 8.03194 2.93747 8C2.93747 7.96807 2.93776 7.9362 2.93835 7.90441C2.94361 7.6203 2.83487 7.34142 2.61549 7.16082L1.86222 6.54071C1.54379 6.27856 1.46155 5.82462 1.66778 5.46742L2.64051 3.78259C2.84674 3.42539 3.28098 3.26964 3.66723 3.41434L4.57987 3.75625C4.84654 3.85616 5.14304 3.81039 5.38682 3.66318C5.44114 3.63038 5.49614 3.59857 5.55177 3.56777C5.8006 3.43003 5.98808 3.19636 6.03483 2.91582L6.19496 1.95504Z"
                              stroke="#121212"
                              strokeWidth="1.25"
                              strokeLinecap="round"
                              strokeLinejoin="round"
                            />
                            <path
                              d="M10.2498 7.99994C10.2498 9.24258 9.24244 10.2499 7.9998 10.2499C6.75715 10.2499 5.7498 9.24258 5.7498 7.99994C5.7498 6.7573 6.75715 5.74994 7.9998 5.74994C9.24244 5.74994 10.2498 6.7573 10.2498 7.99994Z"
                              stroke="#121212"
                              strokeWidth="1.25"
                              strokeLinecap="round"
                              strokeLinejoin="round"
                            />
                          </svg>