<svg width="15" height="14" viewBox="0 0 15 14" fill="none" xmlns="http://www.w3.org/2000/svg">
<path d="M12.1396 5.83333C12.1396 6.24755 12.4754 6.58333 12.8896 6.58333C13.3039 6.58333 13.6396 6.24755 13.6396 5.83333H12.1396ZM8.80631 1C8.3921 1 8.05631 1.33579 8.05631 1.75C8.05631 2.16421 8.3921 2.5 8.80631 2.5V1ZM12.8006 2.19591L13.4689 1.85542V1.85541L12.8006 2.19591ZM12.4437 1.83901L12.7842 1.17076V1.17076L12.4437 1.83901ZM12.6033 3.097C12.8962 2.8041 12.8962 2.32923 12.6033 2.03634C12.3104 1.74344 11.8355 1.74344 11.5427 2.03634L12.6033 3.097ZM7.10932 6.46967C6.81642 6.76256 6.81642 7.23744 7.10932 7.53033C7.40221 7.82322 7.87709 7.82322 8.16998 7.53033L7.10932 6.46967ZM3.47546 12.0332L3.81596 11.365H3.81596L3.47546 12.0332ZM2.6064 11.1642L1.93814 11.5047H1.93814L2.6064 11.1642ZM10.9229 11.1642L10.2546 10.8237H10.2546L10.9229 11.1642ZM10.0538 12.0332L9.71334 11.365L10.0538 12.0332ZM3.47546 3.71675L3.13497 3.04849L3.13497 3.04849L3.47546 3.71675ZM2.6064 4.58581L1.93814 4.24532L2.6064 4.58581ZM6.76465 4.25C7.17886 4.25 7.51465 3.91421 7.51465 3.5C7.51465 3.08579 7.17886 2.75 6.76465 2.75V4.25ZM11.8896 7.875C11.8896 7.46079 11.5539 7.125 11.1396 7.125C10.7254 7.125 10.3896 7.46079 10.3896 7.875H11.8896ZM13.6396 5.83333V3.05667H12.1396V5.83333H13.6396ZM11.583 1H8.80631V2.5H11.583V1ZM13.6396 3.05667C13.6396 2.84035 13.6402 2.63301 13.626 2.45921C13.6111 2.27665 13.5762 2.06611 13.4689 1.85542L12.1324 2.5364C12.114 2.5004 12.1237 2.49156 12.131 2.58136C12.1391 2.67991 12.1396 2.8156 12.1396 3.05667H13.6396ZM11.583 2.5C11.824 2.5 11.9597 2.50058 12.0583 2.50864C12.1481 2.51597 12.1393 2.52561 12.1032 2.50727L12.7842 1.17076C12.5735 1.0634 12.363 1.02853 12.1804 1.01362C12.0066 0.999417 11.7993 1 11.583 1V2.5ZM13.4689 1.85541C13.3187 1.56063 13.079 1.32096 12.7842 1.17076L12.1032 2.50727C12.1158 2.51366 12.126 2.52385 12.1324 2.5364L13.4689 1.85541ZM11.5427 2.03634L7.10932 6.46967L8.16998 7.53033L12.6033 3.097L11.5427 2.03634ZM7.95783 11.5H5.57147V13H7.95783V11.5ZM3.13965 9.06818V6.68182H1.63965V9.06818H3.13965ZM5.57147 11.5C5.00222 11.5 4.62039 11.4994 4.32641 11.4754C4.04118 11.4521 3.9053 11.4105 3.81596 11.365L3.13497 12.7015C3.47102 12.8727 3.82627 12.9395 4.20426 12.9704C4.57349 13.0006 5.02697 13 5.57147 13V11.5ZM1.63965 9.06818C1.63965 9.61268 1.63907 10.0662 1.66923 10.4354C1.70012 10.8134 1.76692 11.1686 1.93814 11.5047L3.27465 10.8237C3.22913 10.7343 3.18756 10.5985 3.16425 10.3132C3.14023 10.0193 3.13965 9.63743 3.13965 9.06818H1.63965ZM3.81596 11.365C3.58289 11.2462 3.3934 11.0568 3.27465 10.8237L1.93814 11.5047C2.2007 12.02 2.61966 12.4389 3.13497 12.7015L3.81596 11.365ZM10.3896 9.06818C10.3896 9.63743 10.3891 10.0193 10.365 10.3132C10.3417 10.5985 10.3002 10.7343 10.2546 10.8237L11.5912 11.5047C11.7624 11.1686 11.8292 10.8134 11.8601 10.4354C11.8902 10.0662 11.8896 9.61268 11.8896 9.06818H10.3896ZM7.95783 13C8.50233 13 8.9558 13.0006 9.32504 12.9704C9.70303 12.9395 10.0583 12.8727 10.3943 12.7015L9.71334 11.365C9.624 11.4105 9.48812 11.4521 9.20289 11.4754C8.9089 11.4994 8.52708 11.5 7.95783 11.5V13ZM10.2546 10.8237C10.1359 11.0568 9.94641 11.2462 9.71334 11.365L10.3943 12.7015C10.9096 12.4389 11.3286 12.02 11.5912 11.5047L10.2546 10.8237ZM5.57147 2.75C5.02697 2.75 4.57349 2.74942 4.20426 2.77958C3.82627 2.81047 3.47102 2.87727 3.13497 3.04849L3.81596 4.385C3.9053 4.33948 4.04118 4.29791 4.32641 4.2746C4.62039 4.25058 5.00222 4.25 5.57147 4.25V2.75ZM3.13965 6.68182C3.13965 6.11257 3.14023 5.73074 3.16425 5.43676C3.18756 5.15153 3.22913 5.01565 3.27465 4.92631L1.93814 4.24532C1.76692 4.58137 1.70012 4.93662 1.66923 5.31461C1.63907 5.68385 1.63965 6.13732 1.63965 6.68182H3.13965ZM3.13497 3.04849C2.61966 3.31106 2.2007 3.73001 1.93814 4.24532L3.27465 4.92631C3.3934 4.69324 3.58289 4.50376 3.81596 4.385L3.13497 3.04849ZM5.57147 4.25H6.76465V2.75H5.57147V4.25ZM10.3896 7.875V9.06818H11.8896V7.875H10.3896Z" fill="#008BFF"/>
</svg>
