<svg width="1200" height="630" viewBox="0 0 1200 630" fill="none" xmlns="http://www.w3.org/2000/svg">
<g clip-path="url(#clip0_0_6)">
<rect width="1200" height="630" fill="white"/>
<g opacity="0.7" filter="url(#filter0_f_0_6)">
<path d="M387.038 -107.589C405.607 -297.608 204.31 -152.351 82.4904 -178.21C80.9513 -178.537 79.3929 -178.785 77.8226 -178.884C-27.1567 -185.527 -97.2535 -101.851 -121.193 -55.7295C-122.349 -53.5023 -123.703 -51.4757 -125.094 -49.3919L-125.197 -49.2385C-144.242 -20.7217 -183.297 104.252 -102.111 177.474C-99.1951 180.104 -96.5527 183.344 -94.5998 186.751C-26.0649 306.323 19.0919 153.128 143.508 188.29C269.721 223.96 368.352 83.6231 387.038 -107.589Z" fill="#E8178A" fill-opacity="0.6"/>
</g>
<g opacity="0.14">
<line x1="-34.0001" y1="33.1909" x2="1569.81" y2="33.1909" stroke="black" stroke-opacity="0.3"/>
<line x1="-34.0001" y1="87.1392" x2="1569.81" y2="87.1392" stroke="black" stroke-opacity="0.3"/>
<line x1="-34.0001" y1="141.087" x2="1569.81" y2="141.087" stroke="black" stroke-opacity="0.3"/>
<line x1="-34.0001" y1="195.035" x2="1569.81" y2="195.035" stroke="black" stroke-opacity="0.3"/>
<line x1="-34.0001" y1="248.983" x2="1569.81" y2="248.983" stroke="black" stroke-opacity="0.3"/>
<line x1="-34" y1="303.845" x2="1569.81" y2="303.845" stroke="black" stroke-opacity="0.3"/>
<line x1="-34.0001" y1="357.792" x2="1569.81" y2="357.792" stroke="black" stroke-opacity="0.3"/>
<line x1="-34.0001" y1="411.741" x2="1569.81" y2="411.741" stroke="black" stroke-opacity="0.3"/>
<line x1="-34.0001" y1="465.689" x2="1569.81" y2="465.689" stroke="black" stroke-opacity="0.3"/>
<line x1="-34.0001" y1="519.637" x2="1569.81" y2="519.637" stroke="black" stroke-opacity="0.3"/>
<line x1="-34.0001" y1="574.499" x2="1569.81" y2="574.499" stroke="black" stroke-opacity="0.6"/>
<line x1="241.727" y1="-23" x2="241.727" y2="575" stroke="black" stroke-opacity="0.3"/>
<line x1="187.779" y1="-23" x2="187.779" y2="575" stroke="black" stroke-opacity="0.3"/>
<line x1="133.83" y1="-23" x2="133.83" y2="575" stroke="black" stroke-opacity="0.3"/>
<line x1="79.8822" y1="-23" x2="79.8822" y2="575" stroke="black" stroke-opacity="0.3"/>
<line x1="25.9341" y1="-23" x2="25.9341" y2="575" stroke="black" stroke-opacity="0.3"/>
<line x1="509.635" y1="-23" x2="509.635" y2="575" stroke="black" stroke-opacity="0.3"/>
<line x1="455.687" y1="-23" x2="455.687" y2="575" stroke="black" stroke-opacity="0.3"/>
<line x1="401.738" y1="-23" x2="401.738" y2="575" stroke="black" stroke-opacity="0.3"/>
<line x1="347.79" y1="-23" x2="347.79" y2="575" stroke="black" stroke-opacity="0.3"/>
<line x1="293.842" y1="-23" x2="293.842" y2="575" stroke="black" stroke-opacity="0.3"/>
<line x1="1045.46" y1="-23" x2="1045.46" y2="575" stroke="black" stroke-opacity="0.3"/>
<line x1="991.508" y1="-23" x2="991.508" y2="575" stroke="black" stroke-opacity="0.3"/>
<line x1="937.56" y1="-23" x2="937.56" y2="575" stroke="black" stroke-opacity="0.3"/>
<line x1="883.612" y1="-23" x2="883.612" y2="575" stroke="black" stroke-opacity="0.3"/>
<line x1="829.664" y1="-23" x2="829.664" y2="575" stroke="black" stroke-opacity="0.3"/>
<line x1="777.549" y1="-23" x2="777.549" y2="575" stroke="black" stroke-opacity="0.3"/>
<line x1="723.6" y1="-23" x2="723.6" y2="575" stroke="black" stroke-opacity="0.3"/>
<line x1="669.652" y1="-23" x2="669.652" y2="575" stroke="black" stroke-opacity="0.3"/>
<line x1="615.704" y1="-23" x2="615.704" y2="575" stroke="black" stroke-opacity="0.3"/>
<line x1="561.756" y1="-23" x2="561.756" y2="575" stroke="black" stroke-opacity="0.3"/>
<line x1="1151.53" y1="-23" x2="1151.53" y2="575" stroke="black" stroke-opacity="0.3"/>
<line x1="1097.58" y1="-23" x2="1097.58" y2="575" stroke="black" stroke-opacity="0.3"/>
</g>
<g opacity="0.14">
<line x1="-31.2567" y1="574.549" x2="1572.55" y2="574.549" stroke="#868585" stroke-opacity="0.4" strokeWidth="0.902081"/>
<line x1="241.727" y1="575" x2="241.727" y2="1173" stroke="black" stroke-opacity="0.3"/>
<line x1="187.779" y1="575" x2="187.779" y2="1173" stroke="black" stroke-opacity="0.3"/>
<line x1="133.83" y1="575" x2="133.83" y2="1173" stroke="black" stroke-opacity="0.3"/>
<line x1="79.8822" y1="575" x2="79.8822" y2="1173" stroke="black" stroke-opacity="0.3"/>
<line x1="25.9341" y1="575" x2="25.9341" y2="1173" stroke="black" stroke-opacity="0.3"/>
<line x1="509.635" y1="575" x2="509.635" y2="1173" stroke="black" stroke-opacity="0.3"/>
<line x1="455.687" y1="575" x2="455.687" y2="1173" stroke="black" stroke-opacity="0.3"/>
<line x1="401.738" y1="575" x2="401.738" y2="1173" stroke="black" stroke-opacity="0.3"/>
<line x1="347.79" y1="575" x2="347.79" y2="1173" stroke="black" stroke-opacity="0.3"/>
<line x1="293.842" y1="575" x2="293.842" y2="1173" stroke="black" stroke-opacity="0.3"/>
<line x1="1045.46" y1="575" x2="1045.46" y2="1173" stroke="black" stroke-opacity="0.3"/>
<line x1="991.508" y1="575" x2="991.508" y2="1173" stroke="black" stroke-opacity="0.3"/>
<line x1="937.56" y1="575" x2="937.56" y2="1173" stroke="black" stroke-opacity="0.3"/>
<line x1="883.612" y1="575" x2="883.612" y2="1173" stroke="black" stroke-opacity="0.3"/>
<line x1="829.664" y1="575" x2="829.664" y2="1173" stroke="black" stroke-opacity="0.3"/>
<line x1="777.549" y1="575" x2="777.549" y2="1173" stroke="black" stroke-opacity="0.3"/>
<line x1="723.6" y1="575" x2="723.6" y2="1173" stroke="black" stroke-opacity="0.3"/>
<line x1="669.652" y1="575" x2="669.652" y2="1173" stroke="black" stroke-opacity="0.3"/>
<line x1="615.704" y1="575" x2="615.704" y2="1173" stroke="black" stroke-opacity="0.3"/>
<line x1="561.756" y1="575" x2="561.756" y2="1173" stroke="black" stroke-opacity="0.3"/>
<line x1="1151.53" y1="575" x2="1151.53" y2="1173" stroke="black" stroke-opacity="0.3"/>
<line x1="1097.58" y1="575" x2="1097.58" y2="1173" stroke="black" stroke-opacity="0.3"/>
</g>
<path d="M1097.12 362.81C1097.12 378.826 1084.06 391.81 1067.95 391.81L943.17 391.81C927.06 391.81 914 378.826 914 362.81C914 346.794 927.06 333.81 943.17 333.81L1067.95 333.81C1084.06 333.81 1097.12 346.794 1097.12 362.81Z" fill="url(#paint0_linear_0_6)"/>
<path d="M499.012 376V365.396L488.54 345.2H495.008L501.52 358.4H502.312L508.824 345.2H515.292L504.82 365.396V376H499.012ZM525.241 376.616C523.071 376.616 521.12 376.176 519.389 375.296C517.659 374.416 516.295 373.14 515.297 371.468C514.3 369.796 513.801 367.787 513.801 365.44V364.736C513.801 362.389 514.3 360.38 515.297 358.708C516.295 357.036 517.659 355.76 519.389 354.88C521.12 354 523.071 353.56 525.241 353.56C527.412 353.56 529.363 354 531.093 354.88C532.824 355.76 534.188 357.036 535.185 358.708C536.183 360.38 536.681 362.389 536.681 364.736V365.44C536.681 367.787 536.183 369.796 535.185 371.468C534.188 373.14 532.824 374.416 531.093 375.296C529.363 376.176 527.412 376.616 525.241 376.616ZM525.241 371.688C526.943 371.688 528.351 371.145 529.465 370.06C530.58 368.945 531.137 367.361 531.137 365.308V364.868C531.137 362.815 530.58 361.245 529.465 360.16C528.38 359.045 526.972 358.488 525.241 358.488C523.54 358.488 522.132 359.045 521.017 360.16C519.903 361.245 519.345 362.815 519.345 364.868V365.308C519.345 367.361 519.903 368.945 521.017 370.06C522.132 371.145 523.54 371.688 525.241 371.688ZM550.115 376.352C548.413 376.352 546.917 375.971 545.627 375.208C544.365 374.416 543.383 373.331 542.679 371.952C541.975 370.573 541.623 368.989 541.623 367.2V354.176H547.167V366.76C547.167 368.403 547.563 369.635 548.355 370.456C549.176 371.277 550.335 371.688 551.831 371.688C553.532 371.688 554.852 371.131 555.791 370.016C556.729 368.872 557.199 367.288 557.199 365.264V354.176H562.743V376H557.287V373.14H556.495C556.143 373.873 555.483 374.592 554.515 375.296C553.547 376 552.08 376.352 550.115 376.352ZM568.912 376V354.176H574.368V356.64H575.16C575.483 355.76 576.011 355.115 576.744 354.704C577.507 354.293 578.387 354.088 579.384 354.088H582.024V359.016H579.296C577.888 359.016 576.729 359.397 575.82 360.16C574.911 360.893 574.456 362.037 574.456 363.592V376H568.912ZM610.641 376.616C608.676 376.616 607.165 376.279 606.109 375.604C605.053 374.929 604.276 374.181 603.777 373.36H602.985V376H597.529V345.2H603.073V356.684H603.865C604.188 356.156 604.613 355.657 605.141 355.188C605.699 354.719 606.417 354.337 607.297 354.044C608.207 353.721 609.321 353.56 610.641 353.56C612.401 353.56 614.029 354 615.525 354.88C617.021 355.731 618.224 356.992 619.133 358.664C620.043 360.336 620.497 362.36 620.497 364.736V365.44C620.497 367.816 620.043 369.84 619.133 371.512C618.224 373.184 617.021 374.46 615.525 375.34C614.029 376.191 612.401 376.616 610.641 376.616ZM608.969 371.776C610.671 371.776 612.093 371.233 613.237 370.148C614.381 369.033 614.953 367.42 614.953 365.308V364.868C614.953 362.756 614.381 361.157 613.237 360.072C612.123 358.957 610.7 358.4 608.969 358.4C607.268 358.4 605.845 358.957 604.701 360.072C603.557 361.157 602.985 362.756 602.985 364.868V365.308C602.985 367.42 603.557 369.033 604.701 370.148C605.845 371.233 607.268 371.776 608.969 371.776ZM635.972 376.616C633.801 376.616 631.85 376.176 630.12 375.296C628.389 374.416 627.025 373.14 626.028 371.468C625.03 369.796 624.532 367.787 624.532 365.44V364.736C624.532 362.389 625.03 360.38 626.028 358.708C627.025 357.036 628.389 355.76 630.12 354.88C631.85 354 633.801 353.56 635.972 353.56C638.142 353.56 640.093 354 641.824 354.88C643.554 355.76 644.918 357.036 645.916 358.708C646.913 360.38 647.412 362.389 647.412 364.736V365.44C647.412 367.787 646.913 369.796 645.916 371.468C644.918 373.14 643.554 374.416 641.824 375.296C640.093 376.176 638.142 376.616 635.972 376.616ZM635.972 371.688C637.673 371.688 639.081 371.145 640.196 370.06C641.31 368.945 641.868 367.361 641.868 365.308V364.868C641.868 362.815 641.31 361.245 640.196 360.16C639.11 359.045 637.702 358.488 635.972 358.488C634.27 358.488 632.862 359.045 631.748 360.16C630.633 361.245 630.076 362.815 630.076 364.868V365.308C630.076 367.361 630.633 368.945 631.748 370.06C632.862 371.145 634.27 371.688 635.972 371.688ZM662.913 376.616C660.743 376.616 658.792 376.176 657.061 375.296C655.331 374.416 653.967 373.14 652.969 371.468C651.972 369.796 651.473 367.787 651.473 365.44V364.736C651.473 362.389 651.972 360.38 652.969 358.708C653.967 357.036 655.331 355.76 657.061 354.88C658.792 354 660.743 353.56 662.913 353.56C665.084 353.56 667.035 354 668.765 354.88C670.496 355.76 671.86 357.036 672.857 358.708C673.855 360.38 674.353 362.389 674.353 364.736V365.44C674.353 367.787 673.855 369.796 672.857 371.468C671.86 373.14 670.496 374.416 668.765 375.296C667.035 376.176 665.084 376.616 662.913 376.616ZM662.913 371.688C664.615 371.688 666.023 371.145 667.137 370.06C668.252 368.945 668.809 367.361 668.809 365.308V364.868C668.809 362.815 668.252 361.245 667.137 360.16C666.052 359.045 664.644 358.488 662.913 358.488C661.212 358.488 659.804 359.045 658.689 360.16C657.575 361.245 657.017 362.815 657.017 364.868V365.308C657.017 367.361 657.575 368.945 658.689 370.06C659.804 371.145 661.212 371.688 662.913 371.688ZM679.471 376V345.2H685.015V362.228H685.807L693.023 354.176H700.239L690.163 364.736L700.591 376H693.463L685.807 367.332H685.015V376H679.471ZM704.307 376V354.176H709.763V356.552H710.555C710.936 355.819 711.567 355.188 712.447 354.66C713.327 354.103 714.485 353.824 715.923 353.824C717.477 353.824 718.724 354.132 719.663 354.748C720.601 355.335 721.32 356.112 721.819 357.08H722.611C723.109 356.141 723.813 355.364 724.723 354.748C725.632 354.132 726.923 353.824 728.595 353.824C729.944 353.824 731.161 354.117 732.247 354.704C733.361 355.261 734.241 356.127 734.887 357.3C735.561 358.444 735.899 359.896 735.899 361.656V376H730.355V362.052C730.355 360.849 730.047 359.955 729.431 359.368C728.815 358.752 727.949 358.444 726.835 358.444C725.573 358.444 724.591 358.855 723.887 359.676C723.212 360.468 722.875 361.612 722.875 363.108V376H717.331V362.052C717.331 360.849 717.023 359.955 716.407 359.368C715.791 358.752 714.925 358.444 713.811 358.444C712.549 358.444 711.567 358.855 710.863 359.676C710.188 360.468 709.851 361.612 709.851 363.108V376H704.307ZM748.637 376.616C747.083 376.616 745.689 376.352 744.457 375.824C743.225 375.267 742.243 374.475 741.509 373.448C740.805 372.392 740.453 371.116 740.453 369.62C740.453 368.124 740.805 366.877 741.509 365.88C742.243 364.853 743.24 364.091 744.501 363.592C745.792 363.064 747.259 362.8 748.901 362.8H754.885V361.568C754.885 360.541 754.563 359.705 753.917 359.06C753.272 358.385 752.245 358.048 750.837 358.048C749.459 358.048 748.432 358.371 747.757 359.016C747.083 359.632 746.643 360.439 746.437 361.436L741.333 359.72C741.685 358.605 742.243 357.593 743.005 356.684C743.797 355.745 744.839 354.997 746.129 354.44C747.449 353.853 749.048 353.56 750.925 353.56C753.8 353.56 756.073 354.279 757.745 355.716C759.417 357.153 760.253 359.236 760.253 361.964V370.104C760.253 370.984 760.664 371.424 761.485 371.424H763.245V376H759.549C758.464 376 757.569 375.736 756.865 375.208C756.161 374.68 755.809 373.976 755.809 373.096V373.052H754.973C754.856 373.404 754.592 373.873 754.181 374.46C753.771 375.017 753.125 375.516 752.245 375.956C751.365 376.396 750.163 376.616 748.637 376.616ZM749.605 372.128C751.16 372.128 752.421 371.703 753.389 370.852C754.387 369.972 754.885 368.813 754.885 367.376V366.936H749.297C748.271 366.936 747.464 367.156 746.877 367.596C746.291 368.036 745.997 368.652 745.997 369.444C745.997 370.236 746.305 370.881 746.921 371.38C747.537 371.879 748.432 372.128 749.605 372.128ZM767.299 376V354.176H772.755V356.64H773.547C773.869 355.76 774.397 355.115 775.131 354.704C775.893 354.293 776.773 354.088 777.771 354.088H780.411V359.016H777.683C776.275 359.016 775.116 359.397 774.207 360.16C773.297 360.893 772.843 362.037 772.843 363.592V376H767.299ZM784.744 376V345.2H790.288V362.228H791.08L798.296 354.176H805.512L795.436 364.736L805.864 376H798.736L791.08 367.332H790.288V376H784.744ZM818.042 376.616C815.197 376.616 812.865 376 811.046 374.768C809.228 373.536 808.128 371.776 807.746 369.488L812.85 368.168C813.056 369.195 813.393 370.001 813.862 370.588C814.361 371.175 814.962 371.6 815.666 371.864C816.4 372.099 817.192 372.216 818.042 372.216C819.333 372.216 820.286 371.996 820.902 371.556C821.518 371.087 821.826 370.515 821.826 369.84C821.826 369.165 821.533 368.652 820.946 368.3C820.36 367.919 819.421 367.611 818.13 367.376L816.898 367.156C815.373 366.863 813.98 366.467 812.718 365.968C811.457 365.44 810.445 364.721 809.682 363.812C808.92 362.903 808.538 361.729 808.538 360.292C808.538 358.121 809.33 356.464 810.914 355.32C812.498 354.147 814.581 353.56 817.162 353.56C819.597 353.56 821.621 354.103 823.234 355.188C824.848 356.273 825.904 357.696 826.402 359.456L821.254 361.04C821.02 359.925 820.536 359.133 819.802 358.664C819.098 358.195 818.218 357.96 817.162 357.96C816.106 357.96 815.3 358.151 814.742 358.532C814.185 358.884 813.906 359.383 813.906 360.028C813.906 360.732 814.2 361.26 814.786 361.612C815.373 361.935 816.165 362.184 817.162 362.36L818.394 362.58C820.037 362.873 821.518 363.269 822.838 363.768C824.188 364.237 825.244 364.927 826.006 365.836C826.798 366.716 827.194 367.919 827.194 369.444C827.194 371.732 826.358 373.507 824.686 374.768C823.044 376 820.829 376.616 818.042 376.616ZM832.449 382.468V379.476H834.165C835.514 379.476 836.189 378.801 836.189 377.452V376.044H835.441C834.267 376.044 833.285 375.692 832.493 374.988C831.73 374.284 831.349 373.389 831.349 372.304C831.349 371.131 831.73 370.177 832.493 369.444C833.285 368.711 834.267 368.344 835.441 368.344C836.643 368.344 837.626 368.725 838.389 369.488C839.151 370.221 839.533 371.219 839.533 372.48V377.54C839.533 380.825 837.89 382.468 834.605 382.468H832.449ZM854.826 376V354.176H860.282V357.036H861.074C861.426 356.273 862.086 355.555 863.054 354.88C864.022 354.176 865.489 353.824 867.454 353.824C869.155 353.824 870.637 354.22 871.898 355.012C873.189 355.775 874.186 356.845 874.89 358.224C875.594 359.573 875.946 361.157 875.946 362.976V376H870.402V363.416C870.402 361.773 869.991 360.541 869.17 359.72C868.378 358.899 867.234 358.488 865.738 358.488C864.037 358.488 862.717 359.06 861.778 360.204C860.839 361.319 860.37 362.888 860.37 364.912V376H854.826ZM892.323 376.616C890.153 376.616 888.202 376.176 886.471 375.296C884.741 374.416 883.377 373.14 882.379 371.468C881.382 369.796 880.883 367.787 880.883 365.44V364.736C880.883 362.389 881.382 360.38 882.379 358.708C883.377 357.036 884.741 355.76 886.471 354.88C888.202 354 890.153 353.56 892.323 353.56C894.494 353.56 896.445 354 898.175 354.88C899.906 355.76 901.27 357.036 902.267 358.708C903.265 360.38 903.763 362.389 903.763 364.736V365.44C903.763 367.787 903.265 369.796 902.267 371.468C901.27 373.14 899.906 374.416 898.175 375.296C896.445 376.176 894.494 376.616 892.323 376.616ZM892.323 371.688C894.025 371.688 895.433 371.145 896.547 370.06C897.662 368.945 898.219 367.361 898.219 365.308V364.868C898.219 362.815 897.662 361.245 896.547 360.16C895.462 359.045 894.054 358.488 892.323 358.488C890.622 358.488 889.214 359.045 888.099 360.16C886.985 361.245 886.427 362.815 886.427 364.868V365.308C886.427 367.361 886.985 368.945 888.099 370.06C889.214 371.145 890.622 371.688 892.323 371.688ZM910.555 376L907.475 354.176H912.975L914.911 372.26H915.703L918.519 354.176H927.407L930.223 372.26H931.015L932.951 354.176H938.451L935.371 376H926.175L923.359 357.916H922.567L919.751 376H910.555ZM963.535 376.616C960.689 376.616 958.357 376 956.539 374.768C954.72 373.536 953.62 371.776 953.239 369.488L958.343 368.168C958.548 369.195 958.885 370.001 959.355 370.588C959.853 371.175 960.455 371.6 961.159 371.864C961.892 372.099 962.684 372.216 963.535 372.216C964.825 372.216 965.779 371.996 966.395 371.556C967.011 371.087 967.319 370.515 967.319 369.84C967.319 369.165 967.025 368.652 966.439 368.3C965.852 367.919 964.913 367.611 963.623 367.376L962.391 367.156C960.865 366.863 959.472 366.467 958.211 365.968C956.949 365.44 955.937 364.721 955.175 363.812C954.412 362.903 954.031 361.729 954.031 360.292C954.031 358.121 954.823 356.464 956.407 355.32C957.991 354.147 960.073 353.56 962.655 353.56C965.089 353.56 967.113 354.103 968.727 355.188C970.34 356.273 971.396 357.696 971.895 359.456L966.747 361.04C966.512 359.925 966.028 359.133 965.295 358.664C964.591 358.195 963.711 357.96 962.655 357.96C961.599 357.96 960.792 358.151 960.235 358.532C959.677 358.884 959.399 359.383 959.399 360.028C959.399 360.732 959.692 361.26 960.279 361.612C960.865 361.935 961.657 362.184 962.655 362.36L963.887 362.58C965.529 362.873 967.011 363.269 968.331 363.768C969.68 364.237 970.736 364.927 971.499 365.836C972.291 366.716 972.687 367.919 972.687 369.444C972.687 371.732 971.851 373.507 970.179 374.768C968.536 376 966.321 376.616 963.535 376.616ZM987.929 376.616C985.758 376.616 983.808 376.176 982.077 375.296C980.346 374.416 978.982 373.14 977.985 371.468C976.988 369.796 976.489 367.787 976.489 365.44V364.736C976.489 362.389 976.988 360.38 977.985 358.708C978.982 357.036 980.346 355.76 982.077 354.88C983.808 354 985.758 353.56 987.929 353.56C990.1 353.56 992.05 354 993.781 354.88C995.512 355.76 996.876 357.036 997.873 358.708C998.87 360.38 999.369 362.389 999.369 364.736V365.44C999.369 367.787 998.87 369.796 997.873 371.468C996.876 373.14 995.512 374.416 993.781 375.296C992.05 376.176 990.1 376.616 987.929 376.616ZM987.929 371.688C989.63 371.688 991.038 371.145 992.153 370.06C993.268 368.945 993.825 367.361 993.825 365.308V364.868C993.825 362.815 993.268 361.245 992.153 360.16C991.068 359.045 989.66 358.488 987.929 358.488C986.228 358.488 984.82 359.045 983.705 360.16C982.59 361.245 982.033 362.815 982.033 364.868V365.308C982.033 367.361 982.59 368.945 983.705 370.06C984.82 371.145 986.228 371.688 987.929 371.688ZM1014.74 376.616C1012.63 376.616 1010.7 376.176 1008.97 375.296C1007.27 374.416 1005.92 373.14 1004.93 371.468C1003.93 369.796 1003.43 367.772 1003.43 365.396V364.78C1003.43 362.404 1003.93 360.38 1004.93 358.708C1005.92 357.036 1007.27 355.76 1008.97 354.88C1010.7 354 1012.63 353.56 1014.74 353.56C1016.82 353.56 1018.61 353.927 1020.11 354.66C1021.6 355.393 1022.8 356.405 1023.71 357.696C1024.65 358.957 1025.27 360.395 1025.56 362.008L1020.19 363.152C1020.08 362.272 1019.81 361.48 1019.4 360.776C1018.99 360.072 1018.4 359.515 1017.64 359.104C1016.91 358.693 1015.98 358.488 1014.87 358.488C1013.76 358.488 1012.74 358.737 1011.83 359.236C1010.95 359.705 1010.25 360.424 1009.72 361.392C1009.22 362.331 1008.97 363.489 1008.97 364.868V365.308C1008.97 366.687 1009.22 367.86 1009.72 368.828C1010.25 369.767 1010.95 370.485 1011.83 370.984C1012.74 371.453 1013.76 371.688 1014.87 371.688C1016.54 371.688 1017.8 371.263 1018.65 370.412C1019.53 369.532 1020.09 368.388 1020.33 366.98L1025.69 368.256C1025.31 369.811 1024.65 371.233 1023.71 372.524C1022.8 373.785 1021.6 374.783 1020.11 375.516C1018.61 376.249 1016.82 376.616 1014.74 376.616ZM1030.27 376V354.176H1035.81V376H1030.27ZM1033.04 351.624C1032.04 351.624 1031.19 351.301 1030.49 350.656C1029.81 350.011 1029.48 349.16 1029.48 348.104C1029.48 347.048 1029.81 346.197 1030.49 345.552C1031.19 344.907 1032.04 344.584 1033.04 344.584C1034.07 344.584 1034.92 344.907 1035.59 345.552C1036.27 346.197 1036.6 347.048 1036.6 348.104C1036.6 349.16 1036.27 350.011 1035.59 350.656C1034.92 351.301 1034.07 351.624 1033.04 351.624ZM1048.73 376.616C1047.18 376.616 1045.78 376.352 1044.55 375.824C1043.32 375.267 1042.34 374.475 1041.6 373.448C1040.9 372.392 1040.55 371.116 1040.55 369.62C1040.55 368.124 1040.9 366.877 1041.6 365.88C1042.34 364.853 1043.33 364.091 1044.6 363.592C1045.89 363.064 1047.35 362.8 1049 362.8H1054.98V361.568C1054.98 360.541 1054.66 359.705 1054.01 359.06C1053.37 358.385 1052.34 358.048 1050.93 358.048C1049.55 358.048 1048.53 358.371 1047.85 359.016C1047.18 359.632 1046.74 360.439 1046.53 361.436L1041.43 359.72C1041.78 358.605 1042.34 357.593 1043.1 356.684C1043.89 355.745 1044.93 354.997 1046.22 354.44C1047.54 353.853 1049.14 353.56 1051.02 353.56C1053.89 353.56 1056.17 354.279 1057.84 355.716C1059.51 357.153 1060.35 359.236 1060.35 361.964V370.104C1060.35 370.984 1060.76 371.424 1061.58 371.424H1063.34V376H1059.64C1058.56 376 1057.66 375.736 1056.96 375.208C1056.26 374.68 1055.9 373.976 1055.9 373.096V373.052H1055.07C1054.95 373.404 1054.69 373.873 1054.28 374.46C1053.86 375.017 1053.22 375.516 1052.34 375.956C1051.46 376.396 1050.26 376.616 1048.73 376.616ZM1049.7 372.128C1051.25 372.128 1052.52 371.703 1053.48 370.852C1054.48 369.972 1054.98 368.813 1054.98 367.376V366.936H1049.39C1048.36 366.936 1047.56 367.156 1046.97 367.596C1046.38 368.036 1046.09 368.652 1046.09 369.444C1046.09 370.236 1046.4 370.881 1047.02 371.38C1047.63 371.879 1048.53 372.128 1049.7 372.128ZM1067.39 376V345.2H1072.94V376H1067.39Z" fill="#121212"/>
<path d="M873.238 266.483V238.992H878.543L891.166 257.771H891.36V238.992H896.664V266.483H891.36L878.737 247.704H878.543V266.483H873.238Z" fill="#121212"/>
<path d="M909.327 266.871C904.642 266.871 899.647 263.386 899.647 256.416C899.647 249.446 904.642 245.962 909.327 245.962C912.928 245.962 915.251 247.936 915.755 249.059H915.871V246.349H921.059V266.483H915.871V263.773H915.755C915.251 264.896 912.928 266.871 909.327 266.871ZM904.758 256.416C904.758 260.172 907.469 262.224 910.373 262.224C913.277 262.224 915.987 260.211 915.987 256.416C915.987 252.621 913.277 250.608 910.373 250.608C907.469 250.608 904.758 252.66 904.758 256.416Z" fill="#121212"/>
<path d="M932.787 266.716C929.38 266.716 926.902 265.051 926.902 260.908V250.492H924.036V246.349H926.902V241.199H932.129V246.349H936.272V250.492H932.129V260.056C932.129 261.101 932.71 262.108 934.413 262.108C934.878 262.108 935.575 262.031 936.311 261.798V265.786C935.536 266.483 934.065 266.716 932.787 266.716Z" fill="#121212"/>
<path d="M947.972 266.871C943.287 266.871 938.292 263.386 938.292 256.416C938.292 249.446 943.287 245.962 947.972 245.962C951.573 245.962 953.896 247.936 954.4 249.059H954.516V246.349H959.704V266.483H954.516V263.773H954.4C953.896 264.896 951.573 266.871 947.972 266.871ZM943.403 256.416C943.403 260.172 946.113 262.224 949.017 262.224C951.922 262.224 954.632 260.211 954.632 256.416C954.632 252.621 951.922 250.608 949.017 250.608C946.113 250.608 943.403 252.66 943.403 256.416Z" fill="#121212"/>
<path d="M980.34 266.871C975.539 266.871 971.628 264.044 970.66 260.017L974.958 258.042C975.732 260.172 977.475 262.069 980.263 262.069C982.431 262.069 984.289 260.946 984.289 258.546C984.289 256.532 983.089 255.642 980.301 254.519L978.559 253.861C974.803 252.35 971.705 250.259 971.705 246.078C971.705 241.47 975.539 238.605 980.185 238.605C984.909 238.605 987.774 241.509 989.013 244.413L985.064 246.62C983.902 244.413 982.392 243.329 980.379 243.329C978.404 243.329 976.933 244.297 976.933 246.116C976.933 247.549 977.746 248.672 980.766 249.834L982.625 250.569C987.426 252.505 989.827 254.674 989.827 258.584C989.827 264.16 984.948 266.871 980.34 266.871Z" fill="#121212"/>
<path d="M1002.41 266.871C997.141 266.871 991.797 263.231 991.797 256.416C991.797 249.601 997.141 245.962 1002.41 245.962C1007.63 245.962 1013.02 249.601 1013.02 256.416C1013.02 263.231 1007.63 266.871 1002.41 266.871ZM996.908 256.416C996.908 260.017 999.503 262.185 1002.41 262.185C1005.31 262.185 1007.87 260.017 1007.87 256.416C1007.87 252.815 1005.31 250.647 1002.41 250.647C999.503 250.647 996.908 252.815 996.908 256.416Z" fill="#121212"/>
<path d="M1025.62 266.871C1020.32 266.871 1015.01 263.231 1015.01 256.416C1015.01 249.601 1020.32 245.962 1025.62 245.962C1029.19 245.962 1032.36 247.627 1034.3 250.918L1030.5 253.357C1029.46 251.77 1027.75 250.647 1025.66 250.647C1022.76 250.647 1020.13 252.815 1020.13 256.416C1020.13 260.017 1022.76 262.185 1025.66 262.185C1027.75 262.185 1029.46 261.063 1030.5 259.475L1034.3 261.914C1032.36 265.167 1029.19 266.871 1025.62 266.871Z" fill="#121212"/>
<path d="M1037.27 266.483V246.349H1042.46V266.483H1037.27ZM1037.27 243.561V238.992H1042.46V243.561H1037.27Z" fill="#121212"/>
<path d="M1055.13 266.871C1050.45 266.871 1045.45 263.386 1045.45 256.416C1045.45 249.446 1050.45 245.962 1055.13 245.962C1058.74 245.962 1061.06 247.936 1061.56 249.059H1061.68V246.349H1066.87V266.483H1061.68V263.773H1061.56C1061.06 264.896 1058.74 266.871 1055.13 266.871ZM1050.57 256.416C1050.57 260.172 1053.28 262.224 1056.18 262.224C1059.08 262.224 1061.79 260.211 1061.79 256.416C1061.79 252.621 1059.08 250.608 1056.18 250.608C1053.28 250.608 1050.57 252.66 1050.57 256.416Z" fill="#121212"/>
<path d="M1070.81 266.483V238.992H1076V266.483H1070.81Z" fill="#121212"/>
<path d="M785 252.76C785 232.458 801.458 216 821.76 216C842.062 216 858.52 232.458 858.52 252.76C858.52 273.062 842.062 289.52 821.76 289.52C801.458 289.52 785 273.062 785 252.76Z" fill="#121212"/>
<path d="M826.781 273.836C826.781 274.919 825.903 275.796 824.82 275.796H808.771C807.689 275.796 806.811 274.919 806.811 273.836V245.598C806.811 240.566 811.282 236.486 816.796 236.486C822.31 236.486 826.781 240.566 826.781 245.598V273.836Z" fill="white"/>
<path d="M816.875 231.684C816.875 230.601 817.752 229.724 818.835 229.724L834.884 229.724C835.967 229.724 836.845 230.601 836.845 231.684L836.845 259.922C836.845 264.954 832.374 269.034 826.86 269.034C821.345 269.034 816.875 264.954 816.875 259.922V231.684Z" fill="white"/>
<path d="M826.781 244.472C825.152 237.73 819.717 236.381 816.882 236.504V260.371C817.523 267.825 822.922 268.92 826.743 269.043C826.743 261.516 826.781 252.076 826.781 244.472Z" fill="#121212"/>
</g>
<defs>
<filter id="filter0_f_0_6" x="-551.471" y="-607.134" width="1339.71" height="1240.34" filterUnits="userSpaceOnUse" color-interpolation-filters="sRGB">
<feFlood flood-opacity="0" result="BackgroundImageFix"/>
<feBlend mode="normal" in="SourceGraphic" in2="BackgroundImageFix" result="shape"/>
<feGaussianBlur stdDeviation="200" result="effect1_foregroundBlur_0_6"/>
</filter>
<linearGradient id="paint0_linear_0_6" x1="919.5" y1="362.81" x2="1104.11" y2="362.771" gradientUnits="userSpaceOnUse">
<stop offset="0.236641" stop-color="#C7FFF2" stop-opacity="0"/>
<stop offset="0.424509" stop-color="#C7FFF2"/>
<stop offset="1" stop-color="#00FABF"/>
</linearGradient>
<clipPath id="clip0_0_6">
<rect width="1200" height="630" fill="white"/>
</clipPath>
</defs>
</svg>
