<svg width="1440" height="661" viewBox="0 0 1440 661" fill="none" xmlns="http://www.w3.org/2000/svg">
<g opacity="0.1">
<line x1="-171.1" y1="63.0686" x2="1598.99" y2="63.0686" stroke="black" stroke-opacity="0.3"/>
<line x1="-168.072" y1="0.54896" x2="1602.02" y2="0.54896" stroke="#868585" stroke-opacity="0.4" stroke-width="0.902081"/>
<line x1="-171.1" y1="122.61" x2="1598.99" y2="122.61" stroke="black" stroke-opacity="0.3"/>
<line x1="-171.1" y1="182.152" x2="1598.99" y2="182.152" stroke="black" stroke-opacity="0.3"/>
<line x1="-171.1" y1="241.692" x2="1598.99" y2="241.692" stroke="black" stroke-opacity="0.3"/>
<line x1="-171.1" y1="301.234" x2="1598.99" y2="301.234" stroke="black" stroke-opacity="0.3"/>
<line x1="-171.1" y1="361.784" x2="1598.99" y2="361.784" stroke="black" stroke-opacity="0.3"/>
<line x1="-171.1" y1="421.324" x2="1598.99" y2="421.324" stroke="black" stroke-opacity="0.3"/>
<line x1="-171.1" y1="480.866" x2="1598.99" y2="480.866" stroke="black" stroke-opacity="0.3"/>
<line x1="-171.1" y1="540.407" x2="1598.99" y2="540.407" stroke="black" stroke-opacity="0.3"/>
<line x1="-171.1" y1="599.949" x2="1598.99" y2="599.949" stroke="black" stroke-opacity="0.3"/>
<line x1="-171.1" y1="660.499" x2="1598.99" y2="660.499" stroke="black" stroke-opacity="0.6"/>
<line x1="133.163" y1="1" x2="133.163" y2="661" stroke="black" stroke-opacity="0.3"/>
<line x1="73.621" y1="1" x2="73.6209" y2="661" stroke="black" stroke-opacity="0.3"/>
<line x1="14.0795" y1="1" x2="14.0794" y2="661" stroke="black" stroke-opacity="0.3"/>
<line x1="428.847" y1="1" x2="428.847" y2="661" stroke="black" stroke-opacity="0.3"/>
<line x1="369.305" y1="1" x2="369.305" y2="661" stroke="black" stroke-opacity="0.3"/>
<line x1="309.764" y1="1" x2="309.764" y2="661" stroke="black" stroke-opacity="0.3"/>
<line x1="250.222" y1="1" x2="250.222" y2="661" stroke="black" stroke-opacity="0.3"/>
<line x1="190.681" y1="1" x2="190.681" y2="661" stroke="black" stroke-opacity="0.3"/>
<line x1="1020.22" y1="1" x2="1020.22" y2="661" stroke="black" stroke-opacity="0.3"/>
<line x1="960.68" y1="1" x2="960.68" y2="661" stroke="black" stroke-opacity="0.3"/>
<line x1="901.139" y1="1" x2="901.139" y2="661" stroke="black" stroke-opacity="0.3"/>
<line x1="841.597" y1="1" x2="841.597" y2="661" stroke="black" stroke-opacity="0.3"/>
<line x1="782.056" y1="1" x2="782.056" y2="661" stroke="black" stroke-opacity="0.3"/>
<line x1="724.538" y1="1" x2="724.538" y2="661" stroke="black" stroke-opacity="0.3"/>
<line x1="664.996" y1="1" x2="664.996" y2="661" stroke="black" stroke-opacity="0.3"/>
<line x1="605.455" y1="1" x2="605.455" y2="661" stroke="black" stroke-opacity="0.3"/>
<line x1="545.913" y1="1" x2="545.913" y2="661" stroke="black" stroke-opacity="0.3"/>
<line x1="486.372" y1="1" x2="486.372" y2="661" stroke="black" stroke-opacity="0.3"/>
<line x1="1315.92" y1="1" x2="1315.92" y2="661" stroke="black" stroke-opacity="0.3"/>
<line x1="1256.38" y1="1" x2="1256.38" y2="661" stroke="black" stroke-opacity="0.3"/>
<line x1="1196.83" y1="1" x2="1196.83" y2="661" stroke="black" stroke-opacity="0.3"/>
<line x1="1137.29" y1="1" x2="1137.29" y2="661" stroke="black" stroke-opacity="0.3"/>
<line x1="1077.75" y1="1" x2="1077.75" y2="661" stroke="black" stroke-opacity="0.3"/>
<line x1="1432.98" y1="1" x2="1432.98" y2="661" stroke="black" stroke-opacity="0.3"/>
<line x1="1373.44" y1="1" x2="1373.44" y2="661" stroke="black" stroke-opacity="0.3"/>
</g>
</svg>
