<svg width="44" height="44" viewBox="0 0 44 44" fill="none" xmlns="http://www.w3.org/2000/svg">
<rect width="43.1852" height="44" rx="21.5926" fill="#121212"/>
<path fill-rule="evenodd" clip-rule="evenodd" d="M15.8125 13.0625C14.2937 13.0625 13.0625 14.2937 13.0625 15.8125V19.7707C13.0625 20.5 13.3522 21.1995 13.868 21.7152L22.6506 30.4979C23.4934 31.3406 24.8407 31.585 25.9026 30.8898C27.8889 29.5894 29.5894 27.8889 30.8898 25.9026C31.585 24.8407 31.3406 23.4934 30.4979 22.6506L21.7152 13.868C21.1995 13.3522 20.5 13.0625 19.7707 13.0625H15.8125ZM16.8438 17.875C17.4133 17.875 17.875 17.4133 17.875 16.8438C17.875 16.2742 17.4133 15.8125 16.8438 15.8125C16.2742 15.8125 15.8125 16.2742 15.8125 16.8438C15.8125 17.4133 16.2742 17.875 16.8438 17.875Z" fill="white"/>
</svg>
