<svg width="44" height="44" viewBox="0 0 44 44" fill="none" xmlns="http://www.w3.org/2000/svg">
<rect width="43.1852" height="44" rx="21.5926" fill="#121212"/>
<path fill-rule="evenodd" clip-rule="evenodd" d="M19.5388 17.9517C22.1793 14.5594 26.3034 12.3752 30.9375 12.375C31.1198 12.375 31.2947 12.4474 31.4236 12.5764C31.5526 12.7053 31.625 12.8802 31.625 13.0625C31.625 17.6968 29.4408 21.8213 26.0484 24.462C26.0989 24.7801 26.125 25.106 26.125 25.4375C26.125 28.8548 23.3548 31.625 19.9375 31.625C19.5578 31.625 19.25 31.3172 19.25 30.9375V27.1503C19.2415 27.1441 19.2332 27.1378 19.2249 27.1313C18.3522 26.4393 17.5615 25.6486 16.8695 24.7759C16.8628 24.7674 16.8563 24.7588 16.85 24.75H13.0625C12.6828 24.75 12.375 24.4422 12.375 24.0625C12.375 20.6452 15.1452 17.875 18.5625 17.875C18.8943 17.875 19.2204 17.9012 19.5388 17.9517ZM24.75 17.1875C23.6109 17.1875 22.6875 18.1109 22.6875 19.25C22.6875 20.3891 23.6109 21.3125 24.75 21.3125C25.8891 21.3125 26.8125 20.3891 26.8125 19.25C26.8125 18.1109 25.8891 17.1875 24.75 17.1875Z" fill="white"/>
<path d="M15.822 26.805C16.1263 26.578 16.189 26.1472 15.962 25.8429C15.7349 25.5385 15.3042 25.4759 14.9998 25.7029C13.8252 26.5791 13.0625 27.9818 13.0625 29.5624C13.0625 29.815 13.082 30.0635 13.1198 30.3064C13.1657 30.6022 13.3978 30.8342 13.6936 30.8802C13.9364 30.9179 14.1849 30.9374 14.4375 30.9374C16.0181 30.9374 17.4208 30.1747 18.297 29.0001C18.5241 28.6958 18.4614 28.265 18.1571 28.0379C17.8527 27.8109 17.422 27.8736 17.1949 28.1779C16.567 29.0196 15.5657 29.5624 14.4375 29.5624C14.4375 28.4342 14.9803 27.4329 15.822 26.805Z" fill="white"/>
</svg>
