<svg width="44" height="44" viewBox="0 0 44 44" fill="none" xmlns="http://www.w3.org/2000/svg">
<rect width="43.1852" height="44" rx="21.5926" fill="#121212"/>
<path fill-rule="evenodd" clip-rule="evenodd" d="M22 14.4375C20.7379 14.4375 19.566 14.8146 18.5882 15.4622C18.2717 15.6719 17.8451 15.5852 17.6354 15.2687C17.4257 14.9521 17.5124 14.5255 17.829 14.3159C19.0249 13.5238 20.4596 13.0625 22 13.0625C26.1767 13.0625 29.5625 16.4483 29.5625 20.625C29.5625 23.389 29.0363 26.0317 28.0774 28.4572C27.9378 28.8103 27.5384 28.9834 27.1853 28.8438C26.8322 28.7042 26.6591 28.3048 26.7987 27.9517C27.695 25.6846 28.1875 23.2132 28.1875 20.625C28.1875 17.2077 25.4173 14.4375 22 14.4375ZM16.6437 16.2604C16.9602 16.4701 17.0469 16.8967 16.8372 17.2132C16.1896 18.191 15.8125 19.3629 15.8125 20.625C15.8125 22.1037 15.3877 23.4854 14.6526 24.6519C14.4501 24.9731 14.0256 25.0694 13.7044 24.867C13.3832 24.6646 13.2868 24.24 13.4893 23.9188C14.09 22.9655 14.4375 21.837 14.4375 20.625C14.4375 19.0846 14.8988 17.6499 15.6909 16.454C15.9005 16.1374 16.3271 16.0507 16.6437 16.2604ZM22 17.875C20.4812 17.875 19.25 19.1062 19.25 20.625C19.25 23.4664 18.172 26.0577 16.4034 28.0093C16.1484 28.2907 15.7137 28.3121 15.4323 28.0571C15.151 27.8021 15.1296 27.3673 15.3845 27.086C16.9328 25.3775 17.875 23.1121 17.875 20.625C17.875 18.3468 19.7218 16.5 22 16.5C24.2782 16.5 26.125 18.3468 26.125 20.625C26.125 21.1266 26.1046 21.6239 26.064 22.1159C26.0327 22.4943 25.7006 22.7757 25.3222 22.7444C24.9438 22.7132 24.6624 22.3811 24.6936 22.0027C24.7311 21.5488 24.75 21.0894 24.75 20.625C24.75 19.1062 23.5188 17.875 22 17.875ZM22.0003 19.9375C22.38 19.9375 22.6878 20.2453 22.6878 20.625C22.6878 24.2075 21.3821 27.4867 19.2215 30.0102C18.9745 30.2986 18.5405 30.3322 18.2521 30.0853C17.9637 29.8383 17.9301 29.4043 18.177 29.1159C20.1324 26.8322 21.3128 23.8673 21.3128 20.625C21.3128 20.2453 21.6206 19.9375 22.0003 19.9375ZM24.9688 24.6886C25.334 24.7928 25.5455 25.1733 25.4413 25.5384C24.9189 27.3695 24.1121 29.0803 23.0719 30.6199C22.8593 30.9345 22.432 31.0172 22.1174 30.8047C21.8027 30.5921 21.72 30.1647 21.9326 29.8501C22.8929 28.4287 23.6373 26.8501 24.1191 25.1612C24.2233 24.796 24.6037 24.5845 24.9688 24.6886Z" fill="white"/>
</svg>
