<svg width="44" height="44" viewBox="0 0 44 44" fill="none" xmlns="http://www.w3.org/2000/svg">
<rect width="43.1852" height="44" rx="21.5926" fill="#121212"/>
<path fill-rule="evenodd" clip-rule="evenodd" d="M13.4062 17.1875C13.4062 16.618 13.868 16.1562 14.4375 16.1562C15.007 16.1562 15.4688 16.618 15.4688 17.1875C15.4688 17.757 15.007 18.2188 14.4375 18.2188C13.868 18.2188 13.4062 17.757 13.4062 17.1875ZM17.875 17.1875C17.875 16.8078 18.1828 16.5 18.5625 16.5H29.5625C29.9422 16.5 30.25 16.8078 30.25 17.1875C30.25 17.5672 29.9422 17.875 29.5625 17.875H18.5625C18.1828 17.875 17.875 17.5672 17.875 17.1875ZM13.4062 22C13.4062 21.4305 13.868 20.9688 14.4375 20.9688C15.007 20.9688 15.4688 21.4305 15.4688 22C15.4688 22.5695 15.007 23.0312 14.4375 23.0312C13.868 23.0312 13.4062 22.5695 13.4062 22ZM17.875 22C17.875 21.6203 18.1828 21.3125 18.5625 21.3125H29.5625C29.9422 21.3125 30.25 21.6203 30.25 22C30.25 22.3797 29.9422 22.6875 29.5625 22.6875H18.5625C18.1828 22.6875 17.875 22.3797 17.875 22ZM13.4062 26.8125C13.4062 26.243 13.868 25.7812 14.4375 25.7812C15.007 25.7812 15.4688 26.243 15.4688 26.8125C15.4688 27.382 15.007 27.8438 14.4375 27.8438C13.868 27.8438 13.4062 27.382 13.4062 26.8125ZM17.875 26.8125C17.875 26.4328 18.1828 26.125 18.5625 26.125H29.5625C29.9422 26.125 30.25 26.4328 30.25 26.8125C30.25 27.1922 29.9422 27.5 29.5625 27.5H18.5625C18.1828 27.5 17.875 27.1922 17.875 26.8125Z" fill="white"/>
</svg>
