<svg width="21" height="17" viewBox="0 0 21 17" fill="none" xmlns="http://www.w3.org/2000/svg">
<path d="M13.8023 0.752575V0.749023H14.727L15.0649 0.816504C15.2901 0.860313 15.4946 0.917725 15.6784 0.988757C15.8621 1.05979 16.0399 1.14267 16.2118 1.23737C16.3837 1.33207 16.5396 1.42857 16.6795 1.52683C16.8182 1.62391 16.9427 1.72691 17.053 1.83582C17.162 1.94592 17.3321 1.97433 17.5633 1.92105C17.7945 1.86778 18.0434 1.79378 18.3102 1.69908C18.5769 1.60438 18.8407 1.49783 19.1015 1.37943C19.3623 1.26104 19.5212 1.18587 19.5781 1.15391C19.6338 1.12077 19.6635 1.10301 19.667 1.10063L19.6706 1.09531L19.6883 1.08643L19.7061 1.07755L19.7239 1.06867L19.7417 1.05979L19.7452 1.05446L19.7506 1.05091L19.7559 1.04736L19.7595 1.04203L19.7772 1.0367L19.795 1.03315L19.7915 1.05979L19.7861 1.08643L19.7772 1.11306L19.7684 1.1397L19.7595 1.15746L19.7506 1.17522L19.7417 1.20185C19.7358 1.21961 19.7298 1.24328 19.7239 1.27289C19.718 1.30249 19.6617 1.42086 19.555 1.62805C19.4483 1.83523 19.3149 2.04536 19.1549 2.25846C18.9948 2.47155 18.8514 2.63255 18.7245 2.74148C18.5965 2.85158 18.5117 2.92852 18.4702 2.97233C18.4287 3.01731 18.3784 3.05874 18.3191 3.09664L18.2302 3.15524L18.2124 3.16412L18.1946 3.173L18.1911 3.17832L18.1857 3.18188L18.1804 3.18543L18.1768 3.19075L18.159 3.19963L18.1412 3.20851L18.1377 3.21384L18.1324 3.21739L18.127 3.22094L18.1235 3.22627L18.1199 3.2316L18.1146 3.23515L18.1092 3.2387L18.1057 3.24403H18.1946L18.6925 3.13748C19.0245 3.06645 19.3416 2.98062 19.6439 2.87999L20.124 2.72017L20.1774 2.70241L20.204 2.69353L20.2218 2.68465L20.2396 2.67577L20.2574 2.66689L20.2752 2.65801L20.3107 2.65269L20.3463 2.64913V2.68465L20.3374 2.6882L20.3285 2.69353L20.325 2.69886L20.3196 2.70241L20.3143 2.70596L20.3107 2.71129L20.3072 2.71662L20.3018 2.72017L20.2965 2.72372L20.2929 2.72905L20.2894 2.73437L20.2841 2.73792L20.2752 2.75568L20.2663 2.77344L20.2609 2.77699C20.2586 2.78054 20.1833 2.88116 20.0351 3.07888C19.8869 3.27777 19.8069 3.37839 19.795 3.38077C19.7832 3.38432 19.7666 3.40208 19.7452 3.43404C19.7251 3.46718 19.5994 3.59919 19.3682 3.83004C19.1371 4.0609 18.9107 4.26629 18.689 4.44625C18.4661 4.62738 18.3535 4.84994 18.3511 5.11395C18.3475 5.37677 18.3339 5.67393 18.3102 6.00541C18.2865 6.33689 18.242 6.695 18.1768 7.07977C18.1116 7.46453 18.0108 7.8996 17.8745 8.38498C17.7382 8.87036 17.5722 9.34392 17.3766 9.80563C17.181 10.2673 16.9765 10.6817 16.7631 11.0487C16.5497 11.4157 16.3541 11.7265 16.1763 11.981C15.9984 12.2355 15.8177 12.4752 15.6339 12.7002C15.4502 12.9251 15.2178 13.1785 14.9368 13.4602C14.6547 13.7408 14.5006 13.8947 14.4745 13.9219C14.4472 13.948 14.3311 14.0451 14.1259 14.2132C13.922 14.3825 13.7027 14.5517 13.468 14.7211C13.2344 14.8892 13.0199 15.0295 12.8242 15.1419C12.6286 15.2544 12.3927 15.3828 12.1165 15.5273C11.8415 15.6729 11.5439 15.8078 11.2238 15.9322C10.9037 16.0565 10.5659 16.1719 10.2102 16.2784C9.85455 16.385 9.51076 16.4679 9.17881 16.527C8.84688 16.5862 8.47047 16.6366 8.04961 16.678L7.41833 16.7401V16.749H6.26246V16.7401L6.1113 16.7313C6.01055 16.7254 5.92756 16.7194 5.86235 16.7135C5.79716 16.7076 5.55115 16.675 5.12437 16.6158C4.69759 16.5567 4.36269 16.4974 4.11965 16.4383C3.87663 16.3791 3.51504 16.2666 3.03491 16.1009C2.55478 15.9351 2.144 15.7676 1.80258 15.5983C1.46234 15.4302 1.24895 15.3236 1.1624 15.2787C1.07704 15.2348 0.981019 15.1804 0.874323 15.1153L0.714279 15.0176L0.710741 15.0123L0.705388 15.0087L0.700053 15.0052L0.696497 14.9999L0.678714 14.991L0.660931 14.9821L0.657393 14.9768L0.65204 14.9732L0.646705 14.9697L0.643149 14.9643L0.63961 14.959L0.634258 14.9555H0.625366V14.9199L0.643149 14.9235L0.660931 14.9288L0.740953 14.9377C0.794301 14.9436 0.939532 14.9525 1.17663 14.9643C1.41374 14.9762 1.66565 14.9762 1.93239 14.9643C2.19913 14.9525 2.47181 14.9259 2.75039 14.8844C3.02899 14.843 3.35797 14.772 3.73732 14.6713C4.1167 14.5707 4.46524 14.4511 4.78296 14.3126C5.09949 14.1729 5.32473 14.0687 5.4587 14.0001C5.59147 13.9326 5.79419 13.8071 6.06685 13.6236L6.47585 13.3484L6.47941 13.343L6.48474 13.3395L6.49009 13.3359L6.49363 13.3306L6.49719 13.3253L6.50252 13.3217L6.50787 13.3182L6.51141 13.3128L6.5292 13.3075L6.54698 13.304L6.55054 13.2862L6.55587 13.2684L6.56122 13.2649L6.56476 13.2596L6.4225 13.2507C6.32767 13.2448 6.23578 13.2388 6.14687 13.2329C6.05796 13.227 5.91867 13.2004 5.72898 13.153C5.53931 13.1057 5.33481 13.0346 5.11548 12.9399C4.89616 12.8452 4.68277 12.7327 4.4753 12.6025C4.26785 12.4723 4.11787 12.364 4.0254 12.2775C3.93413 12.1923 3.81557 12.0716 3.66975 11.9153C3.52512 11.7578 3.39946 11.5962 3.29276 11.4305C3.18606 11.2648 3.08412 11.0735 2.98692 10.8569L2.8393 10.5337L2.83041 10.5071L2.82152 10.4804L2.81619 10.4627L2.81263 10.4449L2.8393 10.4485L2.86598 10.4538L3.06159 10.4804C3.192 10.4982 3.3965 10.5041 3.67509 10.4982C3.95369 10.4923 4.14633 10.4804 4.25302 10.4627C4.35972 10.4449 4.42493 10.4331 4.44863 10.4272L4.48419 10.4183L4.52865 10.4094L4.57311 10.4005L4.57666 10.3952L4.582 10.3916L4.58735 10.3881L4.59089 10.3828L4.55533 10.3739L4.51976 10.365L4.48419 10.3561L4.44863 10.3472L4.41306 10.3384C4.38936 10.3325 4.34787 10.3206 4.28859 10.3029C4.22932 10.2851 4.06927 10.22 3.80846 10.1075C3.54766 9.99505 3.34019 9.88554 3.18606 9.77899C3.03156 9.67213 2.88424 9.55527 2.74505 9.42916C2.60635 9.3013 2.45402 9.13674 2.28804 8.93548C2.12208 8.73423 1.97389 8.50041 1.84348 8.23404C1.71308 7.96767 1.61527 7.71314 1.55006 7.47044C1.48512 7.22917 1.44227 6.9825 1.42205 6.73349L1.39002 6.36057L1.4078 6.36412L1.42558 6.36945L1.44337 6.37832L1.46115 6.3872L1.47893 6.39608L1.49671 6.40496L1.77235 6.52927C1.95611 6.61214 2.18432 6.68318 2.45698 6.74236C2.72965 6.80155 2.89265 6.83412 2.946 6.84003L3.02602 6.84891H3.18606L3.18252 6.84359L3.17717 6.84003L3.17184 6.83648L3.16828 6.83115L3.16474 6.82583L3.15939 6.82228L3.15405 6.81872L3.1505 6.8134L3.13272 6.80452L3.11493 6.79564L3.11139 6.79031L3.10604 6.78676L3.10071 6.78321L3.09715 6.77788L3.07937 6.769L3.06159 6.76012L3.05805 6.7548C3.05449 6.75242 3.00351 6.71454 2.9051 6.64114C2.80788 6.56656 2.70593 6.47008 2.59924 6.35169C2.49254 6.23329 2.38585 6.10899 2.27915 5.97877C2.17226 5.84825 2.07705 5.70861 1.99463 5.56145C1.91165 5.41348 1.82391 5.22522 1.73145 4.99675C1.64017 4.76945 1.57081 4.54037 1.52339 4.30951C1.47598 4.07866 1.44931 3.85077 1.44337 3.62583C1.43745 3.40089 1.44337 3.20851 1.46115 3.04869C1.47893 2.88887 1.5145 2.70832 1.56785 2.50707C1.62119 2.30582 1.69826 2.09272 1.79902 1.86778L1.95017 1.53038L1.95906 1.50374L1.96795 1.4771L1.97331 1.47355L1.97685 1.46822L1.9804 1.4629L1.98574 1.45935L1.99109 1.4629L1.99463 1.46822L1.99818 1.47355L2.00352 1.4771L2.00887 1.48065L2.01241 1.48598L2.01597 1.49131L2.0213 1.49486L2.03019 1.51262L2.03908 1.53038L2.04444 1.53393L2.04798 1.53926L2.28804 1.80563C2.44808 1.98321 2.63777 2.18151 2.85709 2.40052C3.07642 2.61953 3.19792 2.73318 3.22163 2.74148C3.24535 2.75094 3.27498 2.77816 3.31054 2.82316C3.34611 2.86697 3.46466 2.97174 3.66619 3.13748C3.86774 3.30322 4.13151 3.49561 4.45752 3.71462C4.78355 3.93363 5.14512 4.14969 5.54226 4.36279C5.93942 4.57588 6.3662 4.76826 6.82261 4.93992C7.27904 5.11159 7.59912 5.22405 7.78287 5.27733C7.96664 5.3306 8.28078 5.39867 8.72535 5.48154C9.16992 5.56442 9.50483 5.61769 9.73007 5.64137C9.95532 5.66504 10.1094 5.67866 10.1924 5.68221L10.3169 5.68576L10.3134 5.65912L10.308 5.63249L10.2724 5.41051C10.2487 5.26253 10.2369 5.05535 10.2369 4.78898C10.2369 4.52261 10.2576 4.27696 10.2991 4.05202C10.3406 3.82708 10.4029 3.59919 10.4858 3.36834C10.5688 3.13748 10.65 2.95219 10.7295 2.81251C10.8101 2.674 10.9156 2.51595 11.046 2.33837C11.1764 2.16079 11.3453 1.97729 11.5528 1.78787C11.7603 1.59844 11.9974 1.42974 12.2641 1.28176C12.5308 1.13379 12.7768 1.02131 13.0021 0.944362C13.2273 0.867416 13.417 0.81709 13.5711 0.793419C13.7252 0.769747 13.8023 0.756127 13.8023 0.752575V0.752575Z" fill="white"/>
</svg>
