<svg width="18" height="17" viewBox="0 0 18 17" fill="none" xmlns="http://www.w3.org/2000/svg">
<path d="M0.992706 2.10761C0.992706 1.56888 1.1819 1.12443 1.56027 0.774276C1.93865 0.424102 2.43055 0.249023 3.03595 0.249023C3.63055 0.249023 4.11162 0.421403 4.47919 0.766195C4.85757 1.12175 5.04676 1.58504 5.04676 2.15609C5.04676 2.67327 4.86298 3.10423 4.49541 3.44902C4.11704 3.80458 3.61973 3.98236 3.00352 3.98236H2.9873C2.3927 3.98236 1.91163 3.80458 1.54406 3.44902C1.17648 3.09347 0.992706 2.64632 0.992706 2.10761ZM1.20352 16.249V5.45306H4.80352V16.249H1.20352ZM6.79811 16.249H10.3981V10.2207C10.3981 9.84363 10.4414 9.55272 10.5278 9.34801C10.6792 8.98168 10.9089 8.67191 11.217 8.41872C11.5251 8.16552 11.9116 8.03892 12.3765 8.03892C13.5873 8.03892 14.1927 8.85238 14.1927 10.4793V16.249H17.7927V10.0591C17.7927 8.46451 17.4143 7.25508 16.6576 6.43084C15.9008 5.6066 14.9008 5.19448 13.6576 5.19448C12.263 5.19448 11.1765 5.79246 10.3981 6.98842V7.02074H10.3819L10.3981 6.98842V5.45306H6.79811C6.81973 5.79784 6.83055 6.86989 6.83055 8.66923C6.83055 10.4685 6.81973 12.9951 6.79811 16.249Z" fill="white"/>
</svg>
