<svg width="22" height="17" viewBox="0 0 22 17" fill="none" xmlns="http://www.w3.org/2000/svg">
<path d="M18.9928 2.52334C17.1197 1.01604 14.1565 0.760529 14.0297 0.751338C13.833 0.734794 13.6455 0.845085 13.5646 1.02707C13.5573 1.03809 13.493 1.18699 13.4213 1.4186C14.6602 1.62815 16.1822 2.04909 17.559 2.90385C17.7796 3.03987 17.8476 3.33031 17.7116 3.55089C17.6215 3.6961 17.4689 3.77515 17.3109 3.77515C17.2263 3.77515 17.1399 3.75125 17.0627 3.70346C14.6951 2.23475 11.7393 2.16122 11.1695 2.16122C10.5997 2.16122 7.64203 2.23475 5.27629 3.70346C5.05571 3.84132 4.76528 3.77331 4.62925 3.55272C4.49139 3.33031 4.5594 3.04171 4.77998 2.90385C6.15678 2.05093 7.67879 1.62815 8.91773 1.42044C8.84604 1.18699 8.7817 1.03993 8.77619 1.02707C8.69347 0.845085 8.50781 0.731118 8.30929 0.751338C8.18245 0.760529 5.21931 1.01604 3.32047 2.54356C2.32969 3.46082 0.346291 8.82095 0.346291 13.455C0.346291 13.5377 0.368349 13.6168 0.408789 13.6885C1.7764 16.0928 5.50974 16.7215 6.36082 16.749C6.36449 16.749 6.37001 16.749 6.37552 16.749C6.52625 16.749 6.66779 16.6773 6.75603 16.556L7.61629 15.3722C5.29467 14.773 4.10905 13.7546 4.04103 13.694C3.84619 13.523 3.8278 13.2252 4.00059 13.0304C4.17154 12.8355 4.46933 12.8172 4.66418 12.9881C4.69175 13.0138 6.87551 14.8667 11.1695 14.8667C15.4708 14.8667 17.6546 13.0065 17.6767 12.9881C17.8715 12.819 18.1675 12.8355 18.3402 13.0322C18.5112 13.2271 18.4928 13.523 18.298 13.694C18.2299 13.7546 17.0443 14.773 14.7227 15.3722L15.583 16.556C15.6712 16.6773 15.8127 16.749 15.9635 16.749C15.969 16.749 15.9745 16.749 15.9782 16.749C16.8293 16.7215 20.5626 16.0928 21.9302 13.6885C21.9706 13.6168 21.9927 13.5377 21.9927 13.455C21.9927 8.82095 20.0093 3.46082 18.9928 2.52334ZM8.11076 11.5727C7.20087 11.5727 6.46376 10.7308 6.46376 9.69041C6.46376 8.65 7.20087 7.80811 8.11076 7.80811C9.02066 7.80811 9.75777 8.65 9.75777 9.69041C9.75777 10.7308 9.02066 11.5727 8.11076 11.5727ZM14.2282 11.5727C13.3183 11.5727 12.5812 10.7308 12.5812 9.69041C12.5812 8.65 13.3183 7.80811 14.2282 7.80811C15.1381 7.80811 15.8752 8.65 15.8752 9.69041C15.8752 10.7308 15.1381 11.5727 14.2282 11.5727Z" fill="white"/>
</svg>
