<svg
width="38"
height="38"
viewBox="0 0 40 40"
fill="none"
xmlns="http://www.w3.org/2000/svg"
>
<circle
    cx="20"
    cy="20"
    r="20"
    transform="rotate(180 20 20)"
    fill="#121212"
/>
<path
    d="M22.7305 31.4679C22.7305 32.057 22.2529 32.5346 21.6638 32.5346H12.9321C12.343 32.5346 11.8655 32.057 11.8655 31.4679V16.1047C11.8655 13.3667 14.2979 11.1467 17.298 11.1467C20.2981 11.1467 22.7305 13.3667 22.7305 16.1047V31.4679Z"
    fill="white"
/>
<path
    d="M17.34 8.53432C17.34 7.94522 17.8175 7.46765 18.4066 7.46765L27.1383 7.46765C27.7274 7.46765 28.205 7.94521 28.205 8.53432L28.205 23.8975C28.205 26.6355 25.7726 28.8555 22.7725 28.8555C19.7724 28.8555 17.34 26.6355 17.34 23.8975L17.34 8.53432Z"
    fill="white"
/>
<path
    d="M22.7313 15.492C21.8452 11.8234 18.8882 11.0895 17.3458 11.1567V24.1419C17.6946 28.1975 20.6317 28.7932 22.7106 28.8603C22.7106 24.7648 22.7313 19.6287 22.7313 15.492Z"
    fill="#121212"
/>
</svg>