<?xml version="1.0" encoding="UTF-8" standalone="no" ?>
<!DOCTYPE svg PUBLIC "-//W3C//DTD SVG 1.1//EN" "http://www.w3.org/Graphics/SVG/1.1/DTD/svg11.dtd">
<svg xmlns="http://www.w3.org/2000/svg" xmlns:xlink="http://www.w3.org/1999/xlink" version="1.1" width="40" height="40" viewBox="0 0 40 40" xml:space="preserve">
<desc>Created with Fabric.js 5.2.4</desc>
<defs>
</defs>
<rect x="0" y="0" width="100%" height="100%" fill="transparent"></rect>
<g transform="matrix(1 0 0 1 20 20)" id="7b536ab6-1e31-47d3-95c0-9f527e922612"  >
<rect style="stroke: none; stroke-width: 1; stroke-dasharray: none; stroke-linecap: butt; stroke-dashoffset: 0; stroke-linejoin: miter; stroke-miterlimit: 4; fill: rgb(255,255,255); fill-rule: nonzero; opacity: 1; visibility: hidden;" vector-effect="non-scaling-stroke"  x="-20" y="-20" rx="0" ry="0" width="40" height="40" />
</g>
<g transform="matrix(Infinity NaN NaN Infinity 0 0)" id="e5ed0744-7b58-475d-a19e-d63204f826a2"  >
</g>
<g transform="matrix(0.94 0 0 0.94 20 20)"  >
<g style=""   >
		<g transform="matrix(-0.95 0 0 -0.95 0 0)"  >
<circle style="stroke: none; stroke-width: 1; stroke-dasharray: none; stroke-linecap: butt; stroke-dashoffset: 0; stroke-linejoin: miter; stroke-miterlimit: 4; fill: rgb(18,18,18); fill-rule: nonzero; opacity: 1;" vector-effect="non-scaling-stroke"  cx="0" cy="0" r="20" />
</g>
		<g transform="matrix(0.95 0 0 0.95 -2.57 1.75)"  >
<path style="stroke: none; stroke-width: 1; stroke-dasharray: none; stroke-linecap: butt; stroke-dashoffset: 0; stroke-linejoin: miter; stroke-miterlimit: 4; fill: rgb(255,255,255); fill-rule: nonzero; opacity: 1;" vector-effect="non-scaling-stroke"  transform=" translate(-17.3, -21.84)" d="M 22.7305 31.4679 C 22.7305 32.057 22.2529 32.5346 21.6638 32.5346 L 12.9321 32.5346 C 12.343 32.5346 11.8655 32.057 11.8655 31.4679 L 11.8655 16.1047 C 11.8655 13.3667 14.2979 11.1467 17.298 11.1467 C 20.2981 11.1467 22.7305 13.3667 22.7305 16.1047 L 22.7305 31.4679 Z" stroke-linecap="round" />
</g>
		<g transform="matrix(0.95 0 0 0.95 2.63 -1.75)"  >
<path style="stroke: none; stroke-width: 1; stroke-dasharray: none; stroke-linecap: butt; stroke-dashoffset: 0; stroke-linejoin: miter; stroke-miterlimit: 4; fill: rgb(255,255,255); fill-rule: nonzero; opacity: 1;" vector-effect="non-scaling-stroke"  transform=" translate(-22.77, -18.16)" d="M 17.34 8.53432 C 17.34 7.94522 17.8175 7.46765 18.4066 7.46765 L 27.1383 7.46765 C 27.7274 7.46765 28.205 7.94521 28.205 8.53432 L 28.205 23.8975 C 28.205 26.6355 25.7726 28.8555 22.7725 28.8555 C 19.7724 28.8555 17.34 26.6355 17.34 23.8975 L 17.34 8.53432 Z" stroke-linecap="round" />
</g>
		<g transform="matrix(0.95 0 0 0.95 0.04 0.01)"  >
<path style="stroke: none; stroke-width: 1; stroke-dasharray: none; stroke-linecap: butt; stroke-dashoffset: 0; stroke-linejoin: miter; stroke-miterlimit: 4; fill: rgb(18,18,18); fill-rule: nonzero; opacity: 1;" vector-effect="non-scaling-stroke"  transform=" translate(-20.04, -20.01)" d="M 22.7313 15.492 C 21.8452 11.8234 18.8882 11.0895 17.3458 11.1567 L 17.3458 24.1419 C 17.6946 28.1975 20.6317 28.7932 22.7106 28.8603 C 22.7106 24.7648 22.7313 19.6287 22.7313 15.492 Z" stroke-linecap="round" />
</g>
</g>
</g>
</svg>