<svg width="159" height="40" viewBox="0 0 159 40" fill="none" xmlns="http://www.w3.org/2000/svg">
<path d="M47.9977 27.4669V12.5096H50.8838L57.7515 22.727H57.8569V12.5096H60.743V27.4669H57.8569L50.9891 17.2496H50.8838V27.4669H47.9977Z" fill="#121212"/>
<path d="M67.6325 27.6776C65.0834 27.6776 62.3658 25.7816 62.3658 21.9896C62.3658 18.1976 65.0834 16.3016 67.6325 16.3016C69.5917 16.3016 70.8557 17.376 71.1295 17.9869H71.1927V16.5123H74.0157V27.4669H71.1927V25.9923H71.1295C70.8557 26.6032 69.5917 27.6776 67.6325 27.6776ZM65.1466 21.9896C65.1466 24.0331 66.6213 25.1496 68.2013 25.1496C69.7813 25.1496 71.2559 24.0541 71.2559 21.9896C71.2559 19.9251 69.7813 18.8296 68.2013 18.8296C66.6213 18.8296 65.1466 19.9461 65.1466 21.9896Z" fill="#121212"/>
<path d="M80.3964 27.5934C78.5425 27.5934 77.1943 26.6875 77.1943 24.4333V18.7664H75.6353V16.5123H77.1943V13.7104H80.0383V16.5123H82.2924V18.7664H80.0383V23.9699C80.0383 24.5387 80.3543 25.0864 81.2812 25.0864C81.534 25.0864 81.9132 25.0443 82.3135 24.9179V27.0878C81.8921 27.467 81.0916 27.5934 80.3964 27.5934Z" fill="#121212"/>
<path d="M88.658 27.6776C86.1089 27.6776 83.3913 25.7816 83.3913 21.9896C83.3913 18.1976 86.1089 16.3016 88.658 16.3016C90.6172 16.3016 91.8812 17.376 92.1551 17.9869H92.2183V16.5123H95.0412V27.4669H92.2183V25.9923H92.1551C91.8812 26.6032 90.6172 27.6776 88.658 27.6776ZM86.1721 21.9896C86.1721 24.0331 87.6468 25.1496 89.2268 25.1496C90.8068 25.1496 92.2815 24.0541 92.2815 21.9896C92.2815 19.9251 90.8068 18.8296 89.2268 18.8296C87.6468 18.8296 86.1721 19.9461 86.1721 21.9896Z" fill="#121212"/>
<path d="M106.268 27.6776C103.656 27.6776 101.528 26.1397 101.002 23.9488L103.34 22.8744C103.761 24.0331 104.709 25.0653 106.226 25.0653C107.406 25.0653 108.417 24.4544 108.417 23.1483C108.417 22.0528 107.764 21.5683 106.247 20.9573L105.299 20.5992C103.256 19.7776 101.571 18.64 101.571 16.3648C101.571 13.8579 103.656 12.299 106.184 12.299C108.754 12.299 110.313 13.8789 110.987 15.4589L108.839 16.6597C108.207 15.4589 107.385 14.8691 106.289 14.8691C105.215 14.8691 104.415 15.3958 104.415 16.3859C104.415 17.1653 104.857 17.7763 106.5 18.4083L107.511 18.8086C110.124 19.8619 111.43 21.0416 111.43 23.1693C111.43 26.2029 108.775 27.6776 106.268 27.6776Z" fill="#121212"/>
<path d="M118.274 27.6776C115.409 27.6776 112.502 25.6973 112.502 21.9896C112.502 18.2819 115.409 16.3016 118.274 16.3016C121.118 16.3016 124.047 18.2819 124.047 21.9896C124.047 25.6973 121.118 27.6776 118.274 27.6776ZM115.283 21.9896C115.283 23.9488 116.694 25.1285 118.274 25.1285C119.854 25.1285 121.245 23.9488 121.245 21.9896C121.245 20.0304 119.854 18.8507 118.274 18.8507C116.694 18.8507 115.283 20.0304 115.283 21.9896Z" fill="#121212"/>
<path d="M130.906 27.6776C128.02 27.6776 125.134 25.6973 125.134 21.9896C125.134 18.2819 128.02 16.3016 130.906 16.3016C132.844 16.3016 134.572 17.2075 135.625 18.9982L133.56 20.3253C132.992 19.4616 132.065 18.8507 130.927 18.8507C129.347 18.8507 127.915 20.0304 127.915 21.9896C127.915 23.9488 129.347 25.1285 130.927 25.1285C132.065 25.1285 132.992 24.5176 133.56 23.6539L135.625 24.9811C134.572 26.7507 132.844 27.6776 130.906 27.6776Z" fill="#121212"/>
<path d="M137.243 27.4669V16.5123H140.066V27.4669H137.243ZM137.243 14.9955V12.5096H140.066V14.9955H137.243Z" fill="#121212"/>
<path d="M146.962 27.6776C144.413 27.6776 141.695 25.7816 141.695 21.9896C141.695 18.1976 144.413 16.3016 146.962 16.3016C148.921 16.3016 150.185 17.376 150.459 17.9869H150.522V16.5123H153.345V27.4669H150.522V25.9923H150.459C150.185 26.6032 148.921 27.6776 146.962 27.6776ZM144.476 21.9896C144.476 24.0331 145.95 25.1496 147.53 25.1496C149.11 25.1496 150.585 24.0541 150.585 21.9896C150.585 19.9251 149.11 18.8296 147.53 18.8296C145.95 18.8296 144.476 19.9461 144.476 21.9896Z" fill="#121212"/>
<path d="M155.491 27.4669V12.5096H158.314V27.4669H155.491Z" fill="#121212"/>
<circle cx="20" cy="20" r="20" transform="rotate(180 20 20)" fill="#121212"/>
<path d="M22.7305 31.4679C22.7305 32.057 22.2529 32.5346 21.6638 32.5346H12.9321C12.343 32.5346 11.8655 32.057 11.8655 31.4679V16.1047C11.8655 13.3667 14.2979 11.1467 17.298 11.1467C20.2981 11.1467 22.7305 13.3667 22.7305 16.1047V31.4679Z" fill="white"/>
<path d="M17.34 8.53432C17.34 7.94522 17.8175 7.46765 18.4066 7.46765L27.1383 7.46765C27.7274 7.46765 28.205 7.94521 28.205 8.53432L28.205 23.8975C28.205 26.6355 25.7726 28.8555 22.7725 28.8555C19.7724 28.8555 17.34 26.6355 17.34 23.8975L17.34 8.53432Z" fill="white"/>
<path d="M22.7313 15.492C21.8452 11.8234 18.8882 11.0895 17.3458 11.1567V24.1419C17.6946 28.1975 20.6317 28.7932 22.7106 28.8603C22.7106 24.7648 22.7313 19.6287 22.7313 15.492Z" fill="#121212"/>
</svg>
