<svg width="520" height="256" viewBox="0 0 520 256" fill="none" xmlns="http://www.w3.org/2000/svg">
<g opacity="0.12">
<line x1="-10" y1="29.29" x2="517.098" y2="29.29" stroke="black" stroke-opacity="0.3"/>
<line x1="-10" y1="68.8907" x2="517.098" y2="68.8907" stroke="black" stroke-opacity="0.3"/>
<line x1="-10" y1="108.494" x2="517.098" y2="108.494" stroke="black" stroke-opacity="0.3"/>
<line x1="-10" y1="148.767" x2="517.098" y2="148.767" stroke="black" stroke-opacity="0.3"/>
<line x1="-10" y1="188.369" x2="517.098" y2="188.369" stroke="black" stroke-opacity="0.3"/>
<line x1="-10" y1="227.971" x2="517.098" y2="227.971" stroke="black" stroke-opacity="0.3"/>
<line x1="186.369" y1="-91.0317" x2="186.369" y2="347.951" stroke="black" stroke-opacity="0.3"/>
<line x1="147.977" y1="-91.0317" x2="147.977" y2="347.951" stroke="black" stroke-opacity="0.3"/>
<line x1="109.586" y1="-91.0317" x2="109.586" y2="347.951" stroke="black" stroke-opacity="0.3"/>
<line x1="71.1922" y1="-91.0317" x2="71.1922" y2="347.951" stroke="black" stroke-opacity="0.3"/>
<line x1="32.7984" y1="-91.0317" x2="32.7984" y2="347.951" stroke="black" stroke-opacity="0.3"/>
<line x1="377.027" y1="-91.0317" x2="377.027" y2="347.951" stroke="black" stroke-opacity="0.3"/>
<line x1="338.635" y1="-91.0317" x2="338.635" y2="347.951" stroke="black" stroke-opacity="0.3"/>
<line x1="300.244" y1="-91.0317" x2="300.244" y2="347.951" stroke="black" stroke-opacity="0.3"/>
<line x1="261.85" y1="-91.0317" x2="261.85" y2="347.951" stroke="black" stroke-opacity="0.3"/>
<line x1="223.457" y1="-91.0317" x2="223.457" y2="347.951" stroke="black" stroke-opacity="0.3"/>
<line x1="452.505" y1="-91.0317" x2="452.505" y2="347.951" stroke="black" stroke-opacity="0.3"/>
<line x1="414.114" y1="-91.0317" x2="414.113" y2="347.951" stroke="black" stroke-opacity="0.3"/>
<line x1="491.041" y1="-91.0317" x2="491.041" y2="347.951" stroke="black" stroke-opacity="0.3"/>
<line x1="452.65" y1="-91.0317" x2="452.65" y2="347.951" stroke="black" stroke-opacity="0.3"/>
</g>
<g opacity="0.8" filter="url(#filter0_f_0_1)">
<ellipse cx="541.427" cy="-66.7142" rx="101.538" ry="205.214" transform="rotate(46.2277 541.427 -66.7142)" fill="url(#paint0_linear_0_1)" fill-opacity="0.7"/>
</g>
<defs>
<filter id="filter0_f_0_1" x="177.399" y="-426.529" width="728.056" height="719.63" filterUnits="userSpaceOnUse" color-interpolation-filters="sRGB">
<feFlood flood-opacity="0" result="BackgroundImageFix"/>
<feBlend mode="normal" in="SourceGraphic" in2="BackgroundImageFix" result="shape"/>
<feGaussianBlur stdDeviation="100" result="effect1_foregroundBlur_0_1"/>
</filter>
<linearGradient id="paint0_linear_0_1" x1="541.427" y1="-271.928" x2="541.427" y2="138.5" gradientUnits="userSpaceOnUse">
<stop stop-color="#FBDAEC" stopOpacity="0.6"/>
<stop offset="1" stop-color="#00FABF"/>
</linearGradient>
</defs>
</svg>
