<svg width="141" height="37" viewBox="0 0 141 37" fill="none" xmlns="http://www.w3.org/2000/svg">
<path d="M42.4993 24.9688V11.5072H45.0543L51.134 20.7028H51.2272V11.5072H53.7822V24.9688H51.2272L45.1475 15.7732H45.0543V24.9688H42.4993Z" fill="white"/>
<path d="M59.8811 25.1584C57.6245 25.1584 55.2188 23.452 55.2188 20.0392C55.2188 16.6264 57.6245 14.92 59.8811 14.92C61.6155 14.92 62.7345 15.887 62.9769 16.4368H63.0329V15.1096H65.5319V24.9688H63.0329V23.6416H62.9769C62.7345 24.1915 61.6155 25.1584 59.8811 25.1584ZM57.6805 20.0392C57.6805 21.8783 58.986 22.8832 60.3847 22.8832C61.7834 22.8832 63.0888 21.8973 63.0888 20.0392C63.0888 18.1811 61.7834 17.1952 60.3847 17.1952C58.986 17.1952 57.6805 18.2001 57.6805 20.0392Z" fill="white"/>
<path d="M71.1805 25.0826C69.5393 25.0826 68.3458 24.2673 68.3458 22.2386V17.1383H66.9657V15.1096H68.3458V12.5879H70.8635V15.1096H72.8589V17.1383H70.8635V21.8215C70.8635 22.3334 71.1432 22.8263 71.9638 22.8263C72.1876 22.8263 72.5233 22.7884 72.8776 22.6747V24.6275C72.5046 24.9688 71.7959 25.0826 71.1805 25.0826Z" fill="white"/>
<path d="M78.4941 25.1584C76.2376 25.1584 73.8318 23.452 73.8318 20.0392C73.8318 16.6264 76.2376 14.92 78.4941 14.92C80.2285 14.92 81.3475 15.887 81.5899 16.4368H81.6459V15.1096H84.1449V24.9688H81.6459V23.6416H81.5899C81.3475 24.1915 80.2285 25.1584 78.4941 25.1584ZM76.2935 20.0392C76.2935 21.8783 77.599 22.8832 78.9977 22.8832C80.3964 22.8832 81.7018 21.8973 81.7018 20.0392C81.7018 18.1811 80.3964 17.1952 78.9977 17.1952C77.599 17.1952 76.2935 18.2001 76.2935 20.0392Z" fill="white"/>
<path d="M94.0839 25.1584C91.7714 25.1584 89.8878 23.7743 89.4215 21.8025L91.4916 20.8355C91.8646 21.8783 92.7038 22.8074 94.0466 22.8074C95.091 22.8074 95.9861 22.2575 95.9861 21.082C95.9861 20.0961 95.408 19.66 94.0652 19.1102L93.226 18.7879C91.417 18.0484 89.9251 17.0246 89.9251 14.9769C89.9251 12.7207 91.7714 11.3176 94.0093 11.3176C96.2845 11.3176 97.6646 12.7396 98.2614 14.1616L96.3591 15.2423C95.7996 14.1616 95.0723 13.6307 94.1025 13.6307C93.1514 13.6307 92.4427 14.1047 92.4427 14.9959C92.4427 15.6974 92.8344 16.2472 94.289 16.816L95.1842 17.1763C97.4967 18.1243 98.653 19.186 98.653 21.101C98.653 23.8312 96.3032 25.1584 94.0839 25.1584Z" fill="white"/>
<path d="M104.712 25.1584C102.176 25.1584 99.6022 23.3762 99.6022 20.0392C99.6022 16.7023 102.176 14.92 104.712 14.92C107.23 14.92 109.822 16.7023 109.822 20.0392C109.822 23.3762 107.23 25.1584 104.712 25.1584ZM102.064 20.0392C102.064 21.8025 103.313 22.8643 104.712 22.8643C106.111 22.8643 107.342 21.8025 107.342 20.0392C107.342 18.2759 106.111 17.2142 104.712 17.2142C103.313 17.2142 102.064 18.2759 102.064 20.0392Z" fill="white"/>
<path d="M115.895 25.1584C113.34 25.1584 110.785 23.3762 110.785 20.0392C110.785 16.7023 113.34 14.92 115.895 14.92C117.61 14.92 119.14 15.7353 120.072 17.3469L118.244 18.5414C117.741 17.764 116.92 17.2142 115.913 17.2142C114.514 17.2142 113.246 18.2759 113.246 20.0392C113.246 21.8025 114.514 22.8643 115.913 22.8643C116.92 22.8643 117.741 22.3144 118.244 21.5371L120.072 22.7315C119.14 24.3242 117.61 25.1584 115.895 25.1584Z" fill="white"/>
<path d="M121.504 24.9688V15.1096H124.003V24.9688H121.504ZM121.504 13.7445V11.5072H124.003V13.7445H121.504Z" fill="white"/>
<path d="M130.108 25.1584C127.851 25.1584 125.446 23.452 125.446 20.0392C125.446 16.6264 127.851 14.92 130.108 14.92C131.842 14.92 132.961 15.887 133.204 16.4368H133.26V15.1096H135.759V24.9688H133.26V23.6416H133.204C132.961 24.1915 131.842 25.1584 130.108 25.1584ZM127.907 20.0392C127.907 21.8783 129.213 22.8832 130.611 22.8832C132.01 22.8832 133.316 21.8973 133.316 20.0392C133.316 18.1811 132.01 17.1952 130.611 17.1952C129.213 17.1952 127.907 18.2001 127.907 20.0392Z" fill="white"/>
<path d="M137.659 24.9688V11.5072H140.158V24.9688H137.659Z" fill="white"/>
<path d="M0 18.249C0 8.3079 7.92687 0.249023 17.7052 0.249023C27.4834 0.249023 35.4103 8.3079 35.4103 18.249C35.4103 28.1901 27.4834 36.249 17.7052 36.249C7.92687 36.249 0 28.1901 0 18.249Z" fill="white"/>
<path d="M20.1234 28.5691C20.1234 29.0993 19.7006 29.5291 19.1791 29.5291H11.4493C10.9278 29.5291 10.5051 29.0993 10.5051 28.5691V14.7422C10.5051 12.278 12.6584 10.28 15.3142 10.28C17.9701 10.28 20.1234 12.278 20.1234 14.7422V28.5691Z" fill="#121212"/>
<path d="M15.3522 7.92897C15.3522 7.39877 15.7749 6.96897 16.2964 6.96897L24.0262 6.96897C24.5477 6.96897 24.9705 7.39877 24.9705 7.92897L24.9705 21.7558C24.9705 24.2201 22.8172 26.218 20.1613 26.218C17.5055 26.218 15.3522 24.2201 15.3522 21.7558V7.92897Z" fill="#121212"/>
<path d="M20.1233 14.1909C19.3388 10.8892 16.7212 10.2286 15.3558 10.2891V21.9758C15.6645 25.6259 18.2646 26.162 20.105 26.2223C20.105 22.5364 20.1233 17.9139 20.1233 14.1909Z" fill="white"/>
</svg>
