<svg width="1415" height="680" viewBox="0 0 1415 680" fill="none" xmlns="http://www.w3.org/2000/svg">
<g clip-path="url(#clip0_1_305)">
<g opacity="0.55">
<g opacity="0.9" filter="url(#filter0_f_1_305)">
<ellipse cx="53.9991" cy="89" rx="156" ry="133" fill="url(#paint0_radial_1_305)"/>
</g>
<g opacity="0.7" filter="url(#filter1_f_1_305)">
<ellipse cx="1345" cy="644.5" rx="134" ry="130.5" fill="url(#paint1_radial_1_305)"/>
</g>
<g opacity="0.9" filter="url(#filter2_f_1_305)">
<ellipse cx="1384.5" cy="111.5" rx="146.5" ry="132.5" fill="url(#paint2_radial_1_305)"/>
</g>
<g opacity="0.8" filter="url(#filter3_f_1_305)">
<ellipse cx="357.018" cy="699.244" rx="247.018" ry="166.244" fill="url(#paint3_radial_1_305)"/>
</g>
<g filter="url(#filter4_f_1_305)">
<path d="M199.635 449.086L101.385 570.635L-20.1636 472.385C34.0984 405.256 132.506 394.824 199.635 449.086Z" fill="#E8178A" fill-opacity="0.6"/>
</g>
<g filter="url(#filter5_f_1_305)">
<path d="M155.093 371.46C144.927 388.96 122.457 394.88 104.905 384.684L73.1238 366.221L109.938 302.85L141.719 321.312C159.271 331.509 165.259 353.961 155.093 371.46Z" fill="url(#paint4_linear_1_305)"/>
<path d="M73.1238 366.221L109.938 302.85L14.5945 247.462C-2.95763 237.266 -25.4276 243.186 -35.5936 260.686C-45.7595 278.186 -39.7718 300.638 -22.2197 310.834L73.1238 366.221Z" fill="url(#paint5_linear_1_305)"/>
</g>
</g>
<g opacity="0.6" filter="url(#filter6_f_1_305)">
<circle cx="993.5" cy="568.5" r="66.5" transform="rotate(180 993.5 568.5)" fill="url(#paint6_linear_1_305)"/>
</g>
<g opacity="0.7" filter="url(#filter7_f_1_305)">
<circle cx="368.5" cy="198.5" r="66.5" transform="rotate(180 368.5 198.5)" fill="url(#paint7_linear_1_305)"/>
</g>
<g filter="url(#filter8_f_1_305)">
<path d="M841.702 147.768C832.478 127.868 841.376 104.144 861.578 94.7797L1007.89 26.9563C1028.09 17.5918 1051.95 26.1327 1061.17 46.0329C1070.4 65.9331 1061.5 89.6569 1041.3 99.0214L894.984 166.845C874.782 176.209 850.927 167.668 841.702 147.768Z" fill="url(#paint8_linear_1_305)"/>
</g>
<g opacity="0.8" filter="url(#filter9_f_1_305)">
<path d="M1210.87 345.674L1101.18 362.703L1084 252.029C1144.58 242.624 1201.46 285.096 1210.87 345.674Z" fill="url(#paint9_linear_1_305)"/>
</g>
<g opacity="0.1">
<line x1="-171.1" y1="82.0686" x2="1598.99" y2="82.0686" stroke="black" stroke-opacity="0.3"/>
<line x1="-168.072" y1="19.549" x2="1602.02" y2="19.549" stroke="#868585" stroke-opacity="0.4" strokeWidth="0.902081"/>
<line x1="-171.1" y1="141.61" x2="1598.99" y2="141.61" stroke="black" stroke-opacity="0.3"/>
<line x1="-171.1" y1="201.152" x2="1598.99" y2="201.152" stroke="black" stroke-opacity="0.3"/>
<line x1="-171.1" y1="260.692" x2="1598.99" y2="260.692" stroke="black" stroke-opacity="0.3"/>
<line x1="-171.1" y1="320.234" x2="1598.99" y2="320.234" stroke="black" stroke-opacity="0.3"/>
<line x1="-171.1" y1="380.784" x2="1598.99" y2="380.784" stroke="black" stroke-opacity="0.3"/>
<line x1="-171.1" y1="440.324" x2="1598.99" y2="440.324" stroke="black" stroke-opacity="0.3"/>
<line x1="-171.1" y1="499.866" x2="1598.99" y2="499.866" stroke="black" stroke-opacity="0.3"/>
<line x1="-171.1" y1="559.407" x2="1598.99" y2="559.407" stroke="black" stroke-opacity="0.3"/>
<line x1="-171.1" y1="618.949" x2="1598.99" y2="618.949" stroke="black" stroke-opacity="0.3"/>
<line x1="-171.1" y1="679.499" x2="1598.99" y2="679.499" stroke="black" stroke-opacity="0.6"/>
<line x1="133.163" y1="20" x2="133.163" y2="680" stroke="black" stroke-opacity="0.3"/>
<line x1="73.621" y1="20" x2="73.6209" y2="680" stroke="black" stroke-opacity="0.3"/>
<line x1="14.0795" y1="20" x2="14.0794" y2="680" stroke="black" stroke-opacity="0.3"/>
<line x1="428.847" y1="20" x2="428.847" y2="680" stroke="black" stroke-opacity="0.3"/>
<line x1="369.305" y1="20" x2="369.305" y2="680" stroke="black" stroke-opacity="0.3"/>
<line x1="309.764" y1="20" x2="309.764" y2="680" stroke="black" stroke-opacity="0.3"/>
<line x1="250.222" y1="20" x2="250.222" y2="680" stroke="black" stroke-opacity="0.3"/>
<line x1="190.681" y1="20" x2="190.681" y2="680" stroke="black" stroke-opacity="0.3"/>
<line x1="1020.22" y1="20" x2="1020.22" y2="680" stroke="black" stroke-opacity="0.3"/>
<line x1="960.68" y1="20" x2="960.68" y2="680" stroke="black" stroke-opacity="0.3"/>
<line x1="901.139" y1="20" x2="901.139" y2="680" stroke="black" stroke-opacity="0.3"/>
<line x1="841.597" y1="20" x2="841.597" y2="680" stroke="black" stroke-opacity="0.3"/>
<line x1="782.056" y1="20" x2="782.056" y2="680" stroke="black" stroke-opacity="0.3"/>
<line x1="724.538" y1="20" x2="724.538" y2="680" stroke="black" stroke-opacity="0.3"/>
<line x1="664.996" y1="20" x2="664.996" y2="680" stroke="black" stroke-opacity="0.3"/>
<line x1="605.455" y1="20" x2="605.455" y2="680" stroke="black" stroke-opacity="0.3"/>
<line x1="545.913" y1="20" x2="545.913" y2="680" stroke="black" stroke-opacity="0.3"/>
<line x1="486.372" y1="20" x2="486.372" y2="680" stroke="black" stroke-opacity="0.3"/>
<line x1="1315.92" y1="20" x2="1315.92" y2="680" stroke="black" stroke-opacity="0.3"/>
<line x1="1256.38" y1="20" x2="1256.38" y2="680" stroke="black" stroke-opacity="0.3"/>
<line x1="1196.83" y1="20" x2="1196.83" y2="680" stroke="black" stroke-opacity="0.3"/>
<line x1="1137.29" y1="20" x2="1137.29" y2="680" stroke="black" stroke-opacity="0.3"/>
<line x1="1077.75" y1="20" x2="1077.75" y2="680" stroke="black" stroke-opacity="0.3"/>
<line x1="1373.44" y1="20" x2="1373.44" y2="680" stroke="black" stroke-opacity="0.3"/>
</g>
</g>
<defs>
<filter id="filter0_f_1_305" x="-182.001" y="-124" width="472" height="426" filterUnits="userSpaceOnUse" color-interpolation-filters="sRGB">
<feFlood flood-opacity="0" result="BackgroundImageFix"/>
<feBlend mode="normal" in="SourceGraphic" in2="BackgroundImageFix" result="shape"/>
<feGaussianBlur stdDeviation="40" result="effect1_foregroundBlur_1_305"/>
</filter>
<filter id="filter1_f_1_305" x="1131" y="434" width="428" height="421" filterUnits="userSpaceOnUse" color-interpolation-filters="sRGB">
<feFlood flood-opacity="0" result="BackgroundImageFix"/>
<feBlend mode="normal" in="SourceGraphic" in2="BackgroundImageFix" result="shape"/>
<feGaussianBlur stdDeviation="40" result="effect1_foregroundBlur_1_305"/>
</filter>
<filter id="filter2_f_1_305" x="1158" y="-101" width="453" height="425" filterUnits="userSpaceOnUse" color-interpolation-filters="sRGB">
<feFlood flood-opacity="0" result="BackgroundImageFix"/>
<feBlend mode="normal" in="SourceGraphic" in2="BackgroundImageFix" result="shape"/>
<feGaussianBlur stdDeviation="40" result="effect1_foregroundBlur_1_305"/>
</filter>
<filter id="filter3_f_1_305" x="29.9999" y="453" width="654.037" height="492.487" filterUnits="userSpaceOnUse" color-interpolation-filters="sRGB">
<feFlood flood-opacity="0" result="BackgroundImageFix"/>
<feBlend mode="normal" in="SourceGraphic" in2="BackgroundImageFix" result="shape"/>
<feGaussianBlur stdDeviation="40" result="effect1_foregroundBlur_1_305"/>
</filter>
<filter id="filter4_f_1_305" x="-50.1636" y="384.338" width="279.799" height="216.297" filterUnits="userSpaceOnUse" color-interpolation-filters="sRGB">
<feFlood flood-opacity="0" result="BackgroundImageFix"/>
<feBlend mode="normal" in="SourceGraphic" in2="BackgroundImageFix" result="shape"/>
<feGaussianBlur stdDeviation="15" result="effect1_foregroundBlur_1_305"/>
</filter>
<filter id="filter5_f_1_305" x="-60.5454" y="222.47" width="240.59" height="187.206" filterUnits="userSpaceOnUse" color-interpolation-filters="sRGB">
<feFlood flood-opacity="0" result="BackgroundImageFix"/>
<feBlend mode="normal" in="SourceGraphic" in2="BackgroundImageFix" result="shape"/>
<feGaussianBlur stdDeviation="10" result="effect1_foregroundBlur_1_305"/>
</filter>
<filter id="filter6_f_1_305" x="897" y="472" width="193" height="193" filterUnits="userSpaceOnUse" color-interpolation-filters="sRGB">
<feFlood flood-opacity="0" result="BackgroundImageFix"/>
<feBlend mode="normal" in="SourceGraphic" in2="BackgroundImageFix" result="shape"/>
<feGaussianBlur stdDeviation="15" result="effect1_foregroundBlur_1_305"/>
</filter>
<filter id="filter7_f_1_305" x="272" y="102" width="193" height="193" filterUnits="userSpaceOnUse" color-interpolation-filters="sRGB">
<feFlood flood-opacity="0" result="BackgroundImageFix"/>
<feBlend mode="normal" in="SourceGraphic" in2="BackgroundImageFix" result="shape"/>
<feGaussianBlur stdDeviation="15" result="effect1_foregroundBlur_1_305"/>
</filter>
<filter id="filter8_f_1_305" x="818.06" y="3.15674" width="266.757" height="187.488" filterUnits="userSpaceOnUse" color-interpolation-filters="sRGB">
<feFlood flood-opacity="0" result="BackgroundImageFix"/>
<feBlend mode="normal" in="SourceGraphic" in2="BackgroundImageFix" result="shape"/>
<feGaussianBlur stdDeviation="10" result="effect1_foregroundBlur_1_305"/>
</filter>
<filter id="filter9_f_1_305" x="1064" y="230.724" width="166.868" height="151.979" filterUnits="userSpaceOnUse" color-interpolation-filters="sRGB">
<feFlood flood-opacity="0" result="BackgroundImageFix"/>
<feBlend mode="normal" in="SourceGraphic" in2="BackgroundImageFix" result="shape"/>
<feGaussianBlur stdDeviation="10" result="effect1_foregroundBlur_1_305"/>
</filter>
<radialGradient id="paint0_radial_1_305" cx="0" cy="0" r="1" gradientUnits="userSpaceOnUse" gradientTransform="translate(-37.1201 32.4648) rotate(49.1897) scale(213.876 221.595)">
<stop stop-color="#E8178A"/>
<stop offset="1" stop-color="#FBDAEC"/>
</radialGradient>
<radialGradient id="paint1_radial_1_305" cx="0" cy="0" r="1" gradientUnits="userSpaceOnUse" gradientTransform="translate(1266.73 589.028) rotate(52.9134) scale(199.11 200.617)">
<stop stop-color="#E8178A"/>
<stop offset="1" stop-color="#FBDAEC"/>
</radialGradient>
<radialGradient id="paint2_radial_1_305" cx="0" cy="0" r="1" gradientUnits="userSpaceOnUse" gradientTransform="translate(1356.05 39.7828) rotate(67.8249) scale(170.519 183.648)">
<stop stop-color="#00FABF"/>
<stop offset="1" stop-color="#FBDAEC"/>
</radialGradient>
<radialGradient id="paint3_radial_1_305" cx="0" cy="0" r="1" gradientUnits="userSpaceOnUse" gradientTransform="translate(309.054 609.262) rotate(66.7401) scale(167.758 228.002)">
<stop stop-color="#00FABF"/>
<stop offset="1" stop-color="#FBDAEC"/>
</radialGradient>
<linearGradient id="paint4_linear_1_305" x1="-60.4854" y1="254.243" x2="234.285" y2="417.847" gradientUnits="userSpaceOnUse">
<stop stop-color="#99FFE7"/>
<stop offset="1" stop-color="#99FFE7" stopOpacity="0"/>
</linearGradient>
<linearGradient id="paint5_linear_1_305" x1="-60.4854" y1="254.243" x2="234.285" y2="417.847" gradientUnits="userSpaceOnUse">
<stop stop-color="#99FFE7"/>
<stop offset="1" stop-color="#99FFE7" stopOpacity="0"/>
</linearGradient>
<linearGradient id="paint6_linear_1_305" x1="909.659" y1="568.411" x2="1067.55" y2="568.411" gradientUnits="userSpaceOnUse">
<stop offset="0.237269" stop-color="#C7FFF2"/>
<stop offset="1" stop-color="#00FABF"/>
</linearGradient>
<linearGradient id="paint7_linear_1_305" x1="284.659" y1="198.411" x2="442.546" y2="198.411" gradientUnits="userSpaceOnUse">
<stop offset="0.227842" stop-color="#E8178A"/>
<stop offset="0.842814" stop-color="#FBDAEC"/>
</linearGradient>
<linearGradient id="paint8_linear_1_305" x1="824.231" y1="155.713" x2="1105.14" y2="25.4981" gradientUnits="userSpaceOnUse">
<stop stop-color="#99FFE7"/>
<stop offset="1" stop-color="#99FFE7" stopOpacity="0"/>
</linearGradient>
<linearGradient id="paint9_linear_1_305" x1="1161.67" y1="393.792" x2="1138.35" y2="243.591" gradientUnits="userSpaceOnUse">
<stop stop-color="#E8178A" stopOpacity="0.9"/>
<stop offset="1" stop-color="#E8178A" stopOpacity="0"/>
</linearGradient>
<clipPath id="clip0_1_305">
<rect width="1440" height="680" fill="white"/>
</clipPath>
</defs>
</svg>
