<svg width="24" height="24" viewBox="0 0 24 24" fill="none" xmlns="http://www.w3.org/2000/svg">
<path d="M4 12.0444C4 11.4516 4.27552 11.4516 4.61538 11.4516H18.789C19.1211 11.4516 19.5279 11.1463 19.7222 11.4056C19.8655 11.5969 20 11.8884 20 12.0444V20.3426C20 20.67 19.7245 20.9354 19.3846 20.9354H4.61538C4.27552 20.9354 4 20.67 4 20.3426L-nan -nanL4 20.3426C4 20.3426 4 12.6371 4 12.0444Z" fill="black"/>
<path d="M6.32541 7.88019C6.32541 7.88019 4.15218 11.5433 4.1053 11.6224C4.05841 11.7014 4.11766 11.7997 4.21216 11.7997L6.32551 11.7997L7.48818 9.00004H8.92308L7.48814 7.32024C7.02307 6.87229 6.51921 7.50689 6.32541 7.88019Z" fill="black"/>
<path d="M18.0286 7.88019L18.9683 9.86527L19.9081 11.8504C19.9481 11.9349 19.8761 12.029 19.7804 12.0171L18.0285 11.7997L16.8658 9.00004L15.4309 9.00004L16.8659 7.32024C17.3309 6.87229 17.8348 7.50689 18.0286 7.88019Z" fill="black"/>
<path d="M8.9231 6.07692L11.7949 9.15385L16.5 4" stroke="black" strokeWidth="1.8" strokeLinecap="round" strokeLinejoin="round"/>
</svg>
