<svg width="24" height="24" viewBox="0 0 24 24" fill="none" xmlns="http://www.w3.org/2000/svg">
<path d="M15.0769 5.56686L12 9.25917L8.92306 5.56686" stroke="#090212" strokeWidth="1.5" strokeLinecap="round" strokeLinejoin="round"/>
<path d="M4 11.96C4 11.3573 4.27552 11.3573 4.61538 11.3573H18.789C19.1211 11.3573 19.5279 11.0468 19.7222 11.3105C19.8655 11.505 20 11.8014 20 11.96V20.3973C20 20.7302 19.7245 21 19.3846 21H4.61538C4.27552 21 4 20.7302 4 20.3973C4 20.3973 4 12.5626 4 11.96Z" fill="black"/>
<path d="M6.32541 7.72599C6.32541 7.72599 4.15218 11.4506 4.1053 11.5309C4.05841 11.6113 4.11766 11.7112 4.21216 11.7112L6.32551 11.7112L7.48818 8.86462H8.92308L7.48814 7.15665C7.02307 6.7012 6.51921 7.34644 6.32541 7.72599Z" fill="black"/>
<path d="M18.0286 7.72599L18.9683 9.74435L19.9081 11.7627C19.9481 11.8487 19.8761 11.9443 19.7804 11.9323L18.0285 11.7112L16.8658 8.86462L15.4309 8.86462L16.8659 7.15665C17.3309 6.70119 17.8348 7.34644 18.0286 7.72599Z" fill="black"/>
<path d="M11.3846 2.6154C11.3846 2.27554 11.6601 2.00003 12 2.00002C12.3399 2.00001 12.6154 2.27553 12.6154 2.6154V7.41302C12.6154 7.75289 12.3399 8.02841 12 8.02841C11.6602 8.02841 11.3846 7.75289 11.3846 7.41302V2.6154Z" fill="#090212"/>
</svg>
