<svg width="14" height="14" viewBox="0 0 14 14" fill="none" xmlns="http://www.w3.org/2000/svg">
<g clip-path="url(#clip0_500_1411)">
<path d="M12.1923 7.63345L10.5566 5.99771H6.73983C6.59522 5.99771 6.45653 5.94027 6.35428 5.83801C6.25203 5.73576 6.19458 5.59707 6.19458 5.45247V2.18099C6.19458 2.03638 6.25203 1.89769 6.35428 1.79544C6.45653 1.69319 6.59522 1.63574 6.73983 1.63574H11.647C11.7917 1.63574 11.9303 1.69319 12.0326 1.79544C12.1348 1.89769 12.1923 2.03638 12.1923 2.18099V7.63345Z" stroke="black" strokeWidth="0.817869" strokeLinecap="round" strokeLinejoin="round"/>
<path d="M8.37564 8.17838V9.26887C8.37564 9.41348 8.31819 9.55217 8.21594 9.65442C8.11369 9.75667 7.975 9.81412 7.83039 9.81412H4.01367L2.37793 11.4499V5.99739C2.37793 5.85279 2.43538 5.7141 2.53763 5.61185C2.63988 5.50959 2.77857 5.45215 2.92318 5.45215H4.01367" stroke="black" strokeWidth="0.817869" strokeLinecap="round" strokeLinejoin="round"/>
</g>
<defs>
<clipPath id="clip0_500_1411">
<rect width="13.0859" height="13.0859" fill="white" transform="translate(0.74231)"/>
</clipPath>
</defs>
</svg>
