<svg
width="16"
height="16"
viewBox="0 0 16 16"
fill="none"
xmlns="http://www.w3.org/2000/svg"
>
<path
  d="M8.3842 0.5H13.6449C14.6694 0.5 15.5 1.33056 15.5 2.35511V7.6158C15.5 8.1078 15.3046 8.57965 14.9567 8.92756L8.92755 14.9567C8.20309 15.6811 7.0285 15.6811 6.30404 14.9567L1.04335 9.69596C0.318884 8.9715 0.318884 7.79691 1.04335 7.07245L7.07245 1.04335C7.42035 0.695448 7.8922 0.5 8.3842 0.5Z"
  fill="#F8F8F8"
/>
<path
  d="M12.7173 4.21021C12.7173 4.72249 12.3021 5.13777 11.7898 5.13777C11.2775 5.13777 10.8622 4.72249 10.8622 4.21021C10.8622 3.69794 11.2775 3.28266 11.7898 3.28266C12.3021 3.28266 12.7173 3.69794 12.7173 4.21021Z"
  fill="#F8F8F8"
/>
<path
  d="M11.4417 3.86233H12.1374M11.4417 4.55799H12.1374M13.6449 0.5H8.38421C7.8922 0.5 7.42035 0.695448 7.07245 1.04335L1.04335 7.07245C0.318884 7.79691 0.318884 8.9715 1.04335 9.69596L6.30404 14.9567C7.0285 15.6811 8.20309 15.6811 8.92755 14.9567L14.9567 8.92755C15.3046 8.57965 15.5 8.1078 15.5 7.6158V2.35511C15.5 1.33056 14.6694 0.5 13.6449 0.5ZM12.7173 4.21021C12.7173 4.72249 12.3021 5.13777 11.7898 5.13777C11.2775 5.13777 10.8622 4.72249 10.8622 4.21021C10.8622 3.69794 11.2775 3.28266 11.7898 3.28266C12.3021 3.28266 12.7173 3.69794 12.7173 4.21021Z"
  stroke="black"
  strokeLinecap="round"
/>
</svg>