<?xml version="1.0" standalone="no"?>
<!DOCTYPE svg PUBLIC "-//W3C//DTD SVG 20010904//EN"
 "http://www.w3.org/TR/2001/REC-SVG-20010904/DTD/svg10.dtd">
<svg version="1.0" xmlns="http://www.w3.org/2000/svg"
 width="764.000000pt" height="764.000000pt" viewBox="0 0 764.000000 764.000000"
 preserveAspectRatio="xMidYMid meet">
<metadata>
Created by potrace 1.14, written by Peter Selinger 2001-2017
</metadata>
<g transform="translate(0.000000,764.000000) scale(0.100000,-0.100000)"
fill="#000000" stroke="none">
<path d="M1599 7332 l-27 -3 0 -2888 1 -2887 1441 1 c792 1 1443 3 1446 3 4 2
5 1295 1 1348 -1 8 -47 11 -150 11 -81 0 -153 3 -158 6 -6 4 -13 4 -17 0 -6
-7 -738 -7 -771 0 -11 3 -24 2 -29 -1 -5 -3 -78 -6 -163 -6 -129 -1 -153 1
-154 14 0 8 -1 1003 -1 2210 l-1 2195 -696 0 c-383 0 -708 -1 -722 -3z"/>
<path d="M4589 7320 c-1 -8 -2 -315 -2 -683 -1 -439 1 -667 8 -667 13 -1 1309
-1 1428 0 l87 0 0 683 0 682 -760 0 c-668 0 -760 -2 -761 -15z"/>
<path d="M292 5170 c1 -493 4 -680 12 -683 6 -2 267 -3 581 -3 l570 1 1 683 1
682 -582 0 -583 -1 0 -679z"/>
<path d="M3187 5844 c-4 -4 -7 -311 -7 -683 l0 -677 703 1 703 0 0 -2118 c-1
-1166 1 -2122 4 -2127 3 -4 347 -7 765 -6 l760 1 -2 510 c-2 681 -5 3706 -4
3725 1 13 80 15 644 15 l642 0 0 683 0 682 -2101 0 c-1155 0 -2104 -3 -2107
-6z"/>
<path d="M616 2922 c-4 -3 -73 -5 -154 -5 -81 0 -152 -1 -158 -4 -9 -3 -11
-179 -10 -681 l1 -677 565 -1 c311 -1 572 0 581 2 14 4 15 73 15 682 l-1 677
-236 1 c-130 0 -241 4 -247 8 -7 4 -12 4 -12 -1 0 -9 -302 -8 -324 0 -8 3 -17
3 -20 -1z"/>
<path d="M6376 2922 c-3 -5 -36 -7 -75 -5 l-70 2 0 -682 0 -683 582 0 582 1 0
680 0 680 -85 2 c-47 1 -94 4 -105 6 -11 2 -24 2 -29 -1 -14 -8 -431 -6 -444
2 -7 4 -12 4 -12 -1 0 -9 -302 -8 -325 1 -8 3 -16 2 -19 -2z"/>
<path d="M1594 1432 l-21 -3 0 -599 -1 -600 67 0 c81 -1 1280 0 1337 0 l41 0
0 600 0 600 -36 1 c-101 3 -1369 4 -1387 1z"/>
</g>
</svg>
