<svg xmlns="http://www.w3.org/2000/svg" version="1.1" xmlns:xlink="http://www.w3.org/1999/xlink" xmlns:svgjs="http://svgjs.dev/svgjs" viewBox="0 0 800 800"><defs><filter id="uuunion-blur" x="-100%" y="-100%" width="400%" height="400%" color-interpolation-filters="sRGB">
        <feGaussianBlur in="SourceGraphic" stdDeviation="7.5 0" result="blur"></feGaussianBlur>
        <feDropShadow stdDeviation="16" in="blur" dx="13" dy="13" flood-color="hsl(205, 33%, 41%)" flood-opacity="0" x="0%" y="0%" width="100%" height="100%"></feDropShadow>
      </filter><filter id="uuunion-blur2" x="-100%" y="-100%" width="400%" height="400%" color-interpolation-filters="sRGB">
        <feGaussianBlur in="SourceGraphic" stdDeviation="7.5 0" result="blur"></feGaussianBlur>
        <feDropShadow stdDeviation="16" in="blur" dx="-13" dy="-13" flood-color="hsl(205, 33%, 41%)" flood-opacity="0" x="0%" y="0%" width="100%" height="100%"></feDropShadow>
      </filter><linearGradient gradientTransform="rotate(0, 0.5, 0.5)" x1="50%" y1="0%" x2="50%" y2="100%" id="uuunion-grad"><stop stop-color="hsl(205, 24%, 66%)" offset="10%"></stop><stop stop-color="hsl(205, 33%, 41%)" offset="90%"></stop></linearGradient><linearGradient gradientTransform="rotate(135, 0.5, 0.5)" x1="50%" y1="0%" x2="50%" y2="100%" id="uuunion-grad2"><stop stop-color="hsl(205, 24%, 66%)" offset="25%"></stop><stop stop-color="hsl(205, 33%, 41%)" offset="100%"></stop></linearGradient><linearGradient gradientTransform="rotate(41, 0.5, 0.5)" x1="50%" y1="0%" x2="50%" y2="100%" id="uuunion-grad3"><stop stop-color="hsl(205, 24%, 66%)" offset="0%"></stop><stop stop-color="hsl(205, 33%, 41%)" offset="75%"></stop></linearGradient></defs><path d="M-77.6 -77.92Q-63.24 -76.25 -48.87 -74.8 -34.51 -73.66 -20.14 -72.88 -5.78 -72.52 8.57 -72.59 22.94 -73.1 37.3 -74 51.66 -75.26 66.03 -76.79 80.39 -78.51 94.75 -80.31 109.12 -82.1 123.48 -83.76 137.85 -85.2 152.21 -86.35 166.57 -87.12 180.94 -87.47 195.3 -87.39 209.66 -86.88 224.03 -85.97 238.39 -84.71 252.76 -83.18 267.12 -81.46 281.48 -79.65 295.85 -77.87 310.21 -76.21 324.57 -74.77 338.94 -73.63 353.3 -72.87 367.67 -72.52 382.03 -72.6 396.39 -73.12 410.76 -74.03 425.12 -75.3 439.48 -76.84 453.85 -78.56 468.21 -80.36 482.57 -82.15 496.94 -83.81 511.3 -85.24 525.67 -86.37 540.03 -87.13 554.39 -87.48 568.76 -87.38 583.12 -86.86 597.48 -85.94 611.85 -84.67 626.21 -83.13 640.58 -81.4 654.94 -79.6 669.3 -77.82 683.67 -76.16 698.03 -74.73 712.39 -73.6 726.76 -72.85 741.12 -72.51 755.49 -72.61 769.85 -73.14 784.21 -74.07 798.58 -75.34 812.94 -76.89 827.3 -78.61 841.67 -80.42 843.85 -65.44 848.91 -50.47 856.44 -35.5 865.85 -20.52 876.38 -5.55 887.2 9.41 897.44 24.39 906.3 39.36 913.07 54.33 917.2 69.31 918.37 84.28 916.49 99.26 911.71 114.23 904.4 129.2 895.15 144.18 884.7 159.15 873.87 174.12 863.52 189.1 854.49 204.07 847.49 219.04 843.07 234.02 841.6 248.99 843.17 263.96 847.68 278.94 854.76 293.91 863.84 308.89 874.21 323.86 885.05 338.83 895.47 353.81 904.67 368.78 911.91 383.75 916.6 398.73 918.38 413.7 917.11 428.67 912.89 443.65 906.04 458.62 897.13 473.6 886.85 488.57 876.03 503.54 865.52 518.52 856.16 533.49 848.7 548.46 843.73 563.44 841.65 578.41 842.61 593.38 846.55 608.36 853.16 623.33 861.89 638.3 872.07 653.28 882.88 668.25 893.46 683.23 902.96 698.2 910.64 713.17 915.88 728.15 918.27 743.12 917.61 758.09 913.96 773.07 907.6 788.04 899.05 803.01 888.98 817.99 878.2 832.96 867.56 847.93 857.91 862.91 850.02 877.88 835.51 886.91 821.01 895.54 806.51 903.27 792.01 909.63 777.5 914.27 763 916.92 748.5 917.41 734 915.73 719.49 911.96 704.99 906.33 690.49 899.17 675.99 890.89 661.49 881.97 646.98 872.95 632.48 864.33 617.98 856.62 603.48 850.28 588.97 845.66 574.47 843.05 559.97 842.59 545.47 844.3 530.97 848.1 516.46 853.75 501.96 860.94 487.46 869.23 472.96 878.15 458.45 887.18 443.95 895.79 429.45 903.47 414.95 909.8 400.44 914.38 385.94 916.96 371.44 917.39 356.94 915.64 342.44 911.82 327.93 906.14 313.43 898.94 298.93 890.63 284.43 881.71 269.92 872.68 255.42 864.08 240.92 856.41 226.42 850.11 211.91 845.56 197.41 843 182.91 842.61 168.41 844.39 153.91 848.24 139.4 853.95 124.9 861.17 110.4 869.49 95.9 878.42 81.39 887.44 66.89 896.03 52.39 903.68 37.89 909.96 23.38 914.49 8.88 917.01 -5.61 917.37 -20.11 915.56 -34.61 911.68 -49.12 905.95 -63.62 898.71 -78.12 890.38 -78.61 875.25 -79.22 860.12 -79.88 844.99 -80.56 829.86 -81.19 814.73 -81.72 799.6 -82.12 784.47 -82.35 769.34 -82.39 754.21 -82.24 739.08 -81.91 723.95 -81.43 708.82 -80.84 693.69 -80.18 678.56 -79.5 663.43 -78.86 648.3 -78.32 633.17 -77.9 618.04 -77.66 602.91 -77.6 587.78 -77.73 572.65 -78.04 557.52 -78.51 542.39 -79.09 527.26 -79.75 512.13 -80.42 497 -81.07 481.87 -81.62 466.74 -82.05 451.61 -82.31 436.48 -82.39 421.35 -82.28 406.22 -81.99 391.09 -81.54 375.96 -80.96 360.83 -80.31 345.7 -79.63 330.57 -78.99 315.44 -78.42 300.31 -77.98 285.19 -77.69 270.06 -77.6 254.93 -77.69 239.8 -77.96 224.67 -78.4 209.54 -78.97 194.41 -79.61 179.28 -80.29 164.15 -80.94 149.02 -81.52 133.89 -81.98 118.76 -82.28 103.63 -82.39 88.5 -82.32 73.37 -82.06 58.24 -81.64 43.11 -81.09 27.98 -80.45 12.85 -79.77 -2.27 -79.11 -17.4 -78.52 -32.53 -78.05 -47.66 -77.74 -62.79 -77.6 -77.92" fill="url(#uuunion-grad)"></path><path d="M-77.6 -77.92Q-77.74 -62.79 -78.05 -47.66 -78.52 -32.53 -79.11 -17.4 -79.77 -2.27 -80.45 12.85 -81.09 27.98 -81.64 43.11 -82.06 58.24 -82.32 73.37 -82.39 88.5 -82.28 103.63 -81.98 118.76 -81.52 133.89 -80.94 149.02 -80.29 164.15 -79.61 179.28 -78.97 194.41 -78.4 209.54 -77.96 224.67 -77.69 239.8 -77.6 254.93 -77.69 270.06 -77.98 285.19 -78.42 300.31 -78.99 315.44 -79.63 330.57 -80.31 345.7 -80.96 360.83 -81.54 375.96 -81.99 391.09 -82.28 406.22 -71.88 409.61 -61.47 412.76 -51.07 415.57 -40.66 417.97 -30.26 419.91 -19.85 421.33 -0.35 422.42 3.02 422.48 15.92 415.45 28.76 407.55 41.5 398.88 54.14 389.55 66.66 379.68 79.05 369.45 91.3 359 103.41 348.53 115.38 338.19 127.21 328.15 138.91 318.55 150.49 309.53 161.96 301.18 173.34 293.58 184.65 286.76 195.91 280.73 207.14 275.48 218.38 270.93 229.65 267.02 240.98 263.62 252.39 260.63 263.92 257.89 275.59 255.26 287.43 252.59 299.46 249.74 311.71 246.58 324.18 242.98 336.9 238.86 349.86 234.13 363.09 228.74 376.58 222.69 390.33 215.97 404.32 208.62 418.55 200.7 433 192.29 447.65 183.5 462.46 174.42 477.4 165.19 492.45 155.93 507.57 146.75 522.7 137.79 537.82 129.13 552.88 120.88 567.83 113.09 582.63 105.83 597.23 99.11 611.6 92.95 625.7 87.31 639.48 82.17 652.92 77.46 665.99 73.1 678.66 69.02 690.92 65.1 702.76 61.26 714.16 57.39 725.15 53.4 735.71 49.19 745.86 44.7 755.64 39.86 765.06 34.62 774.16 28.96 782.99 22.86 791.58 16.35 800 9.43 788.65 -8.57 778.53 -26.59 770.72 -44.61 766.08 -62.62 765.11 -80.64 767.9 -98.65 774.16 -116.67 783.21 -134.69 768.61 -134.4 754.01 -134.43 739.41 -134.78 724.8 -135.43 710.2 -136.35 695.6 -137.47 681 -138.74 666.39 -140.08 651.79 -141.42 637.19 -142.67 622.59 -143.78 607.98 -144.66 593.38 -145.27 578.78 -145.58 564.18 -145.57 549.57 -145.24 534.97 -144.61 520.37 -143.71 505.77 -142.6 491.16 -141.34 476.56 -140 461.96 -138.66 447.36 -137.4 432.75 -136.28 418.15 -135.38 403.55 -134.75 388.95 -134.42 374.34 -134.41 359.74 -134.72 345.14 -135.33 330.54 -136.21 315.93 -137.31 301.33 -138.57 286.73 -139.9 272.13 -141.24 257.52 -142.51 242.92 -143.64 228.32 -144.55 213.72 -145.21 199.11 -145.56 184.51 -145.59 169.91 -145.31 155.31 -144.71 140.7 -143.84 126.1 -142.76 111.5 -141.51 96.9 -140.18 82.29 -138.83 67.69 -137.56 53.09 -136.42 38.49 -135.49 23.88 -134.82 9.28 -134.44 -5.31 -134.39 -19.91 -134.66 -34.52 -135.23 -49.12 -136.08 -63.72 -137.15 -78.32 -138.39 -92.93 -139.72 -107.53 -141.07 -122.13 -142.35 -130.98 -130.18 -113.52 -112.04 -104.4 -103.63 -95.39 -95.12 -86.46 -86.54 -77.6 -77.92" fill="url(#uuunion-grad2)" filter="url(#uuunion-blur)"></path><path d="M833.36 421.23Q843.77 419.76 854.17 417.78 864.58 415.33 874.98 412.49 885.39 409.32 895.79 405.91 912.29 408.03 917.11 428.67 912.89 443.65 906.04 458.62 897.13 473.6 886.85 488.57 876.03 503.54 865.52 518.52 856.16 533.49 848.7 548.46 843.73 563.44 841.65 578.41 842.61 593.38 846.55 608.36 853.16 623.33 861.89 638.3 872.07 653.28 882.88 668.25 893.46 683.23 902.96 698.2 910.64 713.17 915.88 728.15 918.27 743.12 917.61 758.09 913.96 773.07 907.6 788.04 899.05 803.01 888.98 817.99 878.2 832.96 867.56 847.93 857.91 862.91 850.02 877.88 836.71 886.18 823.4 894.17 810.09 901.47 796.78 907.71 783.47 912.59 770.16 915.87 756.85 917.4 743.54 917.08 730.24 914.94 716.93 911.09 703.62 905.71 690.31 899.07 677 891.49 663.69 883.35 650.38 875.04 637.07 866.98 623.76 859.55 610.46 853.13 597.15 848.03 583.84 844.5 570.53 842.71 557.22 842.75 543.91 844.61 530.6 848.22 517.29 853.39 503.98 859.86 490.68 867.32 477.37 875.4 464.06 883.71 450.75 891.83 437.44 899.38 424.13 905.97 410.82 911.29 397.51 915.07 384.2 917.13 370.9 917.37 357.59 915.77 344.28 912.41 330.97 907.47 317.66 901.17 304.35 893.84 291.04 885.82 277.73 877.52 264.42 869.34 251.12 861.69 237.81 854.93 224.5 849.4 211.19 845.38 197.88 843.05 184.57 842.54 171.26 843.87 157.95 846.97 144.65 851.69 131.34 857.8 118.03 865 104.72 872.94 91.41 881.22 78.1 889.45 64.79 897.21 51.48 904.12 38.17 909.85 24.87 914.11 4.96 911.94 -1.47 896.87 -1.31 886.55 -1.13 876.24 -0.95 865.93 -0.77 855.62 -0.27 840.15 0.57 835 13.52 827.84 26.54 819.33 39.63 809.55 52.76 798.68 65.91 786.9 79.05 774.45 92.17 761.59 105.24 748.59 118.24 735.72 131.15 723.26 143.95 711.44 156.61 700.49 169.13 690.58 181.48 681.86 193.67 674.4 205.68 668.23 217.51 663.35 229.16 659.68 240.64 657.09 251.96 655.44 263.12 654.52 274.15 654.1 285.07 653.95 295.9 653.81 306.67 653.45 317.4 652.61 328.14 651.09 338.9 648.72 349.73 645.33 360.65 640.84 371.71 635.17 382.94 628.34 394.36 620.37 406.01 611.35 417.91 601.4 430.09 590.69 442.56 579.41 455.34 567.78 468.44 556 481.86 544.31 495.61 532.93 509.68 522.06 524.06 511.88 538.72 502.54 553.65 494.14 568.82 486.77 584.2 480.46 599.75 475.18 615.43 470.89 631.19 467.5 646.99 464.86 662.77 462.83 678.48 461.22 694.08 459.85 709.51 458.5 724.72 456.99 739.66 455.11 754.29 452.71 768.55 449.63 782.42 445.76 795.86 441.01 808.85 435.34 827.36 424.98 833.36 421.23" fill="url(#uuunion-grad3)" filter="url(#uuunion-blur2)"></path></svg>