<svg width="1429" height="1569" viewBox="0 0 1429 1569" fill="none" xmlns="http://www.w3.org/2000/svg">
<mask id="mask0_591_6399" style="mask-type:alpha" maskUnits="userSpaceOnUse" x="0" y="0" width="1429" height="1569">
<rect width="1429" height="1569" fill="#FEFEFE"/>
</mask>
<g mask="url(#mask0_591_6399)">
<rect x="437.603" y="1267.08" width="80.344" height="27.1728" rx="7.5" transform="rotate(179.891 437.603 1267.08)" fill="#FAFED7" stroke="#E2F81C"/>
<rect x="346.736" y="1267.26" width="49.3936" height="27.1728" rx="7.5" transform="rotate(179.891 346.736 1267.26)" fill="#FAFED7" stroke="#E2F81C"/>
<rect x="286.423" y="1267.37" width="70.8208" height="27.1728" rx="7.5" transform="rotate(179.891 286.423 1267.37)" fill="#FAFED7" stroke="#E2F81C"/>
<rect x="205.079" y="1267.53" width="80.344" height="27.1728" rx="7.5" transform="rotate(179.891 205.079 1267.53)" fill="#FAFED7" stroke="#E2F81C"/>
<rect x="-47.9243" y="1240.84" width="70.8208" height="27.1728" rx="7.5" transform="rotate(-0.109449 -47.9243 1240.84)" fill="#FAFED7" stroke="#E2F81C"/>
<rect x="33.4194" y="1240.68" width="80.344" height="27.1728" rx="7.5" transform="rotate(-0.109449 33.4194 1240.68)" fill="#FAFED7" stroke="#E2F81C"/>
<rect x="397.055" y="1227.88" width="80.344" height="27.1728" rx="7.5" transform="rotate(179.891 397.055 1227.88)" fill="#FAFED7" stroke="#E2F81C"/>
<rect x="305.791" y="1228.05" width="49.3936" height="27.1728" rx="7.5" transform="rotate(179.891 305.791 1228.05)" fill="#FAFED7" stroke="#E2F81C"/>
<rect x="245.478" y="1228.17" width="70.8208" height="27.1728" rx="7.5" transform="rotate(179.891 245.478 1228.17)" fill="#FAFED7" stroke="#E2F81C"/>
<rect x="164.133" y="1228.32" width="80.344" height="27.1728" rx="7.5" transform="rotate(179.891 164.133 1228.32)" fill="#FAFED7" stroke="#E2F81C"/>
<rect x="-7.12942" y="1201.48" width="80.344" height="27.1728" rx="7.5" transform="rotate(-0.109449 -7.12942 1201.48)" fill="#FAFED7" stroke="#E2F81C"/>
<rect x="518.798" y="1188.76" width="80.344" height="27.1728" rx="7.5" transform="rotate(179.891 518.798 1188.76)" fill="#FAFED7" stroke="#E2F81C"/>
<rect x="427.931" y="1188.93" width="49.3936" height="27.1728" rx="7.5" transform="rotate(179.891 427.931 1188.93)" fill="#FAFED7" stroke="#E2F81C"/>
<rect x="367.617" y="1189.05" width="70.8208" height="27.1728" rx="7.5" transform="rotate(179.891 367.617 1189.05)" fill="#FAFED7" stroke="#E2F81C"/>
<rect x="286.273" y="1189.2" width="80.344" height="27.1728" rx="7.5" transform="rotate(179.891 286.273 1189.2)" fill="#FAFED7" stroke="#E2F81C"/>
<rect x="-27.0435" y="1162.63" width="49.3936" height="27.1728" rx="7.5" transform="rotate(-0.109449 -27.0435 1162.63)" fill="#FAFED7" stroke="#E2F81C"/>
<rect x="33.27" y="1162.51" width="70.8208" height="27.1728" rx="7.5" transform="rotate(-0.109449 33.27 1162.51)" fill="#FAFED7" stroke="#E2F81C"/>
<rect x="114.614" y="1162.36" width="80.344" height="27.1728" rx="7.5" transform="rotate(-0.109449 114.614 1162.36)" fill="#FAFED7" stroke="#E2F81C"/>
<rect x="478.249" y="1149.55" width="80.344" height="27.1728" rx="7.5" transform="rotate(179.891 478.249 1149.55)" fill="#FAFED7" stroke="#E2F81C"/>
<rect x="386.985" y="1149.73" width="49.3936" height="27.1728" rx="7.5" transform="rotate(179.891 386.985 1149.73)" fill="#FAFED7" stroke="#E2F81C"/>
<rect x="326.672" y="1149.84" width="70.8208" height="27.1728" rx="7.5" transform="rotate(179.891 326.672 1149.84)" fill="#FAFED7" stroke="#E2F81C"/>
<rect x="245.328" y="1150" width="80.344" height="27.1728" rx="7.5" transform="rotate(179.891 245.328 1150)" fill="#FAFED7" stroke="#E2F81C"/>
<rect x="-7.27834" y="1123.31" width="70.424" height="27.1728" rx="7.5" transform="rotate(-0.109449 -7.27834 1123.31)" fill="#FAFED7" stroke="#E2F81C"/>
<rect x="74.0654" y="1123.15" width="80.344" height="27.1728" rx="7.5" transform="rotate(-0.109449 74.0654 1123.15)" fill="#FAFED7" stroke="#E2F81C"/>
<rect x="-33.3701" y="966.622" width="49.3936" height="27.1728" rx="7.5" transform="rotate(-0.109451 -33.3701 966.622)" fill="#FAFED7" stroke="#E2F81C"/>
<rect x="26.9433" y="966.506" width="70.8208" height="27.1728" rx="7.5" transform="rotate(-0.109451 26.9433 966.506)" fill="#FAFED7" stroke="#E2F81C"/>
<rect x="108.288" y="966.351" width="80.344" height="27.1728" rx="7.5" transform="rotate(-0.109451 108.288 966.351)" fill="#FAFED7" stroke="#E2F81C"/>
<rect x="512.471" y="992.752" width="80.344" height="27.1728" rx="7.5" transform="rotate(179.891 512.471 992.752)" fill="#FAFED7" stroke="#E2F81C"/>
<rect x="421.604" y="992.925" width="49.3936" height="27.1728" rx="7.5" transform="rotate(179.891 421.604 992.925)" fill="#FAFED7" stroke="#E2F81C"/>
<rect x="361.291" y="993.041" width="70.8208" height="27.1728" rx="7.5" transform="rotate(179.891 361.291 993.041)" fill="#FAFED7" stroke="#E2F81C"/>
<rect x="279.947" y="993.196" width="80.344" height="27.1728" rx="7.5" transform="rotate(179.891 279.947 993.196)" fill="#FAFED7" stroke="#E2F81C"/>
<rect x="7.57517" y="1005.83" width="49.3936" height="27.1728" rx="7.5" transform="rotate(-0.109449 7.57517 1005.83)" fill="#FAFED7" stroke="#E2F81C"/>
<rect x="67.8891" y="1005.71" width="70.8208" height="27.1728" rx="7.5" transform="rotate(-0.109449 67.8891 1005.71)" fill="#FAFED7" stroke="#E2F81C"/>
<rect x="149.233" y="1005.56" width="80.344" height="27.1728" rx="7.5" transform="rotate(-0.109449 149.233 1005.56)" fill="#FAFED7" stroke="#E2F81C"/>
<rect x="553.417" y="1031.96" width="80.344" height="27.1728" rx="7.5" transform="rotate(179.891 553.417 1031.96)" fill="#FAFED7" stroke="#E2F81C"/>
<rect x="462.549" y="1032.13" width="49.3936" height="27.1728" rx="7.5" transform="rotate(179.891 462.549 1032.13)" fill="#FAFED7" stroke="#E2F81C"/>
<rect x="402.236" y="1032.25" width="70.8208" height="27.1728" rx="7.5" transform="rotate(179.891 402.236 1032.25)" fill="#FAFED7" stroke="#E2F81C"/>
<rect x="320.496" y="1032.4" width="80.344" height="27.1728" rx="7.5" transform="rotate(179.891 320.496 1032.4)" fill="#FAFED7" stroke="#E2F81C"/>
<rect x="-54.251" y="1044.83" width="70.8208" height="27.1728" rx="7.5" transform="rotate(-0.109449 -54.251 1044.83)" fill="#FAFED7" stroke="#E2F81C"/>
<rect x="27.0928" y="1044.68" width="80.344" height="27.1728" rx="7.5" transform="rotate(-0.109449 27.0928 1044.68)" fill="#FAFED7" stroke="#E2F81C"/>
<rect x="431.277" y="1071.08" width="80.344" height="27.1728" rx="7.5" transform="rotate(179.891 431.277 1071.08)" fill="#FAFED7" stroke="#E2F81C"/>
<rect x="340.41" y="1071.25" width="49.3936" height="27.1728" rx="7.5" transform="rotate(179.891 340.41 1071.25)" fill="#FAFED7" stroke="#E2F81C"/>
<rect x="280.096" y="1071.37" width="70.8208" height="27.1728" rx="7.5" transform="rotate(179.891 280.096 1071.37)" fill="#FAFED7" stroke="#E2F81C"/>
<rect x="198.752" y="1071.52" width="80.344" height="27.1728" rx="7.5" transform="rotate(179.891 198.752 1071.52)" fill="#FAFED7" stroke="#E2F81C"/>
<rect x="-13.3057" y="1084.04" width="70.8208" height="27.1728" rx="7.5" transform="rotate(-0.109449 -13.3057 1084.04)" fill="#FAFED7" stroke="#E2F81C"/>
<rect x="68.0386" y="1083.88" width="80.344" height="27.1728" rx="7.5" transform="rotate(-0.109449 68.0386 1083.88)" fill="#FAFED7" stroke="#E2F81C"/>
<rect x="472.222" y="1110.28" width="80.344" height="27.1728" rx="7.5" transform="rotate(179.891 472.222 1110.28)" fill="#FAFED7" stroke="#E2F81C"/>
<rect x="381.355" y="1110.46" width="49.3936" height="27.1728" rx="7.5" transform="rotate(179.891 381.355 1110.46)" fill="#FAFED7" stroke="#E2F81C"/>
<rect x="320.645" y="1110.57" width="70.424" height="27.1728" rx="7.5" transform="rotate(179.891 320.645 1110.57)" fill="#FAFED7" stroke="#E2F81C"/>
<rect x="239.301" y="1110.73" width="80.344" height="27.1728" rx="7.5" transform="rotate(179.891 239.301 1110.73)" fill="#FAFED7" stroke="#E2F81C"/>
<rect x="1090.6" y="1267.08" width="80.344" height="27.1728" rx="7.5" transform="rotate(179.891 1090.6 1267.08)" fill="#FAFED7" stroke="#E2F81C"/>
<rect x="999.736" y="1267.26" width="49.3936" height="27.1728" rx="7.5" transform="rotate(179.891 999.736 1267.26)" fill="#FAFED7" stroke="#E2F81C"/>
<rect x="939.423" y="1267.37" width="70.8208" height="27.1728" rx="7.5" transform="rotate(179.891 939.423 1267.37)" fill="#FAFED7" stroke="#E2F81C"/>
<rect x="858.079" y="1267.53" width="80.344" height="27.1728" rx="7.5" transform="rotate(179.891 858.079 1267.53)" fill="#FAFED7" stroke="#E2F81C"/>
<rect x="453.895" y="1241.13" width="80.344" height="27.1728" rx="7.5" transform="rotate(-0.109449 453.895 1241.13)" fill="#FAFED7" stroke="#E2F81C"/>
<rect x="544.762" y="1240.95" width="49.3936" height="27.1728" rx="7.5" transform="rotate(-0.109449 544.762 1240.95)" fill="#FAFED7" stroke="#E2F81C"/>
<rect x="605.076" y="1240.84" width="70.8208" height="27.1728" rx="7.5" transform="rotate(-0.109449 605.076 1240.84)" fill="#FAFED7" stroke="#E2F81C"/>
<rect x="686.419" y="1240.68" width="80.344" height="27.1728" rx="7.5" transform="rotate(-0.109449 686.419 1240.68)" fill="#FAFED7" stroke="#E2F81C"/>
<rect x="1050.05" y="1227.88" width="80.344" height="27.1728" rx="7.5" transform="rotate(179.891 1050.05 1227.88)" fill="#FAFED7" stroke="#E2F81C"/>
<rect x="958.791" y="1228.05" width="49.3936" height="27.1728" rx="7.5" transform="rotate(179.891 958.791 1228.05)" fill="#FAFED7" stroke="#E2F81C"/>
<rect x="898.478" y="1228.17" width="70.8208" height="27.1728" rx="7.5" transform="rotate(179.891 898.478 1228.17)" fill="#FAFED7" stroke="#E2F81C"/>
<rect x="817.133" y="1228.32" width="80.344" height="27.1728" rx="7.5" transform="rotate(179.891 817.133 1228.32)" fill="#FAFED7" stroke="#E2F81C"/>
<rect x="412.95" y="1201.92" width="80.344" height="27.1728" rx="7.5" transform="rotate(-0.109449 412.95 1201.92)" fill="#FAFED7" stroke="#E2F81C"/>
<rect x="503.817" y="1201.75" width="49.3936" height="27.1728" rx="7.5" transform="rotate(-0.109449 503.817 1201.75)" fill="#FAFED7" stroke="#E2F81C"/>
<rect x="564.13" y="1201.63" width="70.8208" height="27.1728" rx="7.5" transform="rotate(-0.109449 564.13 1201.63)" fill="#FAFED7" stroke="#E2F81C"/>
<rect x="645.871" y="1201.48" width="80.344" height="27.1728" rx="7.5" transform="rotate(-0.109449 645.871 1201.48)" fill="#FAFED7" stroke="#E2F81C"/>
<rect x="1171.8" y="1188.76" width="80.344" height="27.1728" rx="7.5" transform="rotate(179.891 1171.8 1188.76)" fill="#FAFED7" stroke="#E2F81C"/>
<rect x="1080.93" y="1188.93" width="49.3936" height="27.1728" rx="7.5" transform="rotate(179.891 1080.93 1188.93)" fill="#FAFED7" stroke="#E2F81C"/>
<rect x="1020.62" y="1189.05" width="70.8208" height="27.1728" rx="7.5" transform="rotate(179.891 1020.62 1189.05)" fill="#FAFED7" stroke="#E2F81C"/>
<rect x="939.273" y="1189.2" width="80.344" height="27.1728" rx="7.5" transform="rotate(179.891 939.273 1189.2)" fill="#FAFED7" stroke="#E2F81C"/>
<rect x="535.089" y="1162.8" width="80.344" height="27.1728" rx="7.5" transform="rotate(-0.109449 535.089 1162.8)" fill="#FAFED7" stroke="#E2F81C"/>
<rect x="625.957" y="1162.63" width="49.3936" height="27.1728" rx="7.5" transform="rotate(-0.109449 625.957 1162.63)" fill="#FAFED7" stroke="#E2F81C"/>
<rect x="686.27" y="1162.51" width="70.8208" height="27.1728" rx="7.5" transform="rotate(-0.109449 686.27 1162.51)" fill="#FAFED7" stroke="#E2F81C"/>
<rect x="767.614" y="1162.36" width="80.344" height="27.1728" rx="7.5" transform="rotate(-0.109449 767.614 1162.36)" fill="#FAFED7" stroke="#E2F81C"/>
<rect x="1131.25" y="1149.55" width="80.344" height="27.1728" rx="7.5" transform="rotate(179.891 1131.25 1149.55)" fill="#FAFED7" stroke="#E2F81C"/>
<rect x="1039.99" y="1149.73" width="49.3936" height="27.1728" rx="7.5" transform="rotate(179.891 1039.99 1149.73)" fill="#FAFED7" stroke="#E2F81C"/>
<rect x="979.672" y="1149.84" width="70.8208" height="27.1728" rx="7.5" transform="rotate(179.891 979.672 1149.84)" fill="#FAFED7" stroke="#E2F81C"/>
<rect x="898.328" y="1150" width="80.344" height="27.1728" rx="7.5" transform="rotate(179.891 898.328 1150)" fill="#FAFED7" stroke="#E2F81C"/>
<rect x="494.145" y="1123.6" width="80.344" height="27.1728" rx="7.5" transform="rotate(-0.109449 494.145 1123.6)" fill="#FAFED7" stroke="#E2F81C"/>
<rect x="585.011" y="1123.42" width="49.3936" height="27.1728" rx="7.5" transform="rotate(-0.109449 585.011 1123.42)" fill="#FAFED7" stroke="#E2F81C"/>
<rect x="645.722" y="1123.31" width="70.424" height="27.1728" rx="7.5" transform="rotate(-0.109449 645.722 1123.31)" fill="#FAFED7" stroke="#E2F81C"/>
<rect x="727.065" y="1123.15" width="80.344" height="27.1728" rx="7.5" transform="rotate(-0.109449 727.065 1123.15)" fill="#FAFED7" stroke="#E2F81C"/>
<rect x="528.763" y="966.795" width="80.344" height="27.1728" rx="7.5" transform="rotate(-0.109451 528.763 966.795)" fill="#FAFED7" stroke="#E2F81C"/>
<rect x="619.63" y="966.622" width="49.3936" height="27.1728" rx="7.5" transform="rotate(-0.109451 619.63 966.622)" fill="#FAFED7" stroke="#E2F81C"/>
<rect x="679.943" y="966.506" width="70.8208" height="27.1728" rx="7.5" transform="rotate(-0.109451 679.943 966.506)" fill="#FAFED7" stroke="#E2F81C"/>
<rect x="761.288" y="966.351" width="80.344" height="27.1728" rx="7.5" transform="rotate(-0.109451 761.288 966.351)" fill="#FAFED7" stroke="#E2F81C"/>
<rect x="1165.47" y="992.752" width="80.344" height="27.1728" rx="7.5" transform="rotate(179.891 1165.47 992.752)" fill="#FAFED7" stroke="#E2F81C"/>
<rect x="1074.6" y="992.925" width="49.3936" height="27.1728" rx="7.5" transform="rotate(179.891 1074.6 992.925)" fill="#FAFED7" stroke="#E2F81C"/>
<rect x="1014.29" y="993.041" width="70.8208" height="27.1728" rx="7.5" transform="rotate(179.891 1014.29 993.041)" fill="#FAFED7" stroke="#E2F81C"/>
<rect x="932.947" y="993.196" width="80.344" height="27.1728" rx="7.5" transform="rotate(179.891 932.947 993.196)" fill="#FAFED7" stroke="#E2F81C"/>
<rect x="569.312" y="1006" width="80.344" height="27.1728" rx="7.5" transform="rotate(-0.109449 569.312 1006)" fill="#FAFED7" stroke="#E2F81C"/>
<rect x="660.575" y="1005.83" width="49.3936" height="27.1728" rx="7.5" transform="rotate(-0.109449 660.575 1005.83)" fill="#FAFED7" stroke="#E2F81C"/>
<rect x="720.889" y="1005.71" width="70.8208" height="27.1728" rx="7.5" transform="rotate(-0.109449 720.889 1005.71)" fill="#FAFED7" stroke="#E2F81C"/>
<rect x="802.233" y="1005.56" width="80.344" height="27.1728" rx="7.5" transform="rotate(-0.109449 802.233 1005.56)" fill="#FAFED7" stroke="#E2F81C"/>
<rect x="1206.42" y="1031.96" width="80.344" height="27.1728" rx="7.5" transform="rotate(179.891 1206.42 1031.96)" fill="#FAFED7" stroke="#E2F81C"/>
<rect x="1115.55" y="1032.13" width="49.3936" height="27.1728" rx="7.5" transform="rotate(179.891 1115.55 1032.13)" fill="#FAFED7" stroke="#E2F81C"/>
<rect x="1055.24" y="1032.25" width="70.8208" height="27.1728" rx="7.5" transform="rotate(179.891 1055.24 1032.25)" fill="#FAFED7" stroke="#E2F81C"/>
<rect x="973.496" y="1032.4" width="80.344" height="27.1728" rx="7.5" transform="rotate(179.891 973.496 1032.4)" fill="#FAFED7" stroke="#E2F81C"/>
<rect x="447.568" y="1045.12" width="80.344" height="27.1728" rx="7.5" transform="rotate(-0.109449 447.568 1045.12)" fill="#FAFED7" stroke="#E2F81C"/>
<rect x="538.436" y="1044.95" width="49.3936" height="27.1728" rx="7.5" transform="rotate(-0.109449 538.436 1044.95)" fill="#FAFED7" stroke="#E2F81C"/>
<rect x="598.749" y="1044.83" width="70.8208" height="27.1728" rx="7.5" transform="rotate(-0.109449 598.749 1044.83)" fill="#FAFED7" stroke="#E2F81C"/>
<rect x="680.093" y="1044.68" width="80.344" height="27.1728" rx="7.5" transform="rotate(-0.109449 680.093 1044.68)" fill="#FAFED7" stroke="#E2F81C"/>
<rect x="1084.28" y="1071.08" width="80.344" height="27.1728" rx="7.5" transform="rotate(179.891 1084.28 1071.08)" fill="#FAFED7" stroke="#E2F81C"/>
<rect x="993.41" y="1071.25" width="49.3936" height="27.1728" rx="7.5" transform="rotate(179.891 993.41 1071.25)" fill="#FAFED7" stroke="#E2F81C"/>
<rect x="933.096" y="1071.37" width="70.8208" height="27.1728" rx="7.5" transform="rotate(179.891 933.096 1071.37)" fill="#FAFED7" stroke="#E2F81C"/>
<rect x="851.752" y="1071.52" width="80.344" height="27.1728" rx="7.5" transform="rotate(179.891 851.752 1071.52)" fill="#FAFED7" stroke="#E2F81C"/>
<rect x="488.117" y="1084.33" width="80.344" height="27.1728" rx="7.5" transform="rotate(-0.109449 488.117 1084.33)" fill="#FAFED7" stroke="#E2F81C"/>
<rect x="579.381" y="1084.15" width="49.3936" height="27.1728" rx="7.5" transform="rotate(-0.109449 579.381 1084.15)" fill="#FAFED7" stroke="#E2F81C"/>
<rect x="639.694" y="1084.04" width="70.8208" height="27.1728" rx="7.5" transform="rotate(-0.109449 639.694 1084.04)" fill="#FAFED7" stroke="#E2F81C"/>
<rect x="721.039" y="1083.88" width="80.344" height="27.1728" rx="7.5" transform="rotate(-0.109449 721.039 1083.88)" fill="#FAFED7" stroke="#E2F81C"/>
<rect x="1125.22" y="1110.28" width="80.344" height="27.1728" rx="7.5" transform="rotate(179.891 1125.22 1110.28)" fill="#FAFED7" stroke="#E2F81C"/>
<rect x="1034.36" y="1110.46" width="49.3936" height="27.1728" rx="7.5" transform="rotate(179.891 1034.36 1110.46)" fill="#FAFED7" stroke="#E2F81C"/>
<rect x="973.645" y="1110.57" width="70.424" height="27.1728" rx="7.5" transform="rotate(179.891 973.645 1110.57)" fill="#FAFED7" stroke="#E2F81C"/>
<rect x="892.301" y="1110.73" width="80.344" height="27.1728" rx="7.5" transform="rotate(179.891 892.301 1110.73)" fill="#FAFED7" stroke="#E2F81C"/>
<rect x="1501.08" y="1268.01" width="80.344" height="27.1728" rx="7.5" transform="rotate(179.891 1501.08 1268.01)" fill="#FAFED7" stroke="#E2F81C"/>
<rect x="1096.89" y="1241.61" width="80.344" height="27.1728" rx="7.5" transform="rotate(-0.109449 1096.89 1241.61)" fill="#FAFED7" stroke="#E2F81C"/>
<rect x="1187.76" y="1241.44" width="49.3936" height="27.1728" rx="7.5" transform="rotate(-0.109449 1187.76 1241.44)" fill="#FAFED7" stroke="#E2F81C"/>
<rect x="1248.08" y="1241.32" width="70.8208" height="27.1728" rx="7.5" transform="rotate(-0.109449 1248.08 1241.32)" fill="#FAFED7" stroke="#E2F81C"/>
<rect x="1329.42" y="1241.16" width="80.344" height="27.1728" rx="7.5" transform="rotate(-0.109449 1329.42 1241.16)" fill="#FAFED7" stroke="#E2F81C"/>
<rect x="1460.13" y="1228.8" width="80.344" height="27.1728" rx="7.5" transform="rotate(179.891 1460.13 1228.8)" fill="#FAFED7" stroke="#E2F81C"/>
<rect x="1055.95" y="1202.4" width="80.344" height="27.1728" rx="7.5" transform="rotate(-0.109449 1055.95 1202.4)" fill="#FAFED7" stroke="#E2F81C"/>
<rect x="1146.82" y="1202.23" width="49.3936" height="27.1728" rx="7.5" transform="rotate(-0.109449 1146.82 1202.23)" fill="#FAFED7" stroke="#E2F81C"/>
<rect x="1207.13" y="1202.12" width="70.8208" height="27.1728" rx="7.5" transform="rotate(-0.109449 1207.13 1202.12)" fill="#FAFED7" stroke="#E2F81C"/>
<rect x="1288.87" y="1201.96" width="80.344" height="27.1728" rx="7.5" transform="rotate(-0.109449 1288.87 1201.96)" fill="#FAFED7" stroke="#E2F81C"/>
<rect x="1178.09" y="1163.28" width="80.344" height="27.1728" rx="7.5" transform="rotate(-0.109449 1178.09 1163.28)" fill="#FAFED7" stroke="#E2F81C"/>
<rect x="1268.96" y="1163.11" width="49.3936" height="27.1728" rx="7.5" transform="rotate(-0.109449 1268.96 1163.11)" fill="#FAFED7" stroke="#E2F81C"/>
<rect x="1329.27" y="1163" width="70.8208" height="27.1728" rx="7.5" transform="rotate(-0.109449 1329.27 1163)" fill="#FAFED7" stroke="#E2F81C"/>
<rect x="1410.61" y="1162.84" width="80.344" height="27.1728" rx="7.5" transform="rotate(-0.109449 1410.61 1162.84)" fill="#FAFED7" stroke="#E2F81C"/>
<rect x="1137.14" y="1124.08" width="80.344" height="27.1728" rx="7.5" transform="rotate(-0.109449 1137.14 1124.08)" fill="#FAFED7" stroke="#E2F81C"/>
<rect x="1228.01" y="1123.91" width="49.3936" height="27.1728" rx="7.5" transform="rotate(-0.109449 1228.01 1123.91)" fill="#FAFED7" stroke="#E2F81C"/>
<rect x="1288.72" y="1123.79" width="70.424" height="27.1728" rx="7.5" transform="rotate(-0.109449 1288.72 1123.79)" fill="#FAFED7" stroke="#E2F81C"/>
<rect x="1370.07" y="1123.63" width="80.344" height="27.1728" rx="7.5" transform="rotate(-0.109449 1370.07 1123.63)" fill="#FAFED7" stroke="#E2F81C"/>
<rect x="1171.76" y="967.277" width="80.344" height="27.1728" rx="7.5" transform="rotate(-0.109451 1171.76 967.277)" fill="#FAFED7" stroke="#E2F81C"/>
<rect x="1262.63" y="967.103" width="49.3936" height="27.1728" rx="7.5" transform="rotate(-0.109451 1262.63 967.103)" fill="#FAFED7" stroke="#E2F81C"/>
<rect x="1322.94" y="966.988" width="70.8208" height="27.1728" rx="7.5" transform="rotate(-0.109451 1322.94 966.988)" fill="#FAFED7" stroke="#E2F81C"/>
<rect x="1404.29" y="966.833" width="80.344" height="27.1728" rx="7.5" transform="rotate(-0.109451 1404.29 966.833)" fill="#FAFED7" stroke="#E2F81C"/>
<rect x="1212.31" y="1006.48" width="80.344" height="27.1728" rx="7.5" transform="rotate(-0.109449 1212.31 1006.48)" fill="#FAFED7" stroke="#E2F81C"/>
<rect x="1303.58" y="1006.31" width="49.3936" height="27.1728" rx="7.5" transform="rotate(-0.109449 1303.58 1006.31)" fill="#FAFED7" stroke="#E2F81C"/>
<rect x="1363.89" y="1006.19" width="70.8208" height="27.1728" rx="7.5" transform="rotate(-0.109449 1363.89 1006.19)" fill="#FAFED7" stroke="#E2F81C"/>
<rect x="1090.57" y="1045.6" width="80.344" height="27.1728" rx="7.5" transform="rotate(-0.109449 1090.57 1045.6)" fill="#FAFED7" stroke="#E2F81C"/>
<rect x="1181.44" y="1045.43" width="49.3936" height="27.1728" rx="7.5" transform="rotate(-0.109449 1181.44 1045.43)" fill="#FAFED7" stroke="#E2F81C"/>
<rect x="1241.75" y="1045.31" width="70.8208" height="27.1728" rx="7.5" transform="rotate(-0.109449 1241.75 1045.31)" fill="#FAFED7" stroke="#E2F81C"/>
<rect x="1323.09" y="1045.16" width="80.344" height="27.1728" rx="7.5" transform="rotate(-0.109449 1323.09 1045.16)" fill="#FAFED7" stroke="#E2F81C"/>
<rect x="1494.75" y="1072" width="80.344" height="27.1728" rx="7.5" transform="rotate(179.891 1494.75 1072)" fill="#FAFED7" stroke="#E2F81C"/>
<rect x="1131.12" y="1084.81" width="80.344" height="27.1728" rx="7.5" transform="rotate(-0.109449 1131.12 1084.81)" fill="#FAFED7" stroke="#E2F81C"/>
<rect x="1222.38" y="1084.63" width="49.3936" height="27.1728" rx="7.5" transform="rotate(-0.109449 1222.38 1084.63)" fill="#FAFED7" stroke="#E2F81C"/>
<rect x="1282.69" y="1084.52" width="70.8208" height="27.1728" rx="7.5" transform="rotate(-0.109449 1282.69 1084.52)" fill="#FAFED7" stroke="#E2F81C"/>
<rect x="1364.04" y="1084.36" width="80.344" height="27.1728" rx="7.5" transform="rotate(-0.109449 1364.04 1084.36)" fill="#FAFED7" stroke="#E2F81C"/>
<rect x="489.603" y="954.084" width="80.344" height="27.1728" rx="7.5" transform="rotate(179.891 489.603 954.084)" fill="#FAFED7" stroke="#E2F81C"/>
<rect x="398.736" y="954.258" width="49.3936" height="27.1728" rx="7.5" transform="rotate(179.891 398.736 954.258)" fill="#FAFED7" stroke="#E2F81C"/>
<rect x="338.423" y="954.373" width="70.8208" height="27.1728" rx="7.5" transform="rotate(179.891 338.423 954.373)" fill="#FAFED7" stroke="#E2F81C"/>
<rect x="257.079" y="954.528" width="80.344" height="27.1728" rx="7.5" transform="rotate(179.891 257.079 954.528)" fill="#FAFED7" stroke="#E2F81C"/>
<rect x="4.07566" y="927.839" width="70.8208" height="27.1728" rx="7.5" transform="rotate(-0.109449 4.07566 927.839)" fill="#FAFED7" stroke="#E2F81C"/>
<rect x="85.4194" y="927.683" width="80.344" height="27.1728" rx="7.5" transform="rotate(-0.109449 85.4194 927.683)" fill="#FAFED7" stroke="#E2F81C"/>
<rect x="449.055" y="914.878" width="80.344" height="27.1728" rx="7.5" transform="rotate(179.891 449.055 914.878)" fill="#FAFED7" stroke="#E2F81C"/>
<rect x="357.791" y="915.053" width="49.3936" height="27.1728" rx="7.5" transform="rotate(179.891 357.791 915.053)" fill="#FAFED7" stroke="#E2F81C"/>
<rect x="297.478" y="915.168" width="70.8208" height="27.1728" rx="7.5" transform="rotate(179.891 297.478 915.168)" fill="#FAFED7" stroke="#E2F81C"/>
<rect x="216.133" y="915.323" width="80.344" height="27.1728" rx="7.5" transform="rotate(179.891 216.133 915.323)" fill="#FAFED7" stroke="#E2F81C"/>
<rect x="-36.8697" y="888.634" width="70.8208" height="27.1728" rx="7.5" transform="rotate(-0.109449 -36.8697 888.634)" fill="#FAFED7" stroke="#E2F81C"/>
<rect x="44.8706" y="888.478" width="80.344" height="27.1728" rx="7.5" transform="rotate(-0.109449 44.8706 888.478)" fill="#FAFED7" stroke="#E2F81C"/>
<rect x="570.798" y="875.759" width="80.344" height="27.1728" rx="7.5" transform="rotate(179.891 570.798 875.759)" fill="#FAFED7" stroke="#E2F81C"/>
<rect x="479.931" y="875.933" width="49.3936" height="27.1728" rx="7.5" transform="rotate(179.891 479.931 875.933)" fill="#FAFED7" stroke="#E2F81C"/>
<rect x="419.617" y="876.048" width="70.8208" height="27.1728" rx="7.5" transform="rotate(179.891 419.617 876.048)" fill="#FAFED7" stroke="#E2F81C"/>
<rect x="338.273" y="876.203" width="80.344" height="27.1728" rx="7.5" transform="rotate(179.891 338.273 876.203)" fill="#FAFED7" stroke="#E2F81C"/>
<rect x="-65.9107" y="849.803" width="80.344" height="27.1728" rx="7.5" transform="rotate(-0.109449 -65.9107 849.803)" fill="#FAFED7" stroke="#E2F81C"/>
<rect x="24.9565" y="849.629" width="49.3936" height="27.1728" rx="7.5" transform="rotate(-0.109449 24.9565 849.629)" fill="#FAFED7" stroke="#E2F81C"/>
<rect x="85.27" y="849.514" width="70.8208" height="27.1728" rx="7.5" transform="rotate(-0.109449 85.27 849.514)" fill="#FAFED7" stroke="#E2F81C"/>
<rect x="166.614" y="849.359" width="80.344" height="27.1728" rx="7.5" transform="rotate(-0.109449 166.614 849.359)" fill="#FAFED7" stroke="#E2F81C"/>
<rect x="530.249" y="836.554" width="80.344" height="27.1728" rx="7.5" transform="rotate(179.891 530.249 836.554)" fill="#FAFED7" stroke="#E2F81C"/>
<rect x="438.985" y="836.728" width="49.3936" height="27.1728" rx="7.5" transform="rotate(179.891 438.985 836.728)" fill="#FAFED7" stroke="#E2F81C"/>
<rect x="378.672" y="836.843" width="70.8208" height="27.1728" rx="7.5" transform="rotate(179.891 378.672 836.843)" fill="#FAFED7" stroke="#E2F81C"/>
<rect x="297.328" y="836.998" width="80.344" height="27.1728" rx="7.5" transform="rotate(179.891 297.328 836.998)" fill="#FAFED7" stroke="#E2F81C"/>
<rect x="-15.9888" y="810.424" width="49.3936" height="27.1728" rx="7.5" transform="rotate(-0.109449 -15.9888 810.424)" fill="#FAFED7" stroke="#E2F81C"/>
<rect x="44.7217" y="810.308" width="70.424" height="27.1728" rx="7.5" transform="rotate(-0.109449 44.7217 810.308)" fill="#FAFED7" stroke="#E2F81C"/>
<rect x="126.065" y="810.153" width="80.344" height="27.1728" rx="7.5" transform="rotate(-0.109449 126.065 810.153)" fill="#FAFED7" stroke="#E2F81C"/>
<rect x="-72.2368" y="653.795" width="80.344" height="27.1728" rx="7.5" transform="rotate(-0.109451 -72.2368 653.795)" fill="#FAFED7" stroke="#E2F81C"/>
<rect x="18.6299" y="653.622" width="49.3936" height="27.1728" rx="7.5" transform="rotate(-0.109451 18.6299 653.622)" fill="#E9DBFA" stroke="#E2F81C"/>
<rect x="78.9433" y="653.507" width="70.8208" height="27.1728" rx="7.5" transform="rotate(-0.109451 78.9433 653.507)" fill="#FAFED7" stroke="#E2F81C"/>
<rect x="160.288" y="653.351" width="80.344" height="27.1728" rx="7.5" transform="rotate(-0.109451 160.288 653.351)" fill="#E9DBFA" stroke="#E2F81C"/>
<rect x="564.471" y="679.752" width="80.344" height="27.1728" rx="7.5" transform="rotate(179.891 564.471 679.752)" fill="#E9DBFA" stroke="#E2F81C"/>
<rect x="473.604" y="679.925" width="49.3936" height="27.1728" rx="7.5" transform="rotate(179.891 473.604 679.925)" fill="#FAFED7" stroke="#E2F81C"/>
<rect x="413.291" y="680.041" width="70.8208" height="27.1728" rx="7.5" transform="rotate(179.891 413.291 680.041)" fill="#E9DBFA" stroke="#E2F81C"/>
<rect x="331.947" y="680.196" width="80.344" height="27.1728" rx="7.5" transform="rotate(179.891 331.947 680.196)" fill="#FAFED7" stroke="#E2F81C"/>
<rect x="-31.6885" y="693.001" width="80.344" height="27.1728" rx="7.5" transform="rotate(-0.109449 -31.6885 693.001)" fill="#FAFED7" stroke="#E2F81C"/>
<rect x="59.5752" y="692.827" width="49.3936" height="27.1728" rx="7.5" transform="rotate(-0.109449 59.5752 692.827)" fill="#FAFED7" stroke="#E2F81C"/>
<rect x="119.889" y="692.712" width="70.8208" height="27.1728" rx="7.5" transform="rotate(-0.109449 119.889 692.712)" fill="#FAFED7" stroke="#E2F81C"/>
<rect x="201.233" y="692.556" width="80.344" height="27.1728" rx="7.5" transform="rotate(-0.109449 201.233 692.556)" fill="#FAFED7" stroke="#E2F81C"/>
<rect x="605.417" y="718.957" width="80.344" height="27.1728" rx="7.5" transform="rotate(179.891 605.417 718.957)" fill="#FAFED7" stroke="#E2F81C"/>
<rect x="514.549" y="719.13" width="49.3936" height="27.1728" rx="7.5" transform="rotate(179.891 514.549 719.13)" fill="#FAFED7" stroke="#E2F81C"/>
<rect x="454.236" y="719.246" width="70.8208" height="27.1728" rx="7.5" transform="rotate(179.891 454.236 719.246)" fill="#FAFED7" stroke="#E2F81C"/>
<rect x="372.496" y="719.402" width="80.344" height="27.1728" rx="7.5" transform="rotate(179.891 372.496 719.402)" fill="#E9DBFA" stroke="#E2F81C"/>
<rect x="-2.251" y="731.831" width="70.8208" height="27.1728" rx="7.5" transform="rotate(-0.109449 -2.251 731.831)" fill="#FAFED7" stroke="#E2F81C"/>
<rect x="79.0928" y="731.676" width="80.344" height="27.1728" rx="7.5" transform="rotate(-0.109449 79.0928 731.676)" fill="#FAFED7" stroke="#E2F81C"/>
<rect x="483.277" y="758.077" width="80.344" height="27.1728" rx="7.5" transform="rotate(179.891 483.277 758.077)" fill="#FAFED7" stroke="#E2F81C"/>
<rect x="392.41" y="758.25" width="49.3936" height="27.1728" rx="7.5" transform="rotate(179.891 392.41 758.25)" fill="#FAFED7" stroke="#E2F81C"/>
<rect x="332.096" y="758.366" width="70.8208" height="27.1728" rx="7.5" transform="rotate(179.891 332.096 758.366)" fill="#FAFED7" stroke="#E2F81C"/>
<rect x="250.752" y="758.521" width="80.344" height="27.1728" rx="7.5" transform="rotate(179.891 250.752 758.521)" fill="#FAFED7" stroke="#E2F81C"/>
<rect x="-21.6192" y="771.152" width="49.3936" height="27.1728" rx="7.5" transform="rotate(-0.109449 -21.6192 771.152)" fill="#FAFED7" stroke="#E2F81C"/>
<rect x="38.6943" y="771.036" width="70.8208" height="27.1728" rx="7.5" transform="rotate(-0.109449 38.6943 771.036)" fill="#FAFED7" stroke="#E2F81C"/>
<rect x="120.039" y="770.881" width="80.344" height="27.1728" rx="7.5" transform="rotate(-0.109449 120.039 770.881)" fill="#FAFED7" stroke="#E2F81C"/>
<rect x="524.222" y="797.282" width="80.344" height="27.1728" rx="7.5" transform="rotate(179.891 524.222 797.282)" fill="#FAFED7" stroke="#E2F81C"/>
<rect x="433.355" y="797.455" width="49.3936" height="27.1728" rx="7.5" transform="rotate(179.891 433.355 797.455)" fill="#FAFED7" stroke="#E2F81C"/>
<rect x="372.645" y="797.571" width="70.424" height="27.1728" rx="7.5" transform="rotate(179.891 372.645 797.571)" fill="#FAFED7" stroke="#E2F81C"/>
<rect x="291.301" y="797.727" width="80.344" height="27.1728" rx="7.5" transform="rotate(179.891 291.301 797.727)" fill="#FAFED7" stroke="#E2F81C"/>
<rect x="1142.6" y="954.084" width="80.344" height="27.1728" rx="7.5" transform="rotate(179.891 1142.6 954.084)" fill="#FAFED7" stroke="#E2F81C"/>
<rect x="1051.74" y="954.258" width="49.3936" height="27.1728" rx="7.5" transform="rotate(179.891 1051.74 954.258)" fill="#FAFED7" stroke="#E2F81C"/>
<rect x="991.423" y="954.373" width="70.8208" height="27.1728" rx="7.5" transform="rotate(179.891 991.423 954.373)" fill="#FAFED7" stroke="#E2F81C"/>
<rect x="910.079" y="954.528" width="80.344" height="27.1728" rx="7.5" transform="rotate(179.891 910.079 954.528)" fill="#FAFED7" stroke="#E2F81C"/>
<rect x="505.895" y="928.128" width="80.344" height="27.1728" rx="7.5" transform="rotate(-0.109449 505.895 928.128)" fill="#FAFED7" stroke="#E2F81C"/>
<rect x="596.762" y="927.954" width="49.3936" height="27.1728" rx="7.5" transform="rotate(-0.109449 596.762 927.954)" fill="#FAFED7" stroke="#E2F81C"/>
<rect x="657.076" y="927.839" width="70.8208" height="27.1728" rx="7.5" transform="rotate(-0.109449 657.076 927.839)" fill="#FAFED7" stroke="#E2F81C"/>
<rect x="738.419" y="927.683" width="80.344" height="27.1728" rx="7.5" transform="rotate(-0.109449 738.419 927.683)" fill="#FAFED7" stroke="#E2F81C"/>
<rect x="1102.05" y="914.878" width="80.344" height="27.1728" rx="7.5" transform="rotate(179.891 1102.05 914.878)" fill="#FAFED7" stroke="#E2F81C"/>
<rect x="1010.79" y="915.053" width="49.3936" height="27.1728" rx="7.5" transform="rotate(179.891 1010.79 915.053)" fill="#FAFED7" stroke="#E2F81C"/>
<rect x="950.478" y="915.168" width="70.8208" height="27.1728" rx="7.5" transform="rotate(179.891 950.478 915.168)" fill="#FAFED7" stroke="#E2F81C"/>
<rect x="869.133" y="915.323" width="80.344" height="27.1728" rx="7.5" transform="rotate(179.891 869.133 915.323)" fill="#FAFED7" stroke="#E2F81C"/>
<rect x="464.95" y="888.923" width="80.344" height="27.1728" rx="7.5" transform="rotate(-0.109449 464.95 888.923)" fill="#FAFED7" stroke="#E2F81C"/>
<rect x="555.817" y="888.749" width="49.3936" height="27.1728" rx="7.5" transform="rotate(-0.109449 555.817 888.749)" fill="#FAFED7" stroke="#E2F81C"/>
<rect x="616.13" y="888.634" width="70.8208" height="27.1728" rx="7.5" transform="rotate(-0.109449 616.13 888.634)" fill="#FAFED7" stroke="#E2F81C"/>
<rect x="697.871" y="888.478" width="80.344" height="27.1728" rx="7.5" transform="rotate(-0.109449 697.871 888.478)" fill="#FAFED7" stroke="#E2F81C"/>
<rect x="1223.8" y="875.759" width="80.344" height="27.1728" rx="7.5" transform="rotate(179.891 1223.8 875.759)" fill="#FAFED7" stroke="#E2F81C"/>
<rect x="1132.93" y="875.933" width="49.3936" height="27.1728" rx="7.5" transform="rotate(179.891 1132.93 875.933)" fill="#FAFED7" stroke="#E2F81C"/>
<rect x="1072.62" y="876.048" width="70.8208" height="27.1728" rx="7.5" transform="rotate(179.891 1072.62 876.048)" fill="#FAFED7" stroke="#E2F81C"/>
<rect x="991.273" y="876.203" width="80.344" height="27.1728" rx="7.5" transform="rotate(179.891 991.273 876.203)" fill="#FAFED7" stroke="#E2F81C"/>
<rect x="587.089" y="849.803" width="80.344" height="27.1728" rx="7.5" transform="rotate(-0.109449 587.089 849.803)" fill="#FAFED7" stroke="#E2F81C"/>
<rect x="677.957" y="849.629" width="49.3936" height="27.1728" rx="7.5" transform="rotate(-0.109449 677.957 849.629)" fill="#FAFED7" stroke="#E2F81C"/>
<rect x="738.27" y="849.514" width="70.8208" height="27.1728" rx="7.5" transform="rotate(-0.109449 738.27 849.514)" fill="#FAFED7" stroke="#E2F81C"/>
<rect x="819.614" y="849.358" width="80.344" height="27.1728" rx="7.5" transform="rotate(-0.109449 819.614 849.358)" fill="#FAFED7" stroke="#E2F81C"/>
<rect x="1183.25" y="836.553" width="80.344" height="27.1728" rx="7.5" transform="rotate(179.891 1183.25 836.553)" fill="#FAFED7" stroke="#E2F81C"/>
<rect x="1091.99" y="836.728" width="49.3936" height="27.1728" rx="7.5" transform="rotate(179.891 1091.99 836.728)" fill="#FAFED7" stroke="#E2F81C"/>
<rect x="1031.67" y="836.843" width="70.8208" height="27.1728" rx="7.5" transform="rotate(179.891 1031.67 836.843)" fill="#FAFED7" stroke="#E2F81C"/>
<rect x="950.328" y="836.998" width="80.344" height="27.1728" rx="7.5" transform="rotate(179.891 950.328 836.998)" fill="#FAFED7" stroke="#E2F81C"/>
<rect x="546.145" y="810.598" width="80.344" height="27.1728" rx="7.5" transform="rotate(-0.109449 546.145 810.598)" fill="#FAFED7" stroke="#E2F81C"/>
<rect x="637.011" y="810.424" width="49.3936" height="27.1728" rx="7.5" transform="rotate(-0.109449 637.011 810.424)" fill="#FAFED7" stroke="#E2F81C"/>
<rect x="697.722" y="810.308" width="70.424" height="27.1728" rx="7.5" transform="rotate(-0.109449 697.722 810.308)" fill="#FAFED7" stroke="#E2F81C"/>
<rect x="779.065" y="810.153" width="80.344" height="27.1728" rx="7.5" transform="rotate(-0.109449 779.065 810.153)" fill="#FAFED7" stroke="#E2F81C"/>
<rect x="580.763" y="653.795" width="80.344" height="27.1728" rx="7.5" transform="rotate(-0.109451 580.763 653.795)" fill="#FAFED7" stroke="#E2F81C"/>
<rect x="671.63" y="653.622" width="49.3936" height="27.1728" rx="7.5" transform="rotate(-0.109451 671.63 653.622)" fill="#FAFED7" stroke="#E2F81C"/>
<rect x="731.943" y="653.506" width="70.8208" height="27.1728" rx="7.5" transform="rotate(-0.109451 731.943 653.506)" fill="#E9DBFA" stroke="#E2F81C"/>
<rect x="813.288" y="653.351" width="80.344" height="27.1728" rx="7.5" transform="rotate(-0.109451 813.288 653.351)" fill="#FAFED7" stroke="#E2F81C"/>
<rect x="1217.47" y="679.752" width="80.344" height="27.1728" rx="7.5" transform="rotate(179.891 1217.47 679.752)" fill="#FAFED7" stroke="#E2F81C"/>
<rect x="1126.6" y="679.925" width="49.3936" height="27.1728" rx="7.5" transform="rotate(179.891 1126.6 679.925)" fill="#FAFED7" stroke="#E2F81C"/>
<rect x="1066.29" y="680.041" width="70.8208" height="27.1728" rx="7.5" transform="rotate(179.891 1066.29 680.041)" fill="#E9DBFA" stroke="#E2F81C"/>
<rect x="984.947" y="680.196" width="80.344" height="27.1728" rx="7.5" transform="rotate(179.891 984.947 680.196)" fill="#FAFED7" stroke="#E2F81C"/>
<rect x="621.312" y="693.001" width="80.344" height="27.1728" rx="7.5" transform="rotate(-0.109449 621.312 693.001)" fill="#E9DBFA" stroke="#E2F81C"/>
<rect x="712.575" y="692.827" width="49.3936" height="27.1728" rx="7.5" transform="rotate(-0.109449 712.575 692.827)" fill="#FAFED7" stroke="#E2F81C"/>
<rect x="772.889" y="692.712" width="70.8208" height="27.1728" rx="7.5" transform="rotate(-0.109449 772.889 692.712)" fill="#E9DBFA" stroke="#E2F81C"/>
<rect x="854.233" y="692.556" width="80.344" height="27.1728" rx="7.5" transform="rotate(-0.109449 854.233 692.556)" fill="#FAFED7" stroke="#E2F81C"/>
<rect x="1258.42" y="718.957" width="80.344" height="27.1728" rx="7.5" transform="rotate(179.891 1258.42 718.957)" fill="#E9DBFA" stroke="#E2F81C"/>
<rect x="1167.55" y="719.13" width="49.3936" height="27.1728" rx="7.5" transform="rotate(179.891 1167.55 719.13)" fill="#FAFED7" stroke="#E2F81C"/>
<rect x="1107.24" y="719.246" width="70.8208" height="27.1728" rx="7.5" transform="rotate(179.891 1107.24 719.246)" fill="#FAFED7" stroke="#E2F81C"/>
<rect x="1025.5" y="719.402" width="80.344" height="27.1728" rx="7.5" transform="rotate(179.891 1025.5 719.402)" fill="#E9DBFA" stroke="#E2F81C"/>
<rect x="499.568" y="732.12" width="80.344" height="27.1728" rx="7.5" transform="rotate(-0.109449 499.568 732.12)" fill="#FAFED7" stroke="#E2F81C"/>
<rect x="590.436" y="731.947" width="49.3936" height="27.1728" rx="7.5" transform="rotate(-0.109449 590.436 731.947)" fill="#FAFED7" stroke="#E2F81C"/>
<rect x="650.749" y="731.831" width="70.8208" height="27.1728" rx="7.5" transform="rotate(-0.109449 650.749 731.831)" fill="#FAFED7" stroke="#E2F81C"/>
<rect x="732.093" y="731.676" width="80.344" height="27.1728" rx="7.5" transform="rotate(-0.109449 732.093 731.676)" fill="#FAFED7" stroke="#E2F81C"/>
<rect x="1136.28" y="758.077" width="80.344" height="27.1728" rx="7.5" transform="rotate(179.891 1136.28 758.077)" fill="#FAFED7" stroke="#E2F81C"/>
<rect x="1045.41" y="758.25" width="49.3936" height="27.1728" rx="7.5" transform="rotate(179.891 1045.41 758.25)" fill="#FAFED7" stroke="#E2F81C"/>
<rect x="985.096" y="758.365" width="70.8208" height="27.1728" rx="7.5" transform="rotate(179.891 985.096 758.365)" fill="#FAFED7" stroke="#E2F81C"/>
<rect x="903.752" y="758.521" width="80.344" height="27.1728" rx="7.5" transform="rotate(179.891 903.752 758.521)" fill="#FAFED7" stroke="#E2F81C"/>
<rect x="540.117" y="771.326" width="80.344" height="27.1728" rx="7.5" transform="rotate(-0.109449 540.117 771.326)" fill="#FAFED7" stroke="#E2F81C"/>
<rect x="631.381" y="771.152" width="49.3936" height="27.1728" rx="7.5" transform="rotate(-0.109449 631.381 771.152)" fill="#FAFED7" stroke="#E2F81C"/>
<rect x="691.694" y="771.036" width="70.8208" height="27.1728" rx="7.5" transform="rotate(-0.109449 691.694 771.036)" fill="#FAFED7" stroke="#E2F81C"/>
<rect x="773.039" y="770.881" width="80.344" height="27.1728" rx="7.5" transform="rotate(-0.109449 773.039 770.881)" fill="#FAFED7" stroke="#E2F81C"/>
<rect x="1177.22" y="797.282" width="80.344" height="27.1728" rx="7.5" transform="rotate(179.891 1177.22 797.282)" fill="#FAFED7" stroke="#E2F81C"/>
<rect x="1086.36" y="797.455" width="49.3936" height="27.1728" rx="7.5" transform="rotate(179.891 1086.36 797.455)" fill="#FAFED7" stroke="#E2F81C"/>
<rect x="1025.64" y="797.571" width="70.424" height="27.1728" rx="7.5" transform="rotate(179.891 1025.64 797.571)" fill="#FAFED7" stroke="#E2F81C"/>
<rect x="944.301" y="797.727" width="80.344" height="27.1728" rx="7.5" transform="rotate(179.891 944.301 797.727)" fill="#FAFED7" stroke="#E2F81C"/>
<rect x="1148.89" y="928.609" width="80.344" height="27.1728" rx="7.5" transform="rotate(-0.109449 1148.89 928.609)" fill="#FAFED7" stroke="#E2F81C"/>
<rect x="1239.76" y="928.436" width="49.3936" height="27.1728" rx="7.5" transform="rotate(-0.109449 1239.76 928.436)" fill="#FAFED7" stroke="#E2F81C"/>
<rect x="1300.08" y="928.32" width="70.8208" height="27.1728" rx="7.5" transform="rotate(-0.109449 1300.08 928.32)" fill="#FAFED7" stroke="#E2F81C"/>
<rect x="1381.42" y="928.165" width="80.344" height="27.1728" rx="7.5" transform="rotate(-0.109449 1381.42 928.165)" fill="#FAFED7" stroke="#E2F81C"/>
<rect x="1107.95" y="889.404" width="80.344" height="27.1728" rx="7.5" transform="rotate(-0.109449 1107.95 889.404)" fill="#FAFED7" stroke="#E2F81C"/>
<rect x="1198.82" y="889.231" width="49.3936" height="27.1728" rx="7.5" transform="rotate(-0.109449 1198.82 889.231)" fill="#FAFED7" stroke="#E2F81C"/>
<rect x="1259.13" y="889.115" width="70.8208" height="27.1728" rx="7.5" transform="rotate(-0.109449 1259.13 889.115)" fill="#FAFED7" stroke="#E2F81C"/>
<rect x="1340.87" y="888.959" width="80.344" height="27.1728" rx="7.5" transform="rotate(-0.109449 1340.87 888.959)" fill="#FAFED7" stroke="#E2F81C"/>
<rect x="1230.09" y="850.284" width="80.344" height="27.1728" rx="7.5" transform="rotate(-0.109449 1230.09 850.284)" fill="#FAFED7" stroke="#E2F81C"/>
<rect x="1320.96" y="850.111" width="49.3936" height="27.1728" rx="7.5" transform="rotate(-0.109449 1320.96 850.111)" fill="#FAFED7" stroke="#E2F81C"/>
<rect x="1381.27" y="849.996" width="70.8208" height="27.1728" rx="7.5" transform="rotate(-0.109449 1381.27 849.996)" fill="#FAFED7" stroke="#E2F81C"/>
<rect x="1189.14" y="811.079" width="80.344" height="27.1728" rx="7.5" transform="rotate(-0.109449 1189.14 811.079)" fill="#FAFED7" stroke="#E2F81C"/>
<rect x="1280.01" y="810.906" width="49.3936" height="27.1728" rx="7.5" transform="rotate(-0.109449 1280.01 810.906)" fill="#FAFED7" stroke="#E2F81C"/>
<rect x="1340.72" y="810.79" width="70.424" height="27.1728" rx="7.5" transform="rotate(-0.109449 1340.72 810.79)" fill="#FAFED7" stroke="#E2F81C"/>
<rect x="1422.07" y="810.634" width="80.344" height="27.1728" rx="7.5" transform="rotate(-0.109449 1422.07 810.634)" fill="#FAFED7" stroke="#E2F81C"/>
<rect x="1223.76" y="654.277" width="80.344" height="27.1728" rx="7.5" transform="rotate(-0.109451 1223.76 654.277)" fill="#E9DBFA" stroke="#E2F81C"/>
<rect x="1314.63" y="654.103" width="49.3936" height="27.1728" rx="7.5" transform="rotate(-0.109451 1314.63 654.103)" fill="#FAFED7" stroke="#E2F81C"/>
<rect x="1374.94" y="653.988" width="70.8208" height="27.1728" rx="7.5" transform="rotate(-0.109451 1374.94 653.988)" fill="#E9DBFA" stroke="#E2F81C"/>
<rect x="1264.31" y="693.483" width="80.344" height="27.1728" rx="7.5" transform="rotate(-0.109449 1264.31 693.483)" fill="#FAFED7" stroke="#E2F81C"/>
<rect x="1355.58" y="693.308" width="49.3936" height="27.1728" rx="7.5" transform="rotate(-0.109449 1355.58 693.308)" fill="#FAFED7" stroke="#E2F81C"/>
<rect x="1415.89" y="693.193" width="70.8208" height="27.1728" rx="7.5" transform="rotate(-0.109449 1415.89 693.193)" fill="#FAFED7" stroke="#E2F81C"/>
<rect x="1142.57" y="732.602" width="80.344" height="27.1728" rx="7.5" transform="rotate(-0.109449 1142.57 732.602)" fill="#FAFED7" stroke="#E2F81C"/>
<rect x="1233.44" y="732.428" width="49.3936" height="27.1728" rx="7.5" transform="rotate(-0.109449 1233.44 732.428)" fill="#FAFED7" stroke="#E2F81C"/>
<rect x="1293.75" y="732.313" width="70.8208" height="27.1728" rx="7.5" transform="rotate(-0.109449 1293.75 732.313)" fill="#FAFED7" stroke="#E2F81C"/>
<rect x="1375.09" y="732.158" width="80.344" height="27.1728" rx="7.5" transform="rotate(-0.109449 1375.09 732.158)" fill="#FAFED7" stroke="#E2F81C"/>
<rect x="1183.12" y="771.808" width="80.344" height="27.1728" rx="7.5" transform="rotate(-0.109449 1183.12 771.808)" fill="#FAFED7" stroke="#E2F81C"/>
<rect x="1274.38" y="771.633" width="49.3936" height="27.1728" rx="7.5" transform="rotate(-0.109449 1274.38 771.633)" fill="#FAFED7" stroke="#E2F81C"/>
<rect x="1334.69" y="771.518" width="70.8208" height="27.1728" rx="7.5" transform="rotate(-0.109449 1334.69 771.518)" fill="#FAFED7" stroke="#E2F81C"/>
<rect x="1416.04" y="771.363" width="80.344" height="27.1728" rx="7.5" transform="rotate(-0.109449 1416.04 771.363)" fill="#FAFED7" stroke="#E2F81C"/>
<path opacity="0.9" d="M1472 1291L-42 1291L-42 732L1472 732L1472 1291Z" fill="url(#paint0_linear_591_6399)"/>
<g filter="url(#filter0_f_591_6399)">
<ellipse cx="115.331" cy="1210.48" rx="306.586" ry="289.73" transform="rotate(-6.48121 115.331 1210.48)" fill="#E9DBFA"/>
</g>
<g filter="url(#filter1_f_591_6399)">
<ellipse cx="399.256" cy="1248.55" rx="306.586" ry="275.736" transform="rotate(-6.48121 399.256 1248.55)" fill="#FAFED7"/>
</g>
<rect x="991.763" y="24.2769" width="80.344" height="27.1728" rx="7.5" transform="rotate(-0.10945 991.763 24.2769)" fill="#FAFED7" stroke="#E2F81C"/>
<rect x="1082.63" y="24.1034" width="49.3936" height="27.1728" rx="7.5" transform="rotate(-0.10945 1082.63 24.1034)" fill="#FAFED7" stroke="#E2F81C"/>
<rect x="1142.94" y="23.9881" width="70.8208" height="27.1728" rx="7.5" transform="rotate(-0.10945 1142.94 23.9881)" fill="#FAFED7" stroke="#E2F81C"/>
<rect x="1224.29" y="23.8327" width="80.344" height="27.1728" rx="7.5" transform="rotate(-0.10945 1224.29 23.8327)" fill="#FAFED7" stroke="#E2F81C"/>
<rect x="1477.29" y="50.5222" width="70.8208" height="27.1728" rx="7.5" transform="rotate(179.891 1477.29 50.5222)" fill="#FAFED7" stroke="#E2F81C"/>
<rect x="1395.95" y="50.6776" width="80.344" height="27.1728" rx="7.5" transform="rotate(179.891 1395.95 50.6776)" fill="#FAFED7" stroke="#E2F81C"/>
<rect x="1032.31" y="63.4827" width="80.344" height="27.1728" rx="7.5" transform="rotate(-0.10945 1032.31 63.4827)" fill="#FAFED7" stroke="#E2F81C"/>
<rect x="1123.58" y="63.3084" width="49.3936" height="27.1728" rx="7.5" transform="rotate(-0.10945 1123.58 63.3084)" fill="#FAFED7" stroke="#E2F81C"/>
<rect x="1183.89" y="63.1932" width="70.8208" height="27.1728" rx="7.5" transform="rotate(-0.10945 1183.89 63.1932)" fill="#FAFED7" stroke="#E2F81C"/>
<rect x="1265.23" y="63.0378" width="80.344" height="27.1728" rx="7.5" transform="rotate(-0.10945 1265.23 63.0378)" fill="#FAFED7" stroke="#E2F81C"/>
<rect x="1436.5" y="89.8834" width="80.344" height="27.1728" rx="7.5" transform="rotate(179.891 1436.5 89.8834)" fill="#FAFED7" stroke="#E2F81C"/>
<rect x="910.568" y="102.602" width="80.344" height="27.1728" rx="7.5" transform="rotate(-0.10945 910.568 102.602)" fill="#FAFED7" stroke="#E2F81C"/>
<rect x="1001.44" y="102.428" width="49.3936" height="27.1728" rx="7.5" transform="rotate(-0.10945 1001.44 102.428)" fill="#FAFED7" stroke="#E2F81C"/>
<rect x="1061.75" y="102.313" width="70.8208" height="27.1728" rx="7.5" transform="rotate(-0.10945 1061.75 102.313)" fill="#FAFED7" stroke="#E2F81C"/>
<rect x="1143.09" y="102.158" width="80.344" height="27.1728" rx="7.5" transform="rotate(-0.10945 1143.09 102.158)" fill="#FAFED7" stroke="#E2F81C"/>
<rect x="1456.41" y="128.732" width="49.3936" height="27.1728" rx="7.5" transform="rotate(179.891 1456.41 128.732)" fill="#FAFED7" stroke="#E2F81C"/>
<rect x="1396.1" y="128.847" width="70.8208" height="27.1728" rx="7.5" transform="rotate(179.891 1396.1 128.847)" fill="#FAFED7" stroke="#E2F81C"/>
<rect x="1314.75" y="129.002" width="80.344" height="27.1728" rx="7.5" transform="rotate(179.891 1314.75 129.002)" fill="#FAFED7" stroke="#E2F81C"/>
<rect x="951.117" y="141.807" width="80.344" height="27.1728" rx="7.5" transform="rotate(-0.10945 951.117 141.807)" fill="#FAFED7" stroke="#E2F81C"/>
<rect x="1042.38" y="141.633" width="49.3936" height="27.1728" rx="7.5" transform="rotate(-0.10945 1042.38 141.633)" fill="#FAFED7" stroke="#E2F81C"/>
<rect x="1102.69" y="141.518" width="70.8208" height="27.1728" rx="7.5" transform="rotate(-0.10945 1102.69 141.518)" fill="#FAFED7" stroke="#E2F81C"/>
<rect x="1184.04" y="141.363" width="80.344" height="27.1728" rx="7.5" transform="rotate(-0.10945 1184.04 141.363)" fill="#FAFED7" stroke="#E2F81C"/>
<rect x="1436.64" y="168.053" width="70.424" height="27.1728" rx="7.5" transform="rotate(179.891 1436.64 168.053)" fill="#FAFED7" stroke="#E2F81C"/>
<rect x="1355.3" y="168.208" width="80.344" height="27.1728" rx="7.5" transform="rotate(179.891 1355.3 168.208)" fill="#FAFED7" stroke="#E2F81C"/>
<rect x="1462.74" y="324.739" width="49.3936" height="27.1728" rx="7.5" transform="rotate(179.891 1462.74 324.739)" fill="#FAFED7" stroke="#E2F81C"/>
<rect x="1402.42" y="324.854" width="70.8208" height="27.1728" rx="7.5" transform="rotate(179.891 1402.42 324.854)" fill="#FAFED7" stroke="#E2F81C"/>
<rect x="1321.08" y="325.01" width="80.344" height="27.1728" rx="7.5" transform="rotate(179.891 1321.08 325.01)" fill="#FAFED7" stroke="#E2F81C"/>
<rect x="916.895" y="298.609" width="80.344" height="27.1728" rx="7.5" transform="rotate(-0.109437 916.895 298.609)" fill="#FAFED7" stroke="#E2F81C"/>
<rect x="1007.76" y="298.436" width="49.3936" height="27.1728" rx="7.5" transform="rotate(-0.109437 1007.76 298.436)" fill="#FAFED7" stroke="#E2F81C"/>
<rect x="1068.08" y="298.32" width="70.8208" height="27.1728" rx="7.5" transform="rotate(-0.109437 1068.08 298.32)" fill="#FAFED7" stroke="#E2F81C"/>
<rect x="1149.42" y="298.165" width="80.344" height="27.1728" rx="7.5" transform="rotate(-0.109437 1149.42 298.165)" fill="#FAFED7" stroke="#E2F81C"/>
<rect x="1421.79" y="285.534" width="49.3936" height="27.1728" rx="7.5" transform="rotate(179.891 1421.79 285.534)" fill="#FAFED7" stroke="#E2F81C"/>
<rect x="1361.48" y="285.649" width="70.8208" height="27.1728" rx="7.5" transform="rotate(179.891 1361.48 285.649)" fill="#FAFED7" stroke="#E2F81C"/>
<rect x="1280.13" y="285.805" width="80.344" height="27.1728" rx="7.5" transform="rotate(179.891 1280.13 285.805)" fill="#FAFED7" stroke="#E2F81C"/>
<rect x="875.95" y="259.404" width="80.344" height="27.1728" rx="7.5" transform="rotate(-0.109437 875.95 259.404)" fill="#FAFED7" stroke="#E2F81C"/>
<rect x="966.817" y="259.23" width="49.3936" height="27.1728" rx="7.5" transform="rotate(-0.109437 966.817 259.23)" fill="#FAFED7" stroke="#E2F81C"/>
<rect x="1027.13" y="259.115" width="70.8208" height="27.1728" rx="7.5" transform="rotate(-0.109437 1027.13 259.115)" fill="#FAFED7" stroke="#E2F81C"/>
<rect x="1108.87" y="258.959" width="80.344" height="27.1728" rx="7.5" transform="rotate(-0.109437 1108.87 258.959)" fill="#FAFED7" stroke="#E2F81C"/>
<rect x="1483.62" y="246.53" width="70.8208" height="27.1728" rx="7.5" transform="rotate(179.891 1483.62 246.53)" fill="#FAFED7" stroke="#E2F81C"/>
<rect x="1402.27" y="246.685" width="80.344" height="27.1728" rx="7.5" transform="rotate(179.891 1402.27 246.685)" fill="#FAFED7" stroke="#E2F81C"/>
<rect x="998.089" y="220.284" width="80.344" height="27.1728" rx="7.5" transform="rotate(-0.109437 998.089 220.284)" fill="#FAFED7" stroke="#E2F81C"/>
<rect x="1088.96" y="220.111" width="49.3936" height="27.1728" rx="7.5" transform="rotate(-0.109437 1088.96 220.111)" fill="#FAFED7" stroke="#E2F81C"/>
<rect x="1149.27" y="219.995" width="70.8208" height="27.1728" rx="7.5" transform="rotate(-0.109437 1149.27 219.995)" fill="#FAFED7" stroke="#E2F81C"/>
<rect x="1230.61" y="219.84" width="80.344" height="27.1728" rx="7.5" transform="rotate(-0.109437 1230.61 219.84)" fill="#FAFED7" stroke="#E2F81C"/>
<rect x="1442.67" y="207.325" width="70.8208" height="27.1728" rx="7.5" transform="rotate(179.891 1442.67 207.325)" fill="#FAFED7" stroke="#E2F81C"/>
<rect x="1361.33" y="207.48" width="80.344" height="27.1728" rx="7.5" transform="rotate(179.891 1361.33 207.48)" fill="#FAFED7" stroke="#E2F81C"/>
<rect x="957.145" y="181.079" width="80.344" height="27.1728" rx="7.5" transform="rotate(-0.109437 957.145 181.079)" fill="#FAFED7" stroke="#E2F81C"/>
<rect x="1048.01" y="180.906" width="49.3936" height="27.1728" rx="7.5" transform="rotate(-0.109437 1048.01 180.906)" fill="#FAFED7" stroke="#E2F81C"/>
<rect x="1108.72" y="180.79" width="70.424" height="27.1728" rx="7.5" transform="rotate(-0.109437 1108.72 180.79)" fill="#FAFED7" stroke="#E2F81C"/>
<rect x="1190.07" y="180.634" width="80.344" height="27.1728" rx="7.5" transform="rotate(-0.109437 1190.07 180.634)" fill="#FAFED7" stroke="#E2F81C"/>
<rect x="338.763" y="24.2769" width="80.344" height="27.1728" rx="7.5" transform="rotate(-0.10945 338.763 24.2769)" fill="#FAFED7" stroke="#E2F81C"/>
<rect x="429.63" y="24.1034" width="49.3936" height="27.1728" rx="7.5" transform="rotate(-0.10945 429.63 24.1034)" fill="#FAFED7" stroke="#E2F81C"/>
<rect x="489.943" y="23.9881" width="70.8208" height="27.1728" rx="7.5" transform="rotate(-0.10945 489.943 23.9881)" fill="#FAFED7" stroke="#E2F81C"/>
<rect x="571.288" y="23.8327" width="80.344" height="27.1728" rx="7.5" transform="rotate(-0.10945 571.288 23.8327)" fill="#FAFED7" stroke="#E2F81C"/>
<rect x="975.471" y="50.2335" width="80.344" height="27.1728" rx="7.5" transform="rotate(179.891 975.471 50.2335)" fill="#FAFED7" stroke="#E2F81C"/>
<rect x="884.604" y="50.407" width="49.3936" height="27.1728" rx="7.5" transform="rotate(179.891 884.604 50.407)" fill="#FAFED7" stroke="#E2F81C"/>
<rect x="824.291" y="50.5222" width="70.8208" height="27.1728" rx="7.5" transform="rotate(179.891 824.291 50.5222)" fill="#FAFED7" stroke="#E2F81C"/>
<rect x="742.947" y="50.6776" width="80.344" height="27.1728" rx="7.5" transform="rotate(179.891 742.947 50.6776)" fill="#FAFED7" stroke="#E2F81C"/>
<rect x="379.312" y="63.4827" width="80.344" height="27.1728" rx="7.5" transform="rotate(-0.10945 379.312 63.4827)" fill="#FAFED7" stroke="#E2F81C"/>
<rect x="470.576" y="63.3084" width="49.3936" height="27.1728" rx="7.5" transform="rotate(-0.10945 470.576 63.3084)" fill="#FAFED7" stroke="#E2F81C"/>
<rect x="530.889" y="63.1932" width="70.8208" height="27.1728" rx="7.5" transform="rotate(-0.10945 530.889 63.1932)" fill="#FAFED7" stroke="#E2F81C"/>
<rect x="612.233" y="63.0378" width="80.344" height="27.1728" rx="7.5" transform="rotate(-0.10945 612.233 63.0378)" fill="#FAFED7" stroke="#E2F81C"/>
<rect x="1016.42" y="89.4385" width="80.344" height="27.1728" rx="7.5" transform="rotate(179.891 1016.42 89.4385)" fill="#FAFED7" stroke="#E2F81C"/>
<rect x="925.549" y="89.6121" width="49.3936" height="27.1728" rx="7.5" transform="rotate(179.891 925.549 89.6121)" fill="#FAFED7" stroke="#E2F81C"/>
<rect x="865.236" y="89.7272" width="70.8208" height="27.1728" rx="7.5" transform="rotate(179.891 865.236 89.7272)" fill="#FAFED7" stroke="#E2F81C"/>
<rect x="783.496" y="89.8834" width="80.344" height="27.1728" rx="7.5" transform="rotate(179.891 783.496 89.8834)" fill="#FAFED7" stroke="#E2F81C"/>
<rect x="257.568" y="102.602" width="80.344" height="27.1728" rx="7.5" transform="rotate(-0.10945 257.568 102.602)" fill="#FAFED7" stroke="#E2F81C"/>
<rect x="348.436" y="102.428" width="49.3936" height="27.1728" rx="7.5" transform="rotate(-0.10945 348.436 102.428)" fill="#FAFED7" stroke="#E2F81C"/>
<rect x="408.749" y="102.313" width="70.8208" height="27.1728" rx="7.5" transform="rotate(-0.10945 408.749 102.313)" fill="#FAFED7" stroke="#E2F81C"/>
<rect x="490.093" y="102.158" width="80.344" height="27.1728" rx="7.5" transform="rotate(-0.10945 490.093 102.158)" fill="#FAFED7" stroke="#E2F81C"/>
<rect x="894.276" y="128.558" width="80.344" height="27.1728" rx="7.5" transform="rotate(179.891 894.276 128.558)" fill="#FAFED7" stroke="#E2F81C"/>
<rect x="803.41" y="128.732" width="49.3936" height="27.1728" rx="7.5" transform="rotate(179.891 803.41 128.732)" fill="#FAFED7" stroke="#E2F81C"/>
<rect x="743.096" y="128.847" width="70.8208" height="27.1728" rx="7.5" transform="rotate(179.891 743.096 128.847)" fill="#FAFED7" stroke="#E2F81C"/>
<rect x="661.752" y="129.002" width="80.344" height="27.1728" rx="7.5" transform="rotate(179.891 661.752 129.002)" fill="#FAFED7" stroke="#E2F81C"/>
<rect x="298.117" y="141.807" width="80.344" height="27.1728" rx="7.5" transform="rotate(-0.10945 298.117 141.807)" fill="#FAFED7" stroke="#E2F81C"/>
<rect x="389.381" y="141.633" width="49.3936" height="27.1728" rx="7.5" transform="rotate(-0.10945 389.381 141.633)" fill="#FAFED7" stroke="#E2F81C"/>
<rect x="449.694" y="141.518" width="70.8208" height="27.1728" rx="7.5" transform="rotate(-0.10945 449.694 141.518)" fill="#FAFED7" stroke="#E2F81C"/>
<rect x="531.038" y="141.363" width="80.344" height="27.1728" rx="7.5" transform="rotate(-0.10945 531.038 141.363)" fill="#FAFED7" stroke="#E2F81C"/>
<rect x="935.222" y="167.763" width="80.344" height="27.1728" rx="7.5" transform="rotate(179.891 935.222 167.763)" fill="#FAFED7" stroke="#E2F81C"/>
<rect x="844.355" y="167.937" width="49.3936" height="27.1728" rx="7.5" transform="rotate(179.891 844.355 167.937)" fill="#FAFED7" stroke="#E2F81C"/>
<rect x="783.645" y="168.053" width="70.424" height="27.1728" rx="7.5" transform="rotate(179.891 783.645 168.053)" fill="#FAFED7" stroke="#E2F81C"/>
<rect x="702.301" y="168.208" width="80.344" height="27.1728" rx="7.5" transform="rotate(179.891 702.301 168.208)" fill="#FAFED7" stroke="#E2F81C"/>
<rect x="900.603" y="324.566" width="80.344" height="27.1728" rx="7.5" transform="rotate(179.891 900.603 324.566)" fill="#FAFED7" stroke="#E2F81C"/>
<rect x="809.736" y="324.739" width="49.3936" height="27.1728" rx="7.5" transform="rotate(179.891 809.736 324.739)" fill="#FAFED7" stroke="#E2F81C"/>
<rect x="749.423" y="324.854" width="70.8208" height="27.1728" rx="7.5" transform="rotate(179.891 749.423 324.854)" fill="#FAFED7" stroke="#E2F81C"/>
<rect x="668.079" y="325.01" width="80.344" height="27.1728" rx="7.5" transform="rotate(179.891 668.079 325.01)" fill="#FAFED7" stroke="#E2F81C"/>
<rect x="263.895" y="298.609" width="80.344" height="27.1728" rx="7.5" transform="rotate(-0.109437 263.895 298.609)" fill="#FAFED7" stroke="#E2F81C"/>
<rect x="354.762" y="298.436" width="49.3936" height="27.1728" rx="7.5" transform="rotate(-0.109437 354.762 298.436)" fill="#FAFED7" stroke="#E2F81C"/>
<rect x="415.076" y="298.32" width="70.8208" height="27.1728" rx="7.5" transform="rotate(-0.109437 415.076 298.32)" fill="#FAFED7" stroke="#E2F81C"/>
<rect x="496.419" y="298.165" width="80.344" height="27.1728" rx="7.5" transform="rotate(-0.109437 496.419 298.165)" fill="#FAFED7" stroke="#E2F81C"/>
<rect x="860.055" y="285.36" width="80.344" height="27.1728" rx="7.5" transform="rotate(179.891 860.055 285.36)" fill="#FAFED7" stroke="#E2F81C"/>
<rect x="768.791" y="285.534" width="49.3936" height="27.1728" rx="7.5" transform="rotate(179.891 768.791 285.534)" fill="#FAFED7" stroke="#E2F81C"/>
<rect x="708.477" y="285.649" width="70.8208" height="27.1728" rx="7.5" transform="rotate(179.891 708.477 285.649)" fill="#FAFED7" stroke="#E2F81C"/>
<rect x="627.133" y="285.805" width="80.344" height="27.1728" rx="7.5" transform="rotate(179.891 627.133 285.805)" fill="#FAFED7" stroke="#E2F81C"/>
<rect x="222.95" y="259.404" width="80.344" height="27.1728" rx="7.5" transform="rotate(-0.109437 222.95 259.404)" fill="#FAFED7" stroke="#E2F81C"/>
<rect x="313.817" y="259.23" width="49.3936" height="27.1728" rx="7.5" transform="rotate(-0.109437 313.817 259.23)" fill="#FAFED7" stroke="#E2F81C"/>
<rect x="374.13" y="259.115" width="70.8208" height="27.1728" rx="7.5" transform="rotate(-0.109437 374.13 259.115)" fill="#FAFED7" stroke="#E2F81C"/>
<rect x="455.871" y="258.959" width="80.344" height="27.1728" rx="7.5" transform="rotate(-0.109437 455.871 258.959)" fill="#FAFED7" stroke="#E2F81C"/>
<rect x="981.798" y="246.241" width="80.344" height="27.1728" rx="7.5" transform="rotate(179.891 981.798 246.241)" fill="#FAFED7" stroke="#E2F81C"/>
<rect x="890.931" y="246.414" width="49.3936" height="27.1728" rx="7.5" transform="rotate(179.891 890.931 246.414)" fill="#FAFED7" stroke="#E2F81C"/>
<rect x="830.617" y="246.53" width="70.8208" height="27.1728" rx="7.5" transform="rotate(179.891 830.617 246.53)" fill="#FAFED7" stroke="#E2F81C"/>
<rect x="749.273" y="246.685" width="80.344" height="27.1728" rx="7.5" transform="rotate(179.891 749.273 246.685)" fill="#FAFED7" stroke="#E2F81C"/>
<rect x="345.089" y="220.284" width="80.344" height="27.1728" rx="7.5" transform="rotate(-0.109437 345.089 220.284)" fill="#FAFED7" stroke="#E2F81C"/>
<rect x="435.957" y="220.111" width="49.3936" height="27.1728" rx="7.5" transform="rotate(-0.109437 435.957 220.111)" fill="#FAFED7" stroke="#E2F81C"/>
<rect x="496.27" y="219.995" width="70.8208" height="27.1728" rx="7.5" transform="rotate(-0.109437 496.27 219.995)" fill="#FAFED7" stroke="#E2F81C"/>
<rect x="577.614" y="219.84" width="80.344" height="27.1728" rx="7.5" transform="rotate(-0.109437 577.614 219.84)" fill="#FAFED7" stroke="#E2F81C"/>
<rect x="941.249" y="207.035" width="80.344" height="27.1728" rx="7.5" transform="rotate(179.891 941.249 207.035)" fill="#FAFED7" stroke="#E2F81C"/>
<rect x="849.985" y="207.209" width="49.3936" height="27.1728" rx="7.5" transform="rotate(179.891 849.985 207.209)" fill="#FAFED7" stroke="#E2F81C"/>
<rect x="789.672" y="207.325" width="70.8208" height="27.1728" rx="7.5" transform="rotate(179.891 789.672 207.325)" fill="#FAFED7" stroke="#E2F81C"/>
<rect x="708.328" y="207.48" width="80.344" height="27.1728" rx="7.5" transform="rotate(179.891 708.328 207.48)" fill="#FAFED7" stroke="#E2F81C"/>
<rect x="304.145" y="181.079" width="80.344" height="27.1728" rx="7.5" transform="rotate(-0.109437 304.145 181.079)" fill="#FAFED7" stroke="#E2F81C"/>
<rect x="395.011" y="180.906" width="49.3936" height="27.1728" rx="7.5" transform="rotate(-0.109437 395.011 180.906)" fill="#FAFED7" stroke="#E2F81C"/>
<rect x="455.721" y="180.79" width="70.424" height="27.1728" rx="7.5" transform="rotate(-0.109437 455.721 180.79)" fill="#FAFED7" stroke="#E2F81C"/>
<rect x="537.065" y="180.634" width="80.344" height="27.1728" rx="7.5" transform="rotate(-0.109437 537.065 180.634)" fill="#FAFED7" stroke="#E2F81C"/>
<rect x="-71.7124" y="23.351" width="80.344" height="27.1728" rx="7.5" transform="rotate(-0.10945 -71.7124 23.351)" fill="#FAFED7" stroke="#E2F81C"/>
<rect x="332.471" y="49.7518" width="80.344" height="27.1728" rx="7.5" transform="rotate(179.891 332.471 49.7518)" fill="#FAFED7" stroke="#E2F81C"/>
<rect x="241.604" y="49.9254" width="49.3936" height="27.1728" rx="7.5" transform="rotate(179.891 241.604 49.9254)" fill="#FAFED7" stroke="#E2F81C"/>
<rect x="181.291" y="50.0405" width="70.8208" height="27.1728" rx="7.5" transform="rotate(179.891 181.291 50.0405)" fill="#FAFED7" stroke="#E2F81C"/>
<rect x="99.9468" y="50.1959" width="80.344" height="27.1728" rx="7.5" transform="rotate(179.891 99.9468 50.1959)" fill="#FAFED7" stroke="#E2F81C"/>
<rect x="-30.7671" y="62.5561" width="80.344" height="27.1728" rx="7.5" transform="rotate(-0.10945 -30.7671 62.5561)" fill="#FAFED7" stroke="#E2F81C"/>
<rect x="373.417" y="88.9568" width="80.344" height="27.1728" rx="7.5" transform="rotate(179.891 373.417 88.9568)" fill="#FAFED7" stroke="#E2F81C"/>
<rect x="282.549" y="89.1304" width="49.3936" height="27.1728" rx="7.5" transform="rotate(179.891 282.549 89.1304)" fill="#FAFED7" stroke="#E2F81C"/>
<rect x="222.236" y="89.2456" width="70.8208" height="27.1728" rx="7.5" transform="rotate(179.891 222.236 89.2456)" fill="#FAFED7" stroke="#E2F81C"/>
<rect x="140.496" y="89.4017" width="80.344" height="27.1728" rx="7.5" transform="rotate(179.891 140.496 89.4017)" fill="#FAFED7" stroke="#E2F81C"/>
<rect x="251.276" y="128.077" width="80.344" height="27.1728" rx="7.5" transform="rotate(179.891 251.276 128.077)" fill="#FAFED7" stroke="#E2F81C"/>
<rect x="160.41" y="128.25" width="49.3936" height="27.1728" rx="7.5" transform="rotate(179.891 160.41 128.25)" fill="#FAFED7" stroke="#E2F81C"/>
<rect x="100.096" y="128.365" width="70.8208" height="27.1728" rx="7.5" transform="rotate(179.891 100.096 128.365)" fill="#FAFED7" stroke="#E2F81C"/>
<rect x="18.7525" y="128.521" width="80.344" height="27.1728" rx="7.5" transform="rotate(179.891 18.7525 128.521)" fill="#FAFED7" stroke="#E2F81C"/>
<rect x="292.222" y="167.282" width="80.344" height="27.1728" rx="7.5" transform="rotate(179.891 292.222 167.282)" fill="#FAFED7" stroke="#E2F81C"/>
<rect x="201.355" y="167.455" width="49.3936" height="27.1728" rx="7.5" transform="rotate(179.891 201.355 167.455)" fill="#FAFED7" stroke="#E2F81C"/>
<rect x="140.645" y="167.571" width="70.424" height="27.1728" rx="7.5" transform="rotate(179.891 140.645 167.571)" fill="#FAFED7" stroke="#E2F81C"/>
<rect x="59.3008" y="167.727" width="80.344" height="27.1728" rx="7.5" transform="rotate(179.891 59.3008 167.727)" fill="#FAFED7" stroke="#E2F81C"/>
<rect x="257.603" y="324.084" width="80.344" height="27.1728" rx="7.5" transform="rotate(179.891 257.603 324.084)" fill="#FAFED7" stroke="#E2F81C"/>
<rect x="166.736" y="324.258" width="49.3936" height="27.1728" rx="7.5" transform="rotate(179.891 166.736 324.258)" fill="#FAFED7" stroke="#E2F81C"/>
<rect x="106.423" y="324.373" width="70.8208" height="27.1728" rx="7.5" transform="rotate(179.891 106.423 324.373)" fill="#FAFED7" stroke="#E2F81C"/>
<rect x="25.0786" y="324.528" width="80.344" height="27.1728" rx="7.5" transform="rotate(179.891 25.0786 324.528)" fill="#FAFED7" stroke="#E2F81C"/>
<rect x="217.055" y="284.878" width="80.344" height="27.1728" rx="7.5" transform="rotate(179.891 217.055 284.878)" fill="#FAFED7" stroke="#E2F81C"/>
<rect x="125.791" y="285.053" width="49.3936" height="27.1728" rx="7.5" transform="rotate(179.891 125.791 285.053)" fill="#FAFED7" stroke="#E2F81C"/>
<rect x="65.4771" y="285.168" width="70.8208" height="27.1728" rx="7.5" transform="rotate(179.891 65.4771 285.168)" fill="#FAFED7" stroke="#E2F81C"/>
<rect x="338.798" y="245.759" width="80.344" height="27.1728" rx="7.5" transform="rotate(179.891 338.798 245.759)" fill="#FAFED7" stroke="#E2F81C"/>
<rect x="247.931" y="245.933" width="49.3936" height="27.1728" rx="7.5" transform="rotate(179.891 247.931 245.933)" fill="#FAFED7" stroke="#E2F81C"/>
<rect x="187.617" y="246.048" width="70.8208" height="27.1728" rx="7.5" transform="rotate(179.891 187.617 246.048)" fill="#FAFED7" stroke="#E2F81C"/>
<rect x="106.273" y="246.203" width="80.344" height="27.1728" rx="7.5" transform="rotate(179.891 106.273 246.203)" fill="#FAFED7" stroke="#E2F81C"/>
<rect x="-65.3863" y="219.358" width="80.344" height="27.1728" rx="7.5" transform="rotate(-0.109437 -65.3863 219.358)" fill="#FAFED7" stroke="#E2F81C"/>
<rect x="298.249" y="206.553" width="80.344" height="27.1728" rx="7.5" transform="rotate(179.891 298.249 206.553)" fill="#FAFED7" stroke="#E2F81C"/>
<rect x="206.985" y="206.728" width="49.3936" height="27.1728" rx="7.5" transform="rotate(179.891 206.985 206.728)" fill="#FAFED7" stroke="#E2F81C"/>
<rect x="146.672" y="206.843" width="70.8208" height="27.1728" rx="7.5" transform="rotate(179.891 146.672 206.843)" fill="#FAFED7" stroke="#E2F81C"/>
<rect x="65.3277" y="206.998" width="80.344" height="27.1728" rx="7.5" transform="rotate(179.891 65.3277 206.998)" fill="#FAFED7" stroke="#E2F81C"/>
<rect x="939.763" y="337.277" width="80.344" height="27.1728" rx="7.5" transform="rotate(-0.10945 939.763 337.277)" fill="#FAFED7" stroke="#E2F81C"/>
<rect x="1030.63" y="337.103" width="49.3936" height="27.1728" rx="7.5" transform="rotate(-0.10945 1030.63 337.103)" fill="#FAFED7" stroke="#E2F81C"/>
<rect x="1090.94" y="336.988" width="70.8208" height="27.1728" rx="7.5" transform="rotate(-0.10945 1090.94 336.988)" fill="#FAFED7" stroke="#E2F81C"/>
<rect x="1172.29" y="336.833" width="80.344" height="27.1728" rx="7.5" transform="rotate(-0.10945 1172.29 336.833)" fill="#FAFED7" stroke="#E2F81C"/>
<rect x="1425.29" y="363.522" width="70.8208" height="27.1728" rx="7.5" transform="rotate(179.891 1425.29 363.522)" fill="#FAFED7" stroke="#E2F81C"/>
<rect x="1343.95" y="363.678" width="80.344" height="27.1728" rx="7.5" transform="rotate(179.891 1343.95 363.678)" fill="#FAFED7" stroke="#E2F81C"/>
<rect x="980.312" y="376.483" width="80.344" height="27.1728" rx="7.5" transform="rotate(-0.10945 980.312 376.483)" fill="#FAFED7" stroke="#E2F81C"/>
<rect x="1071.58" y="376.308" width="49.3936" height="27.1728" rx="7.5" transform="rotate(-0.10945 1071.58 376.308)" fill="#FAFED7" stroke="#E2F81C"/>
<rect x="1131.89" y="376.193" width="70.8208" height="27.1728" rx="7.5" transform="rotate(-0.10945 1131.89 376.193)" fill="#FAFED7" stroke="#E2F81C"/>
<rect x="1213.23" y="376.038" width="80.344" height="27.1728" rx="7.5" transform="rotate(-0.10945 1213.23 376.038)" fill="#FAFED7" stroke="#E2F81C"/>
<rect x="1466.24" y="402.727" width="70.8208" height="27.1728" rx="7.5" transform="rotate(179.891 1466.24 402.727)" fill="#FAFED7" stroke="#E2F81C"/>
<rect x="1384.5" y="402.883" width="80.344" height="27.1728" rx="7.5" transform="rotate(179.891 1384.5 402.883)" fill="#FAFED7" stroke="#E2F81C"/>
<rect x="858.568" y="415.602" width="80.344" height="27.1728" rx="7.5" transform="rotate(-0.10945 858.568 415.602)" fill="#FAFED7" stroke="#E2F81C"/>
<rect x="949.436" y="415.428" width="49.3936" height="27.1728" rx="7.5" transform="rotate(-0.10945 949.436 415.428)" fill="#FAFED7" stroke="#E2F81C"/>
<rect x="1009.75" y="415.313" width="70.8208" height="27.1728" rx="7.5" transform="rotate(-0.10945 1009.75 415.313)" fill="#FAFED7" stroke="#E2F81C"/>
<rect x="1091.09" y="415.158" width="80.344" height="27.1728" rx="7.5" transform="rotate(-0.10945 1091.09 415.158)" fill="#FAFED7" stroke="#E2F81C"/>
<rect x="1495.28" y="441.558" width="80.344" height="27.1728" rx="7.5" transform="rotate(179.891 1495.28 441.558)" fill="#FAFED7" stroke="#E2F81C"/>
<rect x="1404.41" y="441.732" width="49.3936" height="27.1728" rx="7.5" transform="rotate(179.891 1404.41 441.732)" fill="#FAFED7" stroke="#E2F81C"/>
<rect x="1344.1" y="441.847" width="70.8208" height="27.1728" rx="7.5" transform="rotate(179.891 1344.1 441.847)" fill="#FAFED7" stroke="#E2F81C"/>
<rect x="1262.75" y="442.002" width="80.344" height="27.1728" rx="7.5" transform="rotate(179.891 1262.75 442.002)" fill="#FAFED7" stroke="#E2F81C"/>
<rect x="899.117" y="454.807" width="80.344" height="27.1728" rx="7.5" transform="rotate(-0.10945 899.117 454.807)" fill="#FAFED7" stroke="#E2F81C"/>
<rect x="990.381" y="454.633" width="49.3936" height="27.1728" rx="7.5" transform="rotate(-0.10945 990.381 454.633)" fill="#FAFED7" stroke="#E2F81C"/>
<rect x="1050.69" y="454.518" width="70.8208" height="27.1728" rx="7.5" transform="rotate(-0.10945 1050.69 454.518)" fill="#FAFED7" stroke="#E2F81C"/>
<rect x="1132.04" y="454.363" width="80.344" height="27.1728" rx="7.5" transform="rotate(-0.10945 1132.04 454.363)" fill="#FAFED7" stroke="#E2F81C"/>
<rect x="1445.36" y="480.937" width="49.3936" height="27.1728" rx="7.5" transform="rotate(179.891 1445.36 480.937)" fill="#FAFED7" stroke="#E2F81C"/>
<rect x="1384.64" y="481.053" width="70.424" height="27.1728" rx="7.5" transform="rotate(179.891 1384.64 481.053)" fill="#FAFED7" stroke="#E2F81C"/>
<rect x="1303.3" y="481.208" width="80.344" height="27.1728" rx="7.5" transform="rotate(179.891 1303.3 481.208)" fill="#FAFED7" stroke="#E2F81C"/>
<rect x="1501.6" y="637.566" width="80.344" height="27.1728" rx="7.5" transform="rotate(179.891 1501.6 637.566)" fill="#FAFED7" stroke="#E2F81C"/>
<rect x="1410.74" y="637.739" width="49.3936" height="27.1728" rx="7.5" transform="rotate(179.891 1410.74 637.739)" fill="#E9DBFA" stroke="#E2F81C"/>
<rect x="1350.42" y="637.854" width="70.8208" height="27.1728" rx="7.5" transform="rotate(179.891 1350.42 637.854)" fill="#FAFED7" stroke="#E2F81C"/>
<rect x="1269.08" y="638.01" width="80.344" height="27.1728" rx="7.5" transform="rotate(179.891 1269.08 638.01)" fill="#E9DBFA" stroke="#E2F81C"/>
<rect x="864.895" y="611.609" width="80.344" height="27.1728" rx="7.5" transform="rotate(-0.109437 864.895 611.609)" fill="#E9DBFA" stroke="#E2F81C"/>
<rect x="955.762" y="611.436" width="49.3936" height="27.1728" rx="7.5" transform="rotate(-0.109437 955.762 611.436)" fill="#FAFED7" stroke="#E2F81C"/>
<rect x="1016.08" y="611.32" width="70.8208" height="27.1728" rx="7.5" transform="rotate(-0.109437 1016.08 611.32)" fill="#E9DBFA" stroke="#E2F81C"/>
<rect x="1097.42" y="611.165" width="80.344" height="27.1728" rx="7.5" transform="rotate(-0.109437 1097.42 611.165)" fill="#FAFED7" stroke="#E2F81C"/>
<rect x="1461.05" y="598.36" width="80.344" height="27.1728" rx="7.5" transform="rotate(179.891 1461.05 598.36)" fill="#FAFED7" stroke="#E2F81C"/>
<rect x="1369.79" y="598.534" width="49.3936" height="27.1728" rx="7.5" transform="rotate(179.891 1369.79 598.534)" fill="#FAFED7" stroke="#E2F81C"/>
<rect x="1309.48" y="598.649" width="70.8208" height="27.1728" rx="7.5" transform="rotate(179.891 1309.48 598.649)" fill="#FAFED7" stroke="#E2F81C"/>
<rect x="1228.13" y="598.805" width="80.344" height="27.1728" rx="7.5" transform="rotate(179.891 1228.13 598.805)" fill="#FAFED7" stroke="#E2F81C"/>
<rect x="823.95" y="572.404" width="80.344" height="27.1728" rx="7.5" transform="rotate(-0.109437 823.95 572.404)" fill="#FAFED7" stroke="#E2F81C"/>
<rect x="914.817" y="572.23" width="49.3936" height="27.1728" rx="7.5" transform="rotate(-0.109437 914.817 572.23)" fill="#FAFED7" stroke="#E2F81C"/>
<rect x="975.13" y="572.115" width="70.8208" height="27.1728" rx="7.5" transform="rotate(-0.109437 975.13 572.115)" fill="#FAFED7" stroke="#E2F81C"/>
<rect x="1056.87" y="571.959" width="80.344" height="27.1728" rx="7.5" transform="rotate(-0.109437 1056.87 571.959)" fill="#E9DBFA" stroke="#E2F81C"/>
<rect x="1431.62" y="559.53" width="70.8208" height="27.1728" rx="7.5" transform="rotate(179.891 1431.62 559.53)" fill="#FAFED7" stroke="#E2F81C"/>
<rect x="1350.27" y="559.685" width="80.344" height="27.1728" rx="7.5" transform="rotate(179.891 1350.27 559.685)" fill="#FAFED7" stroke="#E2F81C"/>
<rect x="946.089" y="533.284" width="80.344" height="27.1728" rx="7.5" transform="rotate(-0.109437 946.089 533.284)" fill="#FAFED7" stroke="#E2F81C"/>
<rect x="1036.96" y="533.111" width="49.3936" height="27.1728" rx="7.5" transform="rotate(-0.109437 1036.96 533.111)" fill="#FAFED7" stroke="#E2F81C"/>
<rect x="1097.27" y="532.995" width="70.8208" height="27.1728" rx="7.5" transform="rotate(-0.109437 1097.27 532.995)" fill="#FAFED7" stroke="#E2F81C"/>
<rect x="1178.61" y="532.84" width="80.344" height="27.1728" rx="7.5" transform="rotate(-0.109437 1178.61 532.84)" fill="#FAFED7" stroke="#E2F81C"/>
<rect x="1450.99" y="520.209" width="49.3936" height="27.1728" rx="7.5" transform="rotate(179.891 1450.99 520.209)" fill="#FAFED7" stroke="#E2F81C"/>
<rect x="1390.67" y="520.325" width="70.8208" height="27.1728" rx="7.5" transform="rotate(179.891 1390.67 520.325)" fill="#FAFED7" stroke="#E2F81C"/>
<rect x="1309.33" y="520.48" width="80.344" height="27.1728" rx="7.5" transform="rotate(179.891 1309.33 520.48)" fill="#FAFED7" stroke="#E2F81C"/>
<rect x="905.145" y="494.079" width="80.344" height="27.1728" rx="7.5" transform="rotate(-0.109437 905.145 494.079)" fill="#FAFED7" stroke="#E2F81C"/>
<rect x="996.011" y="493.906" width="49.3936" height="27.1728" rx="7.5" transform="rotate(-0.109437 996.011 493.906)" fill="#FAFED7" stroke="#E2F81C"/>
<rect x="1056.72" y="493.79" width="70.424" height="27.1728" rx="7.5" transform="rotate(-0.109437 1056.72 493.79)" fill="#FAFED7" stroke="#E2F81C"/>
<rect x="1138.07" y="493.634" width="80.344" height="27.1728" rx="7.5" transform="rotate(-0.109437 1138.07 493.634)" fill="#FAFED7" stroke="#E2F81C"/>
<rect x="286.763" y="337.277" width="80.344" height="27.1728" rx="7.5" transform="rotate(-0.10945 286.763 337.277)" fill="#FAFED7" stroke="#E2F81C"/>
<rect x="377.63" y="337.103" width="49.3936" height="27.1728" rx="7.5" transform="rotate(-0.10945 377.63 337.103)" fill="#FAFED7" stroke="#E2F81C"/>
<rect x="437.943" y="336.988" width="70.8208" height="27.1728" rx="7.5" transform="rotate(-0.10945 437.943 336.988)" fill="#FAFED7" stroke="#E2F81C"/>
<rect x="519.288" y="336.833" width="80.344" height="27.1728" rx="7.5" transform="rotate(-0.10945 519.288 336.833)" fill="#FAFED7" stroke="#E2F81C"/>
<rect x="923.471" y="363.233" width="80.344" height="27.1728" rx="7.5" transform="rotate(179.891 923.471 363.233)" fill="#FAFED7" stroke="#E2F81C"/>
<rect x="832.604" y="363.407" width="49.3936" height="27.1728" rx="7.5" transform="rotate(179.891 832.604 363.407)" fill="#FAFED7" stroke="#E2F81C"/>
<rect x="772.291" y="363.522" width="70.8208" height="27.1728" rx="7.5" transform="rotate(179.891 772.291 363.522)" fill="#FAFED7" stroke="#E2F81C"/>
<rect x="690.947" y="363.678" width="80.344" height="27.1728" rx="7.5" transform="rotate(179.891 690.947 363.678)" fill="#FAFED7" stroke="#E2F81C"/>
<rect x="327.312" y="376.483" width="80.344" height="27.1728" rx="7.5" transform="rotate(-0.10945 327.312 376.483)" fill="#FAFED7" stroke="#E2F81C"/>
<rect x="418.576" y="376.308" width="49.3936" height="27.1728" rx="7.5" transform="rotate(-0.10945 418.576 376.308)" fill="#FAFED7" stroke="#E2F81C"/>
<rect x="478.889" y="376.193" width="70.8208" height="27.1728" rx="7.5" transform="rotate(-0.10945 478.889 376.193)" fill="#FAFED7" stroke="#E2F81C"/>
<rect x="560.233" y="376.038" width="80.344" height="27.1728" rx="7.5" transform="rotate(-0.10945 560.233 376.038)" fill="#FAFED7" stroke="#E2F81C"/>
<rect x="964.417" y="402.438" width="80.344" height="27.1728" rx="7.5" transform="rotate(179.891 964.417 402.438)" fill="#FAFED7" stroke="#E2F81C"/>
<rect x="873.549" y="402.612" width="49.3936" height="27.1728" rx="7.5" transform="rotate(179.891 873.549 402.612)" fill="#FAFED7" stroke="#E2F81C"/>
<rect x="813.236" y="402.727" width="70.8208" height="27.1728" rx="7.5" transform="rotate(179.891 813.236 402.727)" fill="#FAFED7" stroke="#E2F81C"/>
<rect x="731.496" y="402.883" width="80.344" height="27.1728" rx="7.5" transform="rotate(179.891 731.496 402.883)" fill="#FAFED7" stroke="#E2F81C"/>
<rect x="205.568" y="415.602" width="80.344" height="27.1728" rx="7.5" transform="rotate(-0.10945 205.568 415.602)" fill="#FAFED7" stroke="#E2F81C"/>
<rect x="296.436" y="415.428" width="49.3936" height="27.1728" rx="7.5" transform="rotate(-0.10945 296.436 415.428)" fill="#FAFED7" stroke="#E2F81C"/>
<rect x="356.749" y="415.313" width="70.8208" height="27.1728" rx="7.5" transform="rotate(-0.10945 356.749 415.313)" fill="#FAFED7" stroke="#E2F81C"/>
<rect x="438.093" y="415.158" width="80.344" height="27.1728" rx="7.5" transform="rotate(-0.10945 438.093 415.158)" fill="#FAFED7" stroke="#E2F81C"/>
<rect x="842.276" y="441.558" width="80.344" height="27.1728" rx="7.5" transform="rotate(179.891 842.276 441.558)" fill="#FAFED7" stroke="#E2F81C"/>
<rect x="751.41" y="441.732" width="49.3936" height="27.1728" rx="7.5" transform="rotate(179.891 751.41 441.732)" fill="#FAFED7" stroke="#E2F81C"/>
<rect x="691.096" y="441.847" width="70.8208" height="27.1728" rx="7.5" transform="rotate(179.891 691.096 441.847)" fill="#FAFED7" stroke="#E2F81C"/>
<rect x="609.752" y="442.002" width="80.344" height="27.1728" rx="7.5" transform="rotate(179.891 609.752 442.002)" fill="#FAFED7" stroke="#E2F81C"/>
<rect x="246.117" y="454.807" width="80.344" height="27.1728" rx="7.5" transform="rotate(-0.10945 246.117 454.807)" fill="#FAFED7" stroke="#E2F81C"/>
<rect x="337.381" y="454.633" width="49.3936" height="27.1728" rx="7.5" transform="rotate(-0.10945 337.381 454.633)" fill="#FAFED7" stroke="#E2F81C"/>
<rect x="397.694" y="454.518" width="70.8208" height="27.1728" rx="7.5" transform="rotate(-0.10945 397.694 454.518)" fill="#FAFED7" stroke="#E2F81C"/>
<rect x="479.038" y="454.363" width="80.344" height="27.1728" rx="7.5" transform="rotate(-0.10945 479.038 454.363)" fill="#FAFED7" stroke="#E2F81C"/>
<rect x="883.222" y="480.763" width="80.344" height="27.1728" rx="7.5" transform="rotate(179.891 883.222 480.763)" fill="#FAFED7" stroke="#E2F81C"/>
<rect x="792.355" y="480.937" width="49.3936" height="27.1728" rx="7.5" transform="rotate(179.891 792.355 480.937)" fill="#FAFED7" stroke="#E2F81C"/>
<rect x="731.645" y="481.053" width="70.424" height="27.1728" rx="7.5" transform="rotate(179.891 731.645 481.053)" fill="#FAFED7" stroke="#E2F81C"/>
<rect x="650.301" y="481.208" width="80.344" height="27.1728" rx="7.5" transform="rotate(179.891 650.301 481.208)" fill="#FAFED7" stroke="#E2F81C"/>
<rect x="848.603" y="637.566" width="80.344" height="27.1728" rx="7.5" transform="rotate(179.891 848.603 637.566)" fill="#FAFED7" stroke="#E2F81C"/>
<rect x="757.736" y="637.739" width="49.3936" height="27.1728" rx="7.5" transform="rotate(179.891 757.736 637.739)" fill="#FAFED7" stroke="#E2F81C"/>
<rect x="697.423" y="637.854" width="70.8208" height="27.1728" rx="7.5" transform="rotate(179.891 697.423 637.854)" fill="#E9DBFA" stroke="#E2F81C"/>
<rect x="616.079" y="638.01" width="80.344" height="27.1728" rx="7.5" transform="rotate(179.891 616.079 638.01)" fill="#FAFED7" stroke="#E2F81C"/>
<rect x="211.895" y="611.609" width="80.344" height="27.1728" rx="7.5" transform="rotate(-0.109437 211.895 611.609)" fill="#FAFED7" stroke="#E2F81C"/>
<rect x="302.762" y="611.436" width="49.3936" height="27.1728" rx="7.5" transform="rotate(-0.109437 302.762 611.436)" fill="#FAFED7" stroke="#E2F81C"/>
<rect x="363.076" y="611.32" width="70.8208" height="27.1728" rx="7.5" transform="rotate(-0.109437 363.076 611.32)" fill="#E9DBFA" stroke="#E2F81C"/>
<rect x="444.419" y="611.165" width="80.344" height="27.1728" rx="7.5" transform="rotate(-0.109437 444.419 611.165)" fill="#FAFED7" stroke="#E2F81C"/>
<rect x="808.055" y="598.36" width="80.344" height="27.1728" rx="7.5" transform="rotate(179.891 808.055 598.36)" fill="#E9DBFA" stroke="#E2F81C"/>
<rect x="716.791" y="598.534" width="49.3936" height="27.1728" rx="7.5" transform="rotate(179.891 716.791 598.534)" fill="#FAFED7" stroke="#E2F81C"/>
<rect x="656.477" y="598.649" width="70.8208" height="27.1728" rx="7.5" transform="rotate(179.891 656.477 598.649)" fill="#E9DBFA" stroke="#E2F81C"/>
<rect x="575.133" y="598.805" width="80.344" height="27.1728" rx="7.5" transform="rotate(179.891 575.133 598.805)" fill="#FAFED7" stroke="#E2F81C"/>
<rect x="170.95" y="572.404" width="80.344" height="27.1728" rx="7.5" transform="rotate(-0.109437 170.95 572.404)" fill="#E9DBFA" stroke="#E2F81C"/>
<rect x="261.817" y="572.23" width="49.3936" height="27.1728" rx="7.5" transform="rotate(-0.109437 261.817 572.23)" fill="#FAFED7" stroke="#E2F81C"/>
<rect x="322.13" y="572.115" width="70.8208" height="27.1728" rx="7.5" transform="rotate(-0.109437 322.13 572.115)" fill="#FAFED7" stroke="#E2F81C"/>
<rect x="403.871" y="571.959" width="80.344" height="27.1728" rx="7.5" transform="rotate(-0.109437 403.871 571.959)" fill="#E9DBFA" stroke="#E2F81C"/>
<rect x="929.798" y="559.241" width="80.344" height="27.1728" rx="7.5" transform="rotate(179.891 929.798 559.241)" fill="#FAFED7" stroke="#E2F81C"/>
<rect x="838.931" y="559.414" width="49.3936" height="27.1728" rx="7.5" transform="rotate(179.891 838.931 559.414)" fill="#FAFED7" stroke="#E2F81C"/>
<rect x="778.617" y="559.53" width="70.8208" height="27.1728" rx="7.5" transform="rotate(179.891 778.617 559.53)" fill="#FAFED7" stroke="#E2F81C"/>
<rect x="697.273" y="559.685" width="80.344" height="27.1728" rx="7.5" transform="rotate(179.891 697.273 559.685)" fill="#FAFED7" stroke="#E2F81C"/>
<rect x="293.089" y="533.284" width="80.344" height="27.1728" rx="7.5" transform="rotate(-0.109437 293.089 533.284)" fill="#FAFED7" stroke="#E2F81C"/>
<rect x="383.957" y="533.111" width="49.3936" height="27.1728" rx="7.5" transform="rotate(-0.109437 383.957 533.111)" fill="#FAFED7" stroke="#E2F81C"/>
<rect x="444.27" y="532.995" width="70.8208" height="27.1728" rx="7.5" transform="rotate(-0.109437 444.27 532.995)" fill="#FAFED7" stroke="#E2F81C"/>
<rect x="525.614" y="532.84" width="80.344" height="27.1728" rx="7.5" transform="rotate(-0.109437 525.614 532.84)" fill="#FAFED7" stroke="#E2F81C"/>
<rect x="889.249" y="520.035" width="80.344" height="27.1728" rx="7.5" transform="rotate(179.891 889.249 520.035)" fill="#FAFED7" stroke="#E2F81C"/>
<rect x="797.985" y="520.209" width="49.3936" height="27.1728" rx="7.5" transform="rotate(179.891 797.985 520.209)" fill="#FAFED7" stroke="#E2F81C"/>
<rect x="737.672" y="520.325" width="70.8208" height="27.1728" rx="7.5" transform="rotate(179.891 737.672 520.325)" fill="#FAFED7" stroke="#E2F81C"/>
<rect x="656.328" y="520.48" width="80.344" height="27.1728" rx="7.5" transform="rotate(179.891 656.328 520.48)" fill="#FAFED7" stroke="#E2F81C"/>
<rect x="252.145" y="494.079" width="80.344" height="27.1728" rx="7.5" transform="rotate(-0.109437 252.145 494.079)" fill="#FAFED7" stroke="#E2F81C"/>
<rect x="343.011" y="493.906" width="49.3936" height="27.1728" rx="7.5" transform="rotate(-0.109437 343.011 493.906)" fill="#FAFED7" stroke="#E2F81C"/>
<rect x="403.721" y="493.79" width="70.424" height="27.1728" rx="7.5" transform="rotate(-0.109437 403.721 493.79)" fill="#FAFED7" stroke="#E2F81C"/>
<rect x="485.065" y="493.634" width="80.344" height="27.1728" rx="7.5" transform="rotate(-0.109437 485.065 493.634)" fill="#FAFED7" stroke="#E2F81C"/>
<rect x="280.471" y="362.752" width="80.344" height="27.1728" rx="7.5" transform="rotate(179.891 280.471 362.752)" fill="#FAFED7" stroke="#E2F81C"/>
<rect x="189.604" y="362.925" width="49.3936" height="27.1728" rx="7.5" transform="rotate(179.891 189.604 362.925)" fill="#FAFED7" stroke="#E2F81C"/>
<rect x="129.291" y="363.041" width="70.8208" height="27.1728" rx="7.5" transform="rotate(179.891 129.291 363.041)" fill="#FAFED7" stroke="#E2F81C"/>
<rect x="47.9468" y="363.196" width="80.344" height="27.1728" rx="7.5" transform="rotate(179.891 47.9468 363.196)" fill="#FAFED7" stroke="#E2F81C"/>
<rect x="321.417" y="401.957" width="80.344" height="27.1728" rx="7.5" transform="rotate(179.891 321.417 401.957)" fill="#FAFED7" stroke="#E2F81C"/>
<rect x="230.549" y="402.13" width="49.3936" height="27.1728" rx="7.5" transform="rotate(179.891 230.549 402.13)" fill="#FAFED7" stroke="#E2F81C"/>
<rect x="170.236" y="402.246" width="70.8208" height="27.1728" rx="7.5" transform="rotate(179.891 170.236 402.246)" fill="#FAFED7" stroke="#E2F81C"/>
<rect x="88.4956" y="402.402" width="80.344" height="27.1728" rx="7.5" transform="rotate(179.891 88.4956 402.402)" fill="#FAFED7" stroke="#E2F81C"/>
<rect x="199.276" y="441.077" width="80.344" height="27.1728" rx="7.5" transform="rotate(179.891 199.276 441.077)" fill="#FAFED7" stroke="#E2F81C"/>
<rect x="108.41" y="441.25" width="49.3936" height="27.1728" rx="7.5" transform="rotate(179.891 108.41 441.25)" fill="#FAFED7" stroke="#E2F81C"/>
<rect x="48.0962" y="441.365" width="70.8208" height="27.1728" rx="7.5" transform="rotate(179.891 48.0962 441.365)" fill="#FAFED7" stroke="#E2F81C"/>
<rect x="240.222" y="480.282" width="80.344" height="27.1728" rx="7.5" transform="rotate(179.891 240.222 480.282)" fill="#FAFED7" stroke="#E2F81C"/>
<rect x="149.355" y="480.455" width="49.3936" height="27.1728" rx="7.5" transform="rotate(179.891 149.355 480.455)" fill="#FAFED7" stroke="#E2F81C"/>
<rect x="88.6446" y="480.571" width="70.424" height="27.1728" rx="7.5" transform="rotate(179.891 88.6446 480.571)" fill="#FAFED7" stroke="#E2F81C"/>
<rect x="7.3008" y="480.727" width="80.344" height="27.1728" rx="7.5" transform="rotate(179.891 7.3008 480.727)" fill="#FAFED7" stroke="#E2F81C"/>
<rect x="205.603" y="637.084" width="80.344" height="27.1728" rx="7.5" transform="rotate(179.891 205.603 637.084)" fill="#E9DBFA" stroke="#E2F81C"/>
<rect x="114.736" y="637.257" width="49.3936" height="27.1728" rx="7.5" transform="rotate(179.891 114.736 637.257)" fill="#FAFED7" stroke="#E2F81C"/>
<rect x="54.4229" y="637.373" width="70.8208" height="27.1728" rx="7.5" transform="rotate(179.891 54.4229 637.373)" fill="#E9DBFA" stroke="#E2F81C"/>
<rect x="165.055" y="597.878" width="80.344" height="27.1728" rx="7.5" transform="rotate(179.891 165.055 597.878)" fill="#FAFED7" stroke="#E2F81C"/>
<rect x="73.791" y="598.053" width="49.3936" height="27.1728" rx="7.5" transform="rotate(179.891 73.791 598.053)" fill="#FAFED7" stroke="#E2F81C"/>
<rect x="13.4771" y="598.168" width="70.8208" height="27.1728" rx="7.5" transform="rotate(179.891 13.4771 598.168)" fill="#FAFED7" stroke="#E2F81C"/>
<rect x="286.798" y="558.759" width="80.344" height="27.1728" rx="7.5" transform="rotate(179.891 286.798 558.759)" fill="#FAFED7" stroke="#E2F81C"/>
<rect x="195.931" y="558.933" width="49.3936" height="27.1728" rx="7.5" transform="rotate(179.891 195.931 558.933)" fill="#FAFED7" stroke="#E2F81C"/>
<rect x="135.617" y="559.048" width="70.8208" height="27.1728" rx="7.5" transform="rotate(179.891 135.617 559.048)" fill="#FAFED7" stroke="#E2F81C"/>
<rect x="54.2735" y="559.203" width="80.344" height="27.1728" rx="7.5" transform="rotate(179.891 54.2735 559.203)" fill="#FAFED7" stroke="#E2F81C"/>
<rect x="246.249" y="519.553" width="80.344" height="27.1728" rx="7.5" transform="rotate(179.891 246.249 519.553)" fill="#FAFED7" stroke="#E2F81C"/>
<rect x="154.985" y="519.728" width="49.3936" height="27.1728" rx="7.5" transform="rotate(179.891 154.985 519.728)" fill="#FAFED7" stroke="#E2F81C"/>
<rect x="94.6719" y="519.843" width="70.8208" height="27.1728" rx="7.5" transform="rotate(179.891 94.6719 519.843)" fill="#FAFED7" stroke="#E2F81C"/>
<rect x="13.3277" y="519.998" width="80.344" height="27.1728" rx="7.5" transform="rotate(179.891 13.3277 519.998)" fill="#FAFED7" stroke="#E2F81C"/>
<path opacity="0.9" d="M5 0H1471V559H5V0Z" fill="url(#paint1_linear_591_6399)"/>
</g>
<defs>
<filter id="filter0_f_591_6399" x="-491.072" y="620.505" width="1212.81" height="1179.96" filterUnits="userSpaceOnUse" color-interpolation-filters="sRGB">
<feFlood flood-opacity="0" result="BackgroundImageFix"/>
<feBlend mode="normal" in="SourceGraphic" in2="BackgroundImageFix" result="shape"/>
<feGaussianBlur stdDeviation="150" result="effect1_foregroundBlur_591_6399"/>
</filter>
<filter id="filter1_f_591_6399" x="-206.98" y="672.368" width="1212.47" height="1152.36" filterUnits="userSpaceOnUse" color-interpolation-filters="sRGB">
<feFlood flood-opacity="0" result="BackgroundImageFix"/>
<feBlend mode="normal" in="SourceGraphic" in2="BackgroundImageFix" result="shape"/>
<feGaussianBlur stdDeviation="150" result="effect1_foregroundBlur_591_6399"/>
</filter>
<linearGradient id="paint0_linear_591_6399" x1="715" y1="1291" x2="715" y2="732" gradientUnits="userSpaceOnUse">
<stop offset="0.267786" stop-color="white"/>
<stop offset="1" stop-color="white" stop-opacity="0"/>
</linearGradient>
<linearGradient id="paint1_linear_591_6399" x1="738" y1="0" x2="738" y2="559" gradientUnits="userSpaceOnUse">
<stop offset="0.267786" stop-color="white"/>
<stop offset="1" stop-color="white" stop-opacity="0"/>
</linearGradient>
</defs>
</svg>
