<?xml version="1.0" encoding="utf-8"?>
<!-- Generator: Adobe Illustrator 23.0.2, SVG Export Plug-In . SVG Version: 6.00 Build 0)  -->
<svg version="1.1" id="Capa_1" xmlns="http://www.w3.org/2000/svg" xmlns:xlink="http://www.w3.org/1999/xlink" x="0px" y="0px"
	 viewBox="0 0 966.2 184.6" style="enable-background:new 0 0 966.2 184.6;" xml:space="preserve">
<style type="text/css">
	.st0{fill:#FFFFFF;}
	.st1{fill:none;}
</style>
<g>
	<rect x="36.8" y="150.9" width="36.1" height="30.1"/>
	<rect x="153.1" y="113.8" width="29.1" height="34.1"/>
	<rect x="4.7" y="113.8" width="29.1" height="34.1"/>
	<rect x="106" y="147.9" width="3" height="0"/>
	<rect x="150.1" y="113.8" width="0" height="34.1"/>
	<rect x="182.2" y="40.6" width="0" height="34.1"/>
	<rect x="4.7" y="40.6" width="29.1" height="34.1"/>
	<polygon points="72.9,75 72.9,74.7 36.8,74.7 36.8,74.7 36.8,74.7 36.8,113.8 72.9,113.8 72.9,75 	"/>
	<polyline points="36.8,38.6 36.8,38.6 36.8,40.6 72.9,40.6 72.9,40.6 72.9,3.5 36.8,3.5 	"/>
	<polygon points="72.9,113.8 72.9,147.9 106,147.9 109,147.9 109,113.8 	"/>
	<rect x="36.8" y="113.8" width="36.1" height="34.1"/>
	<rect x="36.8" y="40.6" width="36.1" height="34.1"/>
	<rect x="112" y="40.6" width="38.1" height="0"/>
	<rect x="112" y="3.5" width="38.1" height="34.1"/>
	<rect x="150.1" y="75" width="0" height="38.7"/>
	<polygon points="150.1,148 150.1,152 150.1,147.9 150.1,147.9 	"/>
	<rect x="150.1" y="113.8" width="0" height="34.1"/>
	<polygon points="112,181 112,181 150.3,181 150.1,152 150.1,181 	"/>
	<rect x="76.9" y="40.6" width="35.1" height="34.1"/>
	<rect x="150.1" y="40.6" width="32.1" height="34.1"/>
	<rect x="72.9" y="74.7" width="0" height="0.4"/>
	<polygon points="150.1,147.9 112,147.9 112,181 150.1,181 150.1,152 150.1,148 	"/>
	<polygon points="112,74.7 112,75.2 112,75.2 112,113.8 150.1,113.8 150.1,75 150.1,75 150.1,74.7 	"/>
	<rect x="112" y="113.8" width="38.1" height="34.1"/>
	<rect x="112" y="40.6" width="38.1" height="34.1"/>
	<rect x="36.8" y="74.7" class="st0" width="0" height="0"/>
	<rect x="36.8" y="74.7" class="st0" width="0" height="0"/>
	<rect x="36.8" y="74.7" class="st0" width="0" height="0"/>
	<rect x="36.8" y="147.9" class="st0" width="0" height="0"/>
	<rect x="36.8" y="147.9" class="st0" width="0" height="0"/>
	<rect x="33.8" y="147.9" class="st0" width="0" height="0"/>
</g>
<g>
	<path class="st1" d="M819.1,127.3c12.5,0,19.9-5.5,22.1-16.4h-46.5C798.4,121.9,806.5,127.3,819.1,127.3z"/>
	<path class="st1" d="M712.6,69.5c-2,7.8-4.4,15.9-7.3,24.4l-4.9,14.2h0.2l0.3-0.8h23.5l-4.8-13.7C716.5,84.8,714.2,76.7,712.6,69.5
		z"/>
	<rect x="315.6" y="81.4" width="50.8" height="22"/>
	<polygon points="663.6,40.6 572,40.6 572,64.7 603.8,64.7 603.8,147.7 631.6,147.7 631.6,64.7 663.6,64.7 	"/>
	<path d="M559.1,90.5c-5.1-3.2-13.3-6.2-24.5-9.1c-11.9-3-18.9-5-21.1-6.1c-2.6-1.3-3.9-3.4-3.9-6.3c0-6.3,4.8-9.4,14.5-9.4
		c11.1,0,16.8,4.4,17.2,13.2h26.6c-0.2-10.4-3.5-18.5-10-24.5c-7.5-6.9-18.3-10.3-32.6-10.3c-12,0-21.8,2.6-29.5,7.9
		c-8.8,6.1-13.2,14.4-13.2,25c0,8.9,2.7,15.7,8.2,20.3c4.7,4,13.9,7.9,27.5,11.8c11.3,3.2,18.3,5.6,21.1,7.3
		c2.9,1.6,4.3,4.1,4.3,7.5c0,7.3-5.4,10.9-16.3,10.9c-13.3,0-20.2-5.7-20.8-17.1h-28.1c0.2,11.5,4,20.5,11.4,27.2
		c8.4,7.7,20.5,11.5,36.5,11.5c13.2,0,23.8-2.8,31.9-8.4c9.3-6.4,13.9-15.5,13.9-27.2C572.3,104,567.9,95.9,559.1,90.5z"/>
	<path d="M700.5,108h-0.2l4.9-14.2c2.9-8.5,5.3-16.6,7.3-24.4c1.6,7.3,3.9,15.3,6.9,24.1l4.8,13.7h27.5l-24.9-66.6h-28.4
		l-40.1,107.1H687l6.9-19.6H731l6.9,19.6h29l-13.8-36.8h-53.6L700.5,108z"/>
	<rect x="315.6" y="124.6" width="57.1" height="23"/>
	<path d="M446.8,80.7c0,8,0.4,17.2,1.2,27.7c-2.8-6-6.8-13.5-12-22.4l-25.5-43.5v43.4c0.5,0.9,0.9,1.7,1.3,2.3l6.1,10.9l28.9,48.6
		H474V40.6h-27.2V80.7z"/>
	<rect x="381.1" y="40.6" width="25.7" height="107.1"/>
	<path d="M792.4,94.7c0-10.9,2.2-19.2,6.6-25c4.4-5.9,10.7-8.8,18.8-8.8c11.3,0,18.1,5.3,20.5,16h27.1c-1.1-10.8-5.5-19.7-13.3-26.8
		c-9-8.2-20.2-12.3-33.8-12.3c-15,0-27.4,4.6-37.2,13.8C769.7,62.2,764,76.5,764,94.4c0,4.5,0.4,8.7,1.1,12.8h28.6
		C792.9,103.5,792.4,99.4,792.4,94.7z"/>
	<path d="M841.2,110.9c-2.3,10.9-9.7,16.4-22.1,16.4c-12.6,0-20.7-5.5-24.4-16.4h-28.9c2,8.3,5.5,15.6,10.6,22
		c9.6,11.7,22.6,17.5,39,17.5c13.9,0,24.6-4.8,32.2-14.4c0,0.3,0,0.6,0,1c0,0.3,0,0.5,0,0.7c0,2,0.5,5.3,1.5,9.9h17.9v-36.8H841.2z"
		/>
	<rect x="285.6" y="40.6" width="26.3" height="107.1"/>
	<polygon points="228.8,40.6 200.8,40.6 200.8,147.7 279,147.7 279,123.6 228.8,123.6 	"/>
	<rect x="315.6" y="40.6" width="55.7" height="23"/>
	<path d="M950.9,90.5c-5.1-3.2-13.3-6.2-24.5-9.1c-11.9-3-18.9-5-21.1-6.1c-2.6-1.3-3.9-3.4-3.9-6.3c0-6.3,4.8-9.4,14.5-9.4
		c11.1,0,16.8,4.4,17.2,13.2h26.6c-0.2-10.4-3.5-18.5-10-24.5c-7.5-6.9-18.3-10.3-32.6-10.3c-12,0-21.8,2.6-29.5,7.9
		c-8.8,6.1-13.2,14.4-13.2,25c0,8.9,2.7,15.7,8.2,20.3c4.7,4,13.9,7.9,27.5,11.8c11.3,3.2,18.3,5.6,21.1,7.3
		c2.9,1.6,4.3,4.1,4.3,7.5c0,7.3-5.4,10.9-16.3,10.9c-13.3,0-20.2-5.7-20.8-17.1h-28.1c0.2,11.5,4,20.5,11.4,27.2
		c8.4,7.7,20.5,11.5,36.5,11.5c13.2,0,23.8-2.8,31.9-8.4c9.3-6.4,13.9-15.5,13.9-27.2C964.1,104,959.7,95.9,950.9,90.5z"/>
	<rect x="822.1" y="89.5" width="45" height="17.7"/>
</g>
</svg>
