<?xml version="1.0" encoding="utf-8"?>
<!-- Generator: Adobe Illustrator 23.0.2, SVG Export Plug-In . SVG Version: 6.00 Build 0)  -->
<svg version="1.1" id="Capa_1" xmlns="http://www.w3.org/2000/svg" xmlns:xlink="http://www.w3.org/1999/xlink" x="0px" y="0px"
	 viewBox="0 0 1044.6 217" style="enable-background:new 0 0 1044.6 217;" xml:space="preserve">
<style type="text/css">
	.st0{fill:#FFFFFF;}
</style>
<g>
	<rect x="62.1" y="167.9" class="st0" width="36.2" height="30.2"/>
	<rect x="175.7" y="130.7" class="st0" width="0" height="34.2"/>
	<rect x="29.9" y="130.7" class="st0" width="29.2" height="34.2"/>
	<rect x="178.7" y="130.7" class="st0" width="29.2" height="34.2"/>
	<rect x="29.9" y="57.3" class="st0" width="29.2" height="34.2"/>
	<polygon class="st0" points="134.5,130.2 134.5,164.9 62.1,164.9 62.1,19 99.1,19 99.1,57.3 99.3,57.3 99.3,91.4 98.3,91.4 
		98.3,91.8 99.1,91.8 99.1,130.2 	"/>
	<rect x="175.7" y="91.8" class="st0" width="0" height="38.8"/>
	<polygon class="st0" points="175.7,164.9 175.7,169 175.7,165 175.7,164.9 	"/>
	<rect x="137.5" y="20" class="st0" width="38.2" height="34.2"/>
	<rect x="175.7" y="130.7" class="st0" width="0" height="34.2"/>
	<rect x="175.7" y="91.4" class="st0" width="32.2" height="0.4"/>
	<polygon class="st0" points="175.9,198 175.7,198 175.7,169 	"/>
	<rect x="99.1" y="91.4" class="st0" width="0.1" height="0.4"/>
	<rect x="102.3" y="91.4" class="st0" width="35.2" height="0.4"/>
	<polygon class="st0" points="207.9,57.3 207.9,91.4 175.7,91.4 175.7,91.8 175.7,91.8 175.7,165 175.7,169 175.7,198 137.5,198 
		137.5,91.4 102.3,91.4 102.3,57.3 	"/>
	<rect x="98.3" y="91.4" class="st0" width="0.9" height="0.4"/>
	<rect x="134.8" y="164.9" class="st0" width="1.4" height="0"/>
	<rect x="136.2" y="164.9" class="st0" width="1.3" height="0"/>
	<rect x="62.1" y="91.4" class="st0" width="0" height="0"/>
	<rect x="62.1" y="91.4" class="st0" width="0" height="0"/>
	<rect x="62.1" y="91.4" class="st0" width="0" height="0"/>
	<rect x="29.9" y="164.9" class="st0" width="29.2" height="0"/>
	<rect x="134.5" y="164.9" class="st0" width="0.3" height="0"/>
	<rect x="62.1" y="164.9" class="st0" width="0" height="0"/>
	<rect x="62.1" y="164.9" class="st0" width="0" height="0"/>
	<rect x="59.1" y="164.9" class="st0" width="0" height="0"/>
	<rect x="59.1" y="164.9" class="st0" width="3" height="0"/>
</g>
<g>
	<path class="st0" d="M763.3,83.2c-2,8-4.6,16.3-7.5,25l-5.1,14.6h0.2l0.3-0.9h24.1l-4.9-14C767.3,98.9,765,90.7,763.3,83.2z"/>
	<path class="st0" d="M872.6,142.6c12.8,0,20.4-5.6,22.7-16.9h-47.8C851.4,137,859.7,142.6,872.6,142.6z"/>
	<rect x="423" y="53.6" class="st0" width="26.3" height="110"/>
	<path class="st0" d="M490.4,94.7c0,8.2,0.4,17.7,1.2,28.4c-2.9-6.1-7-13.8-12.3-23l-26.2-44.6V100c0.5,1,0.9,1.8,1.3,2.4l6.3,11.2
		l29.6,49.9h27.9v-110h-27.9V94.7z"/>
	<polygon class="st0" points="713.1,53.6 618.9,53.6 618.9,78.3 651.6,78.3 651.6,163.5 680.2,163.5 680.2,78.3 713.1,78.3 	"/>
	<polygon class="st0" points="266.6,53.6 237.9,53.6 237.9,163.5 318.2,163.5 318.2,138.8 266.6,138.8 	"/>
	<rect x="355.7" y="139.9" class="st0" width="58.6" height="23.6"/>
	<rect x="325" y="53.6" class="st0" width="27" height="110"/>
	<path class="st0" d="M750.9,122.8h-0.2l5.1-14.6c3-8.7,5.5-17,7.5-25c1.6,7.5,4,15.7,7.1,24.7l4.9,14h28.2l-25.6-68.4h-29.2
		l-41.2,110h29.5l7.1-20.1h38.1l7.1,20.1h29.8L805,125.8h-55L750.9,122.8z"/>
	<rect x="355.7" y="95.5" class="st0" width="52.2" height="22.6"/>
	<rect x="355.7" y="53.6" class="st0" width="57.2" height="23.6"/>
	<path class="st0" d="M605.7,104.9c-5.2-3.3-13.6-6.4-25.2-9.4c-12.2-3.1-19.4-5.2-21.7-6.3c-2.7-1.3-4-3.5-4-6.4
		c0-6.5,5-9.7,14.9-9.7c11.4,0,17.3,4.5,17.7,13.5h27.3c-0.2-10.6-3.6-19-10.3-25.2c-7.7-7.1-18.8-10.6-33.5-10.6
		c-12.3,0-22.4,2.7-30.3,8.1c-9,6.2-13.5,14.8-13.5,25.6c0,9.1,2.8,16.1,8.4,20.9c4.8,4.1,14.2,8.1,28.3,12.1
		c11.6,3.3,18.8,5.8,21.7,7.5c3,1.6,4.5,4.2,4.5,7.7c0,7.5-5.6,11.2-16.7,11.2c-13.6,0-20.7-5.8-21.3-17.5h-28.9
		c0.2,11.8,4.1,21.1,11.7,27.9c8.6,7.9,21.1,11.8,37.5,11.8c13.5,0,24.4-2.9,32.7-8.6c9.5-6.6,14.3-15.9,14.3-27.9
		C619.3,118.7,614.7,110.4,605.7,104.9z"/>
	<path class="st0" d="M1008,104.9c-5.2-3.3-13.6-6.4-25.2-9.4c-12.2-3.1-19.4-5.2-21.7-6.3c-2.7-1.3-4-3.5-4-6.4
		c0-6.5,5-9.7,14.9-9.7c11.4,0,17.3,4.5,17.7,13.5h27.3c-0.2-10.6-3.6-19-10.3-25.2c-7.7-7.1-18.8-10.6-33.5-10.6
		c-12.3,0-22.4,2.7-30.3,8.1c-9,6.2-13.5,14.8-13.5,25.6c0,9.1,2.8,16.1,8.4,20.9c4.8,4.1,14.2,8.1,28.3,12.1
		c11.6,3.3,18.8,5.8,21.7,7.5c3,1.6,4.5,4.2,4.5,7.7c0,7.5-5.6,11.2-16.7,11.2c-13.6,0-20.7-5.8-21.3-17.5h-28.9
		c0.2,11.8,4.1,21.1,11.7,27.9c8.6,7.9,21.1,11.8,37.5,11.8c13.5,0,24.4-2.9,32.7-8.6c9.5-6.6,14.3-15.9,14.3-27.9
		C1021.5,118.7,1017,110.4,1008,104.9z"/>
	<path class="st0" d="M845.3,109.2c0-11.2,2.3-19.7,6.8-25.6c4.5-6,11-9.1,19.3-9.1c11.6,0,18.6,5.5,21,16.4h27.8
		c-1.1-11.1-5.7-20.2-13.7-27.5c-9.2-8.4-20.8-12.6-34.7-12.6c-15.4,0-28.1,4.7-38.2,14.1c-11.7,10.9-17.5,25.5-17.5,43.9
		c0,4.6,0.4,9,1.1,13.1h29.4C845.7,118.2,845.3,113.9,845.3,109.2z"/>
	<rect x="875.7" y="103.8" class="st0" width="46.2" height="18.2"/>
	<path class="st0" d="M895.4,125.8c-2.3,11.2-9.9,16.9-22.7,16.9c-12.9,0-21.3-5.6-25-16.9H818c2,8.6,5.6,16.1,10.9,22.5
		c9.8,12,23.2,18,40.1,18c14.2,0,25.2-4.9,33-14.7c0,0.3,0,0.7,0,1.1c0,0.3,0,0.6,0,0.8c0,2,0.5,5.4,1.5,10.1h18.4v-37.7H895.4z"/>
</g>
</svg>
