<?xml version="1.0" encoding="utf-8"?>
<!-- Generator: Adobe Illustrator 23.0.2, SVG Export Plug-In . SVG Version: 6.00 Build 0)  -->
<svg version="1.1" id="Capa_1" xmlns="http://www.w3.org/2000/svg" xmlns:xlink="http://www.w3.org/1999/xlink" x="0px" y="0px"
	 viewBox="0 0 1044.6 217" style="enable-background:new 0 0 1044.6 217;" xml:space="preserve">
<style type="text/css">
	.st0{fill:#FFFFFF;}
</style>
<g>
	<rect x="69.8" y="171.1" class="st0" width="36.2" height="30.2"/>
	<rect x="183.4" y="133.9" class="st0" width="0" height="34.2"/>
	<rect x="37.6" y="133.9" class="st0" width="29.2" height="34.2"/>
	<rect x="186.5" y="133.9" class="st0" width="29.2" height="34.2"/>
	<rect x="37.6" y="60.5" class="st0" width="29.2" height="34.2"/>
	<polygon class="st0" points="142.2,133.4 142.2,168.1 69.8,168.1 69.8,22.2 106.9,22.2 106.9,60.5 107,60.5 107,94.7 106,94.7 
		106,95 106.9,95 106.9,133.4 	"/>
	<rect x="183.4" y="95" class="st0" width="0" height="38.8"/>
	<polygon class="st0" points="183.4,168.1 183.4,172.2 183.4,168.2 183.4,168.1 	"/>
	<rect x="145.2" y="23.3" class="st0" width="38.2" height="34.2"/>
	<rect x="183.4" y="133.9" class="st0" width="0" height="34.2"/>
	<rect x="183.4" y="94.7" class="st0" width="32.2" height="0.4"/>
	<polygon class="st0" points="183.6,201.3 183.4,201.3 183.4,172.2 	"/>
	<rect x="106.9" y="94.7" class="st0" width="0.1" height="0.4"/>
	<rect x="110" y="94.7" class="st0" width="35.2" height="0.4"/>
	<polygon class="st0" points="215.6,60.5 215.6,94.7 183.4,94.7 183.4,95 183.4,95 183.4,168.2 183.4,172.2 183.4,201.3 
		145.2,201.3 145.2,94.7 110,94.7 110,60.5 	"/>
	<rect x="106" y="94.7" class="st0" width="0.9" height="0.4"/>
	<rect x="142.5" y="168.1" class="st0" width="1.4" height="0"/>
	<rect x="143.9" y="168.1" class="st0" width="1.3" height="0"/>
	<rect x="69.8" y="94.7" class="st0" width="0" height="0"/>
	<rect x="69.8" y="94.7" class="st0" width="0" height="0"/>
	<rect x="69.8" y="94.7" class="st0" width="0" height="0"/>
	<rect x="37.6" y="168.1" class="st0" width="29.2" height="0"/>
	<rect x="142.2" y="168.1" class="st0" width="0.3" height="0"/>
	<rect x="69.8" y="168.1" class="st0" width="0" height="0"/>
	<rect x="69.8" y="168.1" class="st0" width="0" height="0"/>
	<rect x="66.8" y="168.1" class="st0" width="0" height="0"/>
	<rect x="66.8" y="168.1" class="st0" width="3" height="0"/>
</g>
<g>
	<rect x="425.9" y="56.8" class="st0" width="26.3" height="110"/>
	<path class="st0" d="M493.3,97.9c0,8.2,0.4,17.7,1.2,28.4c-2.9-6.1-7-13.8-12.3-23L456,58.7v44.5c0.5,1,0.9,1.8,1.3,2.4l6.3,11.2
		l29.6,49.9h27.9v-110h-27.9V97.9z"/>
	<polygon class="st0" points="715.9,56.8 621.8,56.8 621.8,81.5 654.5,81.5 654.5,166.7 683.1,166.7 683.1,81.5 715.9,81.5 	"/>
	<polygon class="st0" points="269.5,56.8 240.8,56.8 240.8,166.7 321.1,166.7 321.1,142 269.5,142 	"/>
	<rect x="358.6" y="143.1" class="st0" width="58.6" height="23.6"/>
	<rect x="327.8" y="56.8" class="st0" width="27" height="110"/>
	<path class="st0" d="M753.8,126h-0.2l5.1-14.6c3-8.7,5.5-17,7.5-25c1.6,7.5,4,15.7,7.1,24.7l4.9,14h28.2l-25.6-68.4h-29.2
		l-41.2,110H740l7.1-20.1h38.1l7.1,20.1H822L807.8,129h-55L753.8,126z"/>
	<rect x="358.6" y="98.7" class="st0" width="52.2" height="22.6"/>
	<rect x="358.6" y="56.8" class="st0" width="57.2" height="23.6"/>
	<path class="st0" d="M608.6,108.1c-5.2-3.3-13.6-6.4-25.2-9.4c-12.2-3.1-19.4-5.2-21.7-6.3c-2.7-1.3-4-3.5-4-6.4
		c0-6.5,5-9.7,14.9-9.7c11.4,0,17.3,4.5,17.7,13.5h27.3c-0.2-10.6-3.6-19-10.3-25.2c-7.7-7.1-18.8-10.6-33.5-10.6
		c-12.3,0-22.4,2.7-30.3,8.1c-9,6.2-13.5,14.8-13.5,25.6c0,9.1,2.8,16.1,8.4,20.9c4.8,4.1,14.2,8.1,28.3,12.1
		c11.6,3.3,18.8,5.8,21.7,7.5c3,1.6,4.5,4.2,4.5,7.7c0,7.5-5.6,11.2-16.7,11.2c-13.6,0-20.7-5.8-21.3-17.5H526
		c0.2,11.8,4.1,21.1,11.7,27.9c8.6,7.9,21.1,11.8,37.5,11.8c13.5,0,24.4-2.9,32.7-8.6c9.5-6.6,14.3-15.9,14.3-27.9
		C622.1,121.9,617.6,113.6,608.6,108.1z"/>
	<path class="st0" d="M1010.9,108.1c-5.2-3.3-13.6-6.4-25.2-9.4c-12.2-3.1-19.4-5.2-21.7-6.3c-2.7-1.3-4-3.5-4-6.4
		c0-6.5,5-9.7,14.9-9.7c11.4,0,17.3,4.5,17.7,13.5h27.3c-0.2-10.6-3.6-19-10.3-25.2C1002,57.5,990.8,54,976.2,54
		c-12.3,0-22.4,2.7-30.3,8.1c-9,6.2-13.5,14.8-13.5,25.6c0,9.1,2.8,16.1,8.4,20.9c4.8,4.1,14.2,8.1,28.3,12.1
		c11.6,3.3,18.8,5.8,21.7,7.5c3,1.6,4.5,4.2,4.5,7.7c0,7.5-5.6,11.2-16.7,11.2c-13.6,0-20.7-5.8-21.3-17.5h-28.9
		c0.2,11.8,4.1,21.1,11.7,27.9c8.6,7.9,21.1,11.8,37.5,11.8c13.5,0,24.4-2.9,32.7-8.6c9.5-6.6,14.3-15.9,14.3-27.9
		C1024.4,121.9,1019.9,113.6,1010.9,108.1z"/>
	<path class="st0" d="M848.2,112.4c0-11.2,2.3-19.7,6.8-25.6c4.5-6,11-9.1,19.3-9.1c11.6,0,18.6,5.5,21,16.4h27.8
		c-1.1-11.1-5.7-20.2-13.7-27.5c-9.2-8.4-20.8-12.6-34.7-12.6c-15.4,0-28.1,4.7-38.2,14.1C824.9,79,819,93.6,819,112.1
		c0,4.6,0.4,9,1.1,13.1h29.4C848.6,121.4,848.2,117.1,848.2,112.4z"/>
	<rect x="878.6" y="107" class="st0" width="46.2" height="18.2"/>
	<path class="st0" d="M898.3,129c-2.3,11.2-9.9,16.9-22.7,16.9c-12.9,0-21.3-5.6-25-16.9h-29.6c2,8.6,5.6,16.1,10.9,22.5
		c9.8,12,23.2,18,40.1,18c14.2,0,25.2-4.9,33-14.7c0,0.3,0,0.7,0,1.1c0,0.3,0,0.6,0,0.8c0,2,0.5,5.4,1.5,10.1h18.4V129H898.3z"/>
</g>
</svg>
