<?xml version="1.0" encoding="utf-8"?>
<!-- Generator: Adobe Illustrator 23.0.2, SVG Export Plug-In . SVG Version: 6.00 Build 0)  -->
<svg version="1.1" id="Capa_1" xmlns="http://www.w3.org/2000/svg" xmlns:xlink="http://www.w3.org/1999/xlink" x="0px" y="0px"
	 viewBox="0 0 190.9 184.6" style="enable-background:new 0 0 190.9 184.6;" xml:space="preserve">
<style type="text/css">
	.st0{fill:#FFFFFF;}
	.st1{fill:none;}
</style>
<g>
	<rect x="39.3" y="151.8" width="36.1" height="30.1"/>
	<rect x="155.7" y="114.7" width="29.1" height="34.1"/>
	<rect x="7.3" y="114.7" width="29.1" height="34.1"/>
	<rect x="108.5" y="148.8" width="3" height="0"/>
	<rect x="152.7" y="114.7" width="0" height="34.1"/>
	<rect x="184.7" y="41.5" width="0" height="34.1"/>
	<rect x="7.3" y="41.5" width="29.1" height="34.1"/>
	<polygon points="75.4,75.9 75.4,75.6 39.3,75.6 39.3,75.6 39.3,75.6 39.3,114.7 75.4,114.7 75.4,75.9 	"/>
	<polyline points="39.3,39.5 39.3,39.5 39.3,41.5 75.4,41.5 75.4,41.5 75.4,4.4 39.3,4.4 	"/>
	<polygon points="75.4,114.7 75.4,148.8 108.5,148.8 111.5,148.8 111.5,114.7 	"/>
	<rect x="39.3" y="114.7" width="36.1" height="34.1"/>
	<rect x="39.3" y="41.5" width="36.1" height="34.1"/>
	<rect x="114.6" y="41.5" width="38.1" height="0"/>
	<rect x="114.6" y="4.4" width="38.1" height="34.1"/>
	<rect x="152.6" y="75.9" width="0" height="38.7"/>
	<polygon points="152.6,148.9 152.7,152.8 152.7,148.8 152.6,148.8 	"/>
	<rect x="152.6" y="114.7" width="0" height="34.1"/>
	<polygon points="114.6,181.8 114.6,181.8 152.9,181.8 152.7,152.8 152.7,181.8 	"/>
	<rect x="79.5" y="41.5" width="35.1" height="34.1"/>
	<rect x="152.7" y="41.5" width="32.1" height="34.1"/>
	<rect x="75.4" y="75.6" width="0" height="0.4"/>
	<polygon points="152.6,148.8 114.6,148.8 114.6,181.8 152.7,181.8 152.7,152.8 152.6,148.9 	"/>
	<polygon points="114.6,75.6 114.6,76.1 114.6,76.1 114.6,114.7 152.6,114.7 152.6,75.9 152.7,75.9 152.7,75.6 	"/>
	<rect x="114.6" y="114.7" width="38.1" height="34.1"/>
	<rect x="114.6" y="41.5" width="38.1" height="34.1"/>
	<rect x="39.3" y="75.6" class="st0" width="0" height="0"/>
	<rect x="39.3" y="75.6" class="st0" width="0" height="0"/>
	<rect x="39.3" y="75.6" class="st0" width="0" height="0"/>
	<rect x="39.3" y="148.8" class="st0" width="0" height="0"/>
	<rect x="39.3" y="148.8" class="st0" width="0" height="0"/>
	<rect x="36.3" y="148.8" class="st0" width="0" height="0"/>
</g>
</svg>
