<svg width="242" height="243" viewBox="0 0 242 243" fill="none" xmlns="http://www.w3.org/2000/svg">
<path d="M180.971 109.228C180.746 109.228 180.53 109.139 180.372 108.98C180.213 108.821 180.124 108.606 180.124 108.381V98.3781C180.124 97.8416 179.91 97.327 179.531 96.9479C179.152 96.5679 178.637 96.355 178.101 96.3542H133.535C133.31 96.3542 133.095 96.2646 132.936 96.1057C132.777 95.9468 132.688 95.7314 132.688 95.5072C132.688 95.2821 132.777 95.0667 132.936 94.9078C133.095 94.7489 133.31 94.6602 133.535 94.6602H178.101C179.086 94.661 180.031 95.0538 180.728 95.7508C181.425 96.4477 181.817 97.3931 181.818 98.3781V108.381C181.818 108.606 181.729 108.821 181.57 108.98C181.411 109.139 181.196 109.228 180.971 109.228Z" fill="#121212"/>
<path d="M181.077 178.474C180.853 178.474 180.637 178.384 180.479 178.225C180.32 178.067 180.23 177.851 180.23 177.627V157.882C180.23 157.657 180.32 157.442 180.479 157.283C180.637 157.124 180.853 157.035 181.077 157.035C181.303 157.035 181.518 157.124 181.677 157.283C181.836 157.442 181.924 157.657 181.924 157.882V177.627C181.924 177.851 181.836 178.067 181.677 178.225C181.518 178.384 181.303 178.474 181.077 178.474Z" fill="#121212"/>
<path d="M57.1273 178.429C56.9024 178.429 56.6867 178.344 56.5277 178.193C56.3687 178.043 56.2793 177.837 56.2793 177.624V98.1949C56.2804 97.2577 56.673 96.3589 57.3709 95.6963C58.0687 95.0337 59.0149 94.6609 60.0018 94.6602H103.918C104.143 94.6602 104.359 94.7445 104.518 94.8956C104.677 95.0467 104.766 95.2515 104.766 95.4654C104.766 95.6786 104.677 95.8834 104.518 96.0345C104.359 96.1856 104.143 96.2707 103.918 96.2707H60.0018C59.4644 96.2707 58.9491 96.4739 58.5692 96.8344C58.1892 97.1956 57.9756 97.6849 57.9752 98.1949V177.624C57.9752 177.73 57.9533 177.834 57.9107 177.932C57.8681 178.03 57.8056 178.119 57.7268 178.193C57.6481 178.268 57.5547 178.327 57.4518 178.368C57.3489 178.409 57.2386 178.429 57.1273 178.429Z" fill="#121212"/>
<path d="M102.96 179.896C100.192 178.666 102.96 180.122 102.96 180.122H57.165V182.014C57.1654 182.775 57.4682 183.505 58.0066 184.043C58.5451 184.581 59.2753 184.884 60.0366 184.884H108.237C108.185 184.483 108.245 183.956 107.901 183.708C106.238 182.506 104.654 180.602 102.96 179.896Z" fill="#121212"/>
<path d="M108.237 185.73H60.036C59.0504 185.729 58.1054 185.337 57.4083 184.64C56.7112 183.944 56.3189 182.999 56.3174 182.013V180.127C56.3174 179.902 56.4067 179.687 56.5655 179.528C56.7243 179.369 56.9398 179.28 57.1645 179.28H100.889C100.904 179.197 100.931 179.117 100.968 179.041C101.2 178.558 101.657 178.447 102.32 178.707C102.538 178.793 102.856 178.928 103.294 179.123C104.488 179.623 105.581 180.602 106.639 181.55C107.199 182.072 107.787 182.565 108.398 183.026C108.986 183.45 109.031 184.142 109.059 184.553C109.059 184.631 109.067 184.707 109.077 184.778C109.093 184.899 109.082 185.021 109.047 185.137C109.011 185.253 108.951 185.359 108.872 185.45C108.791 185.541 108.693 185.613 108.581 185.663C108.471 185.712 108.351 185.737 108.23 185.736L108.237 185.73ZM58.0115 180.974V182.019C58.0123 182.555 58.2259 183.07 58.6054 183.449C58.9849 183.828 59.4994 184.041 60.036 184.042H106.935C106.448 183.655 105.972 183.227 105.508 182.811C104.731 182.116 103.934 181.399 103.161 180.95C103.095 180.966 103.027 180.974 102.96 180.974H58.0115Z" fill="#121212"/>
<path d="M134.63 180.127C136.684 181.669 133.68 178.835 135.195 181.061C136.155 182.108 134.444 183.572 133.739 183.713C131.339 183.854 129.786 181.172 127.81 180.184C125.164 178.671 122.603 177.41 119.706 176.629L119.019 176.043C120.53 177.463 122.853 178.15 124.191 179.891C125.237 181.319 125.613 183.295 126.241 184.889H178.21C178.971 184.889 179.701 184.586 180.239 184.048C180.778 183.51 181.08 182.78 181.08 182.019V180.127H134.63Z" fill="#121212"/>
<path d="M178.207 185.729H126.238C126.068 185.729 125.903 185.678 125.761 185.582C125.621 185.486 125.513 185.351 125.45 185.193C125.247 184.677 125.069 184.124 124.897 183.589C124.53 182.449 124.151 181.269 123.511 180.392C122.841 179.526 121.857 178.939 120.817 178.318C120.329 178.026 119.828 177.73 119.357 177.396C119.283 177.362 119.215 177.319 119.152 177.267L118.943 177.091C118.768 176.952 118.597 176.807 118.433 176.653C118.271 176.502 118.176 176.293 118.166 176.072C118.156 175.851 118.233 175.635 118.38 175.47C118.528 175.305 118.735 175.205 118.955 175.189C119.176 175.175 119.394 175.247 119.562 175.391L120.02 175.782C120.052 175.809 120.087 175.834 120.121 175.86C123.264 176.736 125.966 178.152 128.203 179.43C129.018 179.842 129.735 180.476 130.43 181.09C131.476 182.015 132.462 182.889 133.602 182.863C133.855 182.769 134.479 182.287 134.609 181.852C134.627 181.815 134.167 181.852 134.624 181.732C134.312 181.852 134.167 181.628 134.564 181.628C134.536 181.597 134.509 181.565 134.486 181.531C134.295 181.268 134.132 180.988 134 180.692C133.892 180.571 133.82 180.421 133.795 180.259C133.769 180.098 133.791 179.933 133.857 179.784C133.923 179.635 134.031 179.508 134.167 179.419C134.303 179.329 134.462 179.282 134.626 179.28H181.073C181.297 179.28 181.513 179.369 181.671 179.528C181.83 179.687 181.92 179.903 181.92 180.127V182.019C181.917 183.003 181.525 183.945 180.829 184.64C180.133 185.336 179.19 185.727 178.207 185.729ZM134.936 184.035H178.207C178.743 184.034 179.257 183.821 179.637 183.442C180.016 183.062 180.229 182.549 180.23 182.012V180.973H136.147C136.358 181.419 136.384 181.931 136.219 182.396C136.013 183.023 135.495 183.625 134.936 184.035ZM126.829 184.035H131.548C130.716 183.6 129.995 182.958 129.312 182.359C128.665 181.794 128.054 181.247 127.428 180.935L127.386 180.912C126.659 180.488 125.88 180.065 125.054 179.641C125.744 180.685 126.133 181.901 126.509 183.068C126.616 183.405 126.721 183.727 126.829 184.035Z" fill="#121212"/>
<path d="M112.138 182.109C112.024 183.862 112.683 183.945 112.721 185.573H115.805C115.634 184.915 115.302 185.25 114.994 184.651C114.233 183.212 113.09 183.138 112.138 182.109Z" fill="#121212"/>
<path d="M112.036 111.473C111.811 111.473 111.596 111.384 111.437 111.226C111.278 111.067 111.189 110.851 111.189 110.626V93.5579C111.189 93.3329 111.278 93.1175 111.437 92.9586C111.596 92.8005 111.811 92.7109 112.036 92.7109C112.261 92.7109 112.476 92.8005 112.635 92.9586C112.794 93.1175 112.883 93.3329 112.883 93.5579V110.626C112.883 110.851 112.794 111.067 112.635 111.226C112.476 111.384 112.261 111.473 112.036 111.473Z" fill="#121212"/>
<path d="M126.217 111.536C125.992 111.536 125.777 111.447 125.618 111.288C125.459 111.129 125.37 110.914 125.37 110.689V93.6204C125.37 93.3954 125.459 93.18 125.618 93.0211C125.777 92.863 125.992 92.7734 126.217 92.7734C126.441 92.7734 126.657 92.863 126.816 93.0211C126.975 93.18 127.064 93.3954 127.064 93.6204V110.689C127.064 110.914 126.975 111.129 126.816 111.288C126.657 111.447 126.441 111.536 126.217 111.536Z" fill="#121212"/>
<path d="M105.415 80.0835C105.223 80.0831 105.038 80.018 104.889 79.8986L101.872 77.4986C101.696 77.3585 101.583 77.1544 101.557 76.9311C101.532 76.7077 101.597 76.4835 101.736 76.3077C101.876 76.1319 102.081 76.019 102.304 75.9937C102.527 75.9684 102.752 76.0329 102.928 76.1729L105.943 78.5729C106.081 78.6823 106.181 78.8318 106.23 79.0008C106.279 79.1698 106.274 79.3499 106.216 79.516C106.158 79.6821 106.049 79.8259 105.906 79.9276C105.762 80.0293 105.591 80.0838 105.415 80.0835Z" fill="#121212"/>
<path d="M111.921 71.0687C111.729 71.0689 111.542 71.0036 111.392 70.8836C111.241 70.7635 111.137 70.5959 111.094 70.4083C111.052 70.2207 111.074 70.0242 111.158 69.8511C111.243 69.6782 111.383 69.5389 111.557 69.4564C113.098 68.7237 114.804 68.6023 115.726 68.7986C115.835 68.8217 115.938 68.8661 116.03 68.9292C116.122 68.9922 116.2 69.0727 116.261 69.166C116.321 69.2594 116.362 69.3637 116.383 69.4732C116.403 69.5826 116.402 69.6949 116.378 69.8037C116.355 69.9126 116.311 70.0158 116.248 70.1074C116.185 70.1991 116.104 70.2774 116.01 70.338C115.918 70.3986 115.813 70.4401 115.704 70.4604C115.594 70.4806 115.482 70.4791 115.373 70.456C114.809 70.3359 113.474 70.4207 112.284 70.9868C112.171 71.0411 112.046 71.0691 111.921 71.0687Z" fill="#121212"/>
<path d="M119.226 83.1083C118.611 83.1083 117.935 82.8923 117.275 82.3177C117.114 82.1681 117.017 81.9617 117.006 81.7423C116.994 81.5228 117.068 81.3074 117.213 81.1416C117.357 80.9758 117.56 80.8725 117.779 80.8535C117.998 80.8346 118.215 80.9015 118.386 81.0401C119.177 81.7276 119.766 81.3097 119.981 81.0994C120.138 80.9391 120.351 80.8472 120.575 80.8439C120.798 80.8404 121.014 80.9256 121.176 81.081C121.256 81.1586 121.32 81.2515 121.365 81.3541C121.41 81.4567 121.433 81.5671 121.435 81.6789C121.436 81.7907 121.416 81.9018 121.374 82.0056C121.332 82.1094 121.271 82.204 121.193 82.2838C120.672 82.8068 119.964 83.1031 119.226 83.1083Z" fill="#121212"/>
<path d="M113.448 78.1837C113.193 78.1837 112.95 78.0828 112.77 77.9031C112.59 77.7234 112.488 77.4795 112.488 77.2252V75.1653C112.497 74.9173 112.603 74.6826 112.782 74.5105C112.96 74.3383 113.199 74.2422 113.447 74.2422C113.696 74.2422 113.934 74.3383 114.113 74.5105C114.292 74.6826 114.397 74.9173 114.407 75.1653V77.2252C114.407 77.4793 114.305 77.7229 114.126 77.9026C113.946 78.0822 113.702 78.1834 113.448 78.1837Z" fill="#121212"/>
<path d="M132.839 80.0826C132.663 80.0828 132.491 80.0284 132.348 79.9267C132.204 79.8249 132.096 79.681 132.038 79.515C131.98 79.3489 131.975 79.1689 132.023 78.9999C132.072 78.8309 132.172 78.6813 132.31 78.5719L135.327 76.1719C135.413 76.1009 135.513 76.0478 135.621 76.0158C135.728 75.9837 135.841 75.9733 135.953 75.9853C136.064 75.9972 136.172 76.0312 136.27 76.0852C136.369 76.1393 136.456 76.2124 136.525 76.3002C136.595 76.388 136.647 76.4888 136.678 76.5968C136.708 76.7047 136.717 76.8178 136.704 76.9292C136.69 77.0406 136.654 77.1482 136.599 77.2458C136.544 77.3433 136.47 77.429 136.381 77.4976L133.366 79.8976C133.215 80.017 133.03 80.0822 132.839 80.0826Z" fill="#121212"/>
<path d="M118.944 96.7616C116.192 96.7616 113.401 95.6548 111.079 93.6357C108.641 91.5182 106.824 88.5134 105.819 84.9519C103.296 84.7924 100.712 83.0036 99.0804 80.2295C97.5131 77.5655 97.2961 74.7236 98.5157 72.8079C99.1724 71.7744 100.048 71.1673 101.121 71.0008C103.381 70.6507 105.647 72.5156 105.743 72.5961C105.914 72.7404 106.023 72.9472 106.042 73.1711C106.062 73.3949 105.992 73.6175 105.848 73.7897C105.703 73.9619 105.497 74.0698 105.272 74.0896C105.049 74.1092 104.826 74.0392 104.654 73.8949C104.167 73.4897 102.625 72.4832 101.377 72.6752C100.801 72.7655 100.332 73.1071 99.9444 73.717C99.0707 75.0921 99.299 77.2577 100.541 79.3641C101.742 81.4041 104.026 83.399 106.42 83.2578C106.615 83.2462 106.809 83.3027 106.968 83.4178C107.126 83.5328 107.24 83.6993 107.29 83.8889L107.396 84.2898C109.42 91.7457 114.641 95.0619 118.958 95.0619H119.181C123.528 95.1127 128.817 91.8046 130.857 84.2898C130.893 84.1556 130.928 84.0216 130.964 83.8889C131.013 83.6993 131.127 83.5328 131.286 83.4178C131.444 83.3027 131.637 83.2462 131.834 83.2578C134.233 83.399 136.512 81.4041 137.712 79.3641C138.955 77.2465 139.183 75.0864 138.308 73.717C137.92 73.1071 137.452 72.7655 136.876 72.6752C135.626 72.4789 134.085 73.4897 133.597 73.8949C133.423 74.0285 133.205 74.0899 132.988 74.0661C132.77 74.0423 132.57 73.9352 132.43 73.7673C132.289 73.5994 132.219 73.3836 132.234 73.1653C132.25 72.9469 132.349 72.7429 132.511 72.5961C132.605 72.5156 134.866 70.6507 137.13 71.0008C138.203 71.1673 139.081 71.7744 139.738 72.8079C140.954 74.7222 140.739 77.5655 139.173 80.2295C137.541 83.0036 134.956 84.7924 132.434 84.9519C131.429 88.515 129.611 91.5142 127.173 93.6357C124.817 95.6855 121.975 96.7971 119.171 96.7616H118.944Z" fill="#121212"/>
<path d="M124.806 78.184C124.552 78.1837 124.308 78.0825 124.128 77.9029C123.948 77.7231 123.847 77.4795 123.847 77.2254V75.1656C123.847 74.9114 123.948 74.6676 124.127 74.4878C124.307 74.308 124.551 74.207 124.806 74.207C125.06 74.207 125.304 74.308 125.483 74.4878C125.663 74.6676 125.764 74.9114 125.764 75.1656V77.2254C125.764 77.4795 125.662 77.7231 125.483 77.9029C125.304 78.0825 125.06 78.1837 124.806 78.184Z" fill="#121212"/>
<path d="M119.419 91.2472C114.837 91.2472 113.056 86.8338 112.982 86.6461C112.931 86.5138 112.913 86.3707 112.931 86.2298C112.948 86.0889 113.001 85.9547 113.085 85.8398C113.168 85.7247 113.279 85.6325 113.408 85.5716C113.536 85.5107 113.677 85.4831 113.819 85.4913C117.549 85.705 121.287 85.6942 125.015 85.4588C125.158 85.4496 125.302 85.477 125.432 85.5386C125.562 85.6003 125.674 85.6939 125.758 85.8109C125.841 85.9278 125.894 86.0642 125.911 86.2071C125.928 86.3501 125.907 86.4948 125.852 86.6277C125.772 86.8099 123.885 91.2472 119.419 91.2472ZM115.259 87.2559C115.988 88.2739 117.322 89.5516 119.419 89.5516C121.457 89.5516 122.807 88.261 123.551 87.2292C120.795 87.359 118.017 87.3689 115.259 87.2559Z" fill="#121212"/>
<path d="M110.519 85.7221C110.34 85.722 110.165 85.6649 110.02 85.5591C109.876 85.4533 109.768 85.3042 109.714 85.1334C109.657 84.9471 109.641 84.7511 109.665 84.5581C109.689 84.3651 109.754 84.1792 109.855 84.0127C109.956 83.8462 110.089 83.7026 110.249 83.5912C110.409 83.4797 110.59 83.403 110.781 83.3659C110.973 83.3354 111.17 83.3723 111.339 83.4703C111.508 83.5684 111.637 83.7216 111.706 83.9042C111.775 84.0866 111.778 84.2873 111.716 84.4721C111.654 84.6569 111.53 84.8147 111.365 84.9188C111.355 85.0893 111.294 85.2528 111.189 85.3878C111.085 85.5228 110.942 85.6232 110.779 85.6755C110.695 85.7041 110.608 85.7198 110.519 85.7221Z" fill="#121212"/>
<path d="M127.566 85.7203C127.478 85.7199 127.39 85.7061 127.306 85.6794C127.144 85.6271 127 85.5268 126.896 85.3917C126.791 85.2567 126.73 85.0932 126.72 84.9227C126.555 84.8186 126.432 84.6609 126.369 84.476C126.307 84.2912 126.311 84.0905 126.38 83.9081C126.448 83.7256 126.578 83.5723 126.746 83.4743C126.915 83.3762 127.112 83.3393 127.304 83.3698C127.496 83.4069 127.677 83.4836 127.836 83.5951C127.996 83.7065 128.13 83.8501 128.23 84.0167C128.331 84.1832 128.396 84.369 128.42 84.562C128.444 84.755 128.428 84.951 128.372 85.1373C128.316 85.3071 128.209 85.4549 128.063 85.5596C127.919 85.6644 127.745 85.7207 127.566 85.7203Z" fill="#121212"/>
<path d="M126.503 71.0659C126.377 71.0663 126.253 71.0383 126.14 70.984C124.949 70.4193 123.618 70.3332 123.052 70.4531C122.837 70.4873 122.618 70.4379 122.439 70.3151C122.26 70.1923 122.135 70.0056 122.09 69.7934C122.045 69.5811 122.082 69.3596 122.196 69.1745C122.309 68.9894 122.489 68.8548 122.698 68.7986C123.624 68.6023 125.325 68.7237 126.867 69.4564C127.041 69.5389 127.182 69.6782 127.266 69.8511C127.35 70.0242 127.373 70.2207 127.33 70.4083C127.288 70.5959 127.183 70.7635 127.032 70.8836C126.882 71.0036 126.695 71.0689 126.503 71.0687V71.0659Z" fill="#121212"/>
<path d="M119.126 51.0781C99.4779 51.0866 102.325 69.561 102.325 69.561C112.61 66.4198 118.908 60.8081 119.117 60.6203C119.328 60.8094 125.626 66.4198 135.917 69.561C135.913 69.561 138.775 51.0866 119.126 51.0781Z" fill="#E8178A"/>
<path d="M102.329 70.4073C102.126 70.4072 101.93 70.3347 101.777 70.2029C101.624 70.0711 101.522 69.8886 101.492 69.6886C101.438 69.3484 100.263 61.2999 105.151 55.5991C108.203 52.0386 112.904 50.2344 119.128 50.2344C125.349 50.2344 130.049 52.0428 133.104 55.5991C137.988 61.3013 136.808 69.3512 136.756 69.69C136.737 69.81 136.694 69.9245 136.627 70.0259C136.56 70.1273 136.472 70.2132 136.369 70.2778C136.267 70.3423 136.151 70.384 136.031 70.4C135.91 70.416 135.788 70.406 135.672 70.3706C126.869 67.6881 120.927 63.2072 119.126 61.7319C117.326 63.2072 111.382 67.6825 102.581 70.3706C102.5 70.3956 102.414 70.4081 102.329 70.4073ZM119.12 59.7723C119.329 59.7728 119.53 59.8502 119.685 59.9897C119.934 60.2128 125.684 65.3164 135.168 68.435C135.309 66.2044 135.237 60.6914 131.802 56.6905C129.089 53.5309 124.824 51.9271 119.125 51.9243C113.425 51.9214 109.159 53.5309 106.444 56.6918C103.008 60.6914 102.937 66.2044 103.071 68.435C112.556 65.3164 118.306 60.2128 118.553 59.9897C118.708 59.8496 118.911 59.7721 119.12 59.7723Z" fill="#E8178A"/>
<path d="M116.28 51.0776C116.28 51.0776 111.462 46.6432 114.393 43.2973C116.288 41.1289 119.033 42.9641 119.033 42.9641C119.033 42.9641 120.918 37.8606 124.66 39.9528C128.941 42.3443 124.481 50.1063 121.814 51.079C119.975 50.8869 118.12 50.8865 116.28 51.0776Z" fill="#E8178A"/>
<path d="M116.28 51.9256C116.067 51.9257 115.863 51.8462 115.706 51.7026C113.83 49.9746 111.008 45.879 113.754 42.7407C115.263 41.0155 117.283 41.2442 118.637 41.8033C119.141 40.8517 120.127 39.3892 121.639 38.8301C122.737 38.4249 123.897 38.5477 125.073 39.2127C126.649 40.0922 127.426 41.7016 127.264 43.7431C126.981 47.2104 124.194 51.1125 122.105 51.8748C121.978 51.9201 121.844 51.9356 121.71 51.92C119.936 51.7362 118.147 51.7362 116.373 51.92C116.342 51.9238 116.311 51.9256 116.28 51.9256ZM119.021 50.0904C120.278 50.0904 121.259 50.1723 121.687 50.216C123.074 49.5313 125.357 46.352 125.574 43.6117C125.686 42.2098 125.252 41.2555 124.247 40.6936C123.511 40.2828 122.85 40.1938 122.229 40.4211C120.959 40.8884 120.062 42.6306 119.828 43.2616C119.784 43.3824 119.713 43.4915 119.62 43.5807C119.528 43.6698 119.415 43.7367 119.294 43.7761C119.171 43.8156 119.041 43.8266 118.914 43.8085C118.786 43.7902 118.664 43.7432 118.558 43.671C118.475 43.616 116.403 42.2861 115.029 43.8588C113.034 46.1388 115.716 49.2814 116.595 50.1977C117.46 50.1158 118.289 50.0876 119.021 50.0876V50.0904Z" fill="#E8178A"/>
<path d="M197.703 60.7753C197.054 60.7755 196.418 60.5931 195.867 60.2487L186.496 54.4082C186.108 54.1662 185.771 53.8501 185.505 53.4778C185.238 53.1055 185.049 52.6845 184.946 52.2388C184.842 51.793 184.828 51.3312 184.903 50.8798C184.978 50.4285 185.142 49.9964 185.384 49.6082L191.224 40.2368C191.714 39.4534 192.494 38.8963 193.394 38.6877C194.294 38.4791 195.24 38.6362 196.024 39.1244L205.395 44.9663C205.784 45.208 206.121 45.5241 206.388 45.8963C206.654 46.2685 206.844 46.6896 206.948 47.1355C207.051 47.5814 207.065 48.0433 206.989 48.4947C206.914 48.9461 206.751 49.3782 206.508 49.7663L200.666 59.1377C200.352 59.6402 199.915 60.0542 199.397 60.3408C198.878 60.6274 198.295 60.7769 197.703 60.7753ZM196.763 58.8116C197.165 59.0623 197.651 59.1429 198.113 59.0357C198.574 58.9285 198.975 58.6422 199.226 58.2398L205.068 48.8684C205.319 48.4659 205.4 47.9803 205.292 47.5183C205.185 47.0563 204.899 46.6558 204.496 46.4049L195.127 40.563C194.725 40.3126 194.239 40.2322 193.778 40.3394C193.316 40.4466 192.916 40.7326 192.664 41.1348L186.822 50.5061C186.57 50.9077 186.489 51.3928 186.594 51.8548C186.7 52.3168 186.986 52.7178 187.387 52.9696L196.763 58.8116Z" fill="#00FABF"/>
<path d="M193.686 54.1556C193.527 54.1559 193.373 54.1114 193.239 54.0271C193.144 53.9683 193.062 53.8914 192.997 53.8009C192.932 53.7103 192.886 53.608 192.861 53.4996C192.835 53.3911 192.832 53.2788 192.851 53.169C192.868 53.0591 192.909 52.954 192.968 52.8595L197.485 45.6186C197.543 45.5221 197.62 45.4381 197.71 45.3715C197.8 45.3049 197.904 45.257 198.013 45.2307C198.122 45.2043 198.236 45.1999 198.347 45.2179C198.458 45.2359 198.564 45.2758 198.659 45.3354C198.755 45.395 198.838 45.4729 198.903 45.5647C198.968 45.6566 199.014 45.7604 199.039 45.8702C199.063 45.9801 199.065 46.0936 199.045 46.2043C199.025 46.3151 198.984 46.4207 198.922 46.515L194.404 53.7561C194.328 53.8782 194.223 53.979 194.097 54.0488C193.971 54.1188 193.83 54.1555 193.686 54.1556Z" fill="#121212"/>
<path d="M199.563 52.795C199.405 52.7949 199.25 52.7503 199.116 52.6665L191.875 48.1489C191.685 48.03 191.548 47.8402 191.497 47.6212C191.447 47.4023 191.485 47.1721 191.604 46.9813C191.722 46.7905 191.913 46.6549 192.131 46.604C192.351 46.5531 192.581 46.5914 192.771 46.7103L200.013 51.2279C200.168 51.3254 200.288 51.471 200.355 51.6428C200.421 51.8145 200.429 52.0031 200.378 52.18C200.327 52.3569 200.221 52.5125 200.074 52.6232C199.926 52.7339 199.747 52.7937 199.563 52.7936V52.795Z" fill="#121212"/>
<path d="M93.5324 174.749C93.4276 174.749 93.3243 174.73 93.2275 174.691C93.0178 174.611 92.8492 174.449 92.758 174.244C92.6677 174.039 92.662 173.805 92.7427 173.596C94.2084 169.814 96.2727 167.575 97.8731 166.306L83.5265 165.459C83.4015 165.451 83.2797 165.416 83.17 165.356C83.0595 165.295 82.9643 165.211 82.8909 165.11C82.8167 165.009 82.7667 164.892 82.7441 164.768C82.7207 164.645 82.7255 164.518 82.7578 164.397L86.8968 148.668C86.9476 148.478 87.0638 148.311 87.2243 148.196C87.3848 148.082 87.5809 148.027 87.7777 148.041C87.9745 148.056 88.16 148.139 88.3028 148.276C88.4448 148.412 88.5352 148.595 88.5569 148.791L90.2509 164.159L100.698 164.774C100.894 164.785 101.079 164.864 101.223 164.997C101.367 165.129 101.46 165.307 101.488 165.502C101.515 165.695 101.474 165.892 101.372 166.06C101.271 166.227 101.114 166.353 100.93 166.419C100.892 166.433 96.7309 168.004 94.327 174.207C94.2649 174.368 94.156 174.506 94.014 174.602C93.872 174.699 93.7043 174.75 93.5324 174.749ZM84.6591 163.831L88.5376 164.058L87.3752 153.512L84.6591 163.831Z" fill="#121212"/>
<path d="M65.7512 174.388C65.6231 174.388 65.4966 174.359 65.3813 174.304C61.4905 172.412 60.0829 168.053 61.7107 162.925L74.3841 118.996C75.6985 111.212 80.4661 106.729 88.5544 105.673L99.525 104.241C99.6856 104.22 99.8493 104.246 99.9961 104.316C100.142 104.384 100.266 104.494 100.353 104.631C100.455 104.796 110.58 120.841 119.418 127.07C128.262 120.841 138.383 104.796 138.485 104.631C138.572 104.494 138.696 104.384 138.842 104.316C138.989 104.246 139.153 104.22 139.313 104.241L150.285 105.673C158.085 106.691 162.588 110.924 164.455 118.995C164.455 119.004 164.455 119.015 164.455 119.026L167.464 134.696C167.506 134.917 167.459 135.146 167.333 135.332C167.207 135.518 167.012 135.646 166.791 135.689C166.57 135.73 166.342 135.684 166.156 135.557C165.97 135.431 165.842 135.236 165.799 135.016L162.795 119.358C161.084 111.98 157.157 108.276 150.061 107.35L139.626 105.99C137.824 108.799 128.39 123.118 119.887 128.8C119.747 128.892 119.584 128.942 119.416 128.942C119.249 128.942 119.085 128.892 118.946 128.8C110.445 123.121 101.014 108.802 99.2088 105.992L88.7746 107.354C81.392 108.318 77.2289 112.232 76.0458 119.324C76.0416 119.356 76.0345 119.388 76.0247 119.42L63.3286 163.406C63.3286 163.406 63.3286 163.42 63.3286 163.426C61.9747 167.698 63.0462 171.283 66.1281 172.781C66.3 172.865 66.4385 173.004 66.5207 173.178C66.603 173.35 66.6244 173.545 66.5813 173.732C66.5383 173.918 66.4333 174.085 66.2836 174.204C66.1339 174.323 65.9482 174.388 65.7568 174.388H65.7512Z" fill="#121212"/>
<path d="M148.41 174.387C148.379 174.387 148.346 174.387 148.316 174.387C148.204 174.375 148.097 174.341 148 174.288C147.902 174.234 147.816 174.162 147.746 174.075C147.677 173.988 147.625 173.888 147.594 173.782C147.563 173.674 147.554 173.562 147.566 173.452L150.285 148.79C150.305 148.606 150.386 148.431 150.515 148.297C150.644 148.162 150.814 148.073 150.999 148.045C151.183 148.017 151.371 148.05 151.535 148.14C151.699 148.23 151.828 148.372 151.903 148.542L157.747 161.825C157.837 162.032 157.842 162.265 157.759 162.475C157.678 162.684 157.517 162.853 157.311 162.943C157.104 163.034 156.871 163.038 156.662 162.957C156.452 162.875 156.283 162.713 156.193 162.508L151.621 152.115L149.25 173.631C149.228 173.838 149.13 174.03 148.975 174.17C148.82 174.309 148.619 174.387 148.41 174.387Z" fill="#121212"/>
<path d="M167.014 170.264C166.831 170.264 166.647 170.264 166.461 170.249C162.045 170.003 157.815 166.803 156.175 162.469C156.095 162.258 156.103 162.025 156.195 161.82C156.287 161.615 156.458 161.455 156.667 161.375C156.878 161.296 157.111 161.304 157.316 161.396C157.521 161.488 157.68 161.659 157.76 161.868C159.172 165.597 162.787 168.348 166.555 168.557C169.826 168.74 172.559 167.017 174.251 163.709C181.78 148.992 192.727 121.215 194.592 116.456L181.453 109.51L167.795 137.322C167.747 137.423 167.679 137.514 167.596 137.588C167.512 137.664 167.415 137.722 167.309 137.758C167.203 137.795 167.091 137.81 166.979 137.804C166.867 137.797 166.757 137.768 166.657 137.718C166.556 137.669 166.466 137.6 166.392 137.516C166.318 137.431 166.263 137.333 166.227 137.226C166.192 137.121 166.177 137.008 166.185 136.896C166.193 136.784 166.224 136.675 166.275 136.575L180.318 107.985C180.367 107.884 180.437 107.793 180.523 107.718C180.608 107.644 180.708 107.588 180.816 107.553C180.924 107.518 181.038 107.505 181.15 107.515C181.263 107.525 181.374 107.557 181.474 107.61L196.052 115.316C196.236 115.412 196.377 115.574 196.45 115.768C196.522 115.963 196.521 116.178 196.446 116.372C196.323 116.689 184.011 148.353 175.759 164.484C173.861 168.181 170.701 170.264 167.014 170.264Z" fill="#121212"/>
<path d="M119.418 166.528C119.194 166.528 118.979 166.439 118.82 166.281C118.661 166.122 118.571 165.906 118.571 165.681V128.097C118.571 127.873 118.661 127.657 118.82 127.498C118.979 127.34 119.194 127.25 119.418 127.25C119.643 127.25 119.859 127.34 120.018 127.498C120.177 127.657 120.265 127.873 120.265 128.097V165.681C120.265 165.906 120.177 166.122 120.018 166.281C119.859 166.439 119.643 166.528 119.418 166.528Z" fill="#121212"/>
<path d="M83.5716 165.465H83.4941L77.9728 164.964C77.7482 164.943 77.5409 164.834 77.3964 164.661C77.252 164.488 77.1823 164.264 77.2027 164.039C77.2231 163.815 77.3319 163.608 77.5052 163.463C77.6785 163.318 77.9021 163.249 78.1267 163.269L83.6482 163.771C83.8725 163.78 84.0846 163.88 84.2363 164.046C84.3879 164.211 84.467 164.431 84.4573 164.656C84.4468 164.88 84.3484 165.092 84.1822 165.244C84.0161 165.395 83.7966 165.474 83.5716 165.465Z" fill="#121212"/>
<path d="M88.131 153.536C87.9196 153.537 87.7156 153.459 87.5583 153.317C87.4018 153.175 87.3042 152.98 87.284 152.769L86.2361 141.772C86.2152 141.548 86.2837 141.325 86.4265 141.152C86.5693 140.978 86.7758 140.869 86.9992 140.847C87.2227 140.826 87.4461 140.895 87.6196 141.038C87.793 141.181 87.9019 141.387 87.9237 141.611L88.9691 152.609C88.9909 152.832 88.9223 153.055 88.7795 153.228C88.6368 153.401 88.4303 153.511 88.2068 153.531L88.131 153.536Z" fill="#121212"/>
<path d="M150.434 156.023H150.349C150.238 156.012 150.13 155.98 150.032 155.927C149.934 155.875 149.847 155.803 149.777 155.717C149.706 155.63 149.654 155.531 149.621 155.425C149.589 155.318 149.578 155.206 149.589 155.096L150.927 141.615C150.937 141.502 150.968 141.394 151.02 141.294C151.072 141.194 151.143 141.105 151.229 141.033C151.315 140.961 151.416 140.906 151.523 140.873C151.63 140.84 151.743 140.829 151.855 140.84C151.967 140.851 152.076 140.885 152.175 140.938C152.274 140.992 152.361 141.064 152.432 141.152C152.502 141.239 152.555 141.34 152.586 141.448C152.617 141.557 152.626 141.669 152.613 141.782L151.275 155.263C151.253 155.472 151.156 155.664 151 155.805C150.844 155.945 150.643 156.023 150.434 156.023Z" fill="#121212"/>
<path d="M165.559 147.684C164.653 147.684 163.917 147.279 163.487 146.543C162.639 145.089 163.079 142.521 164.674 139.672C165.018 139.06 165.567 137.948 166.138 136.761L165.658 134.262C165.634 134.152 165.631 134.037 165.651 133.926C165.672 133.814 165.714 133.708 165.777 133.613C165.839 133.519 165.92 133.437 166.014 133.374C166.108 133.311 166.214 133.268 166.325 133.247C166.436 133.225 166.551 133.227 166.662 133.25C166.773 133.273 166.877 133.319 166.97 133.384C167.063 133.449 167.142 133.532 167.203 133.628C167.262 133.724 167.303 133.832 167.321 133.943L167.365 134.166C167.92 132.975 168.332 132.076 168.342 132.049C168.388 131.947 168.454 131.856 168.535 131.781C168.617 131.705 168.713 131.646 168.817 131.608C168.922 131.569 169.032 131.551 169.143 131.555C169.255 131.559 169.364 131.585 169.464 131.632C169.566 131.678 169.657 131.744 169.732 131.825C169.808 131.907 169.867 132.002 169.906 132.107C169.944 132.211 169.962 132.322 169.958 132.433C169.954 132.544 169.928 132.653 169.882 132.755C169.817 132.896 168.88 134.946 167.916 136.97C168.257 138.382 169.539 144.29 167.716 146.641C167.465 146.973 167.138 147.24 166.763 147.422C166.388 147.603 165.976 147.693 165.559 147.684ZM166.689 139.482C166.484 139.886 166.301 140.234 166.151 140.501C164.726 143.042 164.527 144.972 164.946 145.686C165.034 145.837 165.175 145.99 165.558 145.99C165.716 145.999 165.873 145.969 166.016 145.901C166.16 145.834 166.283 145.732 166.377 145.604C167.184 144.567 167.065 141.849 166.69 139.482H166.689Z" fill="#121212"/>
<path d="M115.555 134.186H112.747C112.522 134.186 112.307 134.097 112.148 133.938C111.989 133.779 111.9 133.563 111.9 133.339C111.9 133.114 111.989 132.899 112.148 132.74C112.307 132.581 112.522 132.492 112.747 132.492H115.555C115.78 132.492 115.995 132.581 116.154 132.74C116.313 132.899 116.402 133.114 116.402 133.339C116.402 133.563 116.313 133.779 116.154 133.938C115.995 134.097 115.78 134.186 115.555 134.186Z" fill="#121212"/>
<path d="M115.555 143.796H112.747C112.522 143.796 112.307 143.706 112.148 143.547C111.989 143.389 111.9 143.173 111.9 142.949C111.9 142.724 111.989 142.508 112.148 142.349C112.307 142.191 112.522 142.102 112.747 142.102H115.555C115.78 142.102 115.995 142.191 116.154 142.349C116.313 142.508 116.402 142.724 116.402 142.949C116.402 143.173 116.313 143.389 116.154 143.547C115.995 143.706 115.78 143.796 115.555 143.796Z" fill="#121212"/>
<path d="M115.555 153.405H112.747C112.522 153.405 112.307 153.316 112.148 153.157C111.989 152.998 111.9 152.783 111.9 152.558C111.9 152.334 111.989 152.118 112.148 151.959C112.307 151.8 112.522 151.711 112.747 151.711H115.555C115.78 151.711 115.995 151.8 116.154 151.959C116.313 152.118 116.402 152.334 116.402 152.558C116.402 152.783 116.313 152.998 116.154 153.157C115.995 153.316 115.78 153.405 115.555 153.405Z" fill="#121212"/>
<path d="M115.555 163.014H112.747C112.522 163.014 112.307 162.926 112.148 162.767C111.989 162.608 111.9 162.392 111.9 162.167C111.9 161.943 111.989 161.728 112.148 161.569C112.307 161.41 112.522 161.32 112.747 161.32H115.555C115.78 161.32 115.995 161.41 116.154 161.569C116.313 161.728 116.402 161.943 116.402 162.167C116.402 162.392 116.313 162.608 116.154 162.767C115.995 162.926 115.78 163.014 115.555 163.014Z" fill="#121212"/>
<path d="M168.579 210.953H69.6635C69.4388 210.953 69.2234 210.863 69.0645 210.704C68.9056 210.545 68.8164 210.33 68.8164 210.105C68.8164 209.881 68.9056 209.665 69.0645 209.506C69.2234 209.347 69.4388 209.258 69.6635 209.258H168.579C168.804 209.258 169.02 209.347 169.178 209.506C169.337 209.665 169.426 209.881 169.426 210.105C169.426 210.33 169.337 210.545 169.178 210.704C169.02 210.863 168.804 210.953 168.579 210.953Z" fill="#121212"/>
<path d="M125.234 190.982C124.25 190.982 123.165 190.402 122.499 188.938C121.64 187.053 120.101 184.079 119.772 183.456L117.775 181.561C117.622 181.416 117.535 181.217 117.531 181.008C117.527 180.799 117.607 180.597 117.754 180.447C117.901 180.296 118.103 180.21 118.315 180.206C118.527 180.202 118.731 180.281 118.884 180.427L120.974 182.413C121.036 182.473 121.09 182.542 121.13 182.618C121.204 182.763 122.977 186.151 123.953 188.292C124.408 189.292 125.086 189.54 125.551 189.342C126.016 189.144 126.327 188.497 125.927 187.525C125.031 185.353 123.85 182.501 123.101 180.697C122.999 180.45 122.831 180.236 122.613 180.077L115.495 174.882C115.408 174.821 115.334 174.744 115.277 174.655C115.221 174.566 115.183 174.467 115.166 174.363C115.148 174.259 115.153 174.153 115.178 174.051C115.203 173.949 115.249 173.853 115.313 173.768C115.376 173.684 115.456 173.613 115.548 173.559C115.639 173.505 115.741 173.471 115.847 173.456C115.952 173.442 116.06 173.449 116.163 173.477C116.265 173.504 116.362 173.551 116.446 173.616L123.564 178.812C124.016 179.141 124.368 179.588 124.58 180.101C125.331 181.912 126.511 184.765 127.408 186.938C128.177 188.807 127.373 190.293 126.179 190.797C125.88 190.92 125.558 190.983 125.234 190.982Z" fill="#121212"/>
<path d="M110.86 190.983C109.744 190.983 108.585 190.069 108.468 188.269C108.336 186.283 108.024 183.635 108.021 183.605C108.006 183.5 108.011 183.393 108.038 183.29C108.065 183.187 108.111 183.091 108.175 183.007C108.239 182.923 108.319 182.851 108.41 182.799C108.502 182.746 108.603 182.713 108.707 182.7C108.812 182.687 108.918 182.696 109.019 182.725C109.12 182.755 109.215 182.805 109.297 182.871C109.378 182.938 109.447 183.02 109.496 183.114C109.546 183.207 109.577 183.31 109.586 183.416C109.586 183.442 109.909 186.131 110.041 188.166C110.098 189.04 110.508 189.411 110.883 189.395C111.259 189.377 111.648 188.978 111.624 188.145C111.566 186.106 111.487 183.428 111.435 181.734C111.428 181.525 111.368 181.322 111.26 181.144L108.514 176.607C108.405 176.427 108.372 176.211 108.421 176.006C108.47 175.801 108.598 175.624 108.777 175.515C108.956 175.405 109.17 175.371 109.373 175.421C109.577 175.47 109.752 175.599 109.861 175.78L112.612 180.316C112.863 180.729 113.002 181.202 113.017 181.686C113.069 183.38 113.148 186.056 113.206 188.099C113.258 189.92 112.117 190.927 110.965 190.982L110.86 190.983Z" fill="#121212"/>
<path d="M118.791 191.85C117.76 191.85 116.634 191.175 116.141 189.515C115.585 187.663 114.626 184.94 114.391 184.277L110.828 180.379C110.755 180.303 110.699 180.213 110.662 180.114C110.624 180.015 110.607 179.91 110.611 179.805C110.615 179.699 110.64 179.595 110.684 179.5C110.728 179.404 110.791 179.318 110.869 179.247C110.947 179.176 111.039 179.121 111.139 179.085C111.238 179.05 111.344 179.035 111.449 179.041C111.554 179.047 111.658 179.073 111.753 179.119C111.848 179.165 111.933 179.23 112.002 179.309L115.673 183.326C115.744 183.402 115.799 183.492 115.834 183.591C115.882 183.723 117.019 186.898 117.664 189.058C117.959 190.043 118.542 190.358 118.99 190.233C119.438 190.109 119.794 189.547 119.547 188.597C119.017 186.541 118.321 183.878 117.845 182.058C117.73 181.618 117.491 181.219 117.156 180.91L111.962 176.127C111.806 175.984 111.715 175.786 111.706 175.576C111.698 175.365 111.773 175.16 111.916 175.005C112.059 174.851 112.258 174.759 112.469 174.751C112.679 174.742 112.885 174.818 113.04 174.961L118.232 179.747C118.79 180.262 119.189 180.927 119.381 181.661C119.856 183.482 120.552 186.147 121.084 188.203C121.578 190.101 120.617 191.432 119.414 191.767C119.211 191.823 119.002 191.851 118.791 191.85Z" fill="#121212"/>
<path d="M132.306 183.406C131.624 183.406 130.855 183.156 130.123 182.553C128.617 181.331 126.287 179.846 125.942 179.626L115.68 174.945C115.586 174.901 115.501 174.84 115.43 174.764C115.359 174.686 115.304 174.597 115.267 174.498C115.231 174.401 115.215 174.297 115.218 174.192C115.222 174.088 115.247 173.985 115.29 173.89C115.333 173.795 115.395 173.709 115.471 173.638C115.547 173.567 115.637 173.511 115.734 173.475C115.832 173.438 115.935 173.422 116.039 173.426C116.143 173.429 116.246 173.454 116.34 173.498L126.65 178.199C126.681 178.214 126.712 178.23 126.741 178.249C126.851 178.317 129.428 179.939 131.123 181.316C131.915 181.956 132.648 181.925 132.942 181.569C133.236 181.214 132.993 180.572 132.316 179.978C130.712 178.585 126.519 175.47 125.272 174.542C125.063 174.388 124.838 174.254 124.602 174.145L124.579 174.132L116.841 170.154C116.494 169.976 116.123 169.847 115.74 169.774L104.76 167.667C104.554 167.627 104.371 167.507 104.253 167.333C104.135 167.158 104.091 166.943 104.13 166.737C104.17 166.529 104.289 166.346 104.463 166.227C104.637 166.108 104.85 166.065 105.057 166.104L116.03 168.212C116.561 168.315 117.075 168.494 117.557 168.743L125.282 172.72C125.607 172.874 125.916 173.06 126.206 173.275C127.463 174.203 131.697 177.357 133.345 178.788C134.928 180.165 135.503 182.553 134.151 182.598C133.92 182.86 133.636 183.068 133.318 183.207C132.999 183.347 132.654 183.414 132.306 183.406Z" fill="#121212"/>
<path d="M108.729 183.84C108.527 183.84 108.333 183.763 108.185 183.626L103.535 179.298C102.447 179.224 98.7995 178.802 95.561 176.392C95.4769 176.331 95.4065 176.252 95.3534 176.163C95.2996 176.073 95.2648 175.974 95.2496 175.872C95.2345 175.768 95.2398 175.664 95.2655 175.562C95.2913 175.462 95.3368 175.367 95.3997 175.283C95.4618 175.2 95.5406 175.129 95.63 175.077C95.7202 175.023 95.8194 174.988 95.9225 174.973C96.0263 174.958 96.1316 174.963 96.2331 174.989C96.3339 175.015 96.4294 175.06 96.5135 175.123C99.8641 177.615 103.84 177.726 103.88 177.728C104.077 177.731 104.266 177.806 104.41 177.941L109.276 182.468C109.392 182.577 109.473 182.717 109.508 182.872C109.543 183.027 109.53 183.189 109.472 183.336C109.414 183.484 109.312 183.611 109.18 183.701C109.048 183.79 108.893 183.838 108.733 183.838L108.729 183.84Z" fill="#121212"/>
<path d="M205.493 99.203C205.345 99.203 205.2 99.1577 205.078 99.0727C204.957 98.9884 204.864 98.8685 204.813 98.7293C204.763 98.5902 204.756 98.4394 204.794 98.2968C204.833 98.1535 204.915 98.026 205.028 97.9314L208.28 95.2114C208.664 94.4258 210.595 90.4596 211.291 88.6973C212 86.8979 213.371 86.418 214.414 86.743C215.457 87.0679 216.317 88.2688 215.932 89.9462C215.888 90.132 215.773 90.2938 215.611 90.3952C215.448 90.4967 215.252 90.5296 215.065 90.4864C214.878 90.4439 214.716 90.3287 214.614 90.1669C214.513 90.0052 214.48 89.8098 214.522 89.6234C214.721 88.7644 214.384 88.2414 213.986 88.1187C213.493 87.9652 212.961 88.3998 212.637 89.2251C211.845 91.2288 209.607 95.7886 209.512 95.9819C209.468 96.0737 209.406 96.1553 209.328 96.2218L205.956 99.0385C205.826 99.1461 205.662 99.2043 205.493 99.203Z" fill="#121212"/>
<path d="M196.62 99.6364C196.446 99.6364 196.277 99.5735 196.145 99.4601C196.012 99.3473 195.926 99.1908 195.902 99.0199C195.877 98.849 195.916 98.6747 196.011 98.5298C196.106 98.3849 196.25 98.2782 196.418 98.2297L202.093 96.5995L205.918 93.5632C206.181 93.1155 207.182 91.3903 208.133 89.4955C208.86 88.041 209.708 87.6274 210.29 87.5352C210.589 87.4914 210.894 87.5215 211.179 87.622C211.464 87.7218 211.718 87.8899 211.922 88.1107C212.057 88.2467 212.131 88.4299 212.129 88.6206C212.126 88.8106 212.047 88.9924 211.909 89.1257C211.771 89.2583 211.585 89.3315 211.393 89.3294C211.2 89.3274 211.016 89.2495 210.881 89.1127C210.696 88.9248 210.567 88.9453 210.518 88.9535C210.26 88.9931 209.84 89.3246 209.436 90.1319C208.311 92.38 207.116 94.3883 207.104 94.4088C207.059 94.4833 207.001 94.5489 206.933 94.6036L202.891 97.8121C202.816 97.8715 202.731 97.9153 202.639 97.9413L196.824 99.6159C196.757 99.633 196.689 99.6398 196.62 99.6364Z" fill="#121212"/>
<path d="M194.886 114.791C194.752 114.791 194.62 114.754 194.505 114.683C194.391 114.612 194.299 114.511 194.239 114.391C194.179 114.27 194.154 114.136 194.166 114.002C194.178 113.868 194.228 113.74 194.308 113.633C194.74 113.06 195.321 112.619 195.989 112.356L196.013 112.348L207.713 108.226C208.239 108.005 208.718 107.685 209.123 107.284L213.849 102.617C214.21 102.08 214.639 101.316 215.097 100.51C215.661 99.5159 216.302 98.3871 216.935 97.4415C217.104 97.1896 217.268 96.8213 217.092 96.4937C217.025 96.3753 216.928 96.2776 216.811 96.2088C216.694 96.1399 216.561 96.1028 216.426 96.1021C216.158 96.1021 215.935 96.2624 215.781 96.5598C214.924 98.2103 213.853 99.9605 213.813 100.033C213.774 100.096 213.727 100.153 213.672 100.201L210.297 103.158C210.151 103.269 209.969 103.322 209.786 103.304C209.603 103.286 209.434 103.2 209.313 103.061C209.191 102.924 209.127 102.745 209.133 102.561C209.139 102.377 209.215 102.203 209.345 102.073L212.637 99.1917C212.87 98.8049 213.776 97.2907 214.5 95.897C214.904 95.1165 215.605 94.6664 216.419 94.6602H216.434C216.831 94.6615 217.22 94.7689 217.561 94.9719C217.903 95.1743 218.183 95.4641 218.375 95.8116C218.773 96.5529 218.689 97.4415 218.145 98.2509C217.542 99.1518 216.914 100.254 216.362 101.228C215.88 102.089 215.412 102.902 215.018 103.487C214.991 103.526 214.96 103.563 214.927 103.597L210.147 108.313C209.604 108.849 208.963 109.276 208.258 109.568L208.219 109.583L196.512 113.707C196.098 113.872 195.737 114.147 195.47 114.503C195.401 114.593 195.313 114.666 195.212 114.716C195.111 114.766 194.999 114.792 194.886 114.791Z" fill="#121212"/>
<path d="M207.648 101.369C207.505 101.369 207.366 101.326 207.247 101.245C207.129 101.164 207.038 101.049 206.985 100.915C206.931 100.781 206.92 100.634 206.95 100.493C206.98 100.352 207.053 100.224 207.156 100.124L210.729 96.6933C211.042 95.9824 212.534 92.5756 213.231 90.9008C213.956 89.1455 215.368 88.7769 216.373 89.1792C217.417 89.5965 218.148 90.8925 217.529 92.5612C217.159 93.5685 216.735 94.5551 216.259 95.5156C216.084 95.8765 215.934 96.1859 215.79 96.529C215.753 96.6163 215.7 96.6954 215.633 96.7614C215.566 96.8281 215.486 96.8804 215.399 96.9161C215.313 96.9519 215.22 96.9697 215.126 96.9691C215.032 96.9677 214.939 96.9484 214.853 96.9113C214.766 96.8742 214.687 96.8205 214.622 96.7525C214.556 96.6851 214.504 96.6053 214.469 96.5173C214.433 96.4293 214.416 96.3351 214.417 96.2403C214.418 96.1454 214.437 96.0519 214.474 95.9645C214.633 95.585 214.8 95.2426 214.975 94.8817C215.432 93.9631 215.838 93.0198 216.19 92.0559C216.501 91.2212 216.23 90.6759 215.847 90.5233C215.465 90.37 214.906 90.5962 214.55 91.4584C213.773 93.3402 212.001 97.372 211.982 97.4118C211.945 97.4991 211.89 97.5775 211.822 97.6428L208.141 101.172C208.008 101.299 207.831 101.37 207.648 101.369Z" fill="#121212"/>
<path d="M193.752 108.296C193.648 108.296 193.546 108.273 193.452 108.23C193.366 108.19 193.289 108.132 193.225 108.062C193.161 107.992 193.111 107.909 193.079 107.819C193.046 107.729 193.032 107.634 193.036 107.538C193.041 107.442 193.063 107.348 193.104 107.261C195.202 102.664 193.002 98.7475 192.907 98.5829C192.828 98.446 192.795 98.287 192.813 98.1301C192.832 97.9725 192.9 97.8259 193.008 97.7118C193.033 97.6849 195.6 94.97 197.836 92.4328C198.968 91.1462 198.909 89.8326 198.551 89.4586C198.504 89.4088 198.432 89.3376 198.194 89.5347C195.5 91.7878 192.1 94.3492 190.764 95.3426C190.414 95.6039 190.128 95.9441 189.929 96.3375L184.693 106.777C184.607 106.948 184.457 107.078 184.277 107.138C184.096 107.198 183.9 107.182 183.731 107.095C183.562 107.008 183.434 106.856 183.375 106.672C183.316 106.489 183.331 106.29 183.418 106.119L188.661 95.6786C188.96 95.0848 189.391 94.569 189.92 94.1736C191.248 93.1843 194.622 90.6422 197.288 88.4133C198.045 87.7807 198.97 87.796 199.589 88.452C200.525 89.442 200.526 91.5617 198.908 93.3979C197.147 95.3979 195.183 97.5044 194.398 98.3417C195.016 99.6732 196.397 103.514 194.406 107.872C194.349 107.999 194.256 108.107 194.141 108.182C194.025 108.257 193.889 108.297 193.752 108.296Z" fill="#121212"/>
<path d="M209.887 105.482C209.752 105.483 209.62 105.446 209.506 105.376C209.391 105.306 209.298 105.206 209.237 105.087C207.006 100.709 204.108 99.2818 204.079 99.2674C203.91 99.1816 203.783 99.0332 203.724 98.8554C203.664 98.6768 203.677 98.4825 203.759 98.3135C203.841 98.1446 203.987 98.0141 204.164 97.9496C204.342 97.8857 204.538 97.8926 204.711 97.9695C204.848 98.0347 208.083 99.6272 210.534 104.436C210.578 104.52 210.604 104.612 210.611 104.707C210.618 104.802 210.607 104.896 210.577 104.986C210.547 105.076 210.5 105.16 210.437 105.232C210.375 105.304 210.299 105.363 210.214 105.405C210.112 105.457 210 105.483 209.887 105.482Z" fill="#121212"/>
<path d="M103.907 67.4852C103.707 67.4846 103.514 67.4137 103.363 67.285C103.21 67.1563 103.109 66.978 103.075 66.7815C103.041 66.5851 103.077 66.383 103.178 66.2109C103.279 66.0388 103.437 65.9076 103.624 65.8405C103.709 65.8095 112.168 62.7431 116.87 58.2028C117.031 58.0468 117.248 57.9612 117.473 57.965C117.697 57.9688 117.912 58.0618 118.068 58.2233C118.224 58.3849 118.31 58.6018 118.306 58.8265C118.301 59.0511 118.209 59.2651 118.047 59.4212C113.081 64.2212 104.556 67.306 104.196 67.4344C104.103 67.4681 104.006 67.4853 103.907 67.4852Z" fill="#121212"/>
<path d="M107.825 61.8153C107.639 61.8149 107.458 61.7532 107.31 61.6398C107.163 61.5263 107.056 61.3674 107.009 61.1875C106.96 61.0077 106.972 60.817 107.043 60.6449C107.114 60.4728 107.24 60.3289 107.401 60.2355C107.452 60.2058 112.571 57.234 115.025 55.2942C115.112 55.2227 115.212 55.1693 115.321 55.137C115.429 55.1048 115.542 55.0944 115.654 55.1065C115.766 55.1186 115.874 55.1528 115.973 55.2074C116.072 55.2619 116.158 55.3355 116.228 55.424C116.297 55.5125 116.349 55.614 116.379 55.7226C116.41 55.8312 116.418 55.9447 116.403 56.0565C116.389 56.1683 116.352 56.276 116.296 56.3735C116.239 56.4709 116.163 56.5562 116.074 56.6242C113.524 58.6359 108.463 61.5753 108.248 61.698C108.12 61.7742 107.974 61.8146 107.825 61.8153Z" fill="#121212"/>
<path d="M138.128 209.386H100.715C100.491 209.386 100.276 209.297 100.117 209.138C99.9577 208.979 99.8682 208.764 99.8682 208.539C99.8682 207.483 100.288 206.47 101.034 205.722C101.78 204.974 102.792 204.553 103.848 204.551H134.99C136.047 204.552 137.06 204.972 137.806 205.719C138.553 206.466 138.974 207.478 138.975 208.535C138.975 208.646 138.954 208.757 138.912 208.86C138.869 208.963 138.807 209.058 138.728 209.137C138.649 209.216 138.556 209.279 138.453 209.321C138.349 209.364 138.239 209.386 138.128 209.386ZM101.72 207.692H137.118C136.948 207.266 136.655 206.901 136.276 206.642C135.897 206.384 135.449 206.246 134.99 206.245H103.848C103.389 206.246 102.942 206.384 102.562 206.642C102.183 206.901 101.89 207.266 101.72 207.692Z" fill="#121212"/>
<path d="M119.418 205.746C119.194 205.746 118.979 205.658 118.82 205.499C118.661 205.34 118.571 205.124 118.571 204.899V194.61C118.571 194.384 118.661 194.169 118.82 194.01C118.979 193.851 119.194 193.762 119.418 193.762C119.643 193.762 119.859 193.851 120.018 194.01C120.177 194.169 120.265 194.384 120.265 194.61V204.899C120.265 205.124 120.177 205.34 120.018 205.499C119.859 205.658 119.643 205.746 119.418 205.746Z" fill="#121212"/>
<path d="M186.319 125.35C186.173 125.349 186.031 125.312 185.905 125.242C185.779 125.171 185.672 125.069 185.597 124.946C185.521 124.823 185.478 124.682 185.472 124.538C185.467 124.393 185.497 124.249 185.563 124.12L190.589 114.192C190.691 113.991 190.867 113.839 191.081 113.769C191.294 113.699 191.527 113.716 191.727 113.818C191.928 113.919 192.08 114.096 192.15 114.309C192.22 114.523 192.202 114.756 192.101 114.956L187.074 124.886C187.003 125.025 186.894 125.142 186.761 125.224C186.628 125.307 186.475 125.349 186.319 125.35Z" fill="#121212"/>
<path d="M184.45 121.206C184.307 121.206 184.166 121.169 184.041 121.1C183.916 121.031 183.811 120.931 183.734 120.81C183.657 120.689 183.613 120.551 183.605 120.408C183.597 120.264 183.625 120.122 183.686 119.993L187.237 112.564C187.285 112.464 187.353 112.374 187.435 112.299C187.518 112.225 187.614 112.168 187.719 112.131C187.824 112.094 187.935 112.077 188.046 112.083C188.158 112.089 188.267 112.117 188.367 112.165C188.467 112.212 188.557 112.28 188.631 112.362C188.705 112.445 188.763 112.542 188.801 112.647C188.838 112.752 188.854 112.862 188.847 112.974C188.842 113.085 188.814 113.194 188.766 113.294L185.216 120.723C185.146 120.868 185.038 120.99 184.903 121.075C184.767 121.161 184.611 121.206 184.45 121.206Z" fill="#121212"/>
<path fill-rule="evenodd" clip-rule="evenodd" d="M52.907 68.0295C55.2419 67.7328 56.8942 65.5993 56.5974 63.2644L55.824 57.1792C55.6815 56.0579 55.0993 55.0392 54.2057 54.3471L38.9873 42.561C37.527 41.4301 35.408 41.3176 33.9113 42.5939C31.1117 44.9813 28.8297 47.9279 27.2185 51.2357C26.3572 53.0041 26.9962 55.0277 28.4565 56.1586L43.6749 67.9447C44.5685 68.6368 45.7005 68.9455 46.8218 68.803L52.907 68.0295ZM50.3812 60.8324C49.5056 60.9437 48.886 61.7438 48.9973 62.6194C49.1086 63.495 49.9086 64.1146 50.7842 64.0033C51.6598 63.892 52.2794 63.092 52.1681 62.2164C52.0568 61.3408 51.2568 60.7212 50.3812 60.8324Z" fill="#00FABF"/>
<path fill-rule="evenodd" clip-rule="evenodd" d="M205.185 182.37C203.45 182.345 202.022 183.731 201.997 185.466L201.931 189.989C201.919 190.822 202.238 191.626 202.819 192.224L212.706 202.405C213.655 203.382 215.191 203.684 216.415 202.907C218.707 201.454 220.678 199.54 222.197 197.292C223.009 196.091 222.752 194.547 221.803 193.57L211.916 183.389C211.335 182.791 210.541 182.448 209.707 182.436L205.185 182.37ZM206.283 187.886C206.934 187.895 207.469 187.376 207.478 186.725C207.488 186.074 206.968 185.539 206.317 185.529C205.667 185.52 205.131 186.04 205.122 186.69C205.112 187.341 205.632 187.876 206.283 187.886Z" fill="#00FABF"/>
<path d="M41.0961 212.939C40.9433 212.963 40.7868 212.934 40.6523 212.858C32.7753 208.409 27.3198 201.564 24.135 196.603C20.688 191.236 19.1205 186.979 19.0563 186.797C19.0015 186.646 19.001 186.481 19.0551 186.33C19.1093 186.179 19.2146 186.052 19.3528 185.97C25.2183 182.511 37.939 174.011 38.0661 173.925C38.1528 173.867 38.2518 173.829 38.3552 173.815C38.4587 173.801 38.5642 173.81 38.6634 173.843C38.7627 173.875 38.8532 173.93 38.9282 174.003C39.0031 174.076 39.0604 174.165 39.0958 174.263C44.2148 188.476 55.9483 199.47 56.0664 199.582C56.1447 199.655 56.2048 199.744 56.2423 199.844C56.2798 199.944 56.2935 200.051 56.2823 200.157C56.2712 200.264 56.2355 200.366 56.1781 200.456C56.1207 200.546 56.0431 200.621 55.9516 200.676C52.5555 202.708 41.5646 212.669 41.4543 212.774C41.3538 212.863 41.2292 212.921 41.0961 212.939ZM20.5542 186.856C21.867 190.003 23.4602 193.027 25.3141 195.89C28.3541 200.619 33.5073 207.107 40.9019 211.414C42.7562 209.736 50.8204 202.51 54.4996 199.977C52.3513 197.829 50.3313 195.557 48.4498 193.172C45.225 189.107 40.8684 182.808 38.1065 175.551C35.3986 177.354 25.7795 183.734 20.5542 186.856Z" fill="#00FABF"/>
<path d="M30.5424 189.317C30.3875 189.341 30.229 189.311 30.0933 189.233C29.9575 189.154 29.8527 189.032 29.7961 188.886C29.7394 188.739 29.7345 188.578 29.7821 188.428C29.8297 188.279 29.9269 188.151 30.0576 188.064L37.6313 183.056C37.7066 183.006 37.7911 182.972 37.8798 182.955C37.9684 182.937 38.0595 182.938 38.148 182.956C38.2365 182.974 38.3205 183.01 38.3953 183.06C38.4701 183.111 38.5342 183.176 38.5839 183.251C38.6336 183.327 38.668 183.411 38.6851 183.5C38.7022 183.588 38.7017 183.68 38.6836 183.768C38.6654 183.856 38.6299 183.94 38.5794 184.015C38.5288 184.09 38.464 184.154 38.3885 184.203L30.8147 189.211C30.7327 189.265 30.6398 189.302 30.5424 189.317Z" fill="#00FABF"/>
<path d="M34.4457 195.758C34.2908 195.782 34.1323 195.752 33.9966 195.674C33.8608 195.595 33.756 195.473 33.6994 195.327C33.6428 195.18 33.6379 195.019 33.6854 194.87C33.733 194.72 33.8302 194.592 33.9609 194.505L41.5346 189.497C41.61 189.447 41.6944 189.413 41.7831 189.396C41.8717 189.379 41.9629 189.379 42.0514 189.398C42.1398 189.416 42.2238 189.451 42.2986 189.502C42.3735 189.553 42.4375 189.617 42.4872 189.693C42.537 189.768 42.5714 189.853 42.5884 189.941C42.6055 190.03 42.605 190.121 42.5869 190.21C42.5687 190.298 42.5333 190.382 42.4827 190.456C42.4321 190.531 42.3673 190.596 42.2919 190.645L34.718 195.652C34.636 195.707 34.5432 195.743 34.4457 195.758Z" fill="#00FABF"/>
<path d="M39.3256 201.809C39.1707 201.833 39.0122 201.803 38.8765 201.725C38.7407 201.646 38.6359 201.524 38.5793 201.378C38.5226 201.231 38.5177 201.07 38.5653 200.921C38.6129 200.771 38.7101 200.643 38.8408 200.556L46.4145 195.548C46.4898 195.498 46.5743 195.464 46.663 195.447C46.7516 195.429 46.8427 195.43 46.9312 195.449C47.0197 195.466 47.1037 195.502 47.1785 195.553C47.2533 195.603 47.3174 195.668 47.3671 195.743C47.4168 195.819 47.4512 195.903 47.4683 195.992C47.4854 196.08 47.4849 196.172 47.4668 196.26C47.4486 196.348 47.4131 196.432 47.3626 196.507C47.312 196.582 47.2472 196.646 47.1717 196.696L39.5979 201.703C39.5159 201.757 39.423 201.794 39.3256 201.809Z" fill="#00FABF"/>
<path d="M28.4135 191.65C28.2929 191.874 28.1083 192.057 27.8833 192.176C27.6585 192.296 27.4033 192.346 27.15 192.32C26.8968 192.294 26.6567 192.194 26.4604 192.032C26.2641 191.87 26.1203 191.653 26.0471 191.409C25.9739 191.165 25.9746 190.905 26.0492 190.662C26.1238 190.418 26.2689 190.203 26.4664 190.042C26.6636 189.881 26.9043 189.782 27.1576 189.758C27.4109 189.734 27.6659 189.785 27.8902 189.906C28.1907 190.068 28.4144 190.342 28.5123 190.67C28.6103 190.996 28.575 191.349 28.4135 191.65ZM26.8574 190.812C26.8125 190.895 26.7931 190.99 26.8026 191.085C26.8115 191.179 26.8481 191.269 26.9082 191.343C26.9682 191.416 27.0486 191.47 27.1392 191.498C27.2299 191.526 27.327 191.526 27.4179 191.499C27.5088 191.472 27.5895 191.418 27.65 191.345C27.7102 191.271 27.7477 191.182 27.7574 191.088C27.7669 190.993 27.7481 190.898 27.7039 190.815C27.6595 190.73 27.5909 190.662 27.5075 190.617C27.3951 190.557 27.2638 190.543 27.1424 190.58C27.0205 190.616 26.9182 190.7 26.8574 190.812Z" fill="#121212"/>
<path d="M32.3178 198.091C32.1972 198.315 32.0126 198.498 31.7876 198.618C31.5628 198.737 31.3076 198.787 31.0543 198.761C30.801 198.735 30.561 198.636 30.3647 198.474C30.1683 198.311 30.0246 198.095 29.9514 197.851C29.8782 197.607 29.8789 197.347 29.9535 197.103C30.0281 196.86 30.1732 196.644 30.3707 196.483C30.5679 196.322 30.8086 196.224 31.0619 196.199C31.3152 196.175 31.5701 196.226 31.7945 196.347C32.095 196.509 32.3187 196.784 32.4166 197.111C32.5146 197.438 32.4793 197.79 32.3178 198.091ZM30.7617 197.253C30.7168 197.337 30.6974 197.432 30.7069 197.526C30.7158 197.621 30.7524 197.71 30.8125 197.784C30.8725 197.857 30.9529 197.911 31.0435 197.939C31.1342 197.967 31.2313 197.968 31.3222 197.94C31.4131 197.913 31.4938 197.859 31.5543 197.786C31.6145 197.713 31.652 197.623 31.6617 197.529C31.6712 197.435 31.6524 197.34 31.6082 197.256C31.5638 197.172 31.4952 197.103 31.4118 197.058C31.2994 196.998 31.1681 196.985 31.0467 197.021C30.9248 197.058 30.8225 197.141 30.7617 197.253Z" fill="#121212"/>
<path d="M37.1977 204.142C37.0771 204.366 36.8925 204.549 36.6675 204.669C36.4427 204.788 36.1875 204.838 35.9342 204.812C35.6809 204.786 35.4409 204.686 35.2446 204.524C35.0482 204.362 34.9045 204.145 34.8313 203.901C34.7581 203.657 34.7587 203.397 34.8334 203.154C34.908 202.91 35.0531 202.695 35.2506 202.534C35.4478 202.373 35.6885 202.274 35.9418 202.25C36.195 202.226 36.45 202.277 36.6744 202.398C36.9749 202.56 37.1986 202.835 37.2965 203.162C37.3945 203.488 37.3592 203.841 37.1977 204.142ZM35.6416 203.304C35.5967 203.387 35.5773 203.483 35.5868 203.577C35.5957 203.671 35.6323 203.761 35.6924 203.835C35.7523 203.908 35.8328 203.962 35.9234 203.99C36.0141 204.018 36.1112 204.018 36.2021 203.991C36.293 203.964 36.3737 203.91 36.4342 203.837C36.4944 203.764 36.5319 203.674 36.5416 203.58C36.5511 203.485 36.5323 203.39 36.4881 203.307C36.4437 203.223 36.3751 203.154 36.2917 203.109C36.1793 203.049 36.048 203.036 35.9266 203.072C35.8046 203.109 35.7023 203.192 35.6416 203.304Z" fill="#121212"/>
<path d="M44.3408 139.184C43.5769 139.184 42.8299 138.958 42.1942 138.533C41.5594 138.109 41.0641 137.506 40.7713 136.799C40.4793 136.093 40.4026 135.316 40.5519 134.567C40.7011 133.817 41.0689 133.129 41.6094 132.589C42.1491 132.048 42.838 131.681 43.5873 131.531C44.3367 131.382 45.1136 131.459 45.8194 131.751C46.5252 132.044 47.1294 132.539 47.5537 133.175C47.9781 133.809 48.2047 134.556 48.2047 135.32C48.2039 136.345 47.7966 137.327 47.0722 138.052C46.3478 138.776 45.3653 139.183 44.3408 139.184ZM44.3408 132.991C43.8802 132.991 43.4301 133.128 43.0469 133.383C42.6637 133.639 42.3645 134.003 42.1886 134.429C42.0119 134.855 41.966 135.323 42.0563 135.775C42.1458 136.227 42.3677 136.642 42.6936 136.968C43.0195 137.294 43.4349 137.516 43.8866 137.606C44.3384 137.696 44.807 137.65 45.233 137.473C45.6581 137.297 46.0227 136.998 46.2784 136.615C46.5341 136.232 46.6712 135.782 46.6712 135.32C46.6704 134.703 46.4244 134.111 45.988 133.674C45.5508 133.237 44.9587 132.991 44.3408 132.991Z" fill="#121212"/>
</svg>
