<svg width="244" height="243" viewBox="0 0 244 243" fill="none" xmlns="http://www.w3.org/2000/svg">
<path d="M132.098 133.323C129.251 133.323 126.275 132.684 123.863 131.405C123.683 131.309 123.548 131.145 123.489 130.951C123.43 130.756 123.45 130.545 123.547 130.365C123.644 130.186 123.808 130.052 124.004 129.993C124.2 129.934 124.411 129.955 124.591 130.051C129.11 132.46 136.047 132.351 139.146 129.824C142.143 127.378 142.532 123.205 140.375 116.689C137.777 108.844 132.033 103.222 131.98 103.166C131.904 103.097 131.842 103.013 131.798 102.919C131.755 102.827 131.732 102.725 131.729 102.623C131.725 102.519 131.743 102.418 131.78 102.322C131.818 102.226 131.874 102.139 131.946 102.064C132.018 101.991 132.104 101.932 132.199 101.893C132.294 101.853 132.397 101.832 132.5 101.832C132.603 101.833 132.705 101.854 132.8 101.893C132.895 101.934 132.981 101.993 133.052 102.067C133.299 102.305 139.117 107.995 141.838 116.209C142.993 119.689 143.444 122.538 143.223 124.92C142.988 127.477 141.939 129.522 140.121 131.011C138.24 132.543 135.25 133.323 132.098 133.323Z" fill="#121212"/>
<path d="M131.071 100.738L123.128 102.616L111.768 119.128C111.768 119.128 107.959 118.221 106.701 119.084C106.701 119.084 99.3297 108.322 108.348 99.8079C118.944 89.8109 131.071 100.738 131.071 100.738Z" fill="#121212"/>
<path d="M111.769 119.896C111.708 119.896 111.648 119.889 111.589 119.874C110.186 119.542 107.802 119.261 107.138 119.717C107.053 119.774 106.959 119.815 106.86 119.836C106.761 119.856 106.659 119.857 106.559 119.839C106.459 119.82 106.364 119.782 106.279 119.727C106.195 119.672 106.121 119.6 106.064 119.516C104.756 117.458 103.847 115.174 103.386 112.782C102.698 109.169 102.909 103.888 107.819 99.2526C113.57 93.8245 119.754 94.3779 123.93 95.8017C126.731 96.7761 129.327 98.258 131.588 100.172C131.692 100.267 131.769 100.387 131.809 100.521C131.849 100.655 131.852 100.797 131.817 100.932C131.783 101.068 131.711 101.191 131.611 101.289C131.511 101.387 131.386 101.456 131.249 101.488L123.595 103.296L112.399 119.562C112.329 119.664 112.235 119.748 112.125 119.806C112.015 119.865 111.893 119.895 111.769 119.896ZM108.561 117.945C109.525 117.962 110.485 118.071 111.429 118.269L122.493 102.19C122.6 102.032 122.763 101.92 122.95 101.876L129.346 100.364C128.099 99.4623 125.973 98.1136 123.389 97.2416C117.918 95.3887 113.041 96.4381 108.879 100.366C105.34 103.705 104.002 107.786 104.9 112.496C105.292 114.472 106.005 116.372 107.011 118.12C107.517 117.994 108.037 117.936 108.557 117.945H108.561Z" fill="#121212"/>
<path d="M114.324 146.973H114.274C114.172 146.966 114.074 146.94 113.982 146.895C113.891 146.851 113.81 146.789 113.742 146.712C113.676 146.636 113.625 146.548 113.592 146.452C113.56 146.356 113.547 146.254 113.554 146.153L114.709 128.53C112.809 129.101 110.524 128.733 108.451 127.468C106.056 126.007 104.66 123.771 104.806 121.633C104.918 120.004 105.799 119.196 106.52 118.806C108.243 117.873 110.722 118.398 112.413 119.334C112.504 119.382 112.585 119.446 112.65 119.525C112.715 119.604 112.764 119.695 112.794 119.794C112.823 119.891 112.833 119.995 112.821 120.096C112.811 120.198 112.779 120.296 112.73 120.386C112.68 120.475 112.612 120.554 112.531 120.617C112.45 120.68 112.358 120.726 112.259 120.754C112.16 120.78 112.057 120.788 111.955 120.774C111.853 120.76 111.755 120.726 111.666 120.675C110.101 119.809 108.287 119.595 107.255 120.154C106.693 120.459 106.396 120.976 106.343 121.737C106.238 123.279 107.381 125.015 109.256 126.16C110.87 127.146 113.27 127.798 115.159 126.671C115.28 126.6 115.418 126.562 115.558 126.563C115.699 126.563 115.836 126.602 115.956 126.675C116.076 126.748 116.174 126.852 116.239 126.976C116.304 127.101 116.333 127.24 116.324 127.38L115.094 146.256C115.081 146.45 114.995 146.632 114.851 146.766C114.709 146.899 114.52 146.973 114.324 146.973Z" fill="#121212"/>
<path d="M130.948 154.041C130.93 154.042 130.911 154.042 130.893 154.041C130.791 154.034 130.693 154.006 130.603 153.961C130.512 153.916 130.432 153.854 130.365 153.777C130.3 153.701 130.249 153.613 130.217 153.517C130.185 153.421 130.172 153.321 130.18 153.22L131.631 133.51C131.639 133.409 131.666 133.31 131.711 133.22C131.758 133.13 131.82 133.05 131.897 132.984C131.974 132.917 132.063 132.867 132.159 132.835C132.255 132.804 132.357 132.792 132.458 132.799C132.559 132.806 132.657 132.834 132.748 132.879C132.839 132.924 132.92 132.987 132.986 133.064C133.052 133.139 133.103 133.228 133.135 133.324C133.166 133.42 133.179 133.521 133.172 133.622L131.72 153.333C131.705 153.525 131.617 153.706 131.474 153.838C131.332 153.969 131.144 154.042 130.948 154.041Z" fill="#121212"/>
<path d="M113.072 124.67C113.023 124.67 112.973 124.665 112.925 124.656L109.486 123.989C109.285 123.95 109.108 123.833 108.994 123.665C108.88 123.496 108.838 123.289 108.876 123.089C108.915 122.89 109.033 122.714 109.202 122.6C109.371 122.486 109.579 122.444 109.78 122.483L113.219 123.15C113.407 123.186 113.574 123.291 113.689 123.444C113.804 123.597 113.856 123.786 113.838 123.976C113.82 124.166 113.732 124.342 113.59 124.47C113.448 124.599 113.263 124.67 113.072 124.67Z" fill="#121212"/>
<path d="M134.519 105.817C134.363 105.817 134.211 105.769 134.083 105.681C133.734 105.441 132.471 105.051 130.796 105.381C130.595 105.421 130.387 105.38 130.217 105.267C130.047 105.154 129.929 104.978 129.889 104.779C129.849 104.579 129.89 104.371 130.004 104.202C130.117 104.033 130.294 103.916 130.495 103.876C132.456 103.492 134.18 103.887 134.953 104.419C135.088 104.512 135.19 104.646 135.244 104.8C135.297 104.955 135.3 105.122 135.251 105.278C135.202 105.435 135.104 105.571 134.971 105.668C134.839 105.765 134.679 105.817 134.515 105.817H134.519Z" fill="#121212"/>
<path d="M121.5 115.747H121.46C121.359 115.742 121.26 115.717 121.169 115.674C121.077 115.631 120.996 115.57 120.928 115.496C120.86 115.421 120.808 115.333 120.774 115.238C120.74 115.143 120.725 115.043 120.731 114.942C120.817 113.28 121.465 111.653 122.033 110.837C122.151 110.675 122.328 110.564 122.526 110.531C122.725 110.497 122.929 110.542 123.094 110.656C123.26 110.77 123.374 110.944 123.413 111.14C123.451 111.337 123.41 111.541 123.299 111.708C122.94 112.22 122.343 113.581 122.273 115.021C122.262 115.218 122.177 115.403 122.032 115.538C121.888 115.673 121.698 115.748 121.5 115.747Z" fill="#121212"/>
<path d="M126.292 125.275C126.091 125.275 125.896 125.196 125.752 125.055C125.608 124.914 125.526 124.721 125.523 124.52C125.517 124.151 125.586 123.784 125.725 123.442C125.802 123.252 125.951 123.101 126.14 123.021C126.329 122.942 126.542 122.941 126.731 123.017C126.922 123.094 127.073 123.242 127.153 123.43C127.233 123.618 127.234 123.83 127.157 124.019C127.096 124.17 127.065 124.332 127.067 124.496C127.07 124.597 127.051 124.697 127.014 124.79C126.977 124.884 126.922 124.969 126.851 125.042C126.781 125.114 126.697 125.172 126.604 125.212C126.512 125.253 126.411 125.274 126.311 125.275H126.292Z" fill="#121212"/>
<path d="M132.631 118.282H132.57C132.366 118.277 132.172 118.194 132.03 118.048C131.887 117.902 131.81 117.705 131.814 117.501C131.817 117.298 131.901 117.105 132.048 116.963C132.194 116.821 132.392 116.744 132.596 116.747C133.623 116.765 133.728 116.019 133.738 115.87C133.752 115.666 133.847 115.477 134.001 115.342C134.155 115.208 134.356 115.14 134.56 115.154C134.764 115.168 134.955 115.262 135.089 115.415C135.225 115.569 135.292 115.77 135.278 115.973C135.212 116.906 134.454 118.282 132.631 118.282Z" fill="#121212"/>
<path d="M134.966 126.571C133.128 126.571 131.477 125.772 130.603 125.117C130.499 125.038 130.416 124.935 130.364 124.817C130.311 124.698 130.288 124.568 130.3 124.439C130.311 124.31 130.355 124.186 130.428 124.078C130.5 123.97 130.599 123.882 130.714 123.823C133.571 122.363 136.256 120.593 138.724 118.547C138.82 118.462 138.936 118.404 139.061 118.375C139.185 118.346 139.316 118.35 139.439 118.383C139.563 118.417 139.675 118.482 139.768 118.571C139.86 118.659 139.929 118.769 139.968 118.891C140.025 119.072 141.334 123.332 138.409 125.451C137.413 126.185 136.205 126.578 134.966 126.571ZM132.656 124.526C133.824 125.045 135.722 125.501 137.5 124.213C138.761 123.3 138.842 121.657 138.72 120.532C136.807 122.019 134.781 123.355 132.66 124.529L132.656 124.526Z" fill="#121212"/>
<path d="M135.067 111.46C135.024 111.46 134.981 111.457 134.939 111.449C134.826 111.433 134.717 111.394 134.619 111.335C134.521 111.276 134.436 111.198 134.368 111.106L133.255 109.601C133.117 109.415 133.06 109.182 133.095 108.954C133.131 108.725 133.255 108.52 133.443 108.383C133.63 108.247 133.864 108.19 134.094 108.225C134.323 108.261 134.529 108.385 134.666 108.571L135.774 110.073C135.911 110.259 135.968 110.491 135.933 110.718C135.899 110.945 135.775 111.15 135.59 111.287C135.439 111.4 135.256 111.461 135.067 111.46Z" fill="#121212"/>
<path d="M126.481 118.055C126.344 118.055 126.209 118.023 126.087 117.962C125.965 117.9 125.859 117.811 125.778 117.7L124.669 116.199C124.567 116.06 124.508 115.895 124.5 115.724C124.493 115.552 124.535 115.382 124.625 115.235C124.714 115.088 124.845 114.971 125.001 114.898C125.157 114.825 125.332 114.8 125.502 114.826C125.615 114.843 125.725 114.882 125.823 114.942C125.921 115.001 126.006 115.079 126.073 115.172L127.182 116.672C127.277 116.801 127.336 116.954 127.349 117.114C127.362 117.274 127.331 117.434 127.259 117.578C127.186 117.721 127.075 117.842 126.938 117.926C126.8 118.01 126.642 118.055 126.481 118.055Z" fill="#121212"/>
<path d="M97.1958 108.164C99.5124 108.164 101.391 106.293 101.391 103.986C101.391 101.678 99.5124 99.8086 97.1958 99.8086C94.8784 99.8086 93 101.678 93 103.986C93 106.293 94.8784 108.164 97.1958 108.164Z" fill="#121212"/>
<path d="M97.1964 108.931C96.2139 108.931 95.2532 108.641 94.4367 108.098C93.6202 107.554 92.9836 106.782 92.6077 105.877C92.2319 104.974 92.1331 103.979 92.325 103.02C92.517 102.06 92.9901 101.179 93.685 100.487C94.3792 99.7959 95.2645 99.3248 96.2276 99.1337C97.1915 98.9433 98.1903 99.0417 99.0975 99.416C100.005 99.7903 100.781 100.424 101.327 101.238C101.872 102.051 102.163 103.008 102.162 103.987C102.161 105.297 101.638 106.555 100.706 107.482C99.7754 108.409 98.5126 108.93 97.1964 108.931ZM97.1964 100.574C96.5184 100.574 95.8558 100.774 95.2921 101.15C94.7291 101.524 94.2901 102.057 94.0301 102.681C93.7709 103.304 93.7029 103.991 93.8357 104.652C93.9677 105.314 94.2942 105.923 94.7729 106.399C95.2524 106.877 95.8631 107.202 96.5273 107.333C97.1923 107.465 97.8816 107.397 98.5078 107.139C99.1339 106.881 99.6685 106.444 100.045 105.882C100.422 105.322 100.623 104.662 100.623 103.987C100.622 103.081 100.261 102.214 99.6183 101.575C98.976 100.935 98.1044 100.575 97.1964 100.574Z" fill="#121212"/>
<path d="M88.5272 113.44C90.3821 113.44 91.8855 111.942 91.8855 110.094C91.8855 108.247 90.3821 106.75 88.5272 106.75C86.6723 106.75 85.1689 108.247 85.1689 110.094C85.1689 111.942 86.6723 113.44 88.5272 113.44Z" fill="#121212"/>
<path d="M88.5281 114.204C87.7116 114.204 86.913 113.963 86.2342 113.511C85.5554 113.059 85.0257 112.417 84.7138 111.666C84.4012 110.914 84.3193 110.087 84.4789 109.29C84.6377 108.493 85.0313 107.76 85.6089 107.185C86.1856 106.61 86.9219 106.219 87.7221 106.06C88.5232 105.901 89.3535 105.982 90.1076 106.294C90.8625 106.605 91.5073 107.132 91.9609 107.808C92.4145 108.484 92.6567 109.279 92.6567 110.092C92.6551 111.182 92.2201 112.227 91.4457 112.999C90.6722 113.769 89.6224 114.203 88.5281 114.204ZM88.5281 107.514C88.0162 107.514 87.5156 107.666 87.0895 107.949C86.6643 108.232 86.3322 108.635 86.1362 109.106C85.9402 109.577 85.8891 110.095 85.9888 110.596C86.0892 111.095 86.3354 111.555 86.6975 111.915C87.0596 112.276 87.5205 112.521 88.0227 112.62C88.5249 112.72 89.0457 112.669 89.5187 112.474C89.9918 112.279 90.396 111.948 90.6803 111.525C90.9646 111.101 91.116 110.602 91.116 110.092C91.1152 109.409 90.8415 108.755 90.3563 108.272C89.8711 107.789 89.2134 107.517 88.5281 107.516V107.514Z" fill="#121212"/>
<path d="M79.2304 115.558C80.8137 115.558 82.0974 114.279 82.0974 112.703C82.0974 111.126 80.8137 109.848 79.2304 109.848C77.6469 109.848 76.3633 111.126 76.3633 112.703C76.3633 114.279 77.6469 115.558 79.2304 115.558Z" fill="#121212"/>
<path d="M79.2298 116.327C78.5105 116.327 77.8073 116.114 77.2092 115.716C76.6111 115.318 76.1449 114.752 75.8696 114.09C75.5944 113.428 75.5223 112.701 75.6626 111.998C75.803 111.295 76.1494 110.649 76.658 110.143C77.1666 109.637 77.8147 109.292 78.5202 109.152C79.2258 109.012 79.9571 109.083 80.6217 109.358C81.2862 109.632 81.8547 110.097 82.254 110.692C82.6533 111.287 82.8672 111.988 82.8672 112.705C82.8656 113.665 82.4824 114.585 81.8004 115.264C81.1186 115.943 80.1941 116.326 79.2298 116.327ZM79.2298 110.616C78.8151 110.616 78.4097 110.738 78.0648 110.968C77.72 111.197 77.4511 111.524 77.2924 111.905C77.1337 112.287 77.0922 112.706 77.1731 113.112C77.254 113.517 77.4537 113.889 77.747 114.181C78.0403 114.473 78.414 114.672 78.8207 114.753C79.2275 114.833 79.6491 114.791 80.0323 114.633C80.4155 114.475 80.743 114.208 80.9734 113.865C81.2038 113.521 81.3269 113.118 81.3269 112.705C81.3262 112.15 81.105 111.62 80.7119 111.228C80.3188 110.837 79.7858 110.616 79.2298 110.616Z" fill="#121212"/>
<path d="M70.9275 112.447C72.233 112.447 73.2914 111.392 73.2914 110.092C73.2914 108.792 72.233 107.738 70.9275 107.738C69.6218 107.738 68.5635 108.792 68.5635 110.092C68.5635 111.392 69.6218 112.447 70.9275 112.447Z" fill="#121212"/>
<path d="M70.9282 113.217C70.3081 113.217 69.7019 113.034 69.1864 112.691C68.6708 112.348 68.2689 111.86 68.0316 111.289C67.7943 110.719 67.7323 110.091 67.8532 109.486C67.9742 108.88 68.2728 108.324 68.7112 107.887C69.1498 107.45 69.7084 107.153 70.3166 107.033C70.9248 106.912 71.5551 106.974 72.1281 107.21C72.701 107.446 73.1906 107.847 73.5351 108.36C73.8796 108.873 74.0635 109.478 74.0635 110.095C74.0625 110.922 73.7318 111.716 73.1441 112.302C72.5563 112.887 71.7594 113.216 70.9282 113.217ZM70.9282 108.507C70.6127 108.507 70.3042 108.601 70.0418 108.775C69.7795 108.95 69.575 109.198 69.4543 109.489C69.3336 109.778 69.3021 110.099 69.3638 110.407C69.4254 110.715 69.5774 110.998 69.8007 111.22C70.0239 111.442 70.3083 111.593 70.6178 111.655C70.9273 111.715 71.2481 111.684 71.5396 111.564C71.831 111.443 72.0801 111.239 72.2552 110.978C72.4303 110.717 72.5237 110.409 72.5235 110.095C72.5231 109.674 72.3549 109.27 72.0558 108.973C71.7567 108.675 71.3511 108.507 70.9282 108.507Z" fill="#121212"/>
<path d="M64.783 107.152C65.8001 107.152 66.6246 106.331 66.6246 105.318C66.6246 104.306 65.8001 103.484 64.783 103.484C63.7659 103.484 62.9414 104.306 62.9414 105.318C62.9414 106.331 63.7659 107.152 64.783 107.152Z" fill="#121212"/>
<path d="M64.7855 107.917C64.2689 107.917 63.7639 107.764 63.3344 107.478C62.9049 107.192 62.5701 106.786 62.3725 106.311C62.1749 105.836 62.1233 105.313 62.2241 104.808C62.3249 104.304 62.5739 103.84 62.9392 103.476C63.3046 103.112 63.7701 102.865 64.2767 102.765C64.7835 102.665 65.3086 102.716 65.7858 102.913C66.263 103.111 66.6708 103.444 66.9576 103.872C67.2444 104.3 67.3974 104.803 67.3972 105.317C67.3961 106.007 67.1205 106.667 66.631 107.154C66.1414 107.642 65.4777 107.916 64.7855 107.917ZM64.7855 104.25C64.5735 104.25 64.3663 104.313 64.1901 104.43C64.0139 104.547 63.8766 104.713 63.7954 104.909C63.7143 105.104 63.6931 105.318 63.7344 105.525C63.7758 105.732 63.8779 105.923 64.0277 106.072C64.1776 106.221 64.3686 106.323 64.5764 106.364C64.7843 106.405 64.9997 106.384 65.1956 106.303C65.3914 106.222 65.5587 106.086 65.6765 105.91C65.7943 105.735 65.8571 105.528 65.8571 105.317C65.8568 105.035 65.7437 104.763 65.5428 104.563C65.342 104.363 65.0695 104.25 64.7855 104.25Z" fill="#121212"/>
<path d="M59.5751 101.544C60.3399 101.544 60.9599 100.926 60.9599 100.165C60.9599 99.4031 60.3399 98.7852 59.5751 98.7852C58.8104 98.7852 58.1904 99.4031 58.1904 100.165C58.1904 100.926 58.8104 101.544 59.5751 101.544Z" fill="#121212"/>
<path d="M59.5753 102.318C59.1487 102.318 58.7317 102.193 58.377 101.956C58.0222 101.721 57.7456 101.385 57.5823 100.993C57.419 100.6 57.3762 100.169 57.4593 99.7516C57.5425 99.3353 57.7478 98.9522 58.0495 98.6521C58.351 98.352 58.7354 98.1471 59.1537 98.0648C59.572 97.9817 60.0057 98.0245 60.3997 98.1866C60.7938 98.3496 61.1305 98.6255 61.3672 98.978C61.6041 99.3313 61.7304 99.7467 61.73 100.172C61.7294 100.741 61.5022 101.286 61.0982 101.688C60.6943 102.091 60.1466 102.317 59.5753 102.318ZM59.5753 99.558C59.4534 99.558 59.3342 99.5935 59.2327 99.6612C59.1312 99.7282 59.0521 99.8242 59.0053 99.9363C58.9585 100.048 58.9461 100.172 58.9697 100.29C58.9933 100.41 59.0519 100.52 59.138 100.605C59.2241 100.691 59.3338 100.749 59.4534 100.774C59.5729 100.797 59.6969 100.785 59.8094 100.739C59.9221 100.692 60.0183 100.614 60.0861 100.513C60.1539 100.411 60.1901 100.293 60.1901 100.172C60.1909 100.09 60.1756 100.011 60.1451 99.9355C60.1147 99.8605 60.0695 99.7919 60.0123 99.7346C59.9552 99.6765 59.8871 99.6306 59.8121 99.5999C59.7371 99.5684 59.6566 99.5523 59.5753 99.5515V99.558Z" fill="#121212"/>
<path d="M109.47 146.867C109.47 146.867 113.072 158.307 125.925 158.933C135.431 159.396 134.667 146.867 134.667 146.867L147.455 148.594C149.621 148.885 151.663 149.769 153.355 151.144C155.049 152.52 156.327 154.336 157.048 156.391L167.193 185.275L178.409 160.641L193.437 165.115C193.437 165.115 187.277 183.844 179.779 200.746C173.987 213.813 159.271 212.621 153.707 198.328C152.665 195.652 148.917 187.003 148.917 187.003L140.91 172.271L109.63 171.591L96.0722 192.258L95.387 185.266C95.387 185.266 94.1639 188.461 86.3757 201.314C79.0744 213.356 68.7496 212.617 62.9142 198.585C56.6719 183.574 51.4922 165.681 51.4922 165.681L66.5204 161.207L76.3767 185.271L86.0396 154.605C87.1298 152.691 88.6761 151.072 90.5424 149.892C92.4086 148.713 94.5373 148.009 96.7413 147.841L109.47 146.867Z" fill="#00FABF"/>
<path d="M167.668 210.604C167.574 210.604 167.482 210.604 167.388 210.604C164.493 210.539 161.648 209.446 159.162 207.445C156.559 205.348 154.425 202.292 152.989 198.604C151.996 196.048 148.472 187.909 148.225 187.336L140.445 173.022L110.041 172.37L96.7173 192.678C96.6298 192.811 96.5034 192.913 96.3544 192.972C96.2062 193.03 96.0433 193.042 95.8878 193.004C95.7331 192.966 95.5938 192.881 95.4893 192.761C95.3848 192.64 95.3208 192.491 95.3054 192.333L94.8867 188.06C93.6871 190.36 91.3769 194.541 87.0337 201.706C83.5685 207.425 79.2977 210.533 74.9471 210.533C74.7187 210.533 74.4902 210.524 74.2618 210.508C69.4543 210.146 65.1717 206.015 62.1981 198.878C56.0097 183.999 50.8031 166.071 50.7518 165.892C50.6956 165.698 50.7187 165.49 50.816 165.312C50.9134 165.135 51.0771 165.003 51.2716 164.945L66.2997 160.472C66.483 160.418 66.68 160.433 66.8524 160.515C67.0249 160.597 67.1604 160.741 67.2328 160.917L76.2831 183.01L85.3036 154.38C85.3206 154.329 85.3424 154.279 85.3692 154.231C86.5194 152.206 88.1523 150.493 90.1239 149.244C92.0962 147.997 94.3464 147.251 96.676 147.074L109.406 146.1C109.579 146.086 109.753 146.132 109.897 146.23C110.041 146.327 110.148 146.47 110.2 146.636C110.221 146.701 111.12 149.448 113.498 152.212C116.678 155.919 120.87 157.916 125.957 158.164C128.085 158.268 129.816 157.664 131.101 156.375C134.239 153.212 133.897 146.979 133.894 146.917C133.887 146.803 133.905 146.691 133.947 146.586C133.989 146.48 134.054 146.386 134.138 146.309C134.221 146.232 134.321 146.173 134.429 146.14C134.538 146.105 134.652 146.095 134.765 146.111L147.563 147.832C149.871 148.138 152.049 149.077 153.854 150.543C155.658 152.01 157.017 153.948 157.78 156.14L167.289 183.216L177.712 160.324C177.789 160.155 177.924 160.02 178.094 159.943C178.263 159.866 178.454 159.853 178.633 159.906L193.661 164.379C193.76 164.408 193.852 164.457 193.932 164.522C194.011 164.587 194.077 164.667 194.125 164.758C194.172 164.849 194.202 164.949 194.21 165.051C194.219 165.153 194.206 165.256 194.175 165.354C194.113 165.54 187.91 184.313 180.49 201.055C177.823 207.052 173.048 210.604 167.668 210.604ZM109.63 170.822H109.646L140.926 171.493C141.062 171.496 141.194 171.535 141.31 171.605C141.426 171.676 141.522 171.775 141.586 171.895L149.596 186.627C149.605 186.647 149.616 186.668 149.625 186.688C149.779 187.042 153.389 195.379 154.425 198.041C157.023 204.716 162.004 208.939 167.423 209.063C172.274 209.171 176.629 205.944 179.075 200.427C185.628 185.641 191.228 169.264 192.456 165.612L178.832 161.56L167.894 185.588C167.83 185.728 167.726 185.845 167.595 185.925C167.463 186.005 167.312 186.045 167.158 186.037C167.004 186.031 166.856 185.978 166.733 185.886C166.609 185.795 166.516 185.669 166.466 185.524L156.327 156.639C155.655 154.717 154.461 153.018 152.878 151.732C151.294 150.446 149.383 149.623 147.358 149.354L135.458 147.749C135.438 149.765 135.073 154.566 132.207 157.451C130.602 159.069 128.477 159.825 125.893 159.7C118.977 159.362 114.681 155.959 112.29 153.163C110.888 151.523 109.759 149.671 108.946 147.676L96.7991 148.604C94.7352 148.76 92.7402 149.418 90.9898 150.517C89.2394 151.618 87.7846 153.127 86.7543 154.915L77.1173 185.502C77.0698 185.653 76.9769 185.785 76.8511 185.881C76.7254 185.977 76.573 186.032 76.4147 186.039C76.2563 186.045 76.0999 186.003 75.9665 185.918C75.8332 185.832 75.7295 185.708 75.6697 185.562L66.0765 162.141L52.4509 166.196C53.4918 169.702 58.1786 185.192 63.6252 198.29C66.3614 204.869 70.1807 208.665 74.3786 208.98C78.357 209.28 82.3819 206.415 85.7159 200.915C93.3274 188.361 94.6558 185.022 94.6688 184.989C94.7311 184.829 94.8462 184.693 94.9952 184.605C95.1442 184.518 95.3192 184.482 95.4909 184.505C95.6626 184.529 95.8214 184.609 95.9413 184.733C96.062 184.858 96.1365 185.018 96.1535 185.19L96.6257 190.015L108.986 171.175C109.055 171.067 109.151 170.978 109.263 170.917C109.376 170.855 109.501 170.823 109.63 170.822Z" fill="#00FABF"/>
<path d="M76.7327 193.029C75.7754 193.029 75.2479 192.59 74.972 192.22C73.9723 190.877 74.628 188.305 75.5649 185.31C75.2261 184.507 74.7949 183.616 74.7949 183.605C74.7478 183.514 74.7196 183.415 74.7118 183.312C74.7039 183.21 74.7168 183.107 74.7495 183.011C74.7823 182.913 74.8341 182.823 74.9022 182.747C74.9703 182.67 75.053 182.607 75.1458 182.563C75.2385 182.519 75.3391 182.494 75.4419 182.488C75.5446 182.483 75.6473 182.498 75.744 182.534C75.8405 182.569 75.9291 182.623 76.0044 182.693C76.0796 182.763 76.1401 182.847 76.1822 182.94C76.1886 182.951 76.2168 183.011 76.2617 183.107L76.9471 180.933C77.0094 180.741 77.1456 180.581 77.3261 180.488C77.5064 180.395 77.7165 180.377 77.9103 180.437C78.1041 180.498 78.2661 180.633 78.3609 180.812C78.4558 180.99 78.4758 181.199 78.4166 181.392L77.2025 185.243L77.4399 185.847C78.4101 188.303 79.4137 190.843 78.491 192.205C78.2407 192.576 77.7389 193.018 76.7661 193.027L76.7327 193.029ZM76.4825 187.645C76.0847 189.139 75.7895 190.743 76.2092 191.307C76.2515 191.364 76.3541 191.494 76.7481 191.494C76.9907 191.494 77.146 191.443 77.2101 191.349C77.5721 190.816 77.0344 189.123 76.4825 187.645Z" fill="#121212"/>
<path d="M167.22 193.332H167.198C166.213 193.323 165.685 192.849 165.416 192.455C164.601 191.257 164.888 189.102 166.38 185.255C165.682 183.189 165.481 182.618 165.423 182.461C165.401 182.417 165.383 182.371 165.37 182.323C165.316 182.129 165.339 181.922 165.435 181.745C165.531 181.567 165.691 181.434 165.884 181.372C165.954 181.35 166.591 181.179 166.866 181.925C166.892 181.997 166.938 182.122 167.015 182.343C167.092 182.565 167.182 182.83 167.297 183.165C167.357 183.038 167.397 182.955 167.403 182.942C167.446 182.848 167.506 182.764 167.581 182.694C167.656 182.625 167.745 182.571 167.842 182.535C167.938 182.5 168.041 182.484 168.144 182.489C168.247 182.495 168.347 182.52 168.439 182.564C168.533 182.609 168.615 182.671 168.683 182.748C168.751 182.825 168.803 182.914 168.836 183.012C168.869 183.109 168.882 183.211 168.874 183.314C168.866 183.416 168.838 183.515 168.791 183.606C168.791 183.617 168.358 184.501 168.021 185.302C169.164 188.697 169.888 191.204 168.905 192.551C168.638 192.91 168.135 193.332 167.22 193.332ZM167.156 187.632C166.282 190.328 166.461 191.267 166.683 191.594C166.725 191.654 166.821 191.795 167.206 191.799C167.546 191.799 167.619 191.696 167.652 191.65C167.757 191.505 167.968 190.999 167.634 189.426C167.515 188.86 167.346 188.25 167.156 187.632Z" fill="#121212"/>
<path d="M95.399 188.101C95.2046 188.102 95.0167 188.028 94.8741 187.897C94.7315 187.765 94.6441 187.585 94.6295 187.391L94.009 179.226C93.9936 179.023 94.06 178.821 94.1937 178.666C94.3273 178.512 94.5169 178.416 94.721 178.401C94.9251 178.385 95.1268 178.451 95.2823 178.584C95.4379 178.717 95.5342 178.906 95.5496 179.11L96.1693 187.276C96.1847 187.479 96.1183 187.68 95.9854 187.834C95.8518 187.988 95.663 188.083 95.4597 188.098L95.399 188.101Z" fill="#121212"/>
<path d="M149.074 186.328H148.995C148.792 186.307 148.606 186.206 148.477 186.049C148.348 185.891 148.288 185.689 148.309 185.487L148.988 178.911C149.009 178.709 149.109 178.523 149.268 178.395C149.426 178.266 149.629 178.206 149.832 178.227C150.036 178.248 150.222 178.348 150.351 178.506C150.48 178.664 150.54 178.866 150.519 179.068L149.84 185.642C149.82 185.831 149.731 186.005 149.589 186.131C149.448 186.258 149.265 186.328 149.074 186.328Z" fill="#121212"/>
<path d="M58.6984 178.396C58.5343 178.396 58.3746 178.343 58.2425 178.246C58.1105 178.149 58.013 178.012 57.9643 177.856L53.9949 165.197C53.9619 165.1 53.9487 164.998 53.9561 164.895C53.9635 164.794 53.9912 164.694 54.0378 164.603C54.0843 164.512 54.1487 164.431 54.2271 164.365C54.3055 164.299 54.3964 164.249 54.4943 164.218C54.5923 164.189 54.6955 164.177 54.7977 164.187C54.8998 164.197 54.999 164.227 55.0894 164.276C55.1798 164.324 55.2595 164.39 55.3239 164.47C55.3883 164.549 55.436 164.641 55.4643 164.74L59.4338 177.403C59.4944 177.597 59.4753 177.807 59.3804 177.987C59.2856 178.167 59.1229 178.302 58.9281 178.363C58.8538 178.385 58.7762 178.396 58.6984 178.396Z" fill="#121212"/>
<path d="M60.498 174.383C60.3319 174.383 60.1703 174.329 60.0374 174.23C59.9044 174.131 59.8071 173.992 59.7601 173.833L56.8519 164.084C56.8198 163.986 56.8076 163.884 56.8161 163.781C56.8246 163.679 56.8536 163.58 56.9014 163.489C56.9492 163.398 57.0149 163.318 57.0944 163.252C57.174 163.188 57.2658 163.139 57.3646 163.109C57.4634 163.08 57.567 163.072 57.6694 163.083C57.7718 163.094 57.8707 163.126 57.9606 163.176C58.0504 163.226 58.1291 163.294 58.1922 163.375C58.2553 163.456 58.3014 163.549 58.3278 163.648L61.236 173.398C61.2701 173.512 61.2769 173.632 61.256 173.75C61.235 173.868 61.1868 173.979 61.1151 174.075C61.0434 174.171 60.9504 174.248 60.8432 174.301C60.736 174.355 60.6178 174.383 60.498 174.383Z" fill="#121212"/>
<path d="M185.439 177.767C185.346 177.767 185.255 177.751 185.169 177.719C185.074 177.683 184.988 177.63 184.913 177.56C184.839 177.492 184.779 177.41 184.737 177.318C184.695 177.226 184.672 177.126 184.668 177.026C184.665 176.926 184.681 176.825 184.717 176.73L189.394 164.31C189.466 164.12 189.61 163.965 189.796 163.881C189.983 163.797 190.195 163.79 190.386 163.862C190.577 163.933 190.732 164.077 190.816 164.263C190.901 164.447 190.908 164.659 190.837 164.849L186.16 177.27C186.105 177.416 186.006 177.542 185.877 177.631C185.748 177.719 185.595 177.767 185.439 177.767Z" fill="#121212"/>
<path d="M183.87 173.658C183.747 173.658 183.625 173.628 183.516 173.572C183.406 173.515 183.312 173.434 183.242 173.334C183.171 173.234 183.125 173.117 183.108 172.996C183.091 172.875 183.103 172.751 183.145 172.636L186.394 163.629C186.429 163.534 186.481 163.447 186.549 163.372C186.617 163.298 186.699 163.237 186.791 163.194C186.882 163.151 186.982 163.127 187.082 163.122C187.183 163.117 187.285 163.132 187.379 163.166C187.475 163.2 187.563 163.253 187.637 163.32C187.712 163.388 187.773 163.47 187.816 163.561C187.859 163.652 187.884 163.751 187.889 163.851C187.894 163.952 187.878 164.053 187.844 164.147L184.595 173.155C184.54 173.302 184.442 173.43 184.312 173.52C184.182 173.61 184.028 173.659 183.87 173.658Z" fill="#121212"/>
<path d="M46.5008 144.314C46.3685 144.314 46.2385 144.28 46.1231 144.216C46.0079 144.151 45.9112 144.058 45.8424 143.946L43.404 139.957C43.3474 139.865 43.3111 139.764 43.2975 139.657C43.268 139.431 42.5698 134.068 42.4568 131.776C42.4094 130.834 42.0231 130.216 41.4712 130.201H41.4532C41.0156 130.201 40.5087 130.617 40.415 131.538C40.4062 131.64 40.3772 131.738 40.3299 131.828C40.2825 131.917 40.2177 131.997 40.1393 132.062C40.0609 132.127 39.9702 132.175 39.8728 132.205C39.7753 132.234 39.6729 132.245 39.5716 132.234C39.4702 132.225 39.3718 132.195 39.2821 132.146C39.1924 132.098 39.1133 132.033 39.0492 131.954C38.9852 131.874 38.9375 131.784 38.9089 131.687C38.8803 131.589 38.8714 131.487 38.8827 131.386C39.0637 129.591 40.3047 128.668 41.4558 128.668H41.5097C42.6737 128.697 43.893 129.646 43.9943 131.701C44.0944 133.716 44.6848 138.374 44.8041 139.299L47.1617 143.148C47.2331 143.264 47.272 143.397 47.2746 143.533C47.2772 143.669 47.2433 143.803 47.1764 143.922C47.1095 144.041 47.0119 144.14 46.8938 144.209C46.7757 144.278 46.6415 144.314 46.5046 144.314H46.5008Z" fill="#121212"/>
<path d="M55.2065 147.661C55.0491 147.661 54.8954 147.613 54.7663 147.524L49.5045 143.869C49.4215 143.811 49.3508 143.738 49.2966 143.652L46.3448 139.041C46.295 138.962 46.2598 138.876 46.2409 138.786C46.2409 138.761 45.7275 136.325 45.3682 133.673C45.2399 132.718 44.9318 132.243 44.6854 132.114C44.6393 132.09 44.5173 132.026 44.2671 132.153C44.0852 132.246 43.8737 132.263 43.6794 132.2C43.485 132.137 43.3237 132 43.2308 131.819C43.1379 131.638 43.121 131.427 43.184 131.234C43.2469 131.04 43.3844 130.88 43.5664 130.787C43.8462 130.633 44.1601 130.549 44.4801 130.543C44.8001 130.538 45.1166 130.611 45.4016 130.756C45.9547 131.044 46.6631 131.749 46.8942 133.468C47.1957 135.712 47.6103 137.796 47.7206 138.338L50.5106 142.704L55.6441 146.271C55.7786 146.364 55.8795 146.498 55.9323 146.653C55.9852 146.807 55.9871 146.975 55.9378 147.131C55.8886 147.286 55.7907 147.422 55.6585 147.519C55.5262 147.615 55.3666 147.667 55.2026 147.667L55.2065 147.661Z" fill="#121212"/>
<path d="M50.5677 162.825C50.4154 162.825 50.2665 162.781 50.1398 162.697C50.0129 162.613 49.914 162.493 49.8554 162.354C49.6347 161.826 49.2702 161.153 49.0713 160.977L39.8092 153.752L39.7771 153.725C39.1652 153.192 38.6631 152.546 38.2987 151.822L35.0902 145.457C35.0675 145.412 35.0495 145.364 35.0363 145.315C34.8374 144.593 34.6514 143.62 34.4498 142.588C34.2214 141.426 33.966 140.102 33.6619 138.998C33.3885 138 33.608 137.081 34.2625 136.468C34.5757 136.182 34.9607 135.984 35.377 135.898C35.7931 135.811 36.2252 135.837 36.6278 135.974C37.4465 136.256 37.9984 136.947 38.1421 137.87C38.3987 139.515 38.7953 141.345 38.8993 141.812L41.2375 145.825C41.3296 146.001 41.3501 146.204 41.2948 146.394C41.2395 146.584 41.1126 146.745 40.9406 146.845C40.7687 146.944 40.565 146.973 40.3721 146.925C40.1792 146.878 40.012 146.759 39.9054 146.592L37.5068 142.473C37.4675 142.406 37.4389 142.333 37.4221 142.257C37.4016 142.168 36.9216 140.046 36.6201 138.097C36.5648 137.745 36.3942 137.51 36.1247 137.417C35.9869 137.37 35.8393 137.361 35.6968 137.39C35.5544 137.42 35.4222 137.486 35.3135 137.582C35.0236 137.853 35.0633 138.279 35.148 138.589C35.4663 139.756 35.7281 141.107 35.9578 142.295C36.1452 143.261 36.3223 144.175 36.4981 144.835L39.6757 151.139C39.9476 151.681 40.3214 152.165 40.7768 152.565L50.0338 159.787L50.0556 159.804C50.6293 160.285 51.1362 161.431 51.2773 161.77C51.3557 161.958 51.356 162.17 51.2783 162.357C51.2005 162.545 51.0512 162.695 50.8629 162.773C50.7687 162.809 50.6685 162.827 50.5677 162.825Z" fill="#121212"/>
<path d="M43.5163 145.743C43.3761 145.743 43.2385 145.705 43.1185 145.633C42.9983 145.56 42.9003 145.457 42.8349 145.334L40.2823 140.518C40.2352 140.428 40.206 140.331 40.1962 140.231C40.1962 140.184 39.7587 135.518 39.6085 133.358C39.5392 132.369 39.0566 131.952 38.6036 131.971C38.1506 131.991 37.6975 132.45 37.7296 133.397C37.7616 134.487 37.8537 135.575 38.0056 136.657C38.062 137.082 38.1146 137.484 38.148 137.921C38.1635 138.125 38.0972 138.325 37.9638 138.48C37.8303 138.635 37.6406 138.73 37.4364 138.746C37.2322 138.761 37.0302 138.696 36.8748 138.563C36.7195 138.429 36.6235 138.241 36.6079 138.037C36.5784 137.642 36.531 137.278 36.4796 136.856C36.3224 135.726 36.226 134.588 36.1909 133.447C36.128 131.555 37.3177 130.502 38.5253 130.44C39.688 130.383 41.0048 131.235 41.146 133.252C41.2743 135.169 41.6414 139.116 41.7171 139.938L44.1965 144.621C44.2584 144.738 44.2889 144.868 44.2852 145C44.2815 145.132 44.2436 145.261 44.1751 145.374C44.1067 145.487 44.0101 145.581 43.8947 145.646C43.7793 145.711 43.6489 145.745 43.5163 145.745V145.743Z" fill="#121212"/>
<path d="M64.7857 160.385C64.6123 160.385 64.4441 160.326 64.3083 160.219C64.1725 160.111 64.0771 159.961 64.0375 159.794L63.4138 157.148C63.3427 156.867 63.304 156.579 63.2983 156.289C63.2979 155.508 63.3488 154.727 63.451 153.952C63.5601 152.951 63.6641 152.004 63.5306 151.092L62.8606 146.58C62.7916 146.121 62.6159 145.683 62.3473 145.303C61.3206 143.847 58.7231 140.117 56.7377 136.938C56.5593 136.653 56.4618 136.705 56.3964 136.738C55.9087 136.994 55.3979 138.285 56.1179 139.96C57.5372 143.267 59.2352 146.862 59.2518 146.9C59.3235 147.051 59.3434 147.222 59.3084 147.386C59.2734 147.55 59.1854 147.698 59.058 147.807C58.9066 147.936 55.3363 151.107 55.9151 156.424C55.9372 156.627 55.8778 156.829 55.7498 156.988C55.6865 157.066 55.6082 157.132 55.5196 157.18C55.4309 157.228 55.3335 157.259 55.2329 157.269C55.03 157.292 54.8264 157.232 54.6672 157.105C54.508 156.978 54.4061 156.793 54.384 156.59C53.8321 151.547 56.5413 148.183 57.6258 147.057C57.1125 145.95 55.8201 143.168 54.7023 140.562C53.6756 138.169 54.3943 136.047 55.684 135.378C56.54 134.934 57.4885 135.236 58.0454 136.128C60.0103 139.275 62.5899 142.976 63.6076 144.422C64.0113 145 64.2749 145.663 64.3776 146.359L65.0411 150.875C65.2041 151.982 65.0847 153.071 64.9679 154.125C64.8741 154.834 64.826 155.548 64.8242 156.264C64.8288 156.442 64.8533 156.619 64.8974 156.793L65.5198 159.446C65.5429 159.543 65.5463 159.646 65.5298 159.745C65.5134 159.844 65.4774 159.94 65.424 160.025C65.3707 160.111 65.3008 160.185 65.2186 160.244C65.1364 160.303 65.0433 160.344 64.9448 160.367C64.8925 160.378 64.8392 160.384 64.7857 160.385Z" fill="#121212"/>
<path d="M39.8957 149.143C39.7428 149.143 39.5932 149.098 39.4662 149.013C39.3392 148.929 39.2404 148.808 39.1825 148.667C39.1245 148.526 39.11 148.371 39.1408 148.222C39.1715 148.073 39.2463 147.937 39.3554 147.829C43.4621 143.811 47.2506 143.3 47.4098 143.28C47.6125 143.254 47.8171 143.309 47.9786 143.435C48.1401 143.559 48.2452 143.742 48.2709 143.944C48.2966 144.146 48.2408 144.349 48.1156 144.511C47.9904 144.671 47.8063 144.776 47.6036 144.802C47.5522 144.808 44.1308 145.304 40.4347 148.923C40.2909 149.064 40.0973 149.143 39.8957 149.143Z" fill="#121212"/>
<path d="M197.961 144.31C197.824 144.31 197.69 144.274 197.571 144.205C197.453 144.136 197.356 144.038 197.289 143.918C197.222 143.8 197.188 143.665 197.191 143.529C197.193 143.392 197.232 143.259 197.303 143.143L199.668 139.294C199.787 138.37 200.377 133.711 200.478 131.696C200.579 129.643 201.798 128.693 202.962 128.664H203.016C204.17 128.664 205.408 129.588 205.582 131.383C205.593 131.483 205.583 131.583 205.554 131.68C205.525 131.776 205.477 131.867 205.413 131.944C205.349 132.022 205.269 132.087 205.18 132.134C205.091 132.182 204.994 132.212 204.894 132.222C204.792 132.232 204.691 132.222 204.594 132.193C204.498 132.164 204.407 132.117 204.329 132.053C204.251 131.989 204.186 131.911 204.138 131.822C204.09 131.733 204.06 131.636 204.05 131.536C203.955 130.602 203.436 130.189 202.994 130.199C202.442 130.213 202.055 130.83 202.008 131.773C201.895 134.065 201.197 139.427 201.168 139.654C201.154 139.761 201.117 139.863 201.061 139.954L198.623 143.943C198.554 144.056 198.456 144.149 198.34 144.213C198.224 144.278 198.093 144.311 197.961 144.31Z" fill="#121212"/>
<path d="M189.254 147.66C189.09 147.661 188.93 147.609 188.797 147.512C188.664 147.416 188.566 147.279 188.517 147.124C188.467 146.967 188.47 146.8 188.523 146.645C188.576 146.49 188.678 146.356 188.813 146.263L193.946 142.697L196.744 138.334C196.853 137.792 197.267 135.708 197.569 133.464C197.801 131.745 198.508 131.036 199.063 130.751C199.348 130.606 199.664 130.534 199.984 130.539C200.304 130.545 200.617 130.628 200.897 130.783C201.079 130.876 201.216 131.036 201.279 131.23C201.342 131.423 201.325 131.634 201.232 131.815C201.14 131.996 200.978 132.133 200.783 132.196C200.589 132.258 200.378 132.241 200.196 132.149C199.939 132.021 199.824 132.085 199.777 132.11C199.531 132.237 199.224 132.714 199.095 133.668C198.738 136.323 198.227 138.759 198.222 138.78C198.204 138.871 198.168 138.957 198.119 139.035L195.167 143.647C195.113 143.732 195.041 143.806 194.959 143.864L189.697 147.518C189.567 147.61 189.413 147.659 189.254 147.66Z" fill="#121212"/>
<path d="M194.187 162.334C194.111 162.334 194.036 162.323 193.963 162.299C193.768 162.241 193.605 162.107 193.508 161.928C193.413 161.75 193.391 161.54 193.449 161.346C193.48 161.243 193.773 160.324 194.404 159.795L194.426 159.777L203.683 152.556C204.139 152.156 204.512 151.672 204.784 151.13L207.962 144.835C208.139 144.175 208.315 143.261 208.502 142.295C208.732 141.104 208.994 139.752 209.312 138.589C209.396 138.279 209.44 137.853 209.146 137.582C209.038 137.485 208.906 137.419 208.763 137.39C208.62 137.361 208.473 137.37 208.335 137.417C208.066 137.51 207.895 137.744 207.84 138.095C207.538 140.046 207.058 142.167 207.038 142.255C207.021 142.332 206.993 142.405 206.953 142.472L204.554 146.588C204.448 146.755 204.28 146.874 204.088 146.922C203.895 146.969 203.692 146.94 203.519 146.84C203.347 146.742 203.22 146.581 203.165 146.39C203.11 146.201 203.13 145.997 203.223 145.822L205.562 141.807C205.665 141.341 206.064 139.506 206.318 137.864C206.462 136.943 207.013 136.252 207.832 135.97C208.235 135.834 208.667 135.807 209.084 135.894C209.5 135.981 209.885 136.178 210.199 136.464C210.852 137.073 211.071 137.999 210.798 138.994C210.494 140.105 210.239 141.422 210.014 142.59C209.815 143.622 209.629 144.596 209.427 145.318C209.414 145.367 209.396 145.414 209.374 145.459L206.165 151.825C205.801 152.548 205.299 153.195 204.686 153.728L204.655 153.754L195.39 160.981C195.17 161.171 194.982 161.612 194.924 161.799C194.875 161.954 194.777 162.091 194.644 162.187C194.511 162.283 194.351 162.335 194.187 162.334Z" fill="#121212"/>
<path d="M200.951 145.739C200.819 145.739 200.688 145.705 200.572 145.64C200.457 145.574 200.361 145.481 200.292 145.368C200.224 145.255 200.186 145.126 200.182 144.994C200.179 144.862 200.209 144.731 200.271 144.614L202.748 139.934C202.823 139.112 203.184 135.172 203.319 133.248C203.46 131.232 204.771 130.378 205.939 130.436C207.147 130.499 208.337 131.552 208.274 133.444C208.24 134.585 208.143 135.723 207.985 136.853C207.93 137.275 207.881 137.638 207.857 138.034C207.841 138.237 207.746 138.426 207.59 138.559C207.435 138.692 207.233 138.758 207.028 138.742C206.824 138.727 206.634 138.631 206.501 138.476C206.368 138.322 206.301 138.121 206.317 137.917C206.35 137.481 206.403 137.08 206.459 136.654C206.611 135.573 206.703 134.485 206.735 133.394C206.767 132.447 206.304 131.988 205.861 131.969C205.419 131.95 204.925 132.365 204.856 133.356C204.706 135.516 204.272 140.181 204.268 140.228C204.259 140.329 204.229 140.426 204.182 140.516L201.63 145.33C201.565 145.453 201.467 145.557 201.347 145.628C201.228 145.7 201.091 145.739 200.951 145.739Z" fill="#121212"/>
<path d="M179.808 159.704C179.744 159.704 179.682 159.696 179.62 159.68C179.423 159.631 179.252 159.505 179.147 159.331C179.042 159.157 179.011 158.949 179.06 158.751L179.552 156.792C179.595 156.619 179.62 156.441 179.625 156.264C179.623 155.548 179.574 154.834 179.48 154.124C179.364 153.071 179.245 151.982 179.407 150.874L180.072 146.36C180.175 145.663 180.438 145 180.842 144.422C181.862 142.976 184.442 139.272 186.404 136.129C186.962 135.234 187.911 134.935 188.766 135.379C190.056 136.047 190.776 138.17 189.749 140.562C188.631 143.164 187.348 145.946 186.834 147.051C187.919 148.177 190.629 151.543 190.076 156.586C190.069 156.689 190.041 156.789 189.994 156.881C189.947 156.973 189.882 157.055 189.802 157.121C189.723 157.188 189.63 157.237 189.531 157.267C189.432 157.297 189.328 157.306 189.225 157.295C189.122 157.284 189.021 157.252 188.931 157.201C188.841 157.151 188.761 157.083 188.698 157.001C188.635 156.92 188.589 156.825 188.563 156.726C188.537 156.626 188.531 156.522 188.547 156.42C189.131 151.072 185.44 147.835 185.402 147.803C185.275 147.693 185.187 147.546 185.152 147.382C185.117 147.218 185.137 147.047 185.209 146.895C185.226 146.86 186.923 143.262 188.343 139.954C189.063 138.279 188.552 136.986 188.064 136.733C188 136.699 187.901 136.647 187.722 136.934C185.74 140.109 183.14 143.836 182.113 145.297C181.844 145.678 181.668 146.116 181.599 146.576L180.931 151.092C180.802 152.006 180.901 152.952 181.012 153.955C181.112 154.729 181.164 155.51 181.164 156.291C181.157 156.584 181.117 156.876 181.045 157.161L180.554 159.119C180.513 159.286 180.418 159.433 180.282 159.54C180.147 159.646 179.98 159.704 179.808 159.704Z" fill="#121212"/>
<path d="M204.567 149.139C204.364 149.139 204.17 149.06 204.026 148.919C200.32 145.29 196.89 144.801 196.857 144.798C196.654 144.772 196.471 144.667 196.345 144.507C196.22 144.345 196.164 144.142 196.189 143.94C196.215 143.738 196.321 143.555 196.482 143.43C196.644 143.306 196.848 143.25 197.051 143.276C197.21 143.296 201.001 143.807 205.105 147.825C205.215 147.932 205.289 148.069 205.32 148.217C205.351 148.367 205.336 148.521 205.278 148.663C205.221 148.803 205.122 148.924 204.995 149.009C204.869 149.093 204.719 149.139 204.567 149.139Z" fill="#121212"/>
<path d="M123.024 48.7662C110.246 48.7662 97.3707 48.2 84.5387 47.0727C50.2454 44.0577 27.8558 37.9778 27.6338 37.9165C27.4369 37.8625 27.2696 37.7327 27.1688 37.5558C27.0679 37.3789 27.0418 37.1694 27.096 36.9733C27.1503 36.7772 27.2806 36.6106 27.4583 36.5102C27.6358 36.4097 27.8463 36.3837 28.0432 36.4377C28.2639 36.4991 50.5483 42.547 84.7128 45.548C116.232 48.3163 164.601 48.9822 216.027 36.4326C216.224 36.3901 216.429 36.4255 216.599 36.5312C216.769 36.6371 216.891 36.8049 216.939 36.9991C216.987 37.1933 216.957 37.3983 216.855 37.5706C216.753 37.743 216.588 37.8689 216.395 37.9216C193.587 43.4877 169.473 46.9513 144.721 48.2153C137.539 48.5826 130.307 48.7662 123.024 48.7662Z" fill="#E8178A"/>
<path d="M174.172 34.5084C173.534 34.5084 172.911 34.3202 172.382 33.9676C171.852 33.6149 171.439 33.1137 171.194 32.5273C170.95 31.9409 170.887 31.2956 171.011 30.6731C171.136 30.0505 171.443 29.4787 171.893 29.0299C172.343 28.5811 172.918 28.2754 173.543 28.1515C174.168 28.0277 174.816 28.0912 175.405 28.3341C175.994 28.5771 176.497 28.9884 176.851 29.5161C177.205 30.0439 177.395 30.6644 177.395 31.2991C177.393 32.15 177.054 32.9657 176.449 33.5673C175.845 34.169 175.026 34.5074 174.172 34.5084ZM174.172 29.6236C173.839 29.6236 173.514 29.7218 173.237 29.906C172.96 30.0901 172.744 30.3518 172.617 30.658C172.49 30.9641 172.457 31.301 172.522 31.6261C172.586 31.9511 172.747 32.2496 172.982 32.4839C173.217 32.7183 173.517 32.8778 173.844 32.9425C174.17 33.0072 174.508 32.974 174.816 32.8472C175.123 32.7204 175.386 32.5056 175.571 32.2301C175.755 31.9545 175.854 31.6306 175.854 31.2991C175.854 30.8549 175.677 30.4289 175.361 30.1147C175.046 29.8006 174.618 29.6239 174.172 29.6236Z" fill="#121212"/>
<path d="M33.6133 72.445C33.1366 72.445 32.6706 72.3043 32.2742 72.0405C31.8779 71.7768 31.569 71.4019 31.3866 70.9634C31.2042 70.5248 31.1564 70.0421 31.2494 69.5765C31.3424 69.1109 31.572 68.6832 31.909 68.3476C32.2461 68.0118 32.6755 67.7833 33.1431 67.6906C33.6106 67.598 34.0952 67.6456 34.5356 67.8273C34.976 68.0089 35.3524 68.3166 35.6173 68.7113C35.8821 69.106 36.0234 69.5701 36.0234 70.0448C36.0228 70.6812 35.7686 71.2913 35.3168 71.7413C34.865 72.1913 34.2523 72.4444 33.6133 72.445ZM33.6133 69.1795C33.4411 69.1795 33.2728 69.2304 33.1297 69.3257C32.9866 69.4209 32.8751 69.5564 32.8093 69.7147C32.7434 69.8731 32.7263 70.0475 32.7599 70.2156C32.7936 70.3837 32.8766 70.5381 32.9985 70.6592C33.1203 70.7804 33.2754 70.8628 33.4443 70.8961C33.6132 70.9294 33.7881 70.9121 33.9471 70.8463C34.1061 70.7805 34.2419 70.6692 34.3374 70.5265C34.4328 70.3839 34.4836 70.2162 34.4834 70.0448C34.483 69.8152 34.3913 69.5951 34.228 69.4329C34.0649 69.2706 33.8438 69.1795 33.6133 69.1795Z" fill="#121212"/>
<path d="M200.55 204.907C199.783 204.907 199.033 204.68 198.395 204.256C197.757 203.832 197.26 203.228 196.966 202.522C196.673 201.816 196.596 201.039 196.746 200.289C196.895 199.54 197.265 198.852 197.807 198.312C198.349 197.771 199.041 197.403 199.794 197.254C200.546 197.105 201.326 197.181 202.035 197.473C202.744 197.766 203.35 198.262 203.776 198.897C204.202 199.532 204.43 200.279 204.43 201.043C204.429 202.067 204.02 203.05 203.293 203.774C202.565 204.499 201.579 204.906 200.55 204.907ZM200.55 198.713C200.088 198.713 199.636 198.85 199.251 199.106C198.866 199.362 198.566 199.726 198.389 200.152C198.212 200.577 198.165 201.046 198.256 201.498C198.346 201.95 198.569 202.365 198.896 202.691C199.223 203.017 199.64 203.239 200.094 203.328C200.548 203.419 201.018 203.373 201.446 203.196C201.873 203.019 202.239 202.721 202.496 202.338C202.752 201.954 202.89 201.504 202.89 201.043C202.889 200.426 202.642 199.834 202.204 199.397C201.765 198.96 201.171 198.714 200.55 198.713Z" fill="#121212"/>
<path d="M209.188 172.066C208.702 172.066 208.228 171.922 207.824 171.654C207.42 171.385 207.105 171.004 206.92 170.557C206.734 170.11 206.685 169.619 206.779 169.144C206.874 168.67 207.108 168.234 207.452 167.892C207.795 167.55 208.233 167.317 208.709 167.223C209.185 167.128 209.678 167.177 210.127 167.362C210.576 167.547 210.959 167.861 211.229 168.263C211.499 168.664 211.643 169.137 211.643 169.621C211.642 170.27 211.383 170.891 210.923 171.349C210.463 171.807 209.839 172.065 209.188 172.066ZM209.188 168.709C209.007 168.709 208.83 168.763 208.68 168.864C208.529 168.964 208.412 169.106 208.342 169.273C208.273 169.439 208.255 169.622 208.29 169.798C208.326 169.975 208.412 170.138 208.54 170.266C208.668 170.393 208.832 170.479 209.009 170.515C209.187 170.549 209.371 170.532 209.537 170.463C209.705 170.394 209.848 170.277 209.948 170.128C210.049 169.978 210.103 169.801 210.103 169.621C210.102 169.379 210.006 169.147 209.835 168.977C209.663 168.806 209.431 168.71 209.188 168.709Z" fill="#121212"/>
<path d="M166.813 126.222C166.128 126.222 165.458 126.02 164.889 125.64C164.318 125.261 163.875 124.722 163.612 124.092C163.35 123.461 163.282 122.767 163.415 122.098C163.549 121.428 163.879 120.814 164.363 120.331C164.848 119.848 165.465 119.52 166.138 119.387C166.81 119.254 167.507 119.321 168.139 119.583C168.773 119.844 169.314 120.286 169.694 120.854C170.075 121.421 170.278 122.088 170.278 122.772C170.278 123.686 169.914 124.564 169.264 125.211C168.614 125.859 167.733 126.222 166.813 126.222ZM166.813 120.854C166.433 120.854 166.061 120.966 165.744 121.177C165.427 121.388 165.181 121.687 165.035 122.037C164.89 122.388 164.851 122.773 164.925 123.145C165 123.517 165.183 123.859 165.452 124.127C165.721 124.395 166.065 124.578 166.438 124.651C166.812 124.725 167.199 124.687 167.55 124.542C167.902 124.397 168.202 124.152 168.414 123.836C168.626 123.521 168.739 123.151 168.739 122.772C168.739 122.519 168.69 122.269 168.594 122.036C168.497 121.802 168.356 121.59 168.177 121.411C167.998 121.232 167.786 121.091 167.552 120.994C167.318 120.898 167.067 120.848 166.813 120.848V120.854Z" fill="#121212"/>
<path d="M204.545 110.369C203.954 110.368 203.367 110.282 202.801 110.113C200.674 109.486 198.985 107.801 198.158 105.488C196.7 105.906 195.078 105.646 193.418 104.676C191.273 103.421 189.93 101.792 189.173 100.097C188.325 100.47 187.062 100.608 185.58 99.458C182.756 97.2647 182.558 93.016 182.551 92.8361C182.543 92.6328 182.617 92.4344 182.756 92.2852C182.894 92.1359 183.087 92.0472 183.291 92.0391C183.495 92.0311 183.694 92.1045 183.844 92.2424C183.995 92.3812 184.083 92.5723 184.091 92.7764C184.091 92.8119 184.275 96.4976 186.529 98.2488C187.508 99.016 188.198 98.899 188.667 98.6473C188.285 97.1905 188.263 95.6635 188.602 94.1962C188.778 93.4653 189.306 91.7552 190.426 91.6834C191.219 91.6334 191.87 92.0932 192.165 92.9127C192.736 94.4938 191.993 97.5341 190.442 99.183C191.009 100.618 192.111 102.137 194.202 103.358C195.635 104.198 196.816 104.283 197.763 103.998C197.097 100.499 197.902 96.0636 199.615 94.7697C199.919 94.5212 200.298 94.3817 200.691 94.3728C201.083 94.3639 201.468 94.4866 201.782 94.7213C203.745 96.0725 203.295 100.068 201.585 102.736C201.069 103.573 200.381 104.291 199.566 104.843C199.575 104.868 199.582 104.891 199.591 104.915C200.243 106.793 201.574 108.153 203.243 108.646C204.506 109.018 205.83 108.832 206.697 108.16C206.776 108.098 206.868 108.052 206.966 108.025C207.063 107.998 207.165 107.99 207.265 108.002C207.367 108.015 207.464 108.047 207.552 108.097C207.64 108.147 207.717 108.213 207.78 108.293C207.842 108.373 207.887 108.464 207.914 108.561C207.942 108.658 207.948 108.76 207.936 108.86C207.923 108.961 207.891 109.057 207.84 109.144C207.79 109.232 207.723 109.309 207.643 109.37C206.75 110.037 205.66 110.388 204.545 110.369ZM200.724 95.9023C200.655 95.9103 200.591 95.9402 200.541 95.9878C199.557 96.7331 198.755 100.169 199.184 103.195C199.611 102.821 199.981 102.387 200.282 101.907C201.739 99.6371 201.866 96.642 200.902 95.9789C200.853 95.9386 200.793 95.9135 200.729 95.9071L200.724 95.9023ZM190.618 93.2451C190.321 93.6347 189.802 94.9746 189.914 96.7839C189.924 96.9364 189.939 97.0921 189.957 97.2534C190.694 95.9547 190.998 94.2179 190.712 93.4266C190.694 93.3629 190.664 93.3032 190.624 93.2499L190.618 93.2451Z" fill="#121212"/>
<path d="M44.3972 207.672C44.1567 207.674 43.9197 207.615 43.7093 207.499C43.237 207.233 42.9983 206.716 43.0548 206.08C43.1716 204.768 44.5448 202.677 46.5199 201.971C46.5128 201.407 46.4505 200.844 46.3338 200.292C45.8872 198.128 44.7552 196.645 43.3063 196.33C43.1137 196.287 42.9171 196.266 42.7199 196.266C42.6359 196.841 42.5071 197.408 42.3349 197.963C41.3081 201.297 39.9221 201.933 39.1854 202.017C38.845 202.055 38.501 201.99 38.1983 201.83C37.8955 201.671 37.6479 201.424 37.4876 201.122C36.9113 200.127 37.1179 198.706 38.0138 197.502C38.9711 196.216 40.0954 195.351 41.2722 194.963C41.293 193.415 40.8394 191.9 39.9722 190.617C38.9377 189.1 37.5132 188.234 36.6431 188.166C36.542 188.157 36.4435 188.129 36.3533 188.083C36.2631 188.037 36.1829 187.973 36.1174 187.895C36.0519 187.819 36.0022 187.729 35.9713 187.633C35.9404 187.537 35.9288 187.436 35.9372 187.335C35.9457 187.234 35.9739 187.136 36.0204 187.046C36.0669 186.957 36.1307 186.877 36.2081 186.811C36.2856 186.746 36.3752 186.697 36.4718 186.665C36.5685 186.635 36.6703 186.623 36.7715 186.631C38.2602 186.751 40.0607 188.003 41.2516 189.75C42.2511 191.224 42.7962 192.957 42.82 194.734C43.0963 194.742 43.3714 194.776 43.6413 194.836C45.6947 195.289 47.272 197.216 47.8443 199.989C47.9658 200.569 48.0366 201.158 48.0561 201.75C49.2612 201.826 50.9051 202.535 52.3246 205.271C52.417 205.452 52.4339 205.662 52.3717 205.854C52.3094 206.047 52.173 206.208 51.9922 206.301C51.8114 206.394 51.601 206.412 51.4069 206.351C51.2129 206.29 51.0509 206.155 50.9565 205.975C50.3148 204.748 49.3086 203.362 47.9649 203.279C47.6749 205.157 46.7612 206.474 45.8345 207.147C45.343 207.49 44.8438 207.672 44.3972 207.672ZM46.2619 203.825C45.3751 204.447 44.7373 205.45 44.6089 206.082C44.904 205.939 45.1645 205.735 45.3725 205.482C45.7835 204.998 46.0867 204.434 46.2619 203.825ZM41.0656 196.73C40.3492 197.161 39.7301 197.734 39.2471 198.414C38.6054 199.276 38.6387 200.048 38.8184 200.356C38.9018 200.5 38.9711 200.492 39.0084 200.484C39.3433 200.446 40.1633 199.774 40.859 197.505C40.9411 197.244 41.0091 196.984 41.0656 196.73Z" fill="#121212"/>
<path d="M65.6241 31.1308C65.3227 30.9771 65.0812 30.7274 64.9382 30.4215C64.3863 29.2711 65.1585 27.6276 66.8612 26.3326C67.7749 25.6378 68.8254 25.1431 69.9452 24.8815C70.0286 24.4149 70.0118 23.9364 69.895 23.4775C69.7776 23.0181 69.5637 22.5894 69.2663 22.2193C67.943 20.4955 65.1672 19.6788 64.3251 19.7218C64.2225 19.7289 64.1201 19.7159 64.0231 19.6834C63.9261 19.6509 63.8369 19.5996 63.7604 19.5323C63.6831 19.4648 63.6212 19.3831 63.5762 19.2912C63.532 19.1998 63.5057 19.0999 63.5003 18.9982C63.4949 18.8966 63.5096 18.7947 63.5439 18.6987C63.5783 18.6027 63.6322 18.5149 63.7006 18.4394C63.7698 18.3642 63.8534 18.3036 63.9461 18.2607C64.0387 18.2179 64.1398 18.1943 64.2416 18.1905C65.5401 18.1201 68.8297 19.1192 70.4925 21.2855C71.2564 22.2551 71.6224 23.4781 71.5159 24.7065C72.8519 24.7211 74.2383 25.1609 75.5151 26.2578C76.4881 27.0935 77.0954 27.9336 77.4197 28.7339C78.245 28.4601 79.1401 28.4791 79.953 28.7875C82.4643 29.7702 82.9249 32.4223 82.8164 33.6904C82.7941 33.8891 82.6949 34.0714 82.5395 34.1981C82.3848 34.3252 82.1855 34.3865 81.986 34.3698C81.7858 34.3527 81.6003 34.2585 81.4686 34.1071C81.3375 33.9561 81.2705 33.7597 81.2823 33.56C81.2908 33.4596 81.4562 31.0193 79.389 30.2151C78.8249 29.996 78.2432 30.0661 77.729 30.2533C77.7277 31.083 77.4487 31.8889 76.935 32.5422C76.1576 33.5453 74.7924 34.2671 73.9468 33.6877C73.7387 33.5453 73.111 32.9786 73.7762 31.7268C74.1579 31.0081 74.9825 30.0619 76.0324 29.3886C75.7859 28.7423 75.275 28.0799 74.5033 27.4161C74.0507 27.0139 73.5218 26.7041 72.9491 26.5053C72.3757 26.3062 71.7684 26.2216 71.1629 26.2566C70.0617 29.4137 67.952 31.2095 66.4985 31.299C66.1974 31.3211 65.8955 31.263 65.6241 31.1308ZM69.3373 26.6697C68.7841 26.8926 68.2637 27.1883 67.7894 27.5485C66.5978 28.4554 66.1653 29.4308 66.3226 29.7583C66.4916 29.7655 66.6593 29.7251 66.8063 29.6415C67.5949 29.2919 68.6041 28.2598 69.3431 26.6726L69.3373 26.6697Z" fill="#121212"/>
<path d="M62.7193 79.4374C62.5183 79.4372 62.3253 79.3587 62.1816 79.2187L52.043 69.3775L40.9507 78.2653C40.8376 78.3559 40.7009 78.4129 40.5567 78.4295C40.4123 78.4461 40.2663 78.4218 40.1353 78.3592C40.0043 78.2966 39.8938 78.1985 39.8164 78.076C39.7391 77.9536 39.6981 77.8118 39.6982 77.6671C39.6982 60.5536 46.5244 41.7043 46.5925 41.5164C46.6543 41.3472 46.7739 41.2051 46.9304 41.1149C47.087 41.0246 47.2704 40.9922 47.4485 41.0232C58.4688 42.9313 69.6187 44.1583 69.7291 44.1698C69.8431 44.1828 69.9528 44.2211 70.0501 44.2818C70.1474 44.3426 70.2298 44.4242 70.2914 44.5208C70.3529 44.6173 70.3919 44.7263 70.4057 44.8399C70.4194 44.9534 70.4074 45.0686 70.3708 45.1769C65.8635 58.5303 63.5021 78.5593 63.4829 78.7599C63.4666 78.9038 63.4098 79.0402 63.319 79.1533C63.2281 79.2664 63.107 79.3516 62.9695 79.399C62.8889 79.426 62.8043 79.439 62.7193 79.4374ZM52.0904 67.5869C52.2912 67.5867 52.4843 67.6647 52.6282 67.8042L62.1469 77.0447C62.7809 72.188 64.9703 56.8509 68.6164 45.5859C65.7545 45.2548 56.8209 44.18 47.8258 42.6463C46.7157 45.8645 41.6181 61.3779 41.2575 76.0517L51.6079 67.7581C51.7446 67.6483 51.9148 67.5884 52.0904 67.5881V67.5869Z" fill="#E8178A"/>
<path d="M112.47 83.07C112.368 83.07 112.267 83.0498 112.173 83.0111C112.079 82.9716 111.994 82.9143 111.923 82.8425L101.565 72.4377L90.0683 81.2679C89.9557 81.3542 89.8221 81.4074 89.6811 81.4228C89.5402 81.4381 89.3976 81.4147 89.2697 81.3542C89.1409 81.2937 89.0323 81.1993 88.9546 81.0815C88.8768 80.9635 88.8331 80.8263 88.8282 80.6852C88.4127 68.0321 91.4413 46.8465 91.4721 46.6344C91.4996 46.4419 91.6 46.2671 91.7523 46.1454C91.9046 46.0237 92.0974 45.9641 92.2926 45.9787C95.9433 46.251 114.985 47.0408 115.178 47.0485C115.29 47.0531 115.4 47.0825 115.501 47.1344C115.601 47.1865 115.689 47.2597 115.757 47.3491C115.826 47.4386 115.873 47.5419 115.898 47.6518C115.922 47.7618 115.921 47.8756 115.896 47.9853C112.957 60.894 113.237 82.0786 113.239 82.2916C113.242 82.4448 113.198 82.5949 113.114 82.7223C113.03 82.8506 112.91 82.9506 112.769 83.0103C112.674 83.049 112.572 83.0692 112.47 83.07ZM101.633 70.6497C101.734 70.6496 101.835 70.6695 101.928 70.7083C102.022 70.7472 102.107 70.8041 102.179 70.8758L111.691 80.4321C111.691 75.0565 111.92 59.3437 114.197 48.5438C110.566 48.3905 97.1842 47.8243 92.8928 47.5571C92.3971 51.1703 90.1979 67.8583 90.3259 79.1259L101.154 70.8094C101.291 70.7041 101.459 70.6478 101.633 70.6497Z" fill="#E8178A"/>
<path d="M138.708 82.5738C138.605 82.5738 138.502 82.5536 138.407 82.5133C138.311 82.4729 138.225 82.4141 138.153 82.3398C138.081 82.2656 138.025 82.1777 137.988 82.0809C137.952 81.9849 137.935 81.8817 137.938 81.7792C138.536 65.7773 135.73 48.3021 135.701 48.1269C135.683 48.0177 135.688 47.9057 135.717 47.7988C135.746 47.6918 135.798 47.5923 135.87 47.5073C135.941 47.4223 136.03 47.3537 136.131 47.3062C136.231 47.2587 136.341 47.2335 136.452 47.2323C142.178 47.1697 158.872 45.7369 159.039 45.7216C159.206 45.7073 159.372 45.7472 159.514 45.8355C159.656 45.9238 159.765 46.0557 159.825 46.2111C164.465 58.2852 163.547 80.0637 163.508 80.9853C163.501 81.1315 163.453 81.2726 163.369 81.3928C163.284 81.5122 163.167 81.6058 163.031 81.6614C162.895 81.7163 162.746 81.7324 162.601 81.7058C162.456 81.68 162.322 81.613 162.214 81.513L150.921 71.0622L139.242 82.3527C139.099 82.4931 138.908 82.5722 138.708 82.5738ZM137.355 48.7532C137.889 52.3408 139.822 66.3908 139.537 79.9386L150.383 69.4582C150.524 69.3215 150.713 69.244 150.911 69.2418C151.108 69.2397 151.299 69.3131 151.443 69.4467L162.026 79.242C162.142 73.929 162.188 57.2589 158.594 47.3039C155.723 47.5467 143.072 48.5947 137.355 48.7532Z" fill="#E8178A"/>
<path d="M190.242 77.779C190.161 77.7787 190.081 77.7662 190.004 77.742C189.865 77.6968 189.74 77.6126 189.647 77.4994C189.553 77.3861 189.495 77.2486 189.477 77.103C187.944 64.9982 180.674 44.6766 180.593 44.467C180.554 44.3578 180.54 44.241 180.552 44.1255C180.564 44.0101 180.603 43.8989 180.665 43.8005C180.726 43.702 180.81 43.6189 180.909 43.5572C181.007 43.4955 181.119 43.457 181.235 43.4445C191.675 42.2942 203.331 40.0371 203.448 40.0141C203.612 39.9823 203.781 40.0045 203.932 40.0774C204.082 40.1502 204.205 40.2698 204.28 40.418C210.802 53.1235 213.308 74.0751 213.334 74.2873C213.351 74.4339 213.326 74.5823 213.26 74.7147C213.195 74.8473 213.093 74.9582 212.966 75.0343C212.839 75.1104 212.693 75.1484 212.545 75.1438C212.396 75.1391 212.253 75.092 212.131 75.0081L200.581 67.084L190.808 77.5299C190.736 77.6081 190.649 77.6706 190.551 77.7135C190.454 77.7564 190.348 77.7788 190.242 77.779ZM182.366 44.8632C183.735 48.7869 189.087 64.5023 190.778 75.3136L199.905 65.5605C200.03 65.4261 200.2 65.3412 200.384 65.3212C200.567 65.3013 200.752 65.3477 200.904 65.4519L211.575 72.7664C210.849 67.6323 208.314 52.0077 203.167 41.6322C200.769 42.0821 191.275 43.8267 182.366 44.8619V44.8632Z" fill="#E8178A"/>
<path d="M99.1999 66.4462C99.1196 66.4657 99.0369 66.4719 98.9551 66.4646C98.8539 66.4563 98.7562 66.4282 98.6658 66.3822C98.5762 66.3359 98.4958 66.2727 98.4304 66.1959C98.3658 66.1188 98.3158 66.0299 98.2849 65.9339C98.254 65.838 98.2427 65.7369 98.2516 65.6363L99.1747 54.6868C99.1797 54.5844 99.2061 54.484 99.2511 54.3917C99.2962 54.2995 99.3595 54.2172 99.4372 54.1497C99.515 54.0822 99.6058 54.0309 99.7031 53.9991C99.8011 53.9671 99.9049 53.955 100.008 53.9635C100.11 53.9721 100.21 54.001 100.301 54.0489C100.393 54.0965 100.473 54.1622 100.539 54.2414C100.604 54.3208 100.653 54.4124 100.682 54.5109C100.711 54.6094 100.72 54.7128 100.709 54.8146L99.7866 65.7652C99.7732 65.9257 99.7094 66.0778 99.6041 66.2C99.4989 66.3223 99.3574 66.4084 99.1999 66.4462Z" fill="#121212"/>
<path d="M103.839 61.5237H103.791L100.62 61.3281C100.416 61.3156 100.225 61.2228 100.09 61.0701C99.9546 60.9175 99.8857 60.7174 99.8979 60.514C99.9108 60.3106 100.004 60.1206 100.157 59.9856C100.31 59.8506 100.511 59.7819 100.715 59.7944L103.885 59.99C103.987 59.993 104.086 60.0159 104.179 60.0572C104.27 60.0985 104.354 60.1575 104.423 60.2309C104.492 60.3042 104.546 60.3905 104.583 60.4846C104.619 60.5788 104.636 60.6792 104.632 60.7798C104.629 60.8806 104.606 60.9797 104.565 61.0715C104.524 61.1634 104.464 61.2463 104.39 61.3154C104.317 61.3844 104.231 61.4384 104.136 61.4741C104.041 61.5099 103.941 61.5267 103.839 61.5237Z" fill="#121212"/>
<path d="M104.476 66.6474C104.304 66.6009 104.155 66.4969 104.051 66.3526C103.948 66.2083 103.898 66.033 103.909 65.8561L104.633 54.8912C104.651 54.6919 104.747 54.5075 104.9 54.3774C105.053 54.2474 105.25 54.1819 105.45 54.195C105.652 54.2083 105.838 54.2989 105.973 54.4479C106.107 54.5968 106.178 54.792 106.169 54.9919L105.446 65.9571C105.439 66.0575 105.413 66.1559 105.368 66.2463C105.324 66.3367 105.261 66.4173 105.185 66.4838C105.109 66.55 105.02 66.6008 104.925 66.6333C104.829 66.6656 104.728 66.6788 104.626 66.672C104.575 66.6686 104.525 66.6605 104.476 66.6474Z" fill="#121212"/>
<path d="M149.61 64.8433C149.417 64.8441 149.231 64.7728 149.089 64.6436C148.946 64.5144 148.858 64.3367 148.84 64.1454L147.871 53.6395C147.861 53.5388 147.871 53.4371 147.9 53.3403C147.93 53.2435 147.979 53.1534 148.044 53.0754C148.109 52.9974 148.188 52.9328 148.278 52.8855C148.368 52.8383 148.467 52.8092 148.568 52.8C148.668 52.7908 148.77 52.8017 148.867 52.832C148.965 52.8622 149.055 52.9114 149.132 52.9765C149.21 53.0416 149.274 53.1213 149.321 53.2113C149.368 53.3011 149.396 53.3994 149.405 53.5002L150.373 64.0061C150.392 64.2087 150.33 64.4102 150.198 64.5665C150.068 64.7228 149.88 64.821 149.677 64.8395C149.655 64.8419 149.632 64.8431 149.61 64.8433Z" fill="#121212"/>
<path d="M95.6924 190.785L96.9617 214.112L146.319 214.173L148.577 190.565L143.078 172.266L105.569 171.508L95.6924 190.785Z" fill="#121212"/>
<path d="M146.318 214.939L96.9614 214.877C96.7637 214.877 96.5742 214.802 96.4308 214.668C96.2874 214.533 96.2016 214.348 96.1911 214.152L94.9218 190.825C94.9153 190.692 94.9445 190.56 95.0052 190.441L104.881 171.164C104.946 171.036 105.047 170.929 105.172 170.854C105.295 170.781 105.438 170.743 105.583 170.746L143.092 171.504C143.254 171.507 143.412 171.562 143.543 171.66C143.672 171.759 143.767 171.896 143.814 172.051L149.313 190.349C149.342 190.444 149.352 190.543 149.343 190.642L147.084 214.251C147.065 214.439 146.976 214.614 146.834 214.741C146.692 214.869 146.508 214.939 146.318 214.939ZM97.6912 213.345L145.619 213.404L147.8 190.639L142.5 173.019L106.034 172.282L96.4721 190.943L97.6912 213.345Z" fill="#121212"/>
<path d="M106.793 174.953C106.5 174.953 106.213 174.866 105.969 174.704C105.725 174.541 105.536 174.311 105.423 174.041C105.312 173.772 105.282 173.475 105.339 173.189C105.397 172.902 105.538 172.639 105.745 172.433C105.952 172.226 106.216 172.085 106.504 172.029C106.791 171.971 107.09 172 107.36 172.113C107.631 172.224 107.862 172.413 108.025 172.656C108.189 172.899 108.275 173.185 108.275 173.477C108.275 173.868 108.119 174.243 107.84 174.52C107.563 174.796 107.186 174.952 106.793 174.953ZM106.793 173.419C106.782 173.419 106.77 173.423 106.761 173.428C106.752 173.435 106.744 173.444 106.74 173.454C106.736 173.465 106.734 173.477 106.736 173.488C106.739 173.498 106.744 173.509 106.752 173.517C106.76 173.525 106.77 173.531 106.782 173.533C106.793 173.535 106.804 173.534 106.815 173.53C106.825 173.525 106.834 173.518 106.841 173.508C106.847 173.499 106.851 173.488 106.851 173.477C106.851 173.461 106.845 173.447 106.834 173.435C106.823 173.425 106.808 173.419 106.793 173.419Z" fill="#121212"/>
<path d="M140.91 175.663C140.617 175.663 140.33 175.577 140.087 175.415C139.843 175.252 139.652 175.022 139.541 174.752C139.428 174.482 139.399 174.185 139.456 173.899C139.513 173.613 139.655 173.35 139.862 173.143C140.07 172.937 140.334 172.796 140.621 172.739C140.909 172.683 141.207 172.712 141.477 172.823C141.748 172.935 141.98 173.124 142.142 173.367C142.305 173.609 142.393 173.895 142.393 174.187C142.392 174.578 142.236 174.953 141.958 175.23C141.68 175.507 141.303 175.662 140.91 175.663ZM140.91 174.13C140.899 174.13 140.888 174.133 140.878 174.139C140.868 174.146 140.861 174.155 140.857 174.165C140.852 174.176 140.851 174.187 140.854 174.198C140.855 174.21 140.861 174.219 140.869 174.227C140.877 174.235 140.888 174.241 140.899 174.243C140.91 174.246 140.922 174.244 140.932 174.24C140.943 174.235 140.952 174.228 140.958 174.219C140.965 174.21 140.968 174.198 140.968 174.187C140.968 174.172 140.961 174.157 140.951 174.147C140.94 174.135 140.926 174.13 140.91 174.13Z" fill="#121212"/>
<path d="M105.468 169.858C105.289 169.858 105.114 169.795 104.976 169.68C104.838 169.565 104.744 169.405 104.712 169.229L100.758 147.655C100.727 147.457 100.774 147.256 100.891 147.093C101.007 146.929 101.183 146.818 101.38 146.782C101.578 146.746 101.781 146.788 101.948 146.9C102.115 147.011 102.232 147.183 102.273 147.379L106.229 168.953C106.248 169.052 106.247 169.154 106.226 169.253C106.204 169.351 106.164 169.445 106.107 169.528C106.049 169.612 105.975 169.683 105.89 169.738C105.805 169.792 105.711 169.83 105.611 169.848C105.563 169.855 105.516 169.859 105.468 169.858Z" fill="#121212"/>
<path d="M141.211 170.388C141.182 170.39 141.153 170.39 141.124 170.388C140.921 170.365 140.736 170.263 140.609 170.104C140.482 169.945 140.423 169.743 140.445 169.541L142.862 148.291C142.886 148.09 142.988 147.907 143.147 147.781C143.305 147.655 143.508 147.596 143.709 147.618C143.911 147.64 144.097 147.74 144.225 147.897C144.353 148.054 144.413 148.255 144.393 148.456L141.975 169.705C141.954 169.893 141.865 170.066 141.724 170.191C141.583 170.317 141.401 170.388 141.211 170.388Z" fill="#121212"/>
</svg>
